<svg id="bookcase_main" data-name="bookcase main" xmlns="http://www.w3.org/2000/svg" viewBox="0 0 125.16 275.86"><defs><style>.cls-1,.cls-2{fill:none;stroke:#000;stroke-linecap:round;stroke-linejoin:round;}.cls-1{stroke-width:0.29px;}.cls-2{stroke-width:2.77px;}</style></defs><line class="cls-1" x1="45.73" y1="267.03" x2="46.32" y2="267.32"/><line class="cls-1" x1="82.06" y1="202.7" x2="121.3" y2="225.46"/><polyline class="cls-1" points="116.48 182.86 116.48 180.67 86.87 163.6"/><polyline class="cls-1" points="116.48 146.68 116.48 144.49 86.87 127.42"/><polyline class="cls-1" points="116.48 110.36 116.48 108.31 86.87 91.25"/><polyline class="cls-1" points="116.48 74.18 116.48 71.99 85.7 54.34"/><polyline class="cls-1" points="46.32 267.32 46.32 274.47 120.13 231.87"/><line class="cls-1" x1="45.73" y1="274.03" x2="46.32" y2="274.47"/><line class="cls-1" x1="120.13" y1="231.87" x2="120.13" y2="228.96"/><line class="cls-1" x1="45.73" y1="267.03" x2="45.73" y2="274.03"/><polyline class="cls-1" points="121.3 225.46 52.44 265.28 52.44 266.59 51.28 267.32 51.28 268.78"/><line class="cls-1" x1="121.3" y1="226.91" x2="121.3" y2="225.45"/><polyline class="cls-1" points="122.61 227.64 122.61 226.19 121.3 226.91"/><line class="cls-1" x1="45.73" y1="274.03" x2="1.39" y2="248.5"/><polyline class="cls-1" points="45.73 267.03 1.39 241.36 1.39 248.5"/><polyline class="cls-1" points="52.44 73.45 52.44 71.99 51.28 72.72 51.28 71.41 122.61 30.12"/><polyline class="cls-1" points="74.03 2.12 2.7 43.25 51.28 71.41"/><line class="cls-1" x1="121.3" y1="32.31" x2="121.3" y2="33.63"/><polyline class="cls-1" points="122.61 31.58 122.61 30.12 74.03 2.12"/><line class="cls-1" x1="121.3" y1="32.31" x2="122.61" y2="31.58"/><polyline class="cls-1" points="122.61 227.64 123.78 226.91 123.78 29.39 75.2 1.39 74.03 2.12"/><line class="cls-1" x1="122.61" y1="30.12" x2="123.78" y2="29.39"/><polyline class="cls-1" points="51.28 268.78 49.96 269.51 49.96 71.99"/><polyline class="cls-1" points="1.39 241.36 1.39 43.98 49.96 71.99"/><line class="cls-1" x1="2.7" y1="43.25" x2="1.39" y2="43.98"/><line class="cls-1" x1="51.28" y1="71.41" x2="49.96" y2="71.99"/><line class="cls-1" x1="52.44" y1="217.58" x2="116.48" y2="180.67"/><line class="cls-1" x1="52.44" y1="181.4" x2="116.48" y2="144.49"/><line class="cls-1" x1="52.44" y1="145.22" x2="116.48" y2="108.31"/><line class="cls-1" x1="52.44" y1="109.04" x2="116.48" y2="71.99"/><polyline class="cls-1" points="51.28 268.78 120.13 228.96 122.61 227.64"/><polyline class="cls-1" points="52.44 73.45 85.7 54.34 121.3 33.63"/><line class="cls-1" x1="52.44" y1="219.77" x2="116.48" y2="182.86"/><polyline class="cls-1" points="52.44 183.59 86.87 163.6 116.48 146.68"/><line class="cls-1" x1="52.44" y1="147.26" x2="116.48" y2="110.36"/><line class="cls-1" x1="52.44" y1="111.09" x2="116.48" y2="74.18"/><line class="cls-1" x1="121.3" y1="225.46" x2="121.3" y2="33.63"/><line class="cls-1" x1="52.44" y1="265.28" x2="52.44" y2="219.77"/><line class="cls-1" x1="49.96" y1="269.51" x2="46.32" y2="267.32"/><line class="cls-1" x1="52.44" y1="219.77" x2="52.44" y2="217.58"/><line class="cls-1" x1="52.44" y1="217.58" x2="52.44" y2="183.59"/><line class="cls-1" x1="52.44" y1="183.59" x2="52.44" y2="181.4"/><line class="cls-1" x1="52.44" y1="181.4" x2="52.44" y2="147.26"/><line class="cls-1" x1="52.44" y1="147.26" x2="52.44" y2="145.22"/><line class="cls-1" x1="52.44" y1="145.22" x2="52.44" y2="111.08"/><line class="cls-1" x1="52.44" y1="111.08" x2="52.44" y2="73.45"/><polygon class="cls-2" points="75.2 1.39 123.78 29.39 123.78 226.91 120.13 228.96 120.13 231.87 46.32 274.47 1.39 248.5 1.39 43.98 75.2 1.39"/></svg>