<svg id="chair_ex" data-name="chair ex" xmlns="http://www.w3.org/2000/svg" viewBox="0 0 356.75093 394.93282"><defs><style>.cls-1{fill:none;stroke:#000;stroke-linecap:round;stroke-linejoin:round;stroke-width:0.75px;}</style></defs><polyline class="cls-1" points="23.23 312.011 16.239 315.775 0.375 306.633"/><line class="cls-1" x1="7.36568" y1="114.38157" x2="23.22995" y2="123.52363"/><polyline class="cls-1" points="16.239 315.775 16.239 127.288 0.375 118.146 0.375 306.633"/><line class="cls-1" x1="23.22995" y1="123.52363" x2="16.23928" y2="127.28812"/><line class="cls-1" x1="0.375" y1="118.14592" x2="7.36622" y2="114.38157"/><line class="cls-1" x1="23.22995" y1="312.01066" x2="23.22995" y2="123.52363"/><line class="cls-1" x1="143.42045" y1="129.97684" x2="159.28472" y2="139.1189"/><line class="cls-1" x1="61.68003" y1="177.03138" x2="77.54431" y2="186.17344"/><line class="cls-1" x1="247.47807" y1="190.20666" x2="152.2935" y2="245.32777"/><line class="cls-1" x1="61.68003" y1="185.09782" x2="61.68003" y2="177.03138"/><line class="cls-1" x1="247.47807" y1="182.40896" x2="152.2935" y2="237.2612"/><line class="cls-1" x1="143.42045" y1="129.9767" x2="61.68003" y2="177.03124"/><polyline class="cls-1" points="61.68 185.098 70.822 190.207 152.294 237.261"/><polyline class="cls-1" points="70.822 190.207 70.822 198.004 152.294 245.328 152.294 237.261"/><line class="cls-1" x1="77.54431" y1="186.1733" x2="70.82223" y2="190.20666"/><line class="cls-1" x1="247.47861" y1="182.40896" x2="247.47861" y2="190.20666"/><line class="cls-1" x1="159.28472" y1="139.11877" x2="166.0068" y2="135.35442"/><line class="cls-1" x1="204.45688" y1="0.37514" x2="220.32116" y2="9.5172"/><polyline class="cls-1" points="213.599 162.78 213.599 13.55 197.735 4.408 197.735 153.639"/><line class="cls-1" x1="220.32116" y1="9.51706" x2="213.59908" y2="13.55042"/><line class="cls-1" x1="197.73481" y1="4.40822" x2="204.45688" y2="0.375"/><line class="cls-1" x1="220.32116" y1="166.54468" x2="220.32116" y2="9.51706"/><polyline class="cls-1" points="356.376 276.518 349.654 280.551 333.79 271.409"/><line class="cls-1" x1="340.51165" y1="181.06446" x2="356.37593" y2="190.20652"/><polyline class="cls-1" points="349.654 280.551 349.654 194.24 333.79 185.098 333.79 271.409"/><line class="cls-1" x1="356.37593" y1="190.20652" x2="349.65385" y2="194.23988"/><line class="cls-1" x1="333.78958" y1="185.09768" x2="340.51165" y2="181.06446"/><line class="cls-1" x1="356.37593" y1="276.5179" x2="356.37593" y2="190.20652"/><polyline class="cls-1" points="159.285 52.807 159.285 45.01 143.421 35.867"/><line class="cls-1" x1="61.69426" y1="82.92216" x2="77.55853" y2="92.06423"/><polyline class="cls-1" points="159.299 52.807 77.559 99.862 61.695 90.72"/><line class="cls-1" x1="77.55853" y1="92.06423" x2="77.55853" y2="99.86193"/><line class="cls-1" x1="61.69426" y1="90.71987" x2="61.69426" y2="82.9223"/><line class="cls-1" x1="159.29895" y1="45.00969" x2="77.55853" y2="92.06423"/><line class="cls-1" x1="143.43467" y1="35.86763" x2="61.69426" y2="82.92216"/><polyline class="cls-1" points="159.299 390.524 152.308 394.558 136.444 385.147"/><line class="cls-1" x1="143.43467" y1="295.07103" x2="159.29895" y2="304.21309"/><polyline class="cls-1" points="152.308 394.558 152.308 307.978 136.444 298.836 136.444 385.147"/><line class="cls-1" x1="159.29895" y1="304.21309" x2="152.30827" y2="307.97758"/><line class="cls-1" x1="136.44399" y1="298.83538" x2="143.43522" y2="295.07103"/><line class="cls-1" x1="159.29895" y1="390.52447" x2="159.29895" y2="304.21309"/><line class="cls-1" x1="290.51402" y1="286.73559" x2="290.51402" y2="287.81121"/><line class="cls-1" x1="208.77361" y1="333.79012" x2="209.04275" y2="334.86575"/><line class="cls-1" x1="288.63164" y1="283.50898" x2="289.16993" y2="284.31574"/><line class="cls-1" x1="202.58927" y1="330.29465" x2="202.85842" y2="329.7569"/><line class="cls-1" x1="290.78316" y1="288.8867" x2="290.51457" y2="289.69345"/><line class="cls-1" x1="209.04275" y1="335.94124" x2="208.77415" y2="336.74799"/><line class="cls-1" x1="206.08489" y1="337.82348" x2="205.27854" y2="337.28573"/><polyline class="cls-1" points="289.17 284.316 289.977 285.391 290.515 286.736"/><line class="cls-1" x1="290.51457" y1="287.81121" x2="290.78371" y2="288.88684"/><polyline class="cls-1" points="290.515 289.693 289.977 290.231 289.439 290.769"/><polyline class="cls-1" points="285.137 282.165 286.751 282.165 287.557 282.703 288.633 283.509"/><line class="cls-1" x1="209.0433" y1="334.86589" x2="209.0433" y2="335.94151"/><polyline class="cls-1" points="207.161 338.092 207.699 337.824 208.506 337.555"/><line class="cls-1" x1="202.85897" y1="329.75718" x2="203.39726" y2="329.21943"/><line class="cls-1" x1="207.69867" y1="331.63942" x2="208.23696" y2="332.71505"/><line class="cls-1" x1="208.77415" y1="336.74826" x2="208.50556" y2="337.55502"/><polyline class="cls-1" points="207.699 331.639 206.892 330.564 206.085 329.757 205.01 329.488 204.204 329.22 203.397 329.22"/><polyline class="cls-1" points="202.59 330.295 202.321 331.102 202.321 332.177 202.59 333.253 203.128 334.597 203.666 335.673 204.472 336.479 205.279 337.286"/><line class="cls-1" x1="207.16092" y1="338.09262" x2="206.08543" y2="337.82375"/><line class="cls-1" x1="208.23641" y1="332.71491" x2="208.7747" y2="333.79053"/><line class="cls-1" x1="289.43908" y1="290.76921" x2="207.69867" y2="337.82375"/><line class="cls-1" x1="285.13712" y1="282.1649" x2="203.39671" y2="329.21943"/><polyline class="cls-1" points="166.026 135.359 213.619 162.785 220.341 166.549 247.498 182.413"/></svg>