<svg id="desk_ex" data-name="desk ex" xmlns="http://www.w3.org/2000/svg" viewBox="0 0 292.64577 394.32125"><defs><style>.cls-1{fill:none;stroke:#000;stroke-linecap:round;stroke-linejoin:round;stroke-width:0.75px;}</style></defs><polyline class="cls-1" points="214.905 205.855 214.372 201.242 203.903 195.209"/><polyline class="cls-1" points="77.918 259.798 78.45 255.717 99.034 267.783 99.566 272.397"/><line class="cls-1" x1="100.09832" y1="243.29602" x2="78.4503" y2="255.71732"/><line class="cls-1" x1="214.37236" y1="201.24185" x2="99.0337" y2="267.78339"/><polyline class="cls-1" points="214.905 205.856 99.566 272.397 77.918 259.799"/><polyline class="cls-1" points="59.286 298.304 58.754 291.029 37.993 279.14 37.461 285.706"/><polyline class="cls-1" points="63.19 288.367 42.429 276.479 37.993 279.14"/><line class="cls-1" x1="58.7539" y1="291.02889" x2="63.19" y2="288.36752"/><polyline class="cls-1" points="37.461 285.705 30.363 369.814 24.33 366.265 24.33 271.332 37.993 279.14"/><polyline class="cls-1" points="72.24 298.836 72.24 393.946 66.384 390.398"/><line class="cls-1" x1="58.7539" y1="291.02853" x2="72.23983" y2="298.83611"/><line class="cls-1" x1="66.38405" y1="390.39715" x2="59.28639" y2="298.30398"/><line class="cls-1" x1="34.79902" y1="367.15202" x2="41.54198" y2="288.01228"/><line class="cls-1" x1="28.94342" y1="268.6704" x2="42.42935" y2="276.47798"/><line class="cls-1" x1="30.36292" y1="369.81339" x2="34.79902" y2="367.15202"/><line class="cls-1" x1="24.32988" y1="271.33177" x2="28.9436" y2="268.6704"/><polyline class="cls-1" points="63.19 288.366 76.854 296.352 76.854 391.284"/><line class="cls-1" x1="72.23983" y1="298.83575" x2="76.85355" y2="296.35163"/><line class="cls-1" x1="72.23983" y1="393.94589" x2="76.85355" y2="391.28452"/><polygon class="cls-1" points="72.24 271.332 72.24 250.571 36.396 209.049 0.375 188.288 0.375 229.81 72.24 271.332"/><line class="cls-1" x1="74.54669" y1="269.91264" x2="74.54669" y2="249.15198"/><polyline class="cls-1" points="2.682 187.046 38.703 207.807 74.547 249.152"/><line class="cls-1" x1="36.39631" y1="209.04908" x2="38.70317" y2="207.8072"/><line class="cls-1" x1="0.37518" y1="188.28806" x2="2.68204" y2="187.04618"/><line class="cls-1" x1="72.24001" y1="250.57111" x2="74.54687" y2="249.15162"/><line class="cls-1" x1="74.54687" y1="269.91264" x2="72.24019" y2="271.33249"/><polyline class="cls-1" points="111.633 85.371 147.476 105.954 147.476 139.669"/><polygon class="cls-1" points="109.326 120.327 109.326 86.613 145.17 107.374 145.17 141.088 109.326 120.327"/><line class="cls-1" x1="147.47631" y1="105.9541" x2="145.16963" y2="107.37395"/><line class="cls-1" x1="147.47631" y1="139.66855" x2="145.16963" y2="141.0884"/><polyline class="cls-1" points="74.547 104.18 218.099 21.136 182.256 0.375 38.703 83.419 74.547 104.18 74.547 106.664"/><line class="cls-1" x1="218.09908" y1="21.13602" x2="218.09908" y2="23.79775"/><polyline class="cls-1" points="74.547 106.664 38.703 85.904 38.703 83.419"/><polyline class="cls-1" points="292.271 144.282 292.271 123.522 256.25 82 220.406 61.416"/><polygon class="cls-1" points="289.964 124.763 289.964 145.525 218.099 104.18 218.099 62.658 254.12 83.419 289.964 124.763"/><line class="cls-1" x1="256.24945" y1="81.99958" x2="254.12021" y2="83.41943"/><line class="cls-1" x1="220.40576" y1="61.41618" x2="218.09908" y2="62.65841"/><line class="cls-1" x1="292.27059" y1="123.52161" x2="289.96391" y2="124.76385"/><line class="cls-1" x1="289.96373" y1="145.52451" x2="292.27059" y2="144.28263"/><line class="cls-1" x1="244.36064" y1="171.96351" x2="254.65252" y2="177.81946"/><line class="cls-1" x1="250.74855" y1="187.75593" x2="233.8915" y2="177.99672"/><polyline class="cls-1" points="239.925 174.448 250.216 180.481 250.749 187.756"/><line class="cls-1" x1="254.65234" y1="177.8191" x2="250.21624" y2="180.48084"/><line class="cls-1" x1="226.43879" y1="256.60433" x2="233.00432" y2="178.52921"/><polyline class="cls-1" points="268.316 280.737 268.316 185.804 254.652 177.819"/><polyline class="cls-1" points="228.568 181.013 221.825 259.089 215.97 255.717 215.97 188.289"/><line class="cls-1" x1="226.43879" y1="256.60469" x2="221.82525" y2="259.08917"/><line class="cls-1" x1="257.84639" y1="279.84982" x2="250.74873" y2="187.75665"/><polyline class="cls-1" points="250.216 180.481 263.88 188.289 263.88 283.399 257.846 279.85"/><line class="cls-1" x1="268.31552" y1="185.80467" x2="263.87942" y2="188.28914"/><line class="cls-1" x1="268.31552" y1="280.73719" x2="263.87942" y2="283.39892"/><polyline class="cls-1" points="38.703 202.662 110.39 244.006 254.12 161.14 182.255 119.618"/><line class="cls-1" x1="38.70281" y1="202.66171" x2="38.70281" y2="207.80792"/><line class="cls-1" x1="110.3902" y1="244.00613" x2="110.3902" y2="249.15234"/><line class="cls-1" x1="254.11985" y1="161.13967" x2="254.11985" y2="166.28589"/><polyline class="cls-1" points="59.289 298.304 41.545 288.013 37.464 285.706"/><line class="cls-1" x1="111.63533" y1="85.37142" x2="218.10179" y2="23.79847"/><line class="cls-1" x1="38.70588" y1="202.66207" x2="145.17234" y2="141.08913"/><polyline class="cls-1" points="110.393 249.152 100.102 243.297 38.706 207.808"/><line class="cls-1" x1="203.9063" y1="195.20936" x2="110.39327" y2="249.1527"/><polyline class="cls-1" points="74.547 106.664 109.326 86.613 111.633 85.371"/><line class="cls-1" x1="147.47631" y1="139.66855" x2="182.25539" y2="119.61764"/><line class="cls-1" x1="215.96966" y1="188.28806" x2="203.90359" y2="195.20864"/><line class="cls-1" x1="254.11985" y1="166.28516" x2="244.36046" y2="171.96351"/><polyline class="cls-1" points="244.361 171.962 239.925 174.447 233.892 177.996 233.004 178.528"/><polyline class="cls-1" points="233.004 178.527 228.568 181.012 215.97 188.287"/></svg>