<svg id="dresser_ex" data-name="dresser ex" xmlns="http://www.w3.org/2000/svg" viewBox="0 0 376.05097 356.3348"><defs><style>.cls-1{fill:none;stroke:#000;stroke-linecap:round;stroke-linejoin:round;stroke-width:0.75px;}</style></defs><polyline class="cls-1" points="285.604 192.65 285.604 200.383 221.462 237.382"/><line class="cls-1" x1="199.92694" y1="269.68041" x2="250.42191" y2="298.79452"/><line class="cls-1" x1="221.45927" y1="271.04507" x2="228.28306" y2="267.10255"/><line class="cls-1" x1="199.92694" y1="303.19178" x2="250.42191" y2="332.45752"/><line class="cls-1" x1="221.45927" y1="304.55645" x2="228.28306" y2="300.61392"/><line class="cls-1" x1="285.6012" y1="131.38836" x2="337.30921" y2="161.26062"/><line class="cls-1" x1="255.57731" y1="209.93573" x2="255.57731" y2="208.57106"/><polyline class="cls-1" points="67.55 282.872 66.336 283.479 66.336 149.129"/><line class="cls-1" x1="67.54953" y1="281.35573" x2="68.76287" y2="280.59758"/><polyline class="cls-1" points="0.375 245.57 0.375 111.221 66.337 149.129"/><line class="cls-1" x1="1.73982" y1="110.46224" x2="0.37531" y2="111.22055"/><polygon class="cls-1" points="68.763 149.129 67.55 149.888 67.55 148.523 68.763 149.129"/><line class="cls-1" x1="67.54984" y1="148.52281" x2="66.3368" y2="149.12949"/><line class="cls-1" x1="91.20498" y1="128.20368" x2="91.20498" y2="157.62105"/><polyline class="cls-1" points="4.318 111.979 4.318 76.496 2.953 75.738 2.953 111.221"/><line class="cls-1" x1="4.31768" y1="76.49598" x2="33.73505" y2="59.51285"/><line class="cls-1" x1="91.20498" y1="157.62105" x2="68.76318" y2="170.66181"/><line class="cls-1" x1="2.95286" y1="75.73768" x2="32.37023" y2="58.75455"/><line class="cls-1" x1="219.64033" y1="194.92332" x2="218.42729" y2="195.68162"/><line class="cls-1" x1="219.64033" y1="60.57411" x2="219.64033" y2="111.22055"/><line class="cls-1" x1="219.64033" y1="136.84687" x2="219.64033" y2="167.32581"/><line class="cls-1" x1="219.64033" y1="192.95213" x2="219.64033" y2="194.92347"/><line class="cls-1" x1="217.21426" y1="194.92347" x2="217.21426" y2="191.58762"/><line class="cls-1" x1="217.21426" y1="165.96099" x2="217.21426" y2="138.36332"/><line class="cls-1" x1="217.21426" y1="112.73684" x2="217.21426" y2="63.60701"/><polyline class="cls-1" points="218.427 195.682 218.427 194.165 217.214 194.923"/><line class="cls-1" x1="151.25276" y1="157.01453" x2="151.25276" y2="103.03224"/><line class="cls-1" x1="219.64064" y1="60.57426" x2="191.58808" y2="44.34928"/><polyline class="cls-1" points="218.428 195.682 217.215 194.924 151.253 157.015"/><polyline class="cls-1" points="217.215 63.607 218.428 62.849 218.428 61.333"/><line class="cls-1" x1="187.79719" y1="46.62387" x2="217.21456" y2="63.60716"/><line class="cls-1" x1="189.01023" y1="45.86573" x2="218.4276" y2="62.84901"/><polyline class="cls-1" points="190.375 45.108 218.428 61.333 219.641 60.575"/><polyline class="cls-1" points="99.545 132.905 99.545 131.54 98.181 132.147 98.181 130.782 187.797 79.074"/><polyline class="cls-1" points="61.788 75.738 32.371 92.721 32.371 94.238"/><line class="cls-1" x1="32.37085" y1="92.72112" x2="98.18087" y2="130.78184"/><line class="cls-1" x1="99.54538" y1="132.90466" x2="98.18087" y2="132.14651"/><line class="cls-1" x1="186.43268" y1="81.34844" x2="186.43268" y2="82.71326"/><polyline class="cls-1" points="187.797 80.59 187.797 79.074 159.593 62.849"/><line class="cls-1" x1="186.43268" y1="81.34844" x2="187.7975" y2="80.59029"/><polyline class="cls-1" points="94.39 305.011 92.419 306.073 31.158 270.59"/><polyline class="cls-1" points="94.39 297.581 92.419 298.643 66.337 283.479"/><line class="cls-1" x1="92.41832" y1="306.07259" x2="92.41832" y2="298.64258"/><line class="cls-1" x1="94.38966" y1="305.01118" x2="94.38966" y2="297.58118"/><line class="cls-1" x1="31.1575" y1="270.58988" x2="31.1575" y2="263.3115"/><line class="cls-1" x1="68.76318" y1="251.02889" x2="71.34104" y2="249.66422"/><line class="cls-1" x1="182.64178" y1="254.06163" x2="184.61312" y2="252.8486"/><line class="cls-1" x1="174.30169" y1="249.20933" x2="150.04003" y2="235.25895"/><polyline class="cls-1" points="182.642 246.631 184.613 245.57 158.38 230.406"/><line class="cls-1" x1="182.64178" y1="254.06163" x2="182.64178" y2="246.63163"/><line class="cls-1" x1="184.61312" y1="252.8486" x2="184.61312" y2="245.57022"/><line class="cls-1" x1="94.38997" y1="297.58118" x2="92.41894" y2="296.51977"/><polyline class="cls-1" points="180.671 245.57 182.642 246.632 94.39 297.581"/><line class="cls-1" x1="94.38997" y1="305.01133" x2="182.64209" y2="254.06179"/><polyline class="cls-1" points="123.807 316.839 123.807 324.117 199.929 280.295"/><line class="cls-1" x1="123.20083" y1="323.81417" x2="123.80765" y2="324.11759"/><polyline class="cls-1" points="198.564 272.865 123.201 316.384 123.807 316.839 198.564 273.623"/><line class="cls-1" x1="123.20083" y1="316.38402" x2="123.20083" y2="323.81417"/><polyline class="cls-1" points="186.433 211.149 99.546 261.34 99.546 262.857 98.181 263.615 98.181 265.131"/><line class="cls-1" x1="186.43299" y1="211.14876" x2="121.83631" y2="173.99813"/><line class="cls-1" x1="98.18087" y1="263.61476" x2="68.7638" y2="246.63163"/><line class="cls-1" x1="99.54569" y1="261.34016" x2="68.7638" y2="243.75051"/><line class="cls-1" x1="99.54569" y1="262.85646" x2="68.7638" y2="245.11518"/><line class="cls-1" x1="186.43299" y1="212.66506" x2="186.43299" y2="211.14876"/><polyline class="cls-1" points="187.798 213.423 187.798 211.907 186.433 212.665"/><line class="cls-1" x1="191.5887" y1="39.95186" x2="123.20114" y2="0.375"/><polyline class="cls-1" points="31.158 53.599 99.546 93.025 191.589 39.952"/><polyline class="cls-1" points="123.201 0.375 31.158 53.599 31.158 57.997"/><line class="cls-1" x1="99.54599" y1="97.57358" x2="99.54599" y2="93.02453"/><line class="cls-1" x1="191.58901" y1="44.34943" x2="191.58901" y2="39.95202"/><line class="cls-1" x1="303.34449" y1="190.22296" x2="296.521" y2="186.28043"/><line class="cls-1" x1="305.31583" y1="189.16155" x2="298.49234" y2="185.21902"/><line class="cls-1" x1="201.74865" y1="226.00908" x2="199.9291" y2="227.22227"/><line class="cls-1" x1="199.9291" y1="250.574" x2="199.9291" y2="242.08243"/><polyline class="cls-1" points="199.929 236.017 199.929 227.222 250.424 256.336"/><line class="cls-1" x1="239.35433" y1="204.32512" x2="221.30995" y2="214.78803"/><polyline class="cls-1" points="216.002 217.821 201.749 226.009 203.72 227.222"/><line class="cls-1" x1="241.32567" y1="205.53831" x2="222.97803" y2="216.15285"/><line class="cls-1" x1="217.97379" y1="219.03396" x2="203.7203" y2="227.22243"/><polyline class="cls-1" points="198.564 237.382 198.564 236.775 199.929 236.017"/><polyline class="cls-1" points="198.564 241.476 198.564 238.898 199.626 238.292 199.626 237.989"/><line class="cls-1" x1="198.56428" y1="238.89821" x2="250.42376" y2="268.77047"/><line class="cls-1" x1="199.62584" y1="238.29169" x2="250.42407" y2="267.55744"/><line class="cls-1" x1="199.9291" y1="236.0171" x2="250.42407" y2="265.28284"/><line class="cls-1" x1="198.56428" y1="236.77524" x2="250.42376" y2="266.64751"/><polyline class="cls-1" points="201.749 259.672 199.929 260.734 199.929 269.68"/><line class="cls-1" x1="250.42376" y1="289.84776" x2="199.9291" y2="260.7338"/><polyline class="cls-1" points="208.724 255.73 201.749 259.672 203.72 260.734 210.544 256.791"/><polyline class="cls-1" points="198.564 270.893 198.564 270.438 199.929 269.68"/><polyline class="cls-1" points="198.564 272.41 199.626 271.803 199.626 271.5"/><line class="cls-1" x1="198.56428" y1="272.40958" x2="250.42376" y2="302.28185"/><line class="cls-1" x1="199.62584" y1="271.80307" x2="250.42407" y2="301.22044"/><line class="cls-1" x1="198.56428" y1="270.4384" x2="250.42376" y2="300.31066"/><line class="cls-1" x1="201.74865" y1="293.18376" x2="199.9291" y2="294.39695"/><line class="cls-1" x1="199.9291" y1="317.74868" x2="199.9291" y2="309.40875"/><polyline class="cls-1" points="199.929 303.192 199.929 294.397 250.424 323.511"/><line class="cls-1" x1="250.42376" y1="347.01443" x2="199.9291" y2="317.74884"/><polyline class="cls-1" points="208.724 289.241 201.749 293.184 203.72 294.397 210.544 290.454"/><polyline class="cls-1" points="198.564 304.556 198.564 303.95 199.929 303.192"/><polyline class="cls-1" points="198.564 308.651 198.564 306.073 199.626 305.466 199.626 305.163"/><line class="cls-1" x1="198.56428" y1="306.07274" x2="250.42376" y2="335.945"/><line class="cls-1" x1="199.62584" y1="305.46622" x2="250.42407" y2="334.73197"/><line class="cls-1" x1="198.56428" y1="303.94993" x2="250.42376" y2="333.82219"/><line class="cls-1" x1="303.79953" y1="233.13598" x2="304.1031" y2="233.59102"/><line class="cls-1" x1="301.82819" y1="231.92294" x2="302.28324" y2="232.07473"/><polyline class="cls-1" points="303.193 232.681 303.497 232.833 302.283 232.075"/><line class="cls-1" x1="303.49627" y1="232.83272" x2="303.79984" y2="233.13613"/><line class="cls-1" x1="299.55359" y1="233.7425" x2="300.00864" y2="233.13598"/><line class="cls-1" x1="299.09855" y1="234.95553" x2="299.25034" y2="234.34902"/><line class="cls-1" x1="299.25034" y1="236.47183" x2="299.09886" y2="236.16857"/><line class="cls-1" x1="299.25034" y1="234.34886" x2="299.5539" y2="233.74234"/><line class="cls-1" x1="300.91841" y1="232.22589" x2="300.00864" y2="233.13582"/><line class="cls-1" x1="301.37346" y1="232.07426" x2="301.8285" y2="231.92263"/><line class="cls-1" x1="299.5539" y1="236.77493" x2="299.25064" y2="236.47168"/><line class="cls-1" x1="298.94738" y1="235.5619" x2="299.09917" y2="234.95538"/><line class="cls-1" x1="304.1031" y1="234.65212" x2="304.1031" y2="233.59071"/><line class="cls-1" x1="303.79984" y1="235.41027" x2="303.49658" y2="236.01694"/><line class="cls-1" x1="302.73828" y1="237.07819" x2="302.13176" y2="237.38161"/><line class="cls-1" x1="301.67672" y1="237.68471" x2="301.22198" y2="237.68471"/><polyline class="cls-1" points="299.554 236.775 300.767 237.533 300.464 237.23"/><line class="cls-1" x1="303.19301" y1="236.62331" x2="302.73828" y2="237.07835"/><line class="cls-1" x1="302.13145" y1="237.38145" x2="301.67672" y2="237.68487"/><line class="cls-1" x1="303.49627" y1="236.01679" x2="303.19301" y2="236.62346"/><line class="cls-1" x1="300.46368" y1="237.22982" x2="300.31221" y2="236.77493"/><line class="cls-1" x1="301.22198" y1="237.68471" x2="300.76725" y2="237.53308"/><line class="cls-1" x1="300.31221" y1="236.77493" x2="300.31221" y2="236.32005"/><line class="cls-1" x1="304.1031" y1="234.65197" x2="303.79984" y2="235.41027"/><polyline class="cls-1" points="300.767 234.349 300.464 235.107 300.313 235.714 300.313 236.32"/><line class="cls-1" x1="302.73859" y1="232.83241" x2="303.19363" y2="232.68078"/><line class="cls-1" x1="301.22229" y1="233.89382" x2="301.67733" y2="233.2873"/><line class="cls-1" x1="302.13207" y1="232.98404" x2="302.7389" y2="232.83241"/><line class="cls-1" x1="300.76725" y1="234.34871" x2="301.22229" y2="233.89382"/><line class="cls-1" x1="301.67703" y1="233.2873" x2="302.13207" y2="232.98404"/><line class="cls-1" x1="300.46399" y1="231.61937" x2="300.76756" y2="231.77116"/><path class="cls-1" d="M311.38049,259.00131l-.30326-.30326a2.953,2.953,0,0,1,1.81987-3.63926l.45473-.15163" transform="translate(-12.88784 -23.28778)"/><line class="cls-1" x1="301.37377" y1="232.07426" x2="300.76725" y2="231.771"/><line class="cls-1" x1="299.09917" y1="236.01679" x2="298.49265" y2="235.71353"/><line class="cls-1" x1="334.58203" y1="181.88287" x2="334.73382" y2="182.18628"/><line class="cls-1" x1="332.6107" y1="180.66983" x2="332.91426" y2="180.82161"/><polyline class="cls-1" points="333.824 181.428 334.279 181.58 332.914 180.821"/><line class="cls-1" x1="334.27878" y1="181.57961" x2="334.58234" y2="181.88302"/><line class="cls-1" x1="330.18462" y1="182.33775" x2="330.63966" y2="181.73124"/><line class="cls-1" x1="329.72958" y1="183.70242" x2="329.88136" y2="182.94427"/><line class="cls-1" x1="329.88136" y1="185.21872" x2="329.72989" y2="184.76383"/><line class="cls-1" x1="329.88136" y1="182.94412" x2="330.18493" y2="182.3376"/><polyline class="cls-1" points="331.549 180.973 331.095 181.276 330.64 181.731"/><line class="cls-1" x1="332.15596" y1="180.66952" x2="332.611" y2="180.66952"/><line class="cls-1" x1="330.18462" y1="185.52182" x2="329.88136" y2="185.21856"/><line class="cls-1" x1="329.72958" y1="184.30878" x2="329.72958" y2="183.70227"/><line class="cls-1" x1="334.73351" y1="183.39901" x2="334.73351" y2="182.18597"/><line class="cls-1" x1="334.58173" y1="184.00553" x2="334.27847" y2="184.6122"/><line class="cls-1" x1="333.36869" y1="185.67345" x2="332.91395" y2="186.12849"/><line class="cls-1" x1="332.30713" y1="186.27997" x2="331.85239" y2="186.43175"/><polyline class="cls-1" points="330.184 185.522 331.549 186.28 331.246 185.977"/><line class="cls-1" x1="333.82342" y1="185.21856" x2="333.36869" y2="185.6736"/><line class="cls-1" x1="332.91365" y1="186.12834" x2="332.30713" y2="186.28012"/><line class="cls-1" x1="334.27847" y1="184.61204" x2="333.82373" y2="185.21872"/><line class="cls-1" x1="331.24587" y1="185.97671" x2="331.0944" y2="185.52182"/><line class="cls-1" x1="331.85239" y1="186.4316" x2="331.54913" y2="186.27997"/><line class="cls-1" x1="331.09409" y1="185.52182" x2="330.94262" y2="185.06693"/><line class="cls-1" x1="334.7332" y1="183.39885" x2="334.58173" y2="184.00553"/><polyline class="cls-1" points="331.549 183.096 331.246 183.702 331.094 184.46 330.942 185.067"/><line class="cls-1" x1="333.36838" y1="181.42767" x2="333.82342" y2="181.42767"/><line class="cls-1" x1="331.85208" y1="182.48907" x2="332.30713" y2="182.03419"/><line class="cls-1" x1="332.91365" y1="181.73093" x2="333.36869" y2="181.42767"/><line class="cls-1" x1="331.54883" y1="183.09559" x2="331.85239" y2="182.48907"/><line class="cls-1" x1="332.30713" y1="182.03419" x2="332.91395" y2="181.73093"/><line class="cls-1" x1="331.09409" y1="180.36626" x2="331.39766" y2="180.51804"/><path class="cls-1" d="M342.01059,207.59657l-.15147-.15163c-.80365-1.11447.53587-3.58358,1.81955-3.7909h.30326" transform="translate(-12.88784 -23.28778)"/><line class="cls-1" x1="332.00387" y1="180.82115" x2="331.39735" y2="180.51789"/><line class="cls-1" x1="329.72927" y1="184.61204" x2="329.12275" y2="184.30878"/><line class="cls-1" x1="303.79953" y1="266.64704" x2="304.1031" y2="267.10209"/><line class="cls-1" x1="301.82819" y1="265.58564" x2="302.28324" y2="265.73742"/><polyline class="cls-1" points="303.193 266.344 303.497 266.496 302.283 265.737"/><line class="cls-1" x1="303.49627" y1="266.49541" x2="303.79984" y2="266.6472"/><line class="cls-1" x1="299.55359" y1="267.25356" x2="300.00864" y2="266.64704"/><line class="cls-1" x1="299.09855" y1="268.61823" x2="299.25034" y2="267.86008"/><line class="cls-1" x1="299.25034" y1="270.13452" x2="299.09886" y2="269.67964"/><line class="cls-1" x1="299.25034" y1="267.85993" x2="299.5539" y2="267.25341"/><polyline class="cls-1" points="300.918 265.889 300.464 266.192 300.009 266.647"/><line class="cls-1" x1="301.37346" y1="265.58533" x2="301.8285" y2="265.58533"/><line class="cls-1" x1="299.5539" y1="270.43763" x2="299.25064" y2="270.13437"/><line class="cls-1" x1="298.94738" y1="269.22459" x2="299.09917" y2="268.61807"/><line class="cls-1" x1="304.1031" y1="268.31481" x2="304.1031" y2="267.10178"/><line class="cls-1" x1="303.79984" y1="268.92133" x2="303.49658" y2="269.52801"/><line class="cls-1" x1="302.73828" y1="270.58926" x2="302.13176" y2="271.0443"/><line class="cls-1" x1="301.67672" y1="271.19578" x2="301.22198" y2="271.19578"/><polyline class="cls-1" points="299.554 270.438 300.767 271.196 300.464 270.893"/><line class="cls-1" x1="303.19301" y1="270.13437" x2="302.73828" y2="270.58941"/><line class="cls-1" x1="302.13145" y1="271.04415" x2="301.67672" y2="271.19593"/><line class="cls-1" x1="303.49627" y1="269.52785" x2="303.19301" y2="270.13452"/><line class="cls-1" x1="300.46368" y1="270.89252" x2="300.31221" y2="270.43763"/><line class="cls-1" x1="301.22198" y1="271.19578" x2="300.76725" y2="271.19578"/><line class="cls-1" x1="300.31221" y1="270.43763" x2="300.31221" y2="269.83111"/><line class="cls-1" x1="304.1031" y1="268.31466" x2="303.79984" y2="268.92133"/><polyline class="cls-1" points="300.767 268.011 300.464 268.618 300.313 269.225 300.313 269.831"/><line class="cls-1" x1="302.73859" y1="266.34348" x2="303.19363" y2="266.34348"/><line class="cls-1" x1="301.22229" y1="267.40488" x2="301.67733" y2="266.94999"/><line class="cls-1" x1="302.13207" y1="266.64673" x2="302.7389" y2="266.34348"/><line class="cls-1" x1="300.76725" y1="268.0114" x2="301.22229" y2="267.40488"/><line class="cls-1" x1="301.67703" y1="266.94999" x2="302.13207" y2="266.64673"/><line class="cls-1" x1="300.46399" y1="265.28207" x2="300.76756" y2="265.28207"/><path class="cls-1" d="M311.38049,292.51237l-.30326-.15163a3.13867,3.13867,0,0,1,1.81987-3.79089h.45473" transform="translate(-12.88784 -23.28778)"/><line class="cls-1" x1="301.37377" y1="265.73696" x2="300.76725" y2="265.28207"/><line class="cls-1" x1="299.09917" y1="269.52785" x2="298.49265" y2="269.22459"/><line class="cls-1" x1="303.79984" y1="300.30989" x2="304.10341" y2="300.76493"/><line class="cls-1" x1="301.8285" y1="299.09685" x2="302.28354" y2="299.24864"/><polyline class="cls-1" points="303.193 299.855 303.497 300.007 302.284 299.248"/><line class="cls-1" x1="303.49658" y1="300.00663" x2="303.80015" y2="300.31005"/><line class="cls-1" x1="299.5539" y1="300.91641" x2="300.00895" y2="300.30989"/><line class="cls-1" x1="299.09886" y1="302.12945" x2="299.25064" y2="301.52293"/><line class="cls-1" x1="299.25064" y1="303.64574" x2="299.09917" y2="303.34248"/><line class="cls-1" x1="299.25064" y1="301.52277" x2="299.55421" y2="300.91626"/><polyline class="cls-1" points="300.919 299.4 300.464 299.855 300.009 300.31"/><line class="cls-1" x1="301.37377" y1="299.24818" x2="301.82881" y2="299.09655"/><line class="cls-1" x1="299.55421" y1="303.94885" x2="299.25095" y2="303.64559"/><line class="cls-1" x1="298.94769" y1="302.73581" x2="299.09948" y2="302.12929"/><line class="cls-1" x1="304.10341" y1="301.82603" x2="304.10341" y2="300.76463"/><line class="cls-1" x1="303.80015" y1="302.58418" x2="303.49689" y2="303.19085"/><line class="cls-1" x1="302.73859" y1="304.25211" x2="302.13207" y2="304.55552"/><line class="cls-1" x1="301.67703" y1="304.85862" x2="301.22229" y2="304.85862"/><polyline class="cls-1" points="299.554 303.949 300.768 304.707 300.464 304.404"/><line class="cls-1" x1="303.19332" y1="303.79722" x2="302.73859" y2="304.25226"/><line class="cls-1" x1="302.13176" y1="304.55537" x2="301.67703" y2="304.85878"/><line class="cls-1" x1="303.49658" y1="303.1907" x2="303.19332" y2="303.79737"/><line class="cls-1" x1="300.46399" y1="304.40374" x2="300.31251" y2="303.94885"/><line class="cls-1" x1="301.22229" y1="304.85862" x2="300.76756" y2="304.707"/><line class="cls-1" x1="300.31251" y1="303.94885" x2="300.31251" y2="303.49396"/><line class="cls-1" x1="304.10341" y1="301.82588" x2="303.80015" y2="302.58418"/><polyline class="cls-1" points="300.768 301.523 300.464 302.281 300.313 302.887 300.313 303.494"/><line class="cls-1" x1="302.7389" y1="300.00632" x2="303.19394" y2="299.85469"/><line class="cls-1" x1="301.2226" y1="301.06773" x2="301.67764" y2="300.46121"/><line class="cls-1" x1="302.13238" y1="300.15795" x2="302.7392" y2="300.00632"/><line class="cls-1" x1="300.76756" y1="301.52262" x2="301.2226" y2="301.06773"/><line class="cls-1" x1="301.67733" y1="300.46121" x2="302.13238" y2="300.15795"/><line class="cls-1" x1="300.4643" y1="298.79329" x2="300.76787" y2="298.94507"/><path class="cls-1" d="M311.3808,326.17522l-.30326-.30326a2.95189,2.95189,0,0,1,1.81986-3.63926l.45474-.15163" transform="translate(-12.88784 -23.28778)"/><line class="cls-1" x1="301.37407" y1="299.24818" x2="300.76756" y2="298.94492"/><line class="cls-1" x1="299.09948" y1="303.1907" x2="298.49296" y2="302.88744"/><polyline class="cls-1" points="253.002 322.297 253.002 289.392 250.425 288.027"/><polyline class="cls-1" points="253.002 289.392 345.045 236.319 344.439 235.864"/><line class="cls-1" x1="345.04525" y1="236.31927" x2="345.04525" y2="269.22428"/><polyline class="cls-1" points="253.002 288.785 253.002 255.88 250.425 254.364"/><polyline class="cls-1" points="253.002 255.88 345.045 202.656 344.439 202.353"/><line class="cls-1" x1="345.04525" y1="202.65612" x2="345.04525" y2="235.56113"/><line class="cls-1" x1="281.05509" y1="203.11101" x2="281.05509" y2="235.86439"/><polyline class="cls-1" points="283.633 237.381 283.633 204.627 281.055 203.111"/><polyline class="cls-1" points="283.633 204.627 375.676 151.403 373.098 149.887"/><line class="cls-1" x1="375.67597" y1="151.40316" x2="375.67597" y2="184.30817"/><polyline class="cls-1" points="250.425 354.443 253.003 355.96 253.003 323.055 250.425 321.538"/><line class="cls-1" x1="253.00254" y1="323.05479" x2="345.04556" y2="269.83065"/><line class="cls-1" x1="253.00254" y1="355.95972" x2="345.04556" y2="302.73566"/><polyline class="cls-1" points="344.439 269.527 345.046 269.831 345.046 302.736"/><line class="cls-1" x1="370.21699" y1="131.2355" x2="371.27855" y2="130.62898"/><polyline class="cls-1" points="370.217 132.752 371.279 132.145 371.279 134.723 369.914 135.481 369.914 135.178 370.824 134.723 370.824 132.752 369.914 133.207 369.914 130.932 371.279 130.174 371.279 130.629"/><polyline class="cls-1" points="317.6 99.089 316.235 99.847 316.235 102.273"/><polyline class="cls-1" points="316.993 102.728 316.993 103.638 316.235 104.093 316.235 104.548 369.914 135.481"/><line class="cls-1" x1="316.2347" y1="104.09257" x2="369.91404" y2="135.17802"/><line class="cls-1" x1="370.21699" y1="131.5386" x2="371.27855" y2="132.14528"/><line class="cls-1" x1="316.99269" y1="103.63768" x2="370.82351" y2="134.72313"/><line class="cls-1" x1="316.23439" y1="99.84679" x2="369.91373" y2="130.93224"/><line class="cls-1" x1="317.59921" y1="99.08864" x2="371.27855" y2="130.17409"/><polyline class="cls-1" points="221.614 217.061 222.524 216.455 222.524 217.971 221.614 218.578 221.614 221.156 222.979 220.397 222.979 219.942 222.069 220.397"/><line class="cls-1" x1="222.97865" y1="218.12264" x2="222.06887" y2="218.57769"/><polyline class="cls-1" points="222.979 215.696 221.614 216.455 221.614 217.061"/><polyline class="cls-1" points="167.935 185.976 167.935 185.521 169.148 184.763"/><polyline class="cls-1" points="167.935 190.07 167.935 187.492 168.845 187.037 168.845 186.582"/><line class="cls-1" x1="222.06887" y1="219.48731" x2="222.97896" y2="219.94235"/><line class="cls-1" x1="167.93479" y1="187.49223" x2="221.61414" y2="218.57769"/><line class="cls-1" x1="168.84457" y1="187.03735" x2="222.52391" y2="217.97117"/><line class="cls-1" x1="167.93479" y1="185.52105" x2="221.61414" y2="216.45487"/><polyline class="cls-1" points="255.58 208.57 337.312 161.259 337.312 162.776"/><line class="cls-1" x1="171.11917" y1="139.27217" x2="171.11917" y2="162.77584"/><polyline class="cls-1" points="253.003 92.114 254.822 93.175 254.822 116.679"/><polyline class="cls-1" points="171.119 139.272 173.091 140.485 254.822 93.175"/><polyline class="cls-1" points="171.119 162.776 173.091 163.837 173.091 140.485"/><polyline class="cls-1" points="337.312 140.788 339.283 139.727 339.283 163.079 337.312 164.292"/><polyline class="cls-1" points="285.601 108.643 283.63 109.856 283.63 132.45"/><line class="cls-1" x1="337.30859" y1="140.79001" x2="283.62956" y2="109.85634"/><line class="cls-1" x1="339.27993" y1="139.72861" x2="285.6009" y2="108.64331"/><line class="cls-1" x1="337.30859" y1="164.29352" x2="336.09555" y2="163.53538"/><line class="cls-1" x1="255.577" y1="188.1003" x2="253.60597" y2="189.16186"/><polyline class="cls-1" points="255.577 211.452 253.606 212.514 253.606 189.162"/><polyline class="cls-1" points="201.746 157.015 199.927 158.077 199.927 181.58"/><line class="cls-1" x1="253.60566" y1="189.1617" x2="199.92663" y2="158.0764"/><line class="cls-1" x1="68.76442" y1="280.59928" x2="68.76442" y2="251.03043"/><line class="cls-1" x1="67.55138" y1="282.87388" x2="67.55138" y2="281.35758"/><polyline class="cls-1" points="66.338 283.48 31.159 263.313 0.377 245.571"/><line class="cls-1" x1="4.31922" y1="111.98039" x2="67.55138" y2="148.52466"/><line class="cls-1" x1="99.54661" y1="132.9062" x2="186.43391" y2="82.7148"/><polyline class="cls-1" points="98.182 132.148 91.207 128.206 32.372 94.239"/><line class="cls-1" x1="92.41956" y1="296.52116" x2="67.55138" y2="282.11588"/><polyline class="cls-1" points="156.41 231.469 180.672 245.572 174.303 249.211 92.42 296.521"/><line class="cls-1" x1="98.18148" y1="265.1326" x2="150.04096" y2="235.26049"/><polyline class="cls-1" points="68.764 248.149 71.342 249.666 98.181 265.133"/><line class="cls-1" x1="187.79812" y1="211.90845" x2="186.4336" y2="211.15031"/><polyline class="cls-1" points="159.594 62.851 99.546 97.575 61.789 75.74"/><line class="cls-1" x1="250.57523" y1="254.21496" x2="221.46143" y2="237.38346"/><line class="cls-1" x1="250.42345" y1="279.84144" x2="228.28491" y2="267.10409"/><polyline class="cls-1" points="198.564 241.478 199.929 242.084 250.423 271.35"/><polyline class="cls-1" points="198.564 237.383 199.626 237.99 250.423 267.256"/><line class="cls-1" x1="199.92879" y1="284.23885" x2="199.92879" y2="275.74729"/><line class="cls-1" x1="250.57523" y1="287.87812" x2="221.46143" y2="271.04662"/><line class="cls-1" x1="250.42345" y1="313.35297" x2="228.28491" y2="300.61562"/><line class="cls-1" x1="198.56397" y1="272.41128" x2="198.56397" y2="272.86632"/><polyline class="cls-1" points="198.564 274.989 199.929 275.747 250.423 304.861"/><polyline class="cls-1" points="198.564 270.895 199.626 271.502 250.423 300.919"/><line class="cls-1" x1="250.57492" y1="321.38964" x2="221.46112" y2="304.55814"/><polyline class="cls-1" points="198.564 308.652 199.929 309.411 250.423 338.525"/><polyline class="cls-1" points="198.564 304.558 199.626 305.165 250.423 334.43"/><line class="cls-1" x1="300.91811" y1="232.2279" x2="301.37315" y2="232.07627"/><polyline class="cls-1" points="299.099 236.17 299.099 236.019 298.947 235.564"/><polyline class="cls-1" points="331.549 180.975 332.004 180.823 332.155 180.672"/><line class="cls-1" x1="329.72896" y1="184.76583" x2="329.72896" y2="184.31094"/><polyline class="cls-1" points="300.918 265.891 301.373 265.739 301.373 265.588"/><polyline class="cls-1" points="299.099 269.682 299.099 269.53 298.947 269.227"/><line class="cls-1" x1="300.91811" y1="299.40243" x2="301.37315" y2="299.2508"/><polyline class="cls-1" points="299.099 303.345 299.099 303.193 298.947 302.738"/><polyline class="cls-1" points="253.001 322.299 251.03 321.238 250.424 320.783"/><polyline class="cls-1" points="253.001 322.299 344.438 269.53 345.044 269.227"/><polyline class="cls-1" points="250.423 288.03 250.575 287.878 251.03 287.575"/><line class="cls-1" x1="250.42345" y1="279.84144" x2="250.42345" y2="287.2716"/><polyline class="cls-1" points="253.001 288.788 251.03 287.575 250.424 287.272"/><polyline class="cls-1" points="253.001 288.788 344.438 235.867 345.044 235.564"/><polyline class="cls-1" points="250.423 254.367 250.575 254.215 281.661 236.322 283.632 237.383"/><line class="cls-1" x1="281.66038" y1="236.3219" x2="281.05386" y2="235.86701"/><polyline class="cls-1" points="283.632 237.383 344.438 202.355 375.675 184.311"/><line class="cls-1" x1="281.05386" y1="203.11363" x2="285.60306" y2="200.3843"/><polyline class="cls-1" points="250.423 321.541 250.575 321.389 251.03 321.238"/><line class="cls-1" x1="370.21576" y1="132.75457" x2="370.21576" y2="131.23827"/><polyline class="cls-1" points="316.233 102.276 316.992 102.731 369.913 133.21"/><line class="cls-1" x1="222.06764" y1="218.58046" x2="222.06764" y2="220.40017"/><line class="cls-1" x1="222.97741" y1="215.69935" x2="222.97741" y2="218.12558"/><line class="cls-1" x1="167.93356" y1="190.07287" x2="216.00214" y2="217.82232"/><polyline class="cls-1" points="167.934 185.979 168.844 186.585 221.613 217.064"/><polyline class="cls-1" points="169.147 184.766 221.309 214.79 222.977 215.7"/><polyline class="cls-1" points="285.603 131.39 283.632 132.451 221.461 168.389"/><line class="cls-1" x1="255.57885" y1="209.93727" x2="285.60275" y2="192.65088"/><line class="cls-1" x1="217.21487" y1="112.73869" x2="171.11763" y2="139.27495"/><line class="cls-1" x1="219.64095" y1="136.84872" x2="254.82055" y2="116.68122"/><line class="cls-1" x1="337.31044" y1="161.26201" x2="337.31044" y2="140.79125"/><line class="cls-1" x1="255.57885" y1="211.45341" x2="255.57885" y2="209.93712"/><polyline class="cls-1" points="1.739 110.463 2.952 111.221 4.317 111.979"/><line class="cls-1" x1="150.0388" y1="235.25926" x2="156.40755" y2="231.46836"/><line class="cls-1" x1="159.59193" y1="62.84947" x2="187.79626" y2="46.62449"/><line class="cls-1" x1="33.73413" y1="59.51347" x2="61.78699" y2="75.73861"/><line class="cls-1" x1="221.45927" y1="237.38222" x2="203.71814" y2="227.22273"/><line class="cls-1" x1="208.72176" y1="255.73018" x2="199.92694" y2="250.57462"/><line class="cls-1" x1="221.45927" y1="271.04538" x2="203.71814" y2="260.73426"/><line class="cls-1" x1="208.72176" y1="289.2417" x2="199.92694" y2="284.23777"/><line class="cls-1" x1="198.56212" y1="272.86509" x2="198.56212" y2="274.98806"/><line class="cls-1" x1="221.45927" y1="304.55691" x2="203.71814" y2="294.39742"/><line class="cls-1" x1="250.4216" y1="288.02867" x2="250.4216" y2="298.79483"/><line class="cls-1" x1="250.4216" y1="313.35189" x2="250.4216" y2="320.78205"/><line class="cls-1" x1="250.4216" y1="271.34879" x2="250.4216" y2="279.84051"/><line class="cls-1" x1="285.6012" y1="200.38322" x2="303.34264" y2="190.22373"/><line class="cls-1" x1="250.4216" y1="321.54019" x2="250.4216" y2="332.45799"/><line class="cls-1" x1="250.4216" y1="347.01504" x2="250.4216" y2="354.4452"/><polyline class="cls-1" points="216 217.821 217.972 219.035 221.611 221.157"/><line class="cls-1" x1="285.6012" y1="192.6498" x2="296.51915" y2="186.2812"/><polyline class="cls-1" points="252.999 92.115 219.64 111.222 217.214 112.738"/><polyline class="cls-1" points="173.087 163.839 217.214 138.364 219.64 136.848"/><line class="cls-1" x1="337.3089" y1="164.29399" x2="337.3089" y2="162.77769"/><polyline class="cls-1" points="255.577 208.572 255.577 188.101 221.459 168.388 219.64 167.327 217.214 165.962 201.747 157.016"/><polyline class="cls-1" points="253.606 212.514 241.324 205.539 239.352 204.326 219.64 192.953"/><line class="cls-1" x1="68.76164" y1="251.02935" x2="68.76164" y2="246.63194"/><polyline class="cls-1" points="156.407 231.468 158.379 230.407 187.796 213.424"/><line class="cls-1" x1="187.79596" y1="46.62434" x2="189.0093" y2="45.86619"/><polyline class="cls-1" points="31.156 57.997 32.37 58.755 33.734 59.513"/><polyline class="cls-1" points="228.283 267.103 210.542 256.792 208.722 255.73"/><polyline class="cls-1" points="228.283 300.614 210.542 290.455 208.722 289.242"/><line class="cls-1" x1="250.4216" y1="304.86001" x2="250.4216" y2="313.35173"/><line class="cls-1" x1="250.4216" y1="268.77063" x2="250.4216" y2="271.34849"/><polyline class="cls-1" points="303.342 190.223 305.314 189.162 373.095 149.888"/><line class="cls-1" x1="250.4216" y1="338.52302" x2="250.4216" y2="347.01473"/><line class="cls-1" x1="296.51884" y1="186.28074" x2="298.49018" y2="185.21933"/><polyline class="cls-1" points="219.639 192.953 217.213 191.588 199.927 181.58"/><line class="cls-1" x1="68.76195" y1="246.63163" x2="68.76195" y2="204.62854"/><polyline class="cls-1" points="189.009 45.866 190.374 45.108 191.587 44.35"/><line class="cls-1" x1="250.4216" y1="302.282" x2="250.4216" y2="304.85986"/><line class="cls-1" x1="250.4216" y1="335.94516" x2="250.4216" y2="338.52302"/><polyline class="cls-1" points="298.49 185.219 336.096 163.535 337.309 162.777"/><line class="cls-1" x1="68.76164" y1="204.62807" x2="68.76164" y2="149.12949"/><line class="cls-1" x1="250.42129" y1="267.25372" x2="250.42129" y2="268.77017"/><line class="cls-1" x1="250.4216" y1="298.79344" x2="250.4216" y2="302.28108"/><line class="cls-1" x1="250.4216" y1="254.36412" x2="250.4216" y2="267.25325"/><line class="cls-1" x1="250.4216" y1="332.4566" x2="250.4216" y2="335.94423"/><line class="cls-1" x1="68.76164" y1="204.62638" x2="121.83416" y2="173.99597"/></svg>