<svg id="wall_main" data-name="wall main" xmlns="http://www.w3.org/2000/svg" viewBox="0 0 141.21 301.91"><defs><style>.cls-1,.cls-2{fill:none;stroke:#000;stroke-linecap:round;stroke-linejoin:round;}.cls-1{stroke-width:0.23px;}.cls-2{stroke-width:2.23px;}</style></defs><polyline class="cls-1" points="140.09 225.9 10.51 300.79 9.21 300.09"/><polyline class="cls-1" points="9.21 80.7 10.51 81.4 140.09 6.51 138.92 5.81"/><line class="cls-1" x1="10.51" y1="300.79" x2="10.51" y2="81.4"/><line class="cls-1" x1="9.21" y1="300.09" x2="9.21" y2="80.7"/><line class="cls-1" x1="140.1" y1="225.9" x2="140.1" y2="6.51"/><line class="cls-1" x1="130.7" y1="1.12" x2="1.12" y2="76"/><line class="cls-1" x1="1.12" y1="295.39" x2="2.29" y2="296.09"/><line class="cls-1" x1="1.12" y1="76" x2="2.29" y2="76.71"/><line class="cls-1" x1="132" y1="1.82" x2="130.7" y2="1.12"/><line class="cls-1" x1="2.29" y1="296.09" x2="2.29" y2="76.71"/><line class="cls-1" x1="1.12" y1="295.39" x2="1.12" y2="76"/><line class="cls-1" x1="2.29" y1="76.71" x2="5.22" y2="74.95"/><line class="cls-1" x1="9.21" y1="300.09" x2="2.29" y2="296.09"/><line class="cls-1" x1="9.21" y1="80.7" x2="2.29" y2="76.71"/><polyline class="cls-1" points="5.22 74.95 12.15 78.94 9.21 80.7"/><line class="cls-1" x1="5.22" y1="74.95" x2="128.94" y2="3.46"/><polyline class="cls-1" points="12.15 78.94 135.87 7.57 128.94 3.46 132 1.82 138.92 5.81 135.87 7.57"/><polygon class="cls-2" points="140.09 6.51 130.7 1.11 1.11 76 1.11 295.39 10.51 300.79 140.09 225.9 140.09 6.51"/></svg>