<svg id="wardrobe_main" data-name="wardrobe main" xmlns="http://www.w3.org/2000/svg" viewBox="0 0 162.56 302.94"><defs><style>.cls-1,.cls-2{fill:none;stroke:#000;stroke-linecap:round;stroke-linejoin:round;}.cls-1{stroke-width:0.3px;}.cls-2{stroke-width:2.87px;}</style></defs><line class="cls-1" x1="62.57" y1="293.81" x2="63.17" y2="294.26"/><line class="cls-1" x1="113.13" y1="66.19" x2="113.13" y2="65.43"/><line class="cls-1" x1="62.57" y1="301.2" x2="1.43" y2="265.88"/><polyline class="cls-1" points="1.43 258.64 62.57 293.81 62.57 301.2"/><line class="cls-1" x1="1.43" y1="265.88" x2="1.43" y2="258.64"/><polyline class="cls-1" points="63.17 294.26 63.17 301.51 62.56 301.2"/><line class="cls-1" x1="158.56" y1="39.17" x2="161.13" y2="40.68"/><polyline class="cls-1" points="69.51 93.66 69.51 297.88 114.94 271.62"/><line class="cls-1" x1="66.94" y1="296.37" x2="69.51" y2="297.88"/><line class="cls-1" x1="66.94" y1="92.15" x2="69.51" y2="93.66"/><polyline class="cls-1" points="115.7 66.94 161.13 40.68 161.13 245.05"/><line class="cls-1" x1="66.94" y1="92.15" x2="66.94" y2="296.37"/><line class="cls-1" x1="114.94" y1="67.4" x2="69.51" y2="93.66"/><polyline class="cls-1" points="115.7 66.94 115.7 271.32 114.94 270.87"/><polyline class="cls-1" points="115.7 66.94 113.13 65.43 112.38 65.89"/><polygon class="cls-1" points="158.56 39.17 93.06 1.43 91.7 2.19 157.36 39.92 158.56 39.17"/><polyline class="cls-1" points="1.43 258.64 1.43 54.26 66.94 92.15"/><polyline class="cls-1" points="1.43 54.26 2.64 53.51 68.15 91.39 66.94 92.15"/><line class="cls-1" x1="91.7" y1="2.19" x2="2.64" y2="53.51"/><line class="cls-1" x1="109.65" y1="181.81" x2="109.8" y2="182.11"/><line class="cls-1" x1="107.69" y1="180.6" x2="107.99" y2="180.75"/><polyline class="cls-1" points="108.9 181.36 109.35 181.51 107.99 180.75"/><line class="cls-1" x1="109.35" y1="181.51" x2="109.65" y2="181.81"/><line class="cls-1" x1="105.43" y1="182.26" x2="105.73" y2="181.66"/><line class="cls-1" x1="104.82" y1="183.62" x2="105.12" y2="182.87"/><line class="cls-1" x1="105.12" y1="185.13" x2="104.82" y2="184.68"/><line class="cls-1" x1="105.12" y1="182.87" x2="105.43" y2="182.26"/><polyline class="cls-1" points="106.78 180.9 106.18 181.21 105.73 181.66"/><line class="cls-1" x1="107.24" y1="180.6" x2="107.69" y2="180.6"/><line class="cls-1" x1="105.43" y1="185.43" x2="105.12" y2="185.13"/><line class="cls-1" x1="104.82" y1="184.22" x2="104.82" y2="183.62"/><polyline class="cls-1" points="109.8 183.32 109.95 182.72 109.8 182.11"/><line class="cls-1" x1="109.65" y1="183.92" x2="109.35" y2="184.53"/><line class="cls-1" x1="108.44" y1="185.58" x2="107.99" y2="186.04"/><line class="cls-1" x1="107.54" y1="186.19" x2="107.09" y2="186.34"/><polyline class="cls-1" points="105.42 185.43 106.63 186.19 106.33 185.88"/><line class="cls-1" x1="108.9" y1="185.13" x2="108.44" y2="185.58"/><line class="cls-1" x1="107.99" y1="186.04" x2="107.54" y2="186.19"/><line class="cls-1" x1="109.35" y1="184.53" x2="108.9" y2="185.13"/><line class="cls-1" x1="106.33" y1="185.89" x2="106.18" y2="185.43"/><line class="cls-1" x1="107.09" y1="186.34" x2="106.63" y2="186.19"/><line class="cls-1" x1="106.18" y1="185.43" x2="106.03" y2="184.98"/><line class="cls-1" x1="109.8" y1="183.32" x2="109.65" y2="183.92"/><polyline class="cls-1" points="106.63 183.02 106.33 183.62 106.18 184.22 106.03 184.98"/><line class="cls-1" x1="108.44" y1="181.36" x2="108.9" y2="181.36"/><line class="cls-1" x1="107.08" y1="182.41" x2="107.54" y2="181.96"/><line class="cls-1" x1="107.99" y1="181.66" x2="108.44" y2="181.36"/><line class="cls-1" x1="106.63" y1="183.02" x2="107.09" y2="182.41"/><line class="cls-1" x1="107.54" y1="181.96" x2="107.99" y2="181.66"/><line class="cls-1" x1="106.18" y1="180.3" x2="106.63" y2="180.45"/><polyline class="cls-1" points="104.37 184.22 104.07 184.07 103.92 183.77 103.92 182.72 104.07 182.26 104.37 181.66 104.97 180.75 105.42 180.45 105.88 180.3 106.18 180.3"/><line class="cls-1" x1="107.09" y1="180.75" x2="106.63" y2="180.45"/><line class="cls-1" x1="104.82" y1="184.53" x2="104.37" y2="184.22"/><line class="cls-1" x1="130.63" y1="169.58" x2="130.78" y2="170.04"/><line class="cls-1" x1="128.67" y1="168.53" x2="129.12" y2="168.68"/><polyline class="cls-1" points="129.88 169.28 130.33 169.28 129.12 168.68"/><line class="cls-1" x1="130.33" y1="169.28" x2="130.63" y2="169.58"/><line class="cls-1" x1="126.41" y1="170.19" x2="126.71" y2="169.58"/><line class="cls-1" x1="125.8" y1="171.39" x2="126.1" y2="170.79"/><line class="cls-1" x1="126.1" y1="173.06" x2="125.8" y2="172.6"/><line class="cls-1" x1="126.1" y1="170.79" x2="126.41" y2="170.19"/><polyline class="cls-1" points="127.76 168.68 127.16 169.13 126.71 169.58"/><line class="cls-1" x1="128.22" y1="168.53" x2="128.67" y2="168.53"/><line class="cls-1" x1="126.41" y1="173.36" x2="126.1" y2="173.06"/><line class="cls-1" x1="125.8" y1="172" x2="125.8" y2="171.39"/><polyline class="cls-1" points="130.78 171.24 130.93 170.64 130.78 170.04"/><line class="cls-1" x1="130.63" y1="171.85" x2="130.33" y2="172.45"/><line class="cls-1" x1="129.42" y1="173.51" x2="128.97" y2="173.81"/><line class="cls-1" x1="128.52" y1="174.11" x2="128.07" y2="174.11"/><polyline class="cls-1" points="126.41 173.36 127.61 173.96 127.31 173.81"/><line class="cls-1" x1="129.88" y1="173.06" x2="129.42" y2="173.51"/><line class="cls-1" x1="128.97" y1="173.81" x2="128.52" y2="174.11"/><line class="cls-1" x1="130.33" y1="172.45" x2="129.88" y2="173.06"/><line class="cls-1" x1="127.31" y1="173.81" x2="127.16" y2="173.36"/><line class="cls-1" x1="128.07" y1="174.11" x2="127.61" y2="173.96"/><line class="cls-1" x1="127.16" y1="173.36" x2="127.01" y2="172.75"/><line class="cls-1" x1="130.78" y1="171.24" x2="130.63" y2="171.85"/><polyline class="cls-1" points="127.61 170.94 127.31 171.55 127.16 172.15 127.01 172.75"/><line class="cls-1" x1="129.42" y1="169.28" x2="129.88" y2="169.28"/><line class="cls-1" x1="128.06" y1="170.34" x2="128.52" y2="169.89"/><line class="cls-1" x1="128.97" y1="169.43" x2="129.42" y2="169.28"/><line class="cls-1" x1="127.61" y1="170.94" x2="128.07" y2="170.34"/><line class="cls-1" x1="128.52" y1="169.89" x2="128.97" y2="169.43"/><line class="cls-1" x1="127.31" y1="168.23" x2="127.61" y2="168.23"/><path class="cls-1" d="M236.76,220.7l-.3-.15c-.67-1.4.59-3.41,1.81-3.77h.45" transform="translate(-111.41 -48.55)"/><line class="cls-1" x1="128.07" y1="168.53" x2="127.61" y2="168.23"/><line class="cls-1" x1="125.8" y1="172.45" x2="125.35" y2="172.15"/><line class="cls-1" x1="63.17" y1="301.51" x2="69.51" y2="297.88"/><line class="cls-1" x1="157.36" y1="39.92" x2="113.13" y2="65.43"/><polyline class="cls-1" points="114.94 271.62 114.94 67.4 113.13 66.19 112.38 65.89 68.15 91.39"/><polyline class="cls-1" points="106.79 180.9 107.09 180.75 107.25 180.6"/><line class="cls-1" x1="104.83" y1="184.68" x2="104.83" y2="184.22"/><polyline class="cls-1" points="127.77 168.68 128.08 168.53 128.23 168.53"/><line class="cls-1" x1="125.81" y1="172.6" x2="125.81" y2="172"/><line class="cls-1" x1="66.95" y1="296.38" x2="63.17" y2="294.26"/><line class="cls-1" x1="114.94" y1="271.62" x2="115.69" y2="271.32"/><line class="cls-1" x1="115.7" y1="271.32" x2="161.13" y2="245.05"/><polygon class="cls-2" points="93.06 1.43 1.43 54.26 1.43 265.88 63.17 301.51 63.17 294.26 69.51 297.88 161.13 245.05 161.13 40.68 93.06 1.43"/></svg>