<svg id="bookcase_ex" data-name="bookcase ex" xmlns="http://www.w3.org/2000/svg" viewBox="0 0 182.07679 392.43329"><defs><style>.cls-1{fill:none;stroke:#000;stroke-linecap:round;stroke-linejoin:round;stroke-width:0.75px;}</style></defs><polyline class="cls-1" points="46.473 390.599 44.576 391.767 0.375 366.092"/><polygon class="cls-1" points="46.473 383.597 44.576 384.618 0.375 359.09 2.126 357.923 46.473 383.597"/><line class="cls-1" x1="44.57614" y1="391.76625" x2="44.57614" y2="384.61835"/><line class="cls-1" x1="46.47255" y1="390.59927" x2="46.47255" y2="383.59739"/><line class="cls-1" x1="0.375" y1="366.09181" x2="0.375" y2="359.08994"/><polyline class="cls-1" points="180.535 242.97 181.702 242.241 181.702 44.722"/><line class="cls-1" x1="179.36772" y1="242.24095" x2="179.36772" y2="47.63944"/><polyline class="cls-1" points="180.535 242.97 180.535 241.512 179.368 242.241"/><line class="cls-1" x1="130.64436" y1="204.89613" x2="130.64436" y2="187.24512"/><line class="cls-1" x1="130.64436" y1="168.71829" x2="130.64436" y2="150.92126"/><line class="cls-1" x1="130.64436" y1="132.54045" x2="130.64436" y2="114.74342"/><line class="cls-1" x1="130.64436" y1="96.21688" x2="130.64436" y2="42.97152"/><line class="cls-1" x1="181.70178" y1="44.7217" x2="133.12431" y2="16.7133"/><polyline class="cls-1" points="180.535 242.97 179.368 242.241 138.668 218.755"/><line class="cls-1" x1="131.95727" y1="17.44252" x2="133.12431" y2="16.7133"/><polyline class="cls-1" points="179.368 47.639 180.535 46.91 180.535 45.452"/><line class="cls-1" x1="149.75443" y1="30.57163" x2="179.36773" y2="47.63944"/><line class="cls-1" x1="151.06734" y1="29.84212" x2="180.53477" y2="46.90993"/><polyline class="cls-1" points="151.067 28.383 180.535 45.451 181.702 44.722"/><line class="cls-1" x1="33.48939" y1="349.16972" x2="31.73887" y2="348.00274"/><polyline class="cls-1" points="31.739 341.001 33.489 342.022 62.373 325.246"/><polyline class="cls-1" points="33.489 342.022 33.489 349.17 68.646 328.893"/><polyline class="cls-1" points="31.739 348.003 31.739 341.001 60.623 324.225"/><line class="cls-1" x1="177.47132" y1="342.02183" x2="178.05483" y2="342.31387"/><polyline class="cls-1" points="104.24 384.91 104.24 392.058 178.055 349.462"/><line class="cls-1" x1="103.65687" y1="391.76625" x2="104.2404" y2="392.05829"/><polyline class="cls-1" points="177.471 342.022 103.657 384.618 104.24 384.91 178.055 342.314 178.055 349.462"/><line class="cls-1" x1="103.65687" y1="384.61835" x2="103.65687" y2="391.76654"/><polyline class="cls-1" points="149.754 291.986 80.9 331.665 80.9 333.123 79.733 333.853 79.733 335.312"/><line class="cls-1" x1="79.73282" y1="333.85268" x2="50.11951" y2="316.78516"/><line class="cls-1" x1="80.89985" y1="331.66444" x2="51.43244" y2="314.59692"/><line class="cls-1" x1="80.89985" y1="333.12317" x2="51.43244" y2="316.05565"/><line class="cls-1" x1="149.75443" y1="293.29837" x2="149.75443" y2="291.98566"/><polyline class="cls-1" points="151.067 294.028 151.067 292.715 149.754 293.299"/><line class="cls-1" x1="51.43242" y1="240.78222" x2="75.93999" y2="254.93259"/><polyline class="cls-1" points="75.94 252.89 144.795 213.066 144.795 215.254"/><polyline class="cls-1" points="75.94 254.932 75.94 252.89 51.432 238.74"/><line class="cls-1" x1="63.10269" y1="211.31481" x2="51.43244" y2="218.02524"/><polyline class="cls-1" points="75.94 216.712 144.795 176.888 144.795 179.076"/><polyline class="cls-1" points="75.94 218.754 75.94 216.712 51.432 202.416"/><line class="cls-1" x1="63.10269" y1="175.13697" x2="51.43244" y2="181.8474"/><polyline class="cls-1" points="50.12 318.244 48.953 318.973 48.953 121.454"/><polyline class="cls-1" points="50.12 318.244 50.12 316.785 51.432 316.056"/><polyline class="cls-1" points="0.375 290.818 0.375 93.445 48.952 121.454"/><line class="cls-1" x1="48.95248" y1="318.9728" x2="0.375" y2="290.81839"/><line class="cls-1" x1="1.54202" y1="92.71565" x2="0.375" y2="93.44516"/><polygon class="cls-1" points="51.432 121.454 50.12 122.183 50.12 120.725 51.432 121.454"/><line class="cls-1" x1="50.11953" y1="120.72434" x2="48.95251" y2="121.45385"/><polyline class="cls-1" points="177.471 315.034 175.575 316.056 144.211 297.967"/><polyline class="cls-1" points="177.471 307.886 175.575 308.908 150.338 294.466"/><line class="cls-1" x1="175.57489" y1="316.05535" x2="175.57489" y2="308.90746"/><line class="cls-1" x1="177.47131" y1="315.0341" x2="177.47131" y2="307.8862"/><line class="cls-1" x1="75.93999" y1="373.67718" x2="74.18946" y2="372.5102"/><line class="cls-1" x1="75.93999" y1="366.52928" x2="74.18946" y2="365.50832"/><polyline class="cls-1" points="144.211 324.954 146.107 325.975 75.94 366.53 75.94 373.677"/><polyline class="cls-1" points="146.107 325.975 146.107 333.123 75.94 373.678"/><polyline class="cls-1" points="74.189 372.51 74.189 365.509 144.211 324.954"/><polyline class="cls-1" points="75.94 144.211 144.795 104.386 144.795 106.574"/><polyline class="cls-1" points="75.94 146.399 75.94 144.211 51.432 130.061"/><line class="cls-1" x1="72.87654" y1="67.18723" x2="72.87654" y2="96.94669"/><polyline class="cls-1" points="4.022 94.174 4.022 60.039 2.709 59.31 2.709 93.445"/><line class="cls-1" x1="4.02196" y1="60.03904" x2="32.32237" y2="43.70074"/><line class="cls-1" x1="2.70905" y1="59.30953" x2="31.00947" y2="42.97123"/><polyline class="cls-1" points="75.94 180.389 144.795 140.71 144.795 142.752"/><polyline class="cls-1" points="75.94 182.577 75.94 180.389 51.432 166.239"/><line class="cls-1" x1="63.10269" y1="138.95942" x2="51.43244" y2="145.66985"/><polyline class="cls-1" points="80.9 71.709 80.9 70.397 79.733 71.126 79.733 69.667 151.067 28.384"/><polyline class="cls-1" points="102.49 0.375 31.009 41.659 31.009 42.972"/><line class="cls-1" x1="31.00947" y1="41.65823" x2="79.73284" y2="69.66692"/><line class="cls-1" x1="80.89987" y1="71.70913" x2="79.73285" y2="71.12564"/><line class="cls-1" x1="149.75445" y1="30.57133" x2="149.75445" y2="32.03035"/><polyline class="cls-1" points="151.067 28.383 151.067 29.842 149.754 30.571"/><line class="cls-1" x1="79.73282" y1="335.3114" x2="144.21104" y2="297.96658"/><line class="cls-1" x1="151.06733" y1="292.71488" x2="149.75443" y2="291.98566"/><polyline class="cls-1" points="75.94 254.932 138.668 218.755 144.795 215.254"/><polyline class="cls-1" points="144.795 213.065 130.644 204.896 115.327 195.998"/><polyline class="cls-1" points="51.432 204.604 63.103 211.315 75.94 218.755 115.327 195.998"/><polyline class="cls-1" points="144.795 176.887 130.644 168.718 115.327 159.82"/><line class="cls-1" x1="51.43242" y1="316.05535" x2="51.43242" y2="314.59663"/><line class="cls-1" x1="40.92918" y1="115.47263" x2="50.11953" y2="120.72434"/><polyline class="cls-1" points="51.432 132.103 63.103 138.959 75.94 146.399 115.327 123.642"/><polyline class="cls-1" points="144.795 104.386 130.644 96.217 102.49 79.878 72.877 96.946 40.929 115.473"/><polyline class="cls-1" points="51.432 168.426 63.103 175.137 75.94 182.577 115.327 159.82"/><polyline class="cls-1" points="144.795 140.709 130.644 132.54 115.327 123.642"/><polyline class="cls-1" points="80.9 71.709 130.644 42.971 149.754 32.03"/><line class="cls-1" x1="79.73282" y1="71.12564" x2="72.87654" y2="67.18694"/><polyline class="cls-1" points="151.067 28.383 131.957 17.443 102.49 0.375"/><polyline class="cls-1" points="144.211 297.967 150.338 294.466 151.067 294.028"/><polyline class="cls-1" points="50.12 318.244 60.623 324.225 62.373 325.246 68.646 328.893 79.733 335.311"/><polyline class="cls-1" points="115.327 195.997 130.644 187.245 144.795 179.076"/><line class="cls-1" x1="51.43242" y1="314.59663" x2="51.43242" y2="294.02788"/><line class="cls-1" x1="4.02196" y1="94.17437" x2="40.92918" y2="115.47263"/><line class="cls-1" x1="177.4713" y1="307.8862" x2="151.06733" y2="292.71488"/><polyline class="cls-1" points="115.327 123.642 130.644 114.743 144.795 106.574"/><polyline class="cls-1" points="115.327 159.82 130.644 150.921 144.795 142.752"/><polyline class="cls-1" points="72.877 67.187 32.322 43.701 31.009 42.971"/><line class="cls-1" x1="51.43244" y1="294.02788" x2="51.43244" y2="240.78252"/><polyline class="cls-1" points="1.542 92.716 2.709 93.445 4.022 94.175"/><line class="cls-1" x1="51.43261" y1="240.78193" x2="51.43261" y2="238.73971"/><line class="cls-1" x1="51.43214" y1="238.73912" x2="51.43214" y2="218.02464"/><line class="cls-1" x1="51.43244" y1="218.02405" x2="51.43244" y2="204.60349"/><line class="cls-1" x1="51.43244" y1="204.6026" x2="51.43244" y2="202.41466"/><line class="cls-1" x1="51.43214" y1="202.41407" x2="51.43214" y2="181.84532"/><line class="cls-1" x1="51.43214" y1="181.84532" x2="51.43214" y2="168.42476"/><line class="cls-1" x1="51.43214" y1="132.1009" x2="51.43214" y2="121.45206"/><line class="cls-1" x1="51.43214" y1="168.42446" x2="51.43214" y2="132.1009"/><polyline class="cls-1" points="51.432 294.026 102.49 264.558 149.754 291.983"/></svg>