<svg id="bookcase_ex" data-name="bookcase ex" xmlns="http://www.w3.org/2000/svg" viewBox="0 0 181.62 391.98"><defs><style>.cls-1{fill:none;stroke:#000;stroke-linecap:round;stroke-linejoin:round;stroke-width:0.29px;}</style></defs><polyline class="cls-1" points="46.24 390.37 44.35 391.54 0.15 365.86"/><polygon class="cls-1" points="46.24 383.37 44.35 384.39 0.15 358.86 1.9 357.69 46.24 383.37"/><line class="cls-1" x1="44.35" y1="391.54" x2="44.35" y2="384.39"/><line class="cls-1" x1="46.24" y1="390.37" x2="46.24" y2="383.37"/><line class="cls-1" x1="0.15" y1="365.86" x2="0.15" y2="358.86"/><polyline class="cls-1" points="180.31 242.74 181.47 242.01 181.47 44.49"/><line class="cls-1" x1="179.14" y1="242.01" x2="179.14" y2="47.41"/><polyline class="cls-1" points="180.31 242.74 180.31 241.28 179.14 242.01"/><line class="cls-1" x1="130.42" y1="204.67" x2="130.42" y2="187.02"/><line class="cls-1" x1="130.42" y1="168.49" x2="130.42" y2="150.69"/><line class="cls-1" x1="130.42" y1="132.31" x2="130.42" y2="114.51"/><line class="cls-1" x1="130.42" y1="95.99" x2="130.42" y2="42.74"/><line class="cls-1" x1="181.47" y1="44.49" x2="132.9" y2="16.48"/><polyline class="cls-1" points="180.31 242.74 179.14 242.01 138.44 218.53"/><line class="cls-1" x1="131.73" y1="17.21" x2="132.9" y2="16.48"/><polyline class="cls-1" points="179.14 47.41 180.31 46.68 180.31 45.22"/><line class="cls-1" x1="149.53" y1="30.34" x2="179.14" y2="47.41"/><line class="cls-1" x1="150.84" y1="29.61" x2="180.31" y2="46.68"/><polyline class="cls-1" points="150.84 28.15 180.31 45.22 181.47 44.49"/><line class="cls-1" x1="33.26" y1="348.94" x2="31.51" y2="347.77"/><polyline class="cls-1" points="31.51 340.77 33.26 341.79 62.14 325.02"/><polyline class="cls-1" points="33.26 341.79 33.26 348.94 68.42 328.66"/><polyline class="cls-1" points="31.51 347.77 31.51 340.77 60.39 324"/><line class="cls-1" x1="177.24" y1="341.79" x2="177.83" y2="342.08"/><polyline class="cls-1" points="104.01 384.68 104.01 391.83 177.83 349.23"/><line class="cls-1" x1="103.43" y1="391.54" x2="104.01" y2="391.83"/><polyline class="cls-1" points="177.24 341.79 103.43 384.39 104.01 384.68 177.83 342.08 177.83 349.23"/><line class="cls-1" x1="103.43" y1="384.39" x2="103.43" y2="391.54"/><polyline class="cls-1" points="149.53 291.76 80.67 331.44 80.67 332.89 79.5 333.62 79.5 335.08"/><line class="cls-1" x1="79.5" y1="333.62" x2="49.89" y2="316.56"/><line class="cls-1" x1="80.67" y1="331.44" x2="51.2" y2="314.37"/><line class="cls-1" x1="80.67" y1="332.89" x2="51.2" y2="315.83"/><line class="cls-1" x1="149.53" y1="293.07" x2="149.53" y2="291.76"/><polyline class="cls-1" points="150.84 293.8 150.84 292.49 149.53 293.07"/><line class="cls-1" x1="51.2" y1="240.55" x2="75.71" y2="254.7"/><polyline class="cls-1" points="75.71 252.66 144.56 212.84 144.56 215.02"/><polyline class="cls-1" points="75.71 254.7 75.71 252.66 51.2 238.51"/><line class="cls-1" x1="62.87" y1="211.09" x2="51.2" y2="217.8"/><polyline class="cls-1" points="75.71 216.48 144.56 176.66 144.56 178.85"/><polyline class="cls-1" points="75.71 218.53 75.71 216.48 51.2 202.19"/><line class="cls-1" x1="62.87" y1="174.91" x2="51.2" y2="181.62"/><polyline class="cls-1" points="49.89 318.01 48.72 318.74 48.72 121.22"/><polyline class="cls-1" points="49.89 318.01 49.89 316.56 51.2 315.83"/><polyline class="cls-1" points="0.15 290.59 0.15 93.22 48.72 121.22"/><line class="cls-1" x1="48.72" y1="318.74" x2="0.15" y2="290.59"/><line class="cls-1" x1="1.31" y1="92.49" x2="0.15" y2="93.22"/><polygon class="cls-1" points="51.2 121.22 49.89 121.95 49.89 120.5 51.2 121.22"/><line class="cls-1" x1="49.89" y1="120.5" x2="48.72" y2="121.22"/><polyline class="cls-1" points="177.24 314.81 175.35 315.83 143.98 297.74"/><polyline class="cls-1" points="177.24 307.66 175.35 308.68 150.11 294.24"/><line class="cls-1" x1="175.35" y1="315.83" x2="175.35" y2="308.68"/><line class="cls-1" x1="177.24" y1="314.8" x2="177.24" y2="307.66"/><line class="cls-1" x1="75.71" y1="373.45" x2="73.96" y2="372.28"/><line class="cls-1" x1="75.71" y1="366.3" x2="73.96" y2="365.28"/><polyline class="cls-1" points="143.98 324.73 145.88 325.75 75.71 366.3 75.71 373.45"/><polyline class="cls-1" points="145.88 325.75 145.88 332.89 75.71 373.45"/><polyline class="cls-1" points="73.96 372.28 73.96 365.28 143.98 324.73"/><polyline class="cls-1" points="75.71 143.98 144.56 104.16 144.56 106.34"/><polyline class="cls-1" points="75.71 146.17 75.71 143.98 51.2 129.83"/><line class="cls-1" x1="72.65" y1="66.96" x2="72.65" y2="96.72"/><polyline class="cls-1" points="3.79 93.94 3.79 59.81 2.48 59.08 2.48 93.22"/><line class="cls-1" x1="3.79" y1="59.81" x2="32.09" y2="43.47"/><line class="cls-1" x1="2.48" y1="59.08" x2="30.78" y2="42.74"/><polyline class="cls-1" points="75.71 180.16 144.56 140.48 144.56 142.52"/><polyline class="cls-1" points="75.71 182.35 75.71 180.16 51.2 166.01"/><line class="cls-1" x1="62.87" y1="138.73" x2="51.2" y2="145.44"/><polyline class="cls-1" points="80.67 71.48 80.67 70.17 79.5 70.9 79.5 69.44 150.84 28.16"/><polyline class="cls-1" points="102.26 0.15 30.78 41.43 30.78 42.74"/><line class="cls-1" x1="30.78" y1="41.43" x2="79.5" y2="69.44"/><line class="cls-1" x1="80.67" y1="71.48" x2="79.5" y2="70.9"/><line class="cls-1" x1="149.53" y1="30.34" x2="149.53" y2="31.8"/><polyline class="cls-1" points="150.84 28.15 150.84 29.61 149.53 30.34"/><line class="cls-1" x1="79.5" y1="335.08" x2="143.98" y2="297.74"/><line class="cls-1" x1="150.84" y1="292.49" x2="149.53" y2="291.76"/><polyline class="cls-1" points="75.71 254.7 138.44 218.53 144.56 215.02"/><polyline class="cls-1" points="144.56 212.84 130.41 204.67 115.1 195.77"/><polyline class="cls-1" points="51.2 204.38 62.87 211.09 75.71 218.53 115.1 195.77"/><polyline class="cls-1" points="144.56 176.66 130.41 168.49 115.1 159.59"/><line class="cls-1" x1="51.2" y1="315.83" x2="51.2" y2="314.37"/><line class="cls-1" x1="40.7" y1="115.24" x2="49.89" y2="120.5"/><polyline class="cls-1" points="51.2 131.87 62.87 138.73 75.71 146.17 115.1 123.41"/><polyline class="cls-1" points="144.56 104.16 130.41 95.99 102.26 79.65 72.65 96.72 40.7 115.24"/><polyline class="cls-1" points="51.2 168.2 62.87 174.91 75.71 182.35 115.1 159.59"/><polyline class="cls-1" points="144.56 140.48 130.41 132.31 115.1 123.41"/><polyline class="cls-1" points="80.67 71.48 130.41 42.74 149.53 31.8"/><line class="cls-1" x1="79.5" y1="70.9" x2="72.65" y2="66.96"/><polyline class="cls-1" points="150.84 28.15 131.73 17.21 102.26 0.15"/><polyline class="cls-1" points="143.98 297.74 150.11 294.24 150.84 293.8"/><polyline class="cls-1" points="49.89 318.01 60.39 324 62.14 325.02 68.42 328.66 79.5 335.08"/><polyline class="cls-1" points="115.1 195.77 130.41 187.02 144.56 178.85"/><line class="cls-1" x1="51.2" y1="314.37" x2="51.2" y2="293.8"/><line class="cls-1" x1="3.79" y1="93.95" x2="40.7" y2="115.24"/><line class="cls-1" x1="177.24" y1="307.66" x2="150.84" y2="292.49"/><polyline class="cls-1" points="115.1 123.41 130.41 114.51 144.56 106.34"/><polyline class="cls-1" points="115.1 159.59 130.41 150.69 144.56 142.52"/><polyline class="cls-1" points="72.65 66.96 32.09 43.47 30.78 42.74"/><line class="cls-1" x1="51.2" y1="293.8" x2="51.2" y2="240.55"/><polyline class="cls-1" points="1.31 92.49 2.48 93.22 3.79 93.95"/><line class="cls-1" x1="51.2" y1="240.55" x2="51.2" y2="238.51"/><line class="cls-1" x1="51.2" y1="238.51" x2="51.2" y2="217.8"/><line class="cls-1" x1="51.2" y1="217.79" x2="51.2" y2="204.37"/><line class="cls-1" x1="51.2" y1="204.37" x2="51.2" y2="202.19"/><line class="cls-1" x1="51.2" y1="202.18" x2="51.2" y2="181.62"/><line class="cls-1" x1="51.2" y1="181.62" x2="51.2" y2="168.2"/><line class="cls-1" x1="51.2" y1="131.87" x2="51.2" y2="121.22"/><line class="cls-1" x1="51.2" y1="168.2" x2="51.2" y2="131.87"/><polyline class="cls-1" points="51.2 293.8 102.26 264.33 149.53 291.75"/></svg>