<svg id="chair_main" data-name="chair main" xmlns="http://www.w3.org/2000/svg" viewBox="0 0 197.9 304.91"><defs><style>.cls-1,.cls-2{fill:none;stroke:#000;stroke-linecap:round;stroke-linejoin:round;}.cls-1{stroke-width:0.54px;}.cls-2{stroke-width:5.11px;}</style></defs><polyline class="cls-1" points="18.42 168.72 18.42 160.93 25.14 156.89"/><polyline class="cls-1" points="91.02 100.7 106.89 109.84 113.61 106.07"/><line class="cls-1" x1="183.79" y1="227.07" x2="183.52" y2="226"/><line class="cls-1" x1="183.79" y1="228.95" x2="183.79" y2="227.07"/><polyline class="cls-1" points="181.63 222.77 183.25 224.92 183.52 226"/><line class="cls-1" x1="180.83" y1="221.96" x2="181.63" y2="222.77"/><line class="cls-1" x1="179.21" y1="221.43" x2="180.02" y2="221.69"/><line class="cls-1" x1="182.71" y1="230.03" x2="183.25" y2="229.76"/><line class="cls-1" x1="180.02" y1="221.69" x2="180.83" y2="221.96"/><line class="cls-1" x1="183.25" y1="229.76" x2="183.79" y2="228.95"/><line class="cls-1" x1="178.41" y1="221.43" x2="179.21" y2="221.43"/><polyline class="cls-1" points="25.13 251.27 18.4 255.31 2.54 246.16"/><line class="cls-1" x1="9.26" y1="53.64" x2="25.13" y2="62.78"/><polyline class="cls-1" points="18.4 66.82 2.54 57.41 2.54 246.16"/><line class="cls-1" x1="25.13" y1="62.78" x2="18.4" y2="66.82"/><line class="cls-1" x1="2.54" y1="57.41" x2="9.26" y2="53.64"/><line class="cls-1" x1="25.13" y1="251.27" x2="25.13" y2="172.76"/><line class="cls-1" x1="97.72" y1="2.55" x2="113.59" y2="11.7"/><line class="cls-1" x1="106.87" y1="15.73" x2="91" y2="6.59"/><line class="cls-1" x1="91" y1="100.7" x2="91" y2="32.67"/><line class="cls-1" x1="113.59" y1="11.7" x2="106.87" y2="15.73"/><line class="cls-1" x1="91" y1="6.59" x2="97.72" y2="2.55"/><line class="cls-1" x1="113.59" y1="106.07" x2="113.59" y2="11.7"/><line class="cls-1" x1="106.87" y1="15.73" x2="106.87" y2="23.53"/><polyline class="cls-1" points="25.13 70.58 25.13 62.78 106.87 15.73"/><line class="cls-1" x1="91" y1="6.59" x2="9.26" y2="53.64"/><line class="cls-1" x1="195.33" y1="153.13" x2="99.88" y2="207.98"/><line class="cls-1" x1="91" y1="100.7" x2="25.13" y2="138.61"/><polyline class="cls-1" points="18.4 160.93 99.88 207.98 99.88 216.05"/><polyline class="cls-1" points="113.59 106.08 195.33 153.13 195.33 160.93"/><polyline class="cls-1" points="106.87 298.33 99.88 302.36 84.01 293.22"/><polyline class="cls-1" points="99.88 302.36 99.88 216.05 84.01 206.64 84.01 293.22"/><line class="cls-1" x1="106.87" y1="212.01" x2="99.88" y2="216.05"/><polyline class="cls-1" points="195.33 247.24 188.34 251.27 172.47 242.13"/><line class="cls-1" x1="188.34" y1="251.27" x2="188.34" y2="164.96"/><line class="cls-1" x1="172.47" y1="242.13" x2="172.47" y2="235.95"/><line class="cls-1" x1="172.47" y1="224.92" x2="172.47" y2="174.1"/><polyline class="cls-1" points="188.34 164.96 195.33 160.93 195.33 247.24"/><line class="cls-1" x1="18.42" y1="255.31" x2="18.42" y2="168.72"/><line class="cls-1" x1="25.14" y1="156.89" x2="25.14" y2="138.61"/><polyline class="cls-1" points="106.88 109.84 106.88 23.53 91.02 32.67 25.14 70.58"/><line class="cls-1" x1="25.14" y1="172.76" x2="18.42" y2="168.72"/><line class="cls-1" x1="106.88" y1="298.33" x2="106.88" y2="273.86"/><polyline class="cls-1" points="182.71 230.03 172.49 235.95 106.88 273.86"/><polyline class="cls-1" points="178.41 221.43 172.49 224.92 106.88 262.83"/><line class="cls-1" x1="18.42" y1="160.93" x2="18.42" y2="66.82"/><line class="cls-1" x1="25.15" y1="138.61" x2="25.15" y2="70.59"/><line class="cls-1" x1="172.49" y1="174.11" x2="106.89" y2="212.02"/><line class="cls-1" x1="84.03" y1="206.64" x2="25.15" y2="172.76"/><line class="cls-1" x1="106.89" y1="273.86" x2="106.89" y2="212.02"/><line class="cls-1" x1="188.35" y1="164.96" x2="172.48" y2="174.1"/><polygon class="cls-2" points="84.03 207.98 25.14 172.76 25.14 251.27 18.42 255.31 2.55 246.16 2.55 57.41 97.74 2.55 113.6 11.7 113.6 106.07 195.34 153.13 195.34 247.24 188.35 251.27 172.49 242.13 172.49 235.94 106.88 273.86 106.88 298.33 99.89 302.36 84.03 293.22 84.03 207.98"/></svg>