<svg id="chair_ex" data-name="chair ex" xmlns="http://www.w3.org/2000/svg" viewBox="0 0 356.54 394.72"><defs><style>.cls-1{fill:none;stroke:#000;stroke-linecap:round;stroke-linejoin:round;stroke-width:0.54px;}</style></defs><polyline class="cls-1" points="23.12 311.9 16.13 315.67 0.27 306.53"/><line class="cls-1" x1="7.26" y1="114.28" x2="23.12" y2="123.42"/><polyline class="cls-1" points="16.13 315.67 16.13 127.18 0.27 118.04 0.27 306.53"/><line class="cls-1" x1="23.12" y1="123.42" x2="16.13" y2="127.18"/><line class="cls-1" x1="0.27" y1="118.04" x2="7.26" y2="114.28"/><line class="cls-1" x1="23.12" y1="311.9" x2="23.12" y2="123.42"/><line class="cls-1" x1="143.31" y1="129.87" x2="159.18" y2="139.01"/><line class="cls-1" x1="61.57" y1="176.93" x2="77.44" y2="186.07"/><line class="cls-1" x1="247.37" y1="190.1" x2="152.19" y2="245.22"/><line class="cls-1" x1="61.57" y1="184.99" x2="61.57" y2="176.93"/><line class="cls-1" x1="247.37" y1="182.3" x2="152.19" y2="237.16"/><line class="cls-1" x1="143.31" y1="129.87" x2="61.57" y2="176.93"/><polyline class="cls-1" points="61.57 184.99 70.72 190.1 152.19 237.16"/><polyline class="cls-1" points="70.72 190.1 70.72 197.9 152.19 245.22 152.19 237.16"/><line class="cls-1" x1="77.44" y1="186.07" x2="70.72" y2="190.1"/><line class="cls-1" x1="247.37" y1="182.3" x2="247.37" y2="190.1"/><line class="cls-1" x1="159.18" y1="139.01" x2="165.9" y2="135.25"/><line class="cls-1" x1="204.35" y1="0.27" x2="220.22" y2="9.41"/><polyline class="cls-1" points="213.49 162.67 213.49 13.44 197.63 4.3 197.63 153.53"/><line class="cls-1" x1="220.22" y1="9.41" x2="213.49" y2="13.44"/><line class="cls-1" x1="197.63" y1="4.3" x2="204.35" y2="0.27"/><line class="cls-1" x1="220.22" y1="166.44" x2="220.22" y2="9.41"/><polyline class="cls-1" points="356.27 276.41 349.55 280.44 333.68 271.3"/><line class="cls-1" x1="340.41" y1="180.96" x2="356.27" y2="190.1"/><polyline class="cls-1" points="349.55 280.44 349.55 194.13 333.68 184.99 333.68 271.3"/><line class="cls-1" x1="356.27" y1="190.1" x2="349.55" y2="194.13"/><line class="cls-1" x1="333.68" y1="184.99" x2="340.41" y2="180.96"/><line class="cls-1" x1="356.27" y1="276.41" x2="356.27" y2="190.1"/><polyline class="cls-1" points="159.18 52.7 159.18 44.9 143.31 35.76"/><line class="cls-1" x1="61.59" y1="82.82" x2="77.45" y2="91.96"/><polyline class="cls-1" points="159.19 52.7 77.45 99.76 61.59 90.61"/><line class="cls-1" x1="77.45" y1="91.96" x2="77.45" y2="99.76"/><line class="cls-1" x1="61.59" y1="90.61" x2="61.59" y2="82.82"/><line class="cls-1" x1="159.19" y1="44.9" x2="77.45" y2="91.96"/><line class="cls-1" x1="143.33" y1="35.76" x2="61.59" y2="82.82"/><polyline class="cls-1" points="159.19 390.42 152.2 394.45 136.34 385.04"/><line class="cls-1" x1="143.33" y1="294.96" x2="159.19" y2="304.11"/><polyline class="cls-1" points="152.2 394.45 152.2 307.87 136.34 298.73 136.34 385.04"/><line class="cls-1" x1="159.19" y1="304.11" x2="152.2" y2="307.87"/><line class="cls-1" x1="136.34" y1="298.73" x2="143.33" y2="294.96"/><line class="cls-1" x1="159.19" y1="390.42" x2="159.19" y2="304.11"/><line class="cls-1" x1="290.41" y1="286.63" x2="290.41" y2="287.71"/><line class="cls-1" x1="208.67" y1="333.68" x2="208.94" y2="334.76"/><line class="cls-1" x1="288.53" y1="283.4" x2="289.06" y2="284.21"/><line class="cls-1" x1="202.48" y1="330.19" x2="202.75" y2="329.65"/><line class="cls-1" x1="290.68" y1="288.78" x2="290.41" y2="289.59"/><line class="cls-1" x1="208.94" y1="335.84" x2="208.67" y2="336.64"/><line class="cls-1" x1="205.98" y1="337.72" x2="205.17" y2="337.18"/><polyline class="cls-1" points="289.06 284.21 289.87 285.29 290.41 286.63"/><line class="cls-1" x1="290.41" y1="287.71" x2="290.68" y2="288.78"/><polyline class="cls-1" points="290.41 289.59 289.87 290.13 289.33 290.66"/><polyline class="cls-1" points="285.03 282.06 286.64 282.06 287.45 282.6 288.53 283.4"/><line class="cls-1" x1="208.94" y1="334.76" x2="208.94" y2="335.84"/><polyline class="cls-1" points="207.06 337.99 207.59 337.72 208.4 337.45"/><line class="cls-1" x1="202.75" y1="329.65" x2="203.29" y2="329.11"/><line class="cls-1" x1="207.59" y1="331.53" x2="208.13" y2="332.61"/><line class="cls-1" x1="208.67" y1="336.64" x2="208.4" y2="337.45"/><polyline class="cls-1" points="207.59 331.53 206.79 330.46 205.98 329.65 204.9 329.38 204.1 329.11 203.29 329.11"/><polyline class="cls-1" points="202.48 330.19 202.22 331 202.22 332.07 202.48 333.15 203.02 334.49 203.56 335.57 204.37 336.37 205.17 337.18"/><line class="cls-1" x1="207.05" y1="337.99" x2="205.98" y2="337.72"/><line class="cls-1" x1="208.13" y1="332.61" x2="208.67" y2="333.68"/><line class="cls-1" x1="289.33" y1="290.66" x2="207.59" y2="337.72"/><line class="cls-1" x1="285.03" y1="282.06" x2="203.29" y2="329.11"/><polyline class="cls-1" points="165.92 135.25 213.51 162.68 220.24 166.44 247.39 182.31"/></svg>