<svg id="desk_main" data-name="desk main" xmlns="http://www.w3.org/2000/svg" viewBox="0 0 263.45 298.39"><defs><style>.cls-1,.cls-2{fill:none;stroke:#000;stroke-linecap:round;stroke-linejoin:round;}.cls-1{stroke-width:0.42px;}.cls-2{stroke-width:3.98px;}</style></defs><line class="cls-1" x1="181.95" y1="50.74" x2="258.74" y2="95.11"/><polyline class="cls-1" points="95.95 100.55 130.47 120.42 132.98 118.75"/><line class="cls-1" x1="216.47" y1="30.87" x2="216.47" y2="27.94"/><line class="cls-1" x1="130.47" y1="80.67" x2="132.98" y2="78.99"/><polyline class="cls-1" points="258.74 95.11 89.45 192.83 89.45 199.1"/><line class="cls-1" x1="258.74" y1="95.11" x2="258.74" y2="101.17"/><polyline class="cls-1" points="86.73 200.57 86.73 176.09 44.47 127.12 1.99 102.85 1.99 151.6"/><polyline class="cls-1" points="4.71 101.17 46.98 125.66 44.47 127.12"/><line class="cls-1" x1="1.99" y1="102.85" x2="4.71" y2="101.17"/><line class="cls-1" x1="86.73" y1="176.09" x2="89.45" y2="174.62"/><line class="cls-1" x1="89.45" y1="199.1" x2="86.73" y2="200.57"/><polyline class="cls-1" points="261.46 99.71 261.46 75.23 218.98 26.26 176.71 1.99"/><polyline class="cls-1" points="173.99 3.45 216.47 27.93 258.74 76.69"/><line class="cls-1" x1="218.98" y1="26.26" x2="216.47" y2="27.94"/><line class="cls-1" x1="176.71" y1="1.99" x2="173.99" y2="3.45"/><line class="cls-1" x1="261.46" y1="75.23" x2="258.74" y2="76.69"/><line class="cls-1" x1="258.74" y1="101.17" x2="261.46" y2="99.71"/><line class="cls-1" x1="132.98" y1="118.75" x2="132.98" y2="78.99"/><line class="cls-1" x1="130.47" y1="120.42" x2="130.47" y2="80.67"/><line class="cls-1" x1="46.98" y1="125.66" x2="216.47" y2="27.94"/><line class="cls-1" x1="173.99" y1="3.45" x2="4.71" y2="101.17"/><line class="cls-1" x1="183.83" y1="183.2" x2="187.18" y2="142.61"/><line class="cls-1" x1="233.21" y1="116.03" x2="233.21" y2="211.66"/><polyline class="cls-1" points="181.94 145.53 178.39 186.34 171.48 182.15 171.48 151.6"/><line class="cls-1" x1="183.83" y1="183.2" x2="178.39" y2="186.34"/><line class="cls-1" x1="220.87" y1="210.82" x2="214.38" y2="126.91"/><polyline class="cls-1" points="227.98 118.96 227.98 214.8 220.87 210.82"/><line class="cls-1" x1="233.21" y1="211.66" x2="227.98" y2="214.8"/><polyline class="cls-1" points="45.09 176.5 37.35 267.74 30.24 263.76 30.24 167.93"/><polyline class="cls-1" points="86.73 200.57 86.73 296.41 79.62 292.22 71.88 191.99"/><polyline class="cls-1" points="49.91 179.22 42.58 264.81 37.35 267.74"/><polyline class="cls-1" points="91.97 197.43 91.97 293.27 86.73 296.41"/><line class="cls-1" x1="91.97" y1="197.43" x2="89.46" y2="199.1"/><line class="cls-1" x1="89.46" y1="192.83" x2="89.46" y2="174.62"/><polyline class="cls-1" points="46.98 125.66 48.86 127.75 89.46 174.62"/><line class="cls-1" x1="258.74" y1="95.11" x2="258.74" y2="76.69"/><line class="cls-1" x1="181.95" y1="50.74" x2="216.47" y2="30.87"/><line class="cls-1" x1="171.48" y1="151.6" x2="91.97" y2="197.43"/><polyline class="cls-1" points="1.99 151.6 30.24 167.93 45.09 176.5"/><line class="cls-1" x1="71.88" y1="191.99" x2="86.73" y2="200.57"/><line class="cls-1" x1="48.86" y1="127.75" x2="95.94" y2="100.55"/><line class="cls-1" x1="181.94" y1="145.54" x2="171.48" y2="151.6"/><polyline class="cls-1" points="45.09 176.5 49.91 179.22 71.88 191.99"/><line class="cls-1" x1="95.94" y1="100.55" x2="130.47" y2="80.67"/><line class="cls-1" x1="187.18" y1="142.61" x2="181.94" y2="145.54"/><line class="cls-1" x1="132.98" y1="78.99" x2="181.94" y2="50.74"/><line class="cls-1" x1="258.74" y1="101.17" x2="233.21" y2="116.03"/><line class="cls-1" x1="214.38" y1="126.91" x2="187.18" y2="142.6"/><polyline class="cls-1" points="233.21 116.03 227.98 118.96 214.38 126.91"/><polygon class="cls-2" points="261.46 75.23 261.46 99.71 233.21 116.03 233.21 211.66 227.98 214.8 220.87 210.82 214.38 126.91 187.18 142.61 183.83 183.2 178.39 186.34 171.48 182.15 171.48 151.6 91.97 197.43 91.97 293.27 86.73 296.41 79.62 292.22 71.88 191.99 49.91 179.22 42.58 264.81 37.35 267.74 30.24 263.76 30.24 167.93 1.99 151.6 1.99 102.85 176.71 1.99 218.98 26.26 261.46 75.23"/></svg>