<svg id="desk_ex" data-name="desk ex" xmlns="http://www.w3.org/2000/svg" viewBox="0 0 292.25 393.93"><defs><style>.cls-1{fill:none;stroke:#000;stroke-linecap:round;stroke-linejoin:round;stroke-width:0.35px;}</style></defs><polyline class="cls-1" points="214.71 205.66 214.18 201.04 203.71 195.01"/><polyline class="cls-1" points="77.72 259.6 78.25 255.52 98.84 267.59 99.37 272.2"/><line class="cls-1" x1="99.9" y1="243.1" x2="78.25" y2="255.52"/><line class="cls-1" x1="214.17" y1="201.04" x2="98.84" y2="267.59"/><polyline class="cls-1" points="214.71 205.66 99.37 272.2 77.72 259.6"/><polyline class="cls-1" points="59.09 298.11 58.56 290.83 37.8 278.94 37.26 285.51"/><polyline class="cls-1" points="62.99 288.17 42.23 276.28 37.8 278.94"/><line class="cls-1" x1="58.56" y1="290.83" x2="62.99" y2="288.17"/><polyline class="cls-1" points="37.26 285.51 30.16 369.62 24.13 366.07 24.13 271.13 37.8 278.94"/><polyline class="cls-1" points="72.04 298.64 72.04 393.75 66.19 390.2"/><line class="cls-1" x1="58.56" y1="290.83" x2="72.04" y2="298.64"/><line class="cls-1" x1="66.19" y1="390.2" x2="59.09" y2="298.11"/><line class="cls-1" x1="34.6" y1="366.95" x2="41.34" y2="287.81"/><line class="cls-1" x1="28.75" y1="268.47" x2="42.23" y2="276.28"/><line class="cls-1" x1="30.17" y1="369.62" x2="34.6" y2="366.95"/><line class="cls-1" x1="24.13" y1="271.13" x2="28.75" y2="268.47"/><polyline class="cls-1" points="62.99 288.17 76.66 296.15 76.66 391.09"/><line class="cls-1" x1="72.04" y1="298.64" x2="76.66" y2="296.15"/><line class="cls-1" x1="72.04" y1="393.75" x2="76.66" y2="391.09"/><polygon class="cls-1" points="72.04 271.13 72.04 250.37 36.2 208.85 0.18 188.09 0.18 229.61 72.04 271.13"/><line class="cls-1" x1="74.35" y1="269.72" x2="74.35" y2="248.95"/><polyline class="cls-1" points="2.48 186.85 38.51 207.61 74.35 248.95"/><line class="cls-1" x1="36.2" y1="208.85" x2="38.51" y2="207.61"/><line class="cls-1" x1="0.18" y1="188.09" x2="2.48" y2="186.85"/><line class="cls-1" x1="72.04" y1="250.37" x2="74.35" y2="248.95"/><line class="cls-1" x1="74.35" y1="269.72" x2="72.04" y2="271.13"/><polyline class="cls-1" points="111.44 85.17 147.28 105.76 147.28 139.47"/><polygon class="cls-1" points="109.13 120.13 109.13 86.42 144.97 107.18 144.97 140.89 109.13 120.13"/><line class="cls-1" x1="147.28" y1="105.76" x2="144.97" y2="107.18"/><line class="cls-1" x1="147.28" y1="139.47" x2="144.97" y2="140.89"/><polyline class="cls-1" points="74.35 103.98 217.9 20.94 182.06 0.18 38.51 83.22 74.35 103.98 74.35 106.47"/><line class="cls-1" x1="217.9" y1="20.94" x2="217.9" y2="23.6"/><polyline class="cls-1" points="74.35 106.47 38.51 85.71 38.51 83.22"/><polyline class="cls-1" points="292.07 144.09 292.07 123.32 256.05 81.8 220.21 61.22"/><polygon class="cls-1" points="289.77 124.57 289.77 145.33 217.9 103.98 217.9 62.46 253.92 83.22 289.77 124.57"/><line class="cls-1" x1="256.05" y1="81.8" x2="253.92" y2="83.22"/><line class="cls-1" x1="220.21" y1="61.22" x2="217.9" y2="62.46"/><line class="cls-1" x1="292.07" y1="123.32" x2="289.77" y2="124.57"/><line class="cls-1" x1="289.77" y1="145.33" x2="292.07" y2="144.09"/><line class="cls-1" x1="244.16" y1="171.77" x2="254.45" y2="177.62"/><line class="cls-1" x1="250.55" y1="187.56" x2="233.69" y2="177.8"/><polyline class="cls-1" points="239.73 174.25 250.02 180.28 250.55 187.56"/><line class="cls-1" x1="254.45" y1="177.62" x2="250.02" y2="180.28"/><line class="cls-1" x1="226.24" y1="256.41" x2="232.81" y2="178.33"/><polyline class="cls-1" points="268.12 280.54 268.12 185.61 254.46 177.62"/><polyline class="cls-1" points="228.37 180.82 221.63 258.89 215.77 255.52 215.77 188.09"/><line class="cls-1" x1="226.24" y1="256.41" x2="221.63" y2="258.89"/><line class="cls-1" x1="257.65" y1="279.65" x2="250.55" y2="187.56"/><polyline class="cls-1" points="250.02 180.28 263.68 188.09 263.68 283.2 257.65 279.65"/><line class="cls-1" x1="268.12" y1="185.61" x2="263.68" y2="188.09"/><line class="cls-1" x1="268.12" y1="280.54" x2="263.68" y2="283.2"/><polyline class="cls-1" points="38.51 202.46 110.19 243.81 253.92 160.94 182.06 119.42"/><line class="cls-1" x1="38.51" y1="202.46" x2="38.51" y2="207.61"/><line class="cls-1" x1="110.19" y1="243.81" x2="110.19" y2="248.95"/><line class="cls-1" x1="253.92" y1="160.94" x2="253.92" y2="166.09"/><polyline class="cls-1" points="59.09 298.11 41.35 287.81 37.27 285.51"/><line class="cls-1" x1="111.44" y1="85.17" x2="217.9" y2="23.6"/><line class="cls-1" x1="38.51" y1="202.46" x2="144.97" y2="140.89"/><polyline class="cls-1" points="110.2 248.96 99.9 243.1 38.51 207.61"/><line class="cls-1" x1="203.71" y1="195.01" x2="110.2" y2="248.96"/><polyline class="cls-1" points="74.35 106.47 109.13 86.42 111.44 85.17"/><line class="cls-1" x1="147.28" y1="139.47" x2="182.06" y2="119.42"/><line class="cls-1" x1="215.77" y1="188.09" x2="203.71" y2="195.01"/><line class="cls-1" x1="253.92" y1="166.09" x2="244.16" y2="171.77"/><polyline class="cls-1" points="244.16 171.76 239.73 174.25 233.69 177.8 232.81 178.33"/><polyline class="cls-1" points="232.81 178.33 228.37 180.81 215.77 188.09"/></svg>