<svg id="dresser_ex" data-name="dresser ex" xmlns="http://www.w3.org/2000/svg" viewBox="0 0 375.6 355.89"><defs><style>.cls-1{fill:none;stroke:#000;stroke-linecap:round;stroke-linejoin:round;stroke-width:0.3px;}</style></defs><polyline class="cls-1" points="285.38 192.43 285.38 200.16 221.24 237.16"/><line class="cls-1" x1="199.7" y1="269.46" x2="250.2" y2="298.57"/><line class="cls-1" x1="221.24" y1="270.82" x2="228.06" y2="266.88"/><line class="cls-1" x1="199.7" y1="302.97" x2="250.2" y2="332.23"/><line class="cls-1" x1="221.24" y1="304.33" x2="228.06" y2="300.39"/><line class="cls-1" x1="285.38" y1="131.16" x2="337.09" y2="161.04"/><line class="cls-1" x1="255.35" y1="209.71" x2="255.35" y2="208.35"/><polyline class="cls-1" points="67.33 282.65 66.11 283.25 66.11 148.91"/><line class="cls-1" x1="67.33" y1="281.13" x2="68.54" y2="280.37"/><polyline class="cls-1" points="0.15 245.35 0.15 111 66.11 148.91"/><line class="cls-1" x1="1.52" y1="110.24" x2="0.15" y2="111"/><polygon class="cls-1" points="68.54 148.91 67.33 149.66 67.33 148.3 68.54 148.91"/><line class="cls-1" x1="67.33" y1="148.3" x2="66.11" y2="148.91"/><line class="cls-1" x1="90.98" y1="127.98" x2="90.98" y2="157.4"/><polyline class="cls-1" points="4.09 111.75 4.09 76.27 2.73 75.51 2.73 111"/><line class="cls-1" x1="4.09" y1="76.27" x2="33.51" y2="59.29"/><line class="cls-1" x1="90.98" y1="157.4" x2="68.54" y2="170.44"/><line class="cls-1" x1="2.73" y1="75.51" x2="32.15" y2="58.53"/><line class="cls-1" x1="219.42" y1="194.7" x2="218.2" y2="195.46"/><line class="cls-1" x1="219.42" y1="60.35" x2="219.42" y2="111"/><line class="cls-1" x1="219.42" y1="136.62" x2="219.42" y2="167.1"/><line class="cls-1" x1="219.42" y1="192.73" x2="219.42" y2="194.7"/><line class="cls-1" x1="216.99" y1="194.7" x2="216.99" y2="191.36"/><line class="cls-1" x1="216.99" y1="165.74" x2="216.99" y2="138.14"/><line class="cls-1" x1="216.99" y1="112.51" x2="216.99" y2="63.38"/><polyline class="cls-1" points="218.2 195.46 218.2 193.94 216.99 194.7"/><line class="cls-1" x1="151.03" y1="156.79" x2="151.03" y2="102.81"/><line class="cls-1" x1="219.42" y1="60.35" x2="191.36" y2="44.13"/><polyline class="cls-1" points="218.2 195.46 216.99 194.7 151.03 156.79"/><polyline class="cls-1" points="216.99 63.38 218.21 62.63 218.21 61.11"/><line class="cls-1" x1="187.57" y1="46.4" x2="216.99" y2="63.38"/><line class="cls-1" x1="188.79" y1="45.64" x2="218.2" y2="62.63"/><polyline class="cls-1" points="190.15 44.88 218.21 61.11 219.42 60.35"/><polyline class="cls-1" points="99.32 132.68 99.32 131.32 97.96 131.92 97.96 130.56 187.57 78.85"/><polyline class="cls-1" points="61.56 75.52 32.15 92.5 32.15 94.01"/><line class="cls-1" x1="32.15" y1="92.5" x2="97.96" y2="130.56"/><line class="cls-1" x1="99.32" y1="132.68" x2="97.96" y2="131.92"/><line class="cls-1" x1="186.21" y1="81.13" x2="186.21" y2="82.49"/><polyline class="cls-1" points="187.57 80.37 187.57 78.85 159.37 62.63"/><line class="cls-1" x1="186.21" y1="81.13" x2="187.57" y2="80.37"/><polyline class="cls-1" points="94.17 304.79 92.19 305.85 30.93 270.37"/><polyline class="cls-1" points="94.17 297.36 92.19 298.42 66.11 283.26"/><line class="cls-1" x1="92.19" y1="305.85" x2="92.19" y2="298.42"/><line class="cls-1" x1="94.17" y1="304.79" x2="94.17" y2="297.36"/><line class="cls-1" x1="30.93" y1="270.37" x2="30.93" y2="263.09"/><line class="cls-1" x1="68.54" y1="250.81" x2="71.12" y2="249.44"/><line class="cls-1" x1="182.42" y1="253.84" x2="184.39" y2="252.63"/><line class="cls-1" x1="174.08" y1="248.99" x2="149.82" y2="235.04"/><polyline class="cls-1" points="182.42 246.41 184.39 245.35 158.16 230.18"/><line class="cls-1" x1="182.42" y1="253.84" x2="182.42" y2="246.41"/><line class="cls-1" x1="184.39" y1="252.63" x2="184.39" y2="245.35"/><line class="cls-1" x1="94.17" y1="297.36" x2="92.2" y2="296.3"/><polyline class="cls-1" points="180.45 245.35 182.42 246.41 94.17 297.36"/><line class="cls-1" x1="94.17" y1="304.79" x2="182.42" y2="253.84"/><polyline class="cls-1" points="123.58 316.62 123.58 323.89 199.71 280.07"/><line class="cls-1" x1="122.98" y1="323.59" x2="123.58" y2="323.89"/><polyline class="cls-1" points="198.34 272.64 122.98 316.16 123.58 316.62 198.34 273.4"/><line class="cls-1" x1="122.98" y1="316.16" x2="122.98" y2="323.59"/><polyline class="cls-1" points="186.21 210.93 99.32 261.12 99.32 262.63 97.96 263.39 97.96 264.91"/><line class="cls-1" x1="186.21" y1="210.93" x2="121.61" y2="173.77"/><line class="cls-1" x1="97.96" y1="263.39" x2="68.54" y2="246.41"/><line class="cls-1" x1="99.32" y1="261.12" x2="68.54" y2="243.53"/><line class="cls-1" x1="99.32" y1="262.63" x2="68.54" y2="244.89"/><line class="cls-1" x1="186.21" y1="212.44" x2="186.21" y2="210.93"/><polyline class="cls-1" points="187.57 213.2 187.57 211.68 186.21 212.44"/><line class="cls-1" x1="191.37" y1="39.73" x2="122.98" y2="0.15"/><polyline class="cls-1" points="30.93 53.38 99.32 92.8 191.37 39.73"/><polyline class="cls-1" points="122.98 0.15 30.93 53.38 30.93 57.77"/><line class="cls-1" x1="99.32" y1="97.35" x2="99.32" y2="92.8"/><line class="cls-1" x1="191.37" y1="44.13" x2="191.37" y2="39.73"/><line class="cls-1" x1="303.12" y1="190" x2="296.3" y2="186.06"/><line class="cls-1" x1="305.09" y1="188.94" x2="298.27" y2="185"/><line class="cls-1" x1="201.53" y1="225.79" x2="199.71" y2="227"/><line class="cls-1" x1="199.71" y1="250.35" x2="199.71" y2="241.86"/><polyline class="cls-1" points="199.71 235.79 199.71 227 250.2 256.11"/><line class="cls-1" x1="239.13" y1="204.1" x2="221.09" y2="214.56"/><polyline class="cls-1" points="215.78 217.6 201.53 225.79 203.5 227"/><line class="cls-1" x1="241.1" y1="205.31" x2="222.75" y2="215.93"/><line class="cls-1" x1="217.75" y1="218.81" x2="203.5" y2="227"/><polyline class="cls-1" points="198.34 237.16 198.34 236.55 199.71 235.79"/><polyline class="cls-1" points="198.34 241.25 198.34 238.68 199.4 238.07 199.4 237.76"/><line class="cls-1" x1="198.34" y1="238.67" x2="250.2" y2="268.55"/><line class="cls-1" x1="199.4" y1="238.07" x2="250.2" y2="267.33"/><line class="cls-1" x1="199.71" y1="235.79" x2="250.2" y2="265.06"/><line class="cls-1" x1="198.34" y1="236.55" x2="250.2" y2="266.42"/><polyline class="cls-1" points="201.53 259.45 199.71 260.51 199.71 269.46"/><line class="cls-1" x1="250.2" y1="289.62" x2="199.71" y2="260.51"/><polyline class="cls-1" points="208.5 255.51 201.53 259.45 203.5 260.51 210.32 256.57"/><polyline class="cls-1" points="198.34 270.67 198.34 270.21 199.71 269.46"/><polyline class="cls-1" points="198.34 272.19 199.4 271.58 199.4 271.28"/><line class="cls-1" x1="198.34" y1="272.19" x2="250.2" y2="302.06"/><line class="cls-1" x1="199.4" y1="271.58" x2="250.2" y2="301"/><line class="cls-1" x1="198.34" y1="270.22" x2="250.2" y2="300.09"/><line class="cls-1" x1="201.53" y1="292.96" x2="199.71" y2="294.17"/><line class="cls-1" x1="199.71" y1="317.53" x2="199.71" y2="309.19"/><polyline class="cls-1" points="199.71 302.97 199.71 294.17 250.2 323.29"/><line class="cls-1" x1="250.2" y1="346.79" x2="199.71" y2="317.53"/><polyline class="cls-1" points="208.5 289.02 201.53 292.96 203.5 294.17 210.32 290.23"/><polyline class="cls-1" points="198.34 304.33 198.34 303.73 199.71 302.97"/><polyline class="cls-1" points="198.34 308.43 198.34 305.85 199.4 305.24 199.4 304.94"/><line class="cls-1" x1="198.34" y1="305.85" x2="250.2" y2="335.72"/><line class="cls-1" x1="199.4" y1="305.24" x2="250.2" y2="334.51"/><line class="cls-1" x1="198.34" y1="303.73" x2="250.2" y2="333.6"/><line class="cls-1" x1="303.58" y1="232.91" x2="303.88" y2="233.37"/><line class="cls-1" x1="301.6" y1="231.7" x2="302.06" y2="231.85"/><polyline class="cls-1" points="302.97 232.46 303.27 232.61 302.06 231.85"/><line class="cls-1" x1="303.27" y1="232.61" x2="303.58" y2="232.91"/><line class="cls-1" x1="299.33" y1="233.52" x2="299.79" y2="232.91"/><line class="cls-1" x1="298.88" y1="234.73" x2="299.03" y2="234.13"/><line class="cls-1" x1="299.03" y1="236.25" x2="298.88" y2="235.95"/><line class="cls-1" x1="299.03" y1="234.13" x2="299.33" y2="233.52"/><line class="cls-1" x1="300.7" y1="232" x2="299.79" y2="232.91"/><line class="cls-1" x1="301.15" y1="231.85" x2="301.61" y2="231.7"/><line class="cls-1" x1="299.33" y1="236.55" x2="299.03" y2="236.25"/><line class="cls-1" x1="298.72" y1="235.34" x2="298.88" y2="234.73"/><line class="cls-1" x1="303.88" y1="234.43" x2="303.88" y2="233.37"/><line class="cls-1" x1="303.58" y1="235.19" x2="303.27" y2="235.79"/><line class="cls-1" x1="302.51" y1="236.85" x2="301.91" y2="237.16"/><line class="cls-1" x1="301.45" y1="237.46" x2="301" y2="237.46"/><polyline class="cls-1" points="299.33 236.55 300.54 237.31 300.24 237.01"/><line class="cls-1" x1="302.97" y1="236.4" x2="302.51" y2="236.85"/><line class="cls-1" x1="301.91" y1="237.16" x2="301.45" y2="237.46"/><line class="cls-1" x1="303.27" y1="235.79" x2="302.97" y2="236.4"/><line class="cls-1" x1="300.24" y1="237.01" x2="300.09" y2="236.55"/><line class="cls-1" x1="301" y1="237.46" x2="300.54" y2="237.31"/><line class="cls-1" x1="300.09" y1="236.55" x2="300.09" y2="236.1"/><line class="cls-1" x1="303.88" y1="234.43" x2="303.58" y2="235.19"/><polyline class="cls-1" points="300.54 234.13 300.24 234.88 300.09 235.49 300.09 236.1"/><line class="cls-1" x1="302.52" y1="232.61" x2="302.97" y2="232.46"/><line class="cls-1" x1="301" y1="233.67" x2="301.45" y2="233.06"/><line class="cls-1" x1="301.91" y1="232.76" x2="302.52" y2="232.61"/><line class="cls-1" x1="300.54" y1="234.13" x2="301" y2="233.67"/><line class="cls-1" x1="301.45" y1="233.06" x2="301.91" y2="232.76"/><line class="cls-1" x1="300.24" y1="231.4" x2="300.54" y2="231.55"/><path class="cls-1" d="M311.38,259l-.3-.3a2.94,2.94,0,0,1,1.82-3.64l.45-.15" transform="translate(-13.11 -23.51)"/><line class="cls-1" x1="301.15" y1="231.85" x2="300.54" y2="231.55"/><line class="cls-1" x1="298.88" y1="235.79" x2="298.27" y2="235.49"/><line class="cls-1" x1="334.36" y1="181.66" x2="334.51" y2="181.96"/><line class="cls-1" x1="332.39" y1="180.45" x2="332.69" y2="180.6"/><polyline class="cls-1" points="333.6 181.21 334.06 181.36 332.69 180.6"/><line class="cls-1" x1="334.06" y1="181.36" x2="334.36" y2="181.66"/><line class="cls-1" x1="329.96" y1="182.11" x2="330.42" y2="181.51"/><line class="cls-1" x1="329.51" y1="183.48" x2="329.66" y2="182.72"/><line class="cls-1" x1="329.66" y1="185" x2="329.51" y2="184.54"/><line class="cls-1" x1="329.66" y1="182.72" x2="329.96" y2="182.11"/><polyline class="cls-1" points="331.33 180.75 330.87 181.05 330.42 181.51"/><line class="cls-1" x1="331.93" y1="180.45" x2="332.39" y2="180.45"/><line class="cls-1" x1="329.96" y1="185.3" x2="329.66" y2="185"/><line class="cls-1" x1="329.51" y1="184.09" x2="329.51" y2="183.48"/><line class="cls-1" x1="334.51" y1="183.18" x2="334.51" y2="181.96"/><line class="cls-1" x1="334.36" y1="183.78" x2="334.06" y2="184.39"/><line class="cls-1" x1="333.15" y1="185.45" x2="332.69" y2="185.91"/><line class="cls-1" x1="332.08" y1="186.06" x2="331.63" y2="186.21"/><polyline class="cls-1" points="329.96 185.3 331.33 186.06 331.02 185.75"/><line class="cls-1" x1="333.6" y1="185" x2="333.15" y2="185.45"/><line class="cls-1" x1="332.69" y1="185.9" x2="332.08" y2="186.06"/><line class="cls-1" x1="334.06" y1="184.39" x2="333.6" y2="185"/><line class="cls-1" x1="331.02" y1="185.75" x2="330.87" y2="185.3"/><line class="cls-1" x1="331.63" y1="186.21" x2="331.33" y2="186.06"/><line class="cls-1" x1="330.87" y1="185.3" x2="330.72" y2="184.84"/><line class="cls-1" x1="334.51" y1="183.18" x2="334.36" y2="183.78"/><polyline class="cls-1" points="331.32 182.87 331.02 183.48 330.87 184.24 330.72 184.84"/><line class="cls-1" x1="333.15" y1="181.2" x2="333.6" y2="181.2"/><line class="cls-1" x1="331.63" y1="182.27" x2="332.08" y2="181.81"/><line class="cls-1" x1="332.69" y1="181.51" x2="333.15" y2="181.2"/><line class="cls-1" x1="331.33" y1="182.87" x2="331.63" y2="182.27"/><line class="cls-1" x1="332.08" y1="181.81" x2="332.69" y2="181.51"/><line class="cls-1" x1="330.87" y1="180.14" x2="331.17" y2="180.29"/><path class="cls-1" d="M342,207.6l-.15-.16c-.8-1.11.53-3.58,1.82-3.79h.3" transform="translate(-13.11 -23.51)"/><line class="cls-1" x1="331.78" y1="180.6" x2="331.17" y2="180.29"/><line class="cls-1" x1="329.51" y1="184.39" x2="328.9" y2="184.09"/><line class="cls-1" x1="303.58" y1="266.42" x2="303.88" y2="266.88"/><line class="cls-1" x1="301.6" y1="265.36" x2="302.06" y2="265.51"/><polyline class="cls-1" points="302.97 266.12 303.27 266.27 302.06 265.51"/><line class="cls-1" x1="303.27" y1="266.27" x2="303.58" y2="266.42"/><line class="cls-1" x1="299.33" y1="267.03" x2="299.79" y2="266.42"/><line class="cls-1" x1="298.88" y1="268.39" x2="299.03" y2="267.64"/><line class="cls-1" x1="299.03" y1="269.91" x2="298.88" y2="269.46"/><line class="cls-1" x1="299.03" y1="267.64" x2="299.33" y2="267.03"/><polyline class="cls-1" points="300.69 265.67 300.24 265.97 299.79 266.42"/><line class="cls-1" x1="301.15" y1="265.36" x2="301.61" y2="265.36"/><line class="cls-1" x1="299.33" y1="270.21" x2="299.03" y2="269.91"/><line class="cls-1" x1="298.72" y1="269" x2="298.88" y2="268.39"/><line class="cls-1" x1="303.88" y1="268.09" x2="303.88" y2="266.88"/><line class="cls-1" x1="303.58" y1="268.7" x2="303.27" y2="269.3"/><line class="cls-1" x1="302.51" y1="270.37" x2="301.91" y2="270.82"/><line class="cls-1" x1="301.45" y1="270.97" x2="301" y2="270.97"/><polyline class="cls-1" points="299.33 270.21 300.54 270.97 300.24 270.67"/><line class="cls-1" x1="302.97" y1="269.91" x2="302.51" y2="270.37"/><line class="cls-1" x1="301.91" y1="270.82" x2="301.45" y2="270.97"/><line class="cls-1" x1="303.27" y1="269.3" x2="302.97" y2="269.91"/><line class="cls-1" x1="300.24" y1="270.67" x2="300.09" y2="270.21"/><line class="cls-1" x1="301" y1="270.97" x2="300.54" y2="270.97"/><line class="cls-1" x1="300.09" y1="270.21" x2="300.09" y2="269.61"/><line class="cls-1" x1="303.88" y1="268.09" x2="303.58" y2="268.7"/><polyline class="cls-1" points="300.54 267.79 300.24 268.39 300.09 269 300.09 269.61"/><line class="cls-1" x1="302.52" y1="266.12" x2="302.97" y2="266.12"/><line class="cls-1" x1="301" y1="267.18" x2="301.45" y2="266.73"/><line class="cls-1" x1="301.91" y1="266.42" x2="302.52" y2="266.12"/><line class="cls-1" x1="300.54" y1="267.79" x2="301" y2="267.18"/><line class="cls-1" x1="301.45" y1="266.73" x2="301.91" y2="266.42"/><line class="cls-1" x1="300.24" y1="265.06" x2="300.54" y2="265.06"/><path class="cls-1" d="M311.38,292.51l-.3-.15a3.13,3.13,0,0,1,1.82-3.79h.45" transform="translate(-13.11 -23.51)"/><line class="cls-1" x1="301.15" y1="265.51" x2="300.54" y2="265.06"/><line class="cls-1" x1="298.88" y1="269.3" x2="298.27" y2="269"/><line class="cls-1" x1="303.58" y1="300.09" x2="303.88" y2="300.54"/><line class="cls-1" x1="301.61" y1="298.87" x2="302.06" y2="299.03"/><polyline class="cls-1" points="302.97 299.63 303.27 299.78 302.06 299.02"/><line class="cls-1" x1="303.27" y1="299.78" x2="303.58" y2="300.09"/><line class="cls-1" x1="299.33" y1="300.69" x2="299.79" y2="300.09"/><line class="cls-1" x1="298.88" y1="301.91" x2="299.03" y2="301.3"/><line class="cls-1" x1="299.03" y1="303.42" x2="298.88" y2="303.12"/><line class="cls-1" x1="299.03" y1="301.3" x2="299.33" y2="300.69"/><polyline class="cls-1" points="300.69 299.18 300.24 299.63 299.79 300.09"/><line class="cls-1" x1="301.15" y1="299.02" x2="301.61" y2="298.87"/><line class="cls-1" x1="299.33" y1="303.73" x2="299.03" y2="303.42"/><line class="cls-1" x1="298.72" y1="302.51" x2="298.88" y2="301.91"/><line class="cls-1" x1="303.88" y1="301.6" x2="303.88" y2="300.54"/><line class="cls-1" x1="303.58" y1="302.36" x2="303.27" y2="302.97"/><line class="cls-1" x1="302.52" y1="304.03" x2="301.91" y2="304.33"/><line class="cls-1" x1="301.45" y1="304.64" x2="301" y2="304.64"/><polyline class="cls-1" points="299.33 303.73 300.54 304.48 300.24 304.18"/><line class="cls-1" x1="302.97" y1="303.57" x2="302.52" y2="304.03"/><line class="cls-1" x1="301.91" y1="304.33" x2="301.45" y2="304.64"/><line class="cls-1" x1="303.27" y1="302.97" x2="302.97" y2="303.57"/><line class="cls-1" x1="300.24" y1="304.18" x2="300.09" y2="303.73"/><line class="cls-1" x1="301" y1="304.64" x2="300.54" y2="304.48"/><line class="cls-1" x1="300.09" y1="303.73" x2="300.09" y2="303.27"/><line class="cls-1" x1="303.88" y1="301.6" x2="303.58" y2="302.36"/><polyline class="cls-1" points="300.54 301.3 300.24 302.06 300.09 302.66 300.09 303.27"/><line class="cls-1" x1="302.52" y1="299.78" x2="302.97" y2="299.63"/><line class="cls-1" x1="301" y1="300.84" x2="301.45" y2="300.24"/><line class="cls-1" x1="301.91" y1="299.93" x2="302.52" y2="299.78"/><line class="cls-1" x1="300.54" y1="301.3" x2="301" y2="300.84"/><line class="cls-1" x1="301.45" y1="300.24" x2="301.91" y2="299.93"/><line class="cls-1" x1="300.24" y1="298.57" x2="300.54" y2="298.72"/><path class="cls-1" d="M311.38,326.18l-.3-.31a3,3,0,0,1,1.82-3.64l.45-.15" transform="translate(-13.11 -23.51)"/><line class="cls-1" x1="301.15" y1="299.02" x2="300.54" y2="298.72"/><line class="cls-1" x1="298.88" y1="302.97" x2="298.27" y2="302.66"/><polyline class="cls-1" points="252.78 322.07 252.78 289.17 250.2 287.8"/><polyline class="cls-1" points="252.78 289.17 344.82 236.1 344.21 235.64"/><line class="cls-1" x1="344.82" y1="236.1" x2="344.82" y2="269"/><polyline class="cls-1" points="252.78 288.56 252.78 255.66 250.2 254.14"/><polyline class="cls-1" points="252.78 255.66 344.82 202.43 344.21 202.13"/><line class="cls-1" x1="344.82" y1="202.43" x2="344.82" y2="235.34"/><line class="cls-1" x1="280.83" y1="202.89" x2="280.83" y2="235.64"/><polyline class="cls-1" points="283.41 237.16 283.41 204.4 280.83 202.89"/><polyline class="cls-1" points="283.41 204.4 375.45 151.18 372.88 149.66"/><line class="cls-1" x1="375.45" y1="151.18" x2="375.45" y2="184.08"/><polyline class="cls-1" points="250.2 354.22 252.78 355.74 252.78 322.83 250.2 321.31"/><line class="cls-1" x1="252.78" y1="322.83" x2="344.82" y2="269.61"/><line class="cls-1" x1="252.78" y1="355.74" x2="344.82" y2="302.51"/><polyline class="cls-1" points="344.22 269.3 344.82 269.61 344.82 302.51"/><line class="cls-1" x1="369.99" y1="131.01" x2="371.06" y2="130.41"/><polyline class="cls-1" points="369.99 132.53 371.06 131.92 371.06 134.5 369.69 135.26 369.69 134.96 370.6 134.5 370.6 132.53 369.69 132.98 369.69 130.71 371.06 129.95 371.06 130.41"/><polyline class="cls-1" points="317.38 98.86 316.01 99.62 316.01 102.05"/><polyline class="cls-1" points="316.77 102.5 316.77 103.41 316.01 103.87 316.01 104.32 369.69 135.26"/><line class="cls-1" x1="316.01" y1="103.87" x2="369.69" y2="134.95"/><line class="cls-1" x1="369.99" y1="131.32" x2="371.06" y2="131.92"/><line class="cls-1" x1="316.77" y1="103.41" x2="370.6" y2="134.5"/><line class="cls-1" x1="316.01" y1="99.62" x2="369.69" y2="130.71"/><line class="cls-1" x1="317.38" y1="98.87" x2="371.06" y2="129.95"/><polyline class="cls-1" points="221.39 216.84 222.3 216.23 222.3 217.75 221.39 218.35 221.39 220.93 222.75 220.17 222.75 219.72 221.85 220.17"/><line class="cls-1" x1="222.76" y1="217.9" x2="221.85" y2="218.35"/><polyline class="cls-1" points="222.75 215.47 221.39 216.23 221.39 216.84"/><polyline class="cls-1" points="167.71 185.75 167.71 185.3 168.93 184.54"/><polyline class="cls-1" points="167.71 189.85 167.71 187.27 168.62 186.81 168.62 186.36"/><line class="cls-1" x1="221.85" y1="219.26" x2="222.76" y2="219.72"/><line class="cls-1" x1="167.71" y1="187.27" x2="221.39" y2="218.35"/><line class="cls-1" x1="168.62" y1="186.81" x2="222.3" y2="217.75"/><line class="cls-1" x1="167.71" y1="185.3" x2="221.39" y2="216.23"/><polyline class="cls-1" points="255.36 208.35 337.09 161.04 337.09 162.55"/><line class="cls-1" x1="170.9" y1="139.05" x2="170.9" y2="162.55"/><polyline class="cls-1" points="252.78 91.89 254.6 92.95 254.6 116.45"/><polyline class="cls-1" points="170.9 139.05 172.87 140.26 254.6 92.95"/><polyline class="cls-1" points="170.9 162.55 172.87 163.61 172.87 140.26"/><polyline class="cls-1" points="337.09 140.56 339.06 139.5 339.06 162.86 337.09 164.07"/><polyline class="cls-1" points="285.38 108.42 283.41 109.63 283.41 132.23"/><line class="cls-1" x1="337.09" y1="140.57" x2="283.41" y2="109.63"/><line class="cls-1" x1="339.06" y1="139.51" x2="285.38" y2="108.42"/><line class="cls-1" x1="337.09" y1="164.07" x2="335.87" y2="163.31"/><line class="cls-1" x1="255.35" y1="187.88" x2="253.38" y2="188.94"/><polyline class="cls-1" points="255.35 211.23 253.38 212.29 253.38 188.94"/><polyline class="cls-1" points="201.52 156.79 199.7 157.85 199.7 181.36"/><line class="cls-1" x1="253.38" y1="188.94" x2="199.7" y2="157.85"/><line class="cls-1" x1="68.54" y1="280.38" x2="68.54" y2="250.81"/><line class="cls-1" x1="67.33" y1="282.65" x2="67.33" y2="281.13"/><polyline class="cls-1" points="66.11 283.26 30.94 263.09 0.15 245.35"/><line class="cls-1" x1="4.1" y1="111.76" x2="67.33" y2="148.3"/><line class="cls-1" x1="99.32" y1="132.68" x2="186.21" y2="82.49"/><polyline class="cls-1" points="97.96 131.93 90.98 127.98 32.15 94.02"/><line class="cls-1" x1="92.2" y1="296.3" x2="67.33" y2="281.89"/><polyline class="cls-1" points="156.19 231.25 180.45 245.35 174.08 248.99 92.2 296.3"/><line class="cls-1" x1="97.96" y1="264.91" x2="149.82" y2="235.04"/><polyline class="cls-1" points="68.54 247.93 71.12 249.44 97.96 264.91"/><line class="cls-1" x1="187.57" y1="211.69" x2="186.21" y2="210.93"/><polyline class="cls-1" points="159.37 62.63 99.32 97.35 61.56 75.52"/><line class="cls-1" x1="250.35" y1="253.99" x2="221.24" y2="237.16"/><line class="cls-1" x1="250.2" y1="279.62" x2="228.06" y2="266.88"/><polyline class="cls-1" points="198.34 241.25 199.71 241.86 250.2 271.13"/><polyline class="cls-1" points="198.34 237.16 199.4 237.77 250.2 267.03"/><line class="cls-1" x1="199.71" y1="284.02" x2="199.71" y2="275.52"/><line class="cls-1" x1="250.35" y1="287.65" x2="221.24" y2="270.82"/><line class="cls-1" x1="250.2" y1="313.13" x2="228.06" y2="300.39"/><line class="cls-1" x1="198.34" y1="272.19" x2="198.34" y2="272.64"/><polyline class="cls-1" points="198.34 274.77 199.71 275.52 250.2 304.64"/><polyline class="cls-1" points="198.34 270.67 199.4 271.28 250.2 300.7"/><line class="cls-1" x1="250.35" y1="321.17" x2="221.24" y2="304.33"/><polyline class="cls-1" points="198.34 308.43 199.71 309.19 250.2 338.3"/><polyline class="cls-1" points="198.34 304.33 199.4 304.94 250.2 334.21"/><line class="cls-1" x1="300.69" y1="232" x2="301.15" y2="231.85"/><polyline class="cls-1" points="298.88 235.95 298.88 235.79 298.72 235.34"/><polyline class="cls-1" points="331.32 180.75 331.78 180.6 331.93 180.45"/><line class="cls-1" x1="329.51" y1="184.54" x2="329.51" y2="184.09"/><polyline class="cls-1" points="300.69 265.67 301.15 265.52 301.15 265.36"/><polyline class="cls-1" points="298.88 269.46 298.88 269.31 298.72 269"/><line class="cls-1" x1="300.69" y1="299.18" x2="301.15" y2="299.03"/><polyline class="cls-1" points="298.88 303.12 298.88 302.97 298.72 302.51"/><polyline class="cls-1" points="252.78 322.08 250.81 321.01 250.2 320.56"/><polyline class="cls-1" points="252.78 322.08 344.21 269.31 344.82 269"/><polyline class="cls-1" points="250.2 287.81 250.35 287.65 250.81 287.35"/><line class="cls-1" x1="250.2" y1="279.62" x2="250.2" y2="287.05"/><polyline class="cls-1" points="252.78 288.56 250.81 287.35 250.2 287.05"/><polyline class="cls-1" points="252.78 288.56 344.21 235.64 344.82 235.34"/><polyline class="cls-1" points="250.2 254.14 250.35 253.99 281.44 236.1 283.41 237.16"/><line class="cls-1" x1="281.44" y1="236.1" x2="280.83" y2="235.64"/><polyline class="cls-1" points="283.41 237.16 344.21 202.13 375.45 184.09"/><line class="cls-1" x1="280.83" y1="202.89" x2="285.38" y2="200.16"/><polyline class="cls-1" points="250.2 321.32 250.35 321.17 250.81 321.01"/><line class="cls-1" x1="369.99" y1="132.53" x2="369.99" y2="131.01"/><polyline class="cls-1" points="316.01 102.05 316.77 102.51 369.69 132.99"/><line class="cls-1" x1="221.84" y1="218.36" x2="221.84" y2="220.18"/><line class="cls-1" x1="222.75" y1="215.48" x2="222.75" y2="217.9"/><line class="cls-1" x1="167.71" y1="189.85" x2="215.78" y2="217.6"/><polyline class="cls-1" points="167.71 185.75 168.62 186.36 221.39 216.84"/><polyline class="cls-1" points="168.92 184.54 221.09 214.57 222.75 215.48"/><polyline class="cls-1" points="285.38 131.17 283.41 132.23 221.24 168.17"/><line class="cls-1" x1="255.36" y1="209.71" x2="285.38" y2="192.43"/><line class="cls-1" x1="216.99" y1="112.52" x2="170.89" y2="139.05"/><line class="cls-1" x1="219.42" y1="136.63" x2="254.6" y2="116.46"/><line class="cls-1" x1="337.09" y1="161.04" x2="337.09" y2="140.57"/><line class="cls-1" x1="255.36" y1="211.23" x2="255.36" y2="209.71"/><polyline class="cls-1" points="1.52 110.24 2.73 111 4.09 111.76"/><line class="cls-1" x1="149.82" y1="235.04" x2="156.18" y2="231.24"/><line class="cls-1" x1="159.37" y1="62.63" x2="187.57" y2="46.4"/><line class="cls-1" x1="33.51" y1="59.29" x2="61.56" y2="75.52"/><line class="cls-1" x1="221.24" y1="237.16" x2="203.49" y2="227"/><line class="cls-1" x1="208.5" y1="255.51" x2="199.7" y2="250.35"/><line class="cls-1" x1="221.24" y1="270.82" x2="203.49" y2="260.51"/><line class="cls-1" x1="208.5" y1="289.02" x2="199.7" y2="284.01"/><line class="cls-1" x1="198.34" y1="272.64" x2="198.34" y2="274.76"/><line class="cls-1" x1="221.24" y1="304.33" x2="203.49" y2="294.17"/><line class="cls-1" x1="250.2" y1="287.81" x2="250.2" y2="298.57"/><line class="cls-1" x1="250.2" y1="313.13" x2="250.2" y2="320.56"/><line class="cls-1" x1="250.2" y1="271.13" x2="250.2" y2="279.62"/><line class="cls-1" x1="285.38" y1="200.16" x2="303.12" y2="190"/><line class="cls-1" x1="250.2" y1="321.32" x2="250.2" y2="332.23"/><line class="cls-1" x1="250.2" y1="346.79" x2="250.2" y2="354.22"/><polyline class="cls-1" points="215.78 217.6 217.75 218.81 221.39 220.93"/><line class="cls-1" x1="285.38" y1="192.43" x2="296.3" y2="186.06"/><polyline class="cls-1" points="252.78 91.89 219.42 111 216.99 112.52"/><polyline class="cls-1" points="172.86 163.62 216.99 138.14 219.42 136.63"/><line class="cls-1" x1="337.09" y1="164.07" x2="337.09" y2="162.55"/><polyline class="cls-1" points="255.35 208.35 255.35 187.88 221.24 168.16 219.42 167.1 216.99 165.74 201.52 156.79"/><polyline class="cls-1" points="253.38 212.29 241.1 205.32 239.13 204.1 219.42 192.73"/><line class="cls-1" x1="68.54" y1="250.81" x2="68.54" y2="246.41"/><polyline class="cls-1" points="156.18 231.25 158.16 230.18 187.57 213.2"/><line class="cls-1" x1="187.57" y1="46.4" x2="188.79" y2="45.64"/><polyline class="cls-1" points="30.93 57.77 32.15 58.53 33.51 59.29"/><polyline class="cls-1" points="228.06 266.88 210.32 256.57 208.5 255.51"/><polyline class="cls-1" points="228.06 300.39 210.32 290.23 208.5 289.02"/><line class="cls-1" x1="250.2" y1="304.64" x2="250.2" y2="313.13"/><line class="cls-1" x1="250.2" y1="268.55" x2="250.2" y2="271.13"/><polyline class="cls-1" points="303.12 190 305.09 188.94 372.87 149.66"/><line class="cls-1" x1="250.2" y1="338.3" x2="250.2" y2="346.79"/><line class="cls-1" x1="296.3" y1="186.06" x2="298.27" y2="185"/><polyline class="cls-1" points="219.42 192.73 216.99 191.37 199.7 181.36"/><line class="cls-1" x1="68.54" y1="246.41" x2="68.54" y2="204.41"/><polyline class="cls-1" points="188.79 45.64 190.15 44.88 191.36 44.13"/><line class="cls-1" x1="250.2" y1="302.06" x2="250.2" y2="304.64"/><line class="cls-1" x1="250.2" y1="335.72" x2="250.2" y2="338.3"/><polyline class="cls-1" points="298.27 185 335.87 163.31 337.09 162.55"/><line class="cls-1" x1="68.54" y1="204.4" x2="68.54" y2="148.91"/><line class="cls-1" x1="250.2" y1="267.03" x2="250.2" y2="268.55"/><line class="cls-1" x1="250.2" y1="298.57" x2="250.2" y2="302.06"/><line class="cls-1" x1="250.2" y1="254.14" x2="250.2" y2="267.03"/><line class="cls-1" x1="250.2" y1="332.23" x2="250.2" y2="335.72"/><line class="cls-1" x1="68.54" y1="204.4" x2="121.61" y2="173.77"/></svg>