<svg id="dresser_main" data-name="dresser main" xmlns="http://www.w3.org/2000/svg" viewBox="0 0 210.72 307.18"><defs><style>.cls-1,.cls-2{fill:none;stroke:#000;stroke-linecap:round;stroke-linejoin:round;}.cls-1{stroke-width:0.39px;}.cls-2{stroke-width:3.72px;}</style></defs><line class="cls-1" x1="81.1" y1="295.34" x2="81.89" y2="295.73"/><line class="cls-1" x1="86.78" y1="169.54" x2="87.56" y2="169.14"/><line class="cls-1" x1="86.78" y1="212.78" x2="87.56" y2="212.38"/><line class="cls-1" x1="81.1" y1="304.73" x2="1.86" y2="259.15"/><polyline class="cls-1" points="1.86 249.56 81.1 295.34 81.1 304.73"/><line class="cls-1" x1="1.86" y1="259.15" x2="1.86" y2="249.56"/><polyline class="cls-1" points="81.88 295.73 81.88 305.32 81.1 304.73"/><line class="cls-1" x1="86.77" y1="298.67" x2="90.1" y2="300.43"/><line class="cls-1" x1="90.1" y1="171.49" x2="208.86" y2="102.82"/><line class="cls-1" x1="90.1" y1="128.06" x2="208.86" y2="59.58"/><line class="cls-1" x1="90.1" y1="214.73" x2="208.86" y2="146.25"/><line class="cls-1" x1="90.1" y1="258.17" x2="208.86" y2="189.49"/><line class="cls-1" x1="90.1" y1="128.06" x2="90.1" y2="170.51"/><line class="cls-1" x1="208.86" y1="59.58" x2="208.86" y2="101.84"/><line class="cls-1" x1="90.1" y1="214.73" x2="90.1" y2="257.19"/><line class="cls-1" x1="208.86" y1="146.25" x2="208.86" y2="188.51"/><line class="cls-1" x1="90.1" y1="171.49" x2="90.1" y2="213.75"/><line class="cls-1" x1="208.86" y1="102.82" x2="208.86" y2="145.27"/><line class="cls-1" x1="90.1" y1="258.17" x2="90.1" y2="300.43"/><line class="cls-1" x1="208.86" y1="189.49" x2="208.86" y2="231.95"/><polyline class="cls-1" points="87.56 125.71 86.77 126.1 90.1 128.06"/><line class="cls-1" x1="208.86" y1="59.58" x2="208.08" y2="58.99"/><line class="cls-1" x1="86.77" y1="126.1" x2="86.77" y2="168.56"/><line class="cls-1" x1="90.1" y1="171.49" x2="86.77" y2="169.54"/><line class="cls-1" x1="208.86" y1="102.82" x2="208.08" y2="102.43"/><line class="cls-1" x1="86.77" y1="211.99" x2="86.77" y2="168.56"/><line class="cls-1" x1="90.1" y1="214.73" x2="86.77" y2="212.78"/><line class="cls-1" x1="208.86" y1="146.25" x2="208.08" y2="145.67"/><line class="cls-1" x1="86.77" y1="255.23" x2="86.77" y2="211.99"/><polyline class="cls-1" points="87.56 255.82 86.77 256.21 90.1 258.17"/><line class="cls-1" x1="208.86" y1="189.49" x2="208.08" y2="189.1"/><line class="cls-1" x1="86.77" y1="298.67" x2="86.77" y2="255.23"/><polyline class="cls-1" points="1.86 249.56 1.86 76.21 86.77 125.32"/><polyline class="cls-1" points="208.86 52.92 120.62 1.86 1.86 70.53 90.1 121.41 208.86 52.92 208.86 58.6"/><line class="cls-1" x1="1.86" y1="76.21" x2="1.86" y2="70.53"/><line class="cls-1" x1="90.1" y1="127.08" x2="90.1" y2="121.4"/><line class="cls-1" x1="155.84" y1="142.14" x2="156.04" y2="142.73"/><line class="cls-1" x1="153.3" y1="140.58" x2="153.69" y2="140.77"/><polyline class="cls-1" points="154.86 141.56 155.45 141.75 153.69 140.77"/><line class="cls-1" x1="155.45" y1="141.75" x2="155.84" y2="142.14"/><line class="cls-1" x1="150.17" y1="142.73" x2="150.75" y2="142.14"/><line class="cls-1" x1="149.58" y1="144.49" x2="149.77" y2="143.71"/><line class="cls-1" x1="149.77" y1="146.45" x2="149.58" y2="145.86"/><line class="cls-1" x1="149.77" y1="143.71" x2="150.17" y2="142.73"/><polyline class="cls-1" points="151.93 140.97 151.34 141.36 150.75 142.14"/><line class="cls-1" x1="152.71" y1="140.77" x2="153.3" y2="140.58"/><line class="cls-1" x1="150.17" y1="146.84" x2="149.77" y2="146.45"/><line class="cls-1" x1="149.58" y1="145.27" x2="149.58" y2="144.49"/><line class="cls-1" x1="156.04" y1="144.1" x2="156.04" y2="142.73"/><line class="cls-1" x1="155.84" y1="144.88" x2="155.45" y2="145.86"/><line class="cls-1" x1="154.27" y1="147.23" x2="153.69" y2="147.62"/><line class="cls-1" x1="152.9" y1="147.82" x2="152.32" y2="148.01"/><polyline class="cls-1" points="150.17 146.84 151.93 147.82 151.53 147.43"/><line class="cls-1" x1="154.86" y1="146.45" x2="154.27" y2="147.23"/><line class="cls-1" x1="153.69" y1="147.62" x2="152.9" y2="147.82"/><line class="cls-1" x1="155.45" y1="145.86" x2="154.86" y2="146.45"/><line class="cls-1" x1="151.54" y1="147.43" x2="151.14" y2="146.84"/><line class="cls-1" x1="152.32" y1="148.01" x2="151.93" y2="147.82"/><line class="cls-1" x1="151.14" y1="146.84" x2="151.14" y2="146.25"/><line class="cls-1" x1="156.04" y1="144.1" x2="155.84" y2="144.88"/><polyline class="cls-1" points="151.93 143.71 151.53 144.49 151.14 145.47 151.14 146.25"/><line class="cls-1" x1="154.27" y1="141.56" x2="154.86" y2="141.56"/><line class="cls-1" x1="152.32" y1="142.93" x2="152.9" y2="142.34"/><line class="cls-1" x1="153.69" y1="141.95" x2="154.27" y2="141.56"/><line class="cls-1" x1="151.93" y1="143.71" x2="152.32" y2="142.93"/><line class="cls-1" x1="152.9" y1="142.34" x2="153.69" y2="141.95"/><line class="cls-1" x1="151.34" y1="140.19" x2="151.73" y2="140.38"/><path class="cls-1" d="M248.88,190.5l-.2-.39c-1-1.44.69-4.62,2.35-4.89h.39" transform="translate(-100.08 -45.03)"/><line class="cls-1" x1="152.51" y1="140.77" x2="151.73" y2="140.38"/><line class="cls-1" x1="149.58" y1="145.86" x2="148.8" y2="145.47"/><line class="cls-1" x1="155.84" y1="98.71" x2="156.04" y2="99.3"/><line class="cls-1" x1="153.3" y1="97.34" x2="153.69" y2="97.53"/><polyline class="cls-1" points="154.86 98.32 155.45 98.32 153.69 97.53"/><line class="cls-1" x1="155.45" y1="98.32" x2="155.84" y2="98.71"/><line class="cls-1" x1="150.17" y1="99.49" x2="150.75" y2="98.71"/><line class="cls-1" x1="149.58" y1="101.06" x2="149.77" y2="100.27"/><line class="cls-1" x1="149.77" y1="103.21" x2="149.58" y2="102.62"/><line class="cls-1" x1="149.77" y1="100.27" x2="150.17" y2="99.49"/><polyline class="cls-1" points="151.93 97.53 151.34 98.12 150.75 98.71"/><line class="cls-1" x1="152.71" y1="97.34" x2="153.3" y2="97.34"/><line class="cls-1" x1="150.17" y1="103.4" x2="149.77" y2="103.21"/><line class="cls-1" x1="149.58" y1="101.84" x2="149.58" y2="101.06"/><line class="cls-1" x1="156.04" y1="100.86" x2="156.04" y2="99.29"/><line class="cls-1" x1="155.84" y1="101.64" x2="155.45" y2="102.43"/><line class="cls-1" x1="154.27" y1="103.79" x2="153.69" y2="104.19"/><line class="cls-1" x1="152.9" y1="104.58" x2="152.32" y2="104.58"/><polyline class="cls-1" points="150.17 103.4 151.93 104.38 151.53 104.19"/><line class="cls-1" x1="154.86" y1="103.21" x2="154.27" y2="103.8"/><line class="cls-1" x1="153.69" y1="104.19" x2="152.9" y2="104.58"/><line class="cls-1" x1="155.45" y1="102.43" x2="154.86" y2="103.21"/><line class="cls-1" x1="151.54" y1="104.19" x2="151.14" y2="103.6"/><line class="cls-1" x1="152.32" y1="104.58" x2="151.93" y2="104.38"/><line class="cls-1" x1="151.14" y1="103.6" x2="151.14" y2="102.82"/><line class="cls-1" x1="156.04" y1="100.86" x2="155.84" y2="101.64"/><polyline class="cls-1" points="151.93 100.47 151.14 102.03 151.14 102.82"/><line class="cls-1" x1="154.27" y1="98.32" x2="154.86" y2="98.32"/><line class="cls-1" x1="152.32" y1="99.69" x2="152.9" y2="99.1"/><line class="cls-1" x1="153.69" y1="98.51" x2="154.27" y2="98.32"/><line class="cls-1" x1="151.93" y1="100.47" x2="152.32" y2="99.69"/><line class="cls-1" x1="152.9" y1="99.1" x2="153.69" y2="98.51"/><line class="cls-1" x1="151.34" y1="96.95" x2="151.73" y2="96.95"/><polyline class="cls-1" points="148.8 102.03 148.6 101.64 148.41 101.25 148.21 100.66 148.41 100.08 148.6 99.3 148.8 98.71 149.38 98.12 149.78 97.53 150.36 97.14 150.95 96.95 151.34 96.95"/><line class="cls-1" x1="152.51" y1="97.34" x2="151.73" y2="96.95"/><line class="cls-1" x1="149.58" y1="102.43" x2="148.8" y2="102.03"/><line class="cls-1" x1="155.84" y1="185.38" x2="156.04" y2="185.97"/><line class="cls-1" x1="153.3" y1="184.01" x2="153.69" y2="184.21"/><polyline class="cls-1" points="154.86 184.99 155.45 184.99 153.69 184.21"/><line class="cls-1" x1="155.45" y1="184.99" x2="155.84" y2="185.38"/><line class="cls-1" x1="150.17" y1="186.17" x2="150.75" y2="185.38"/><line class="cls-1" x1="149.58" y1="187.73" x2="149.77" y2="186.95"/><line class="cls-1" x1="149.77" y1="189.88" x2="149.58" y2="189.3"/><line class="cls-1" x1="149.77" y1="186.95" x2="150.17" y2="186.17"/><line class="cls-1" x1="151.93" y1="184.21" x2="150.75" y2="185.38"/><line class="cls-1" x1="152.71" y1="184.01" x2="153.3" y2="184.01"/><line class="cls-1" x1="150.17" y1="190.27" x2="149.77" y2="189.88"/><line class="cls-1" x1="149.58" y1="188.51" x2="149.58" y2="187.73"/><line class="cls-1" x1="156.04" y1="187.53" x2="156.04" y2="185.97"/><line class="cls-1" x1="155.84" y1="188.32" x2="155.45" y2="189.1"/><line class="cls-1" x1="154.27" y1="190.47" x2="153.69" y2="191.06"/><line class="cls-1" x1="152.9" y1="191.25" x2="152.32" y2="191.25"/><polyline class="cls-1" points="150.17 190.27 151.93 191.06 151.53 190.86"/><line class="cls-1" x1="154.86" y1="189.88" x2="154.27" y2="190.47"/><line class="cls-1" x1="153.69" y1="191.06" x2="152.9" y2="191.25"/><line class="cls-1" x1="155.45" y1="189.1" x2="154.86" y2="189.88"/><line class="cls-1" x1="151.54" y1="190.86" x2="151.14" y2="190.27"/><line class="cls-1" x1="152.32" y1="191.25" x2="151.93" y2="191.06"/><line class="cls-1" x1="151.14" y1="190.27" x2="151.14" y2="189.49"/><line class="cls-1" x1="156.04" y1="187.53" x2="155.84" y2="188.32"/><polyline class="cls-1" points="151.93 187.14 151.14 188.71 151.14 189.49"/><line class="cls-1" x1="154.27" y1="184.99" x2="154.86" y2="184.99"/><line class="cls-1" x1="152.32" y1="186.36" x2="152.9" y2="185.77"/><line class="cls-1" x1="153.69" y1="185.19" x2="154.27" y2="184.99"/><line class="cls-1" x1="151.93" y1="187.14" x2="152.32" y2="186.36"/><line class="cls-1" x1="152.9" y1="185.77" x2="153.69" y2="185.19"/><line class="cls-1" x1="151.34" y1="183.62" x2="151.73" y2="183.62"/><polyline class="cls-1" points="148.8 188.71 148.6 188.51 148.41 187.93 148.21 187.34 148.41 186.75 148.6 185.97 148.8 185.38 149.38 184.8 149.78 184.21 150.36 183.82 150.95 183.62 151.34 183.62"/><line class="cls-1" x1="152.51" y1="184.01" x2="151.73" y2="183.62"/><line class="cls-1" x1="149.58" y1="189.1" x2="148.8" y2="188.71"/><line class="cls-1" x1="155.84" y1="228.82" x2="156.04" y2="229.41"/><line class="cls-1" x1="153.3" y1="227.25" x2="153.69" y2="227.45"/><polyline class="cls-1" points="154.86 228.23 155.45 228.43 153.69 227.45"/><line class="cls-1" x1="155.45" y1="228.43" x2="155.84" y2="228.82"/><line class="cls-1" x1="150.17" y1="229.4" x2="150.75" y2="228.82"/><line class="cls-1" x1="149.58" y1="231.17" x2="149.77" y2="230.38"/><line class="cls-1" x1="149.77" y1="233.12" x2="149.58" y2="232.54"/><line class="cls-1" x1="149.77" y1="230.38" x2="150.17" y2="229.4"/><polyline class="cls-1" points="151.93 227.64 151.34 228.03 150.75 228.82"/><line class="cls-1" x1="152.71" y1="227.45" x2="153.3" y2="227.25"/><line class="cls-1" x1="150.17" y1="233.51" x2="149.77" y2="233.12"/><line class="cls-1" x1="149.58" y1="231.95" x2="149.58" y2="231.17"/><line class="cls-1" x1="156.04" y1="230.77" x2="156.04" y2="229.4"/><line class="cls-1" x1="155.84" y1="231.56" x2="155.45" y2="232.54"/><line class="cls-1" x1="154.27" y1="233.9" x2="153.69" y2="234.3"/><line class="cls-1" x1="152.9" y1="234.49" x2="152.32" y2="234.69"/><polyline class="cls-1" points="150.17 233.51 151.93 234.49 151.53 234.1"/><line class="cls-1" x1="154.86" y1="233.12" x2="154.27" y2="233.9"/><line class="cls-1" x1="153.69" y1="234.3" x2="152.9" y2="234.49"/><line class="cls-1" x1="155.45" y1="232.54" x2="154.86" y2="233.12"/><line class="cls-1" x1="151.54" y1="234.1" x2="151.14" y2="233.51"/><line class="cls-1" x1="152.32" y1="234.69" x2="151.93" y2="234.49"/><line class="cls-1" x1="151.14" y1="233.51" x2="151.14" y2="232.93"/><line class="cls-1" x1="156.04" y1="230.77" x2="155.84" y2="231.56"/><polyline class="cls-1" points="151.93 230.38 151.53 231.17 151.14 232.14 151.14 232.93"/><line class="cls-1" x1="154.27" y1="228.23" x2="154.86" y2="228.23"/><line class="cls-1" x1="152.32" y1="229.6" x2="152.9" y2="229.01"/><line class="cls-1" x1="153.69" y1="228.62" x2="154.27" y2="228.23"/><line class="cls-1" x1="151.93" y1="230.38" x2="152.32" y2="229.6"/><line class="cls-1" x1="152.9" y1="229.01" x2="153.69" y2="228.62"/><line class="cls-1" x1="151.34" y1="226.86" x2="151.73" y2="227.06"/><polyline class="cls-1" points="148.8 232.14 148.6 231.75 148.41 231.36 148.21 230.77 148.41 229.99 148.6 229.41 148.8 228.62 149.38 228.03 149.78 227.45 150.36 227.25 150.95 226.86 151.34 226.86"/><line class="cls-1" x1="152.51" y1="227.45" x2="151.73" y2="227.06"/><line class="cls-1" x1="149.58" y1="232.54" x2="148.8" y2="232.14"/><line class="cls-1" x1="81.88" y1="305.32" x2="90.1" y2="300.43"/><polyline class="cls-1" points="90.1 213.75 208.08 145.67 208.87 145.28"/><polyline class="cls-1" points="90.1 170.51 208.08 102.43 208.87 101.84"/><polyline class="cls-1" points="90.1 257.19 208.08 189.1 208.87 188.51"/><polyline class="cls-1" points="90.1 170.51 87.56 169.15 86.78 168.56"/><polyline class="cls-1" points="90.1 213.75 87.56 212.38 86.78 211.99"/><polyline class="cls-1" points="90.1 257.19 87.56 255.82 86.78 255.23"/><polyline class="cls-1" points="90.1 127.08 208.08 58.99 208.87 58.6"/><polyline class="cls-1" points="151.93 140.97 152.52 140.78 152.71 140.78"/><line class="cls-1" x1="149.58" y1="145.86" x2="149.58" y2="145.28"/><polyline class="cls-1" points="151.93 97.53 152.52 97.34 152.71 97.34"/><line class="cls-1" x1="149.58" y1="102.62" x2="149.58" y2="101.84"/><polyline class="cls-1" points="151.93 184.21 152.52 184.01 152.71 184.01"/><line class="cls-1" x1="149.58" y1="189.3" x2="149.58" y2="188.52"/><polyline class="cls-1" points="151.93 227.65 152.52 227.45 152.71 227.45"/><line class="cls-1" x1="149.58" y1="232.54" x2="149.58" y2="231.95"/><line class="cls-1" x1="86.77" y1="125.32" x2="86.77" y2="126.1"/><line class="cls-1" x1="86.77" y1="298.67" x2="81.88" y2="295.73"/><polyline class="cls-1" points="86.77 125.32 87.56 125.71 90.1 127.08"/><line class="cls-1" x1="90.1" y1="300.43" x2="208.86" y2="231.95"/><polygon class="cls-2" points="208.86 231.95 90.1 300.43 81.88 295.73 81.88 305.32 1.86 259.14 1.86 70.53 120.62 1.86 208.86 52.92 208.86 231.95"/></svg>