<svg id="ladder_ex" data-name="ladder ex" xmlns="http://www.w3.org/2000/svg" viewBox="0 0 149.80285 342.22088"><defs><style>.cls-1{fill:none;stroke:#000;stroke-linecap:round;stroke-linejoin:round;stroke-width:0.75px;}</style></defs><line class="cls-1" x1="106.97033" y1="196.62059" x2="107.15273" y2="197.34947"/><line class="cls-1" x1="47.02163" y1="231.24142" x2="47.20402" y2="231.9703"/><line class="cls-1" x1="105.69506" y1="194.43401" x2="106.24224" y2="194.98068"/><line class="cls-1" x1="42.64864" y1="228.87263" x2="43.01343" y2="228.32601"/><line class="cls-1" x1="107.15273" y1="198.0783" x2="106.97107" y2="198.62497"/><line class="cls-1" x1="47.20402" y1="232.69913" x2="47.02237" y2="233.2458"/><line class="cls-1" x1="45.19992" y1="233.79242" x2="44.65348" y2="233.61021"/><polyline class="cls-1" points="106.242 194.981 106.607 195.71 106.972 196.621"/><line class="cls-1" x1="107.15347" y1="197.34942" x2="107.15347" y2="198.0783"/><polyline class="cls-1" points="106.971 198.625 106.607 198.989 106.242 199.354"/><polyline class="cls-1" points="103.327 193.523 104.421 193.523 104.967 193.887 105.696 194.434"/><line class="cls-1" x1="47.20476" y1="231.9703" x2="47.20476" y2="232.69918"/><polyline class="cls-1" points="45.747 233.975 46.294 233.975 46.658 233.61"/><line class="cls-1" x1="43.01269" y1="228.32592" x2="43.37747" y2="228.14371"/><line class="cls-1" x1="46.2928" y1="229.60142" x2="46.65758" y2="230.33029"/><line class="cls-1" x1="47.02163" y1="233.24571" x2="46.65758" y2="233.61017"/><polyline class="cls-1" points="46.293 229.601 45.746 229.055 45.2 228.508 44.471 228.144 43.377 228.144"/><path class="cls-1" d="M158.631,257.1155v.54667a4.57124,4.57124,0,0,0,1.4584,3.64429l.54644.54667" transform="translate(-115.98235 -28.24296)"/><line class="cls-1" x1="45.74636" y1="233.97458" x2="45.19992" y2="233.79238"/><line class="cls-1" x1="46.65758" y1="230.33029" x2="47.02237" y2="231.24138"/><line class="cls-1" x1="106.24224" y1="199.35375" x2="46.29354" y2="233.97463"/><line class="cls-1" x1="103.32692" y1="193.52288" x2="43.37822" y2="228.14376"/><line class="cls-1" x1="106.97107" y1="68.88779" x2="107.15347" y2="69.61666"/><line class="cls-1" x1="47.02237" y1="103.50862" x2="47.20476" y2="104.2375"/><line class="cls-1" x1="105.69581" y1="66.7012" x2="106.24299" y2="67.24787"/><line class="cls-1" x1="42.64939" y1="101.13983" x2="43.01417" y2="100.59321"/><line class="cls-1" x1="107.15347" y1="70.34549" x2="106.97182" y2="70.89216"/><line class="cls-1" x1="47.20476" y1="104.96633" x2="47.02311" y2="105.513"/><line class="cls-1" x1="45.20066" y1="106.05962" x2="44.65422" y2="105.87741"/><polyline class="cls-1" points="106.242 67.248 106.606 67.977 106.971 68.888"/><line class="cls-1" x1="107.15273" y1="69.61662" x2="107.15273" y2="70.34549"/><polyline class="cls-1" points="106.97 70.892 106.606 71.257 106.242 71.621"/><polyline class="cls-1" points="103.326 65.79 104.42 65.79 104.966 66.155 105.695 66.701"/><line class="cls-1" x1="47.20402" y1="104.2375" x2="47.20402" y2="104.96637"/><polyline class="cls-1" points="45.746 106.242 46.294 106.242 46.658 105.877"/><line class="cls-1" x1="43.01269" y1="100.59321" x2="43.37747" y2="100.411"/><line class="cls-1" x1="46.2928" y1="101.86871" x2="46.65758" y2="102.59758"/><line class="cls-1" x1="47.02163" y1="105.513" x2="46.65758" y2="105.87746"/><polyline class="cls-1" points="46.293 101.869 45.746 101.322 45.2 100.775 44.471 100.411 43.925 100.229 43.377 100.411"/><path class="cls-1" d="M158.631,129.38279v.54667a4.57124,4.57124,0,0,0,1.4584,3.64429l.54644.54667" transform="translate(-115.98235 -28.24296)"/><line class="cls-1" x1="45.74636" y1="106.24183" x2="45.19992" y2="106.05962"/><line class="cls-1" x1="46.65758" y1="102.59754" x2="47.02237" y2="103.50862"/><line class="cls-1" x1="106.24224" y1="71.62099" x2="46.29354" y2="106.24187"/><line class="cls-1" x1="103.32692" y1="65.79012" x2="43.37822" y2="100.411"/><line class="cls-1" x1="144.69008" y1="264.76892" x2="149.42785" y2="262.03571"/><polyline class="cls-1" points="144.69 9.303 149.428 6.57 138.677 0.375 133.94 3.108 144.69 9.303 144.69 264.769"/><line class="cls-1" x1="133.93854" y1="258.57358" x2="133.93854" y2="3.10816"/><line class="cls-1" x1="149.42711" y1="262.03566" x2="149.42711" y2="6.57024"/><line class="cls-1" x1="133.93854" y1="258.57358" x2="144.68934" y2="264.76892"/><line class="cls-1" x1="139.76918" y1="136.67175" x2="139.22274" y2="136.48954"/><line class="cls-1" x1="140.68041" y1="132.48079" x2="141.22758" y2="133.20966"/><line class="cls-1" x1="141.59163" y1="135.57845" x2="141.59163" y2="136.12512"/><line class="cls-1" x1="137.03625" y1="133.02745" x2="137.03625" y2="132.29862"/><line class="cls-1" x1="140.8628" y1="136.85395" x2="140.31636" y2="136.85395"/><line class="cls-1" x1="140.13397" y1="131.93416" x2="140.68115" y2="132.48083"/><line class="cls-1" x1="141.59163" y1="136.12512" x2="140.8628" y2="136.854"/><line class="cls-1" x1="140.31562" y1="136.85395" x2="139.76918" y2="136.67175"/><line class="cls-1" x1="137.2179" y1="133.75628" x2="137.03625" y2="133.02745"/><line class="cls-1" x1="137.2179" y1="131.75191" x2="137.58269" y2="131.20529"/><line class="cls-1" x1="138.49317" y1="130.84082" x2="139.04035" y2="131.02308"/><line class="cls-1" x1="139.58679" y1="131.38745" x2="140.13397" y2="131.93412"/><line class="cls-1" x1="139.76918" y1="221.94828" x2="139.22274" y2="221.58387"/><line class="cls-1" x1="141.40924" y1="219.21507" x2="141.59163" y2="219.94395"/><polyline class="cls-1" points="141.592 134.85 141.41 133.939 141.228 133.21"/><polyline class="cls-1" points="139.223 136.49 138.494 135.943 137.947 135.214 137.583 134.485 137.219 133.756"/><line class="cls-1" x1="137.03625" y1="132.29858" x2="137.21865" y2="131.75196"/><polyline class="cls-1" points="137.583 131.205 137.947 131.023 138.494 130.841"/><polyline class="cls-1" points="140.134 217.029 140.681 217.757 141.228 218.486 141.41 219.215"/><polyline class="cls-1" points="141.592 220.673 141.592 221.22 141.228 221.766 140.863 221.948 139.77 221.948"/><path class="cls-1" d="M255.2051,249.82692l-.72883-.54662c-1.2419-.92017-2.53867-4.85909,0-4.91979l.54718.1822" transform="translate(-115.98235 -28.24296)"/><line class="cls-1" x1="139.58753" y1="216.48196" x2="140.13471" y2="217.02863"/><line class="cls-1" x1="137.58343" y1="46.11091" x2="137.94822" y2="45.7465"/><line class="cls-1" x1="140.68115" y1="47.38641" x2="141.22833" y2="48.11529"/><line class="cls-1" x1="141.40998" y1="176.57683" x2="141.59237" y2="177.30571"/><line class="cls-1" x1="137.03699" y1="175.66575" x2="137.03699" y2="174.93691"/><line class="cls-1" x1="137.94822" y1="173.47916" x2="138.4954" y2="173.47916"/><line class="cls-1" x1="138.49466" y1="178.39895" x2="137.94822" y2="177.85233"/><line class="cls-1" x1="138.49466" y1="173.47916" x2="139.04183" y2="173.66142"/><line class="cls-1" x1="137.03699" y1="47.75078" x2="137.03699" y2="47.20416"/><line class="cls-1" x1="137.21939" y1="174.20799" x2="137.58417" y2="173.84358"/><line class="cls-1" x1="140.13471" y1="174.3902" x2="140.68189" y2="175.11908"/><line class="cls-1" x1="137.58343" y1="177.12341" x2="137.21939" y2="176.39458"/><line class="cls-1" x1="141.40998" y1="48.84403" x2="141.59237" y2="49.5729"/><line class="cls-1" x1="141.22758" y1="51.39503" x2="140.86354" y2="51.57728"/><polyline class="cls-1" points="139.77 51.577 139.223 51.213 138.495 50.666 137.948 50.12"/><line class="cls-1" x1="140.13471" y1="46.65744" x2="140.68189" y2="47.38632"/><line class="cls-1" x1="141.22833" y1="48.11515" x2="141.41072" y2="48.84403"/><polyline class="cls-1" points="141.593 50.302 141.593 50.848 141.229 51.395"/><polyline class="cls-1" points="140.863 51.577 140.316 51.76 139.77 51.577"/><polyline class="cls-1" points="137.947 50.12 137.583 49.391 137.218 48.662 137.036 47.751"/><polyline class="cls-1" points="137.036 47.204 137.218 46.475 137.583 46.111"/><polyline class="cls-1" points="137.947 45.746 138.494 45.746 139.04 45.929"/><line class="cls-1" x1="139.58679" y1="46.29307" x2="140.13397" y2="46.65754"/><line class="cls-1" x1="140.68041" y1="175.11908" x2="141.22758" y2="175.84795"/><line class="cls-1" x1="141.59163" y1="178.03454" x2="141.59163" y2="178.58121"/><line class="cls-1" x1="139.76918" y1="179.31004" x2="139.22274" y2="178.94562"/><line class="cls-1" x1="141.22684" y1="179.12783" x2="140.8628" y2="179.31008"/><line class="cls-1" x1="137.58269" y1="173.84358" x2="137.94748" y2="173.47916"/><polyline class="cls-1" points="140.863 179.31 140.316 179.492 139.77 179.31"/><line class="cls-1" x1="139.22274" y1="178.94562" x2="138.49391" y2="178.399"/><line class="cls-1" x1="137.94748" y1="177.85233" x2="137.58343" y2="177.1235"/><line class="cls-1" x1="141.59163" y1="178.58121" x2="141.22758" y2="179.12787"/><line class="cls-1" x1="141.22684" y1="175.848" x2="141.40924" y2="176.57688"/><line class="cls-1" x1="137.2179" y1="176.39462" x2="137.03625" y2="175.66579"/><line class="cls-1" x1="137.03551" y1="174.93691" x2="137.2179" y2="174.20808"/><line class="cls-1" x1="139.58679" y1="174.02583" x2="140.13397" y2="174.39029"/><path class="cls-1" d="M255.38675,74.35387v.36446a5.28579,5.28579,0,0,0,2.00484,3.46209l.18239.18221" transform="translate(-115.98235 -28.24296)"/><polyline class="cls-1" points="140.68 90.025 140.133 89.296 139.587 88.749"/><path class="cls-1" d="M255.02271,116.81l-.54644-.18221h-.54644c-1.02985.88981-1.13,1.29376-.72883,2.73325l.36405.91109.36478.72883c.95052.92628,1.89214,1.98009,3.28011,1.2755l.364-.54663v-.54667" transform="translate(-115.98235 -28.24296)"/><polyline class="cls-1" points="141.592 92.211 141.228 90.754 140.681 90.025"/><path class="cls-1" d="M255.38749,116.99216v.36446a6.94648,6.94648,0,0,0,2.00484,3.46209h.18239" transform="translate(-115.98235 -28.24296)"/><path class="cls-1" d="M255.38749,159.44825v.54667a5.65535,5.65535,0,0,0,2.00484,3.27987l.18239.18221" transform="translate(-115.98235 -28.24296)"/><path class="cls-1" d="M255.38749,202.08654v.36446a5.28574,5.28574,0,0,0,2.00484,3.46208l.18239.18221" transform="translate(-115.98235 -28.24296)"/><path class="cls-1" d="M255.38749,244.72483v.36446a6.94645,6.94645,0,0,0,2.00484,3.46208h.18239" transform="translate(-115.98235 -28.24296)"/><line class="cls-1" x1="106.97107" y1="111.34382" x2="107.15347" y2="112.25491"/><line class="cls-1" x1="47.02237" y1="145.96466" x2="47.20476" y2="146.69353"/><line class="cls-1" x1="105.69581" y1="109.33945" x2="106.24299" y2="109.88612"/><line class="cls-1" x1="42.64939" y1="143.59587" x2="43.01417" y2="143.23145"/><line class="cls-1" x1="107.15347" y1="112.80153" x2="106.97182" y2="113.53041"/><line class="cls-1" x1="47.20476" y1="147.42236" x2="47.02311" y2="148.15124"/><line class="cls-1" x1="45.20066" y1="148.69786" x2="44.65422" y2="148.33345"/><polyline class="cls-1" points="106.243 109.886 106.608 110.615 106.973 111.344"/><line class="cls-1" x1="107.15421" y1="112.25486" x2="107.15421" y2="112.80153"/><polyline class="cls-1" points="106.972 113.53 106.608 113.895 106.243 114.259"/><polyline class="cls-1" points="103.326 108.428 103.873 108.246 104.42 108.428 104.966 108.793 105.695 109.339"/><line class="cls-1" x1="47.20402" y1="146.69358" x2="47.20402" y2="147.42246"/><polyline class="cls-1" points="45.746 148.88 46.294 148.698 46.658 148.516"/><line class="cls-1" x1="43.01343" y1="143.2315" x2="43.37822" y2="143.04929"/><line class="cls-1" x1="46.29354" y1="144.507" x2="46.65832" y2="145.23587"/><line class="cls-1" x1="47.02237" y1="148.15129" x2="46.65832" y2="148.51575"/><polyline class="cls-1" points="46.293 144.507 45.746 143.778 45.2 143.414 44.471 143.049 43.925 142.867 43.377 143.049"/><path class="cls-1" d="M158.631,171.83887v.72888a3.92921,3.92921,0,0,0,1.4584,3.46208l.54644.54667" transform="translate(-115.98235 -28.24296)"/><line class="cls-1" x1="45.74636" y1="148.88016" x2="45.19992" y2="148.69796"/><line class="cls-1" x1="46.65758" y1="145.23587" x2="47.02237" y2="145.96475"/><line class="cls-1" x1="106.24224" y1="114.25933" x2="46.29354" y2="148.698"/><line class="cls-1" x1="103.32692" y1="108.42846" x2="43.37822" y2="143.04934"/><line class="cls-1" x1="106.97107" y1="153.98221" x2="107.15347" y2="154.71108"/><line class="cls-1" x1="47.02237" y1="188.60304" x2="47.20476" y2="189.33192"/><line class="cls-1" x1="105.69581" y1="151.79562" x2="106.24299" y2="152.5245"/><line class="cls-1" x1="42.64939" y1="186.23425" x2="43.01417" y2="185.86983"/><line class="cls-1" x1="107.15347" y1="155.43991" x2="106.97182" y2="155.98658"/><line class="cls-1" x1="47.20476" y1="190.06075" x2="47.02311" y2="190.60742"/><line class="cls-1" x1="45.20066" y1="191.33625" x2="44.65422" y2="190.97183"/><polyline class="cls-1" points="106.242 152.524 106.606 153.253 106.971 153.982"/><line class="cls-1" x1="107.15273" y1="154.71104" x2="107.15273" y2="155.43991"/><polyline class="cls-1" points="106.97 155.987 106.606 156.533 106.242 156.715"/><polyline class="cls-1" points="103.326 150.885 103.873 150.885 104.42 151.067 104.966 151.431 105.695 151.796"/><line class="cls-1" x1="47.20402" y1="189.33192" x2="47.20402" y2="190.06079"/><polyline class="cls-1" points="45.746 191.336 46.294 191.336 46.658 191.154"/><line class="cls-1" x1="43.01343" y1="185.86983" x2="43.37822" y2="185.50542"/><line class="cls-1" x1="46.29354" y1="187.14533" x2="46.65832" y2="187.87421"/><line class="cls-1" x1="47.02237" y1="190.60742" x2="46.65832" y2="191.15409"/><polyline class="cls-1" points="46.294 187.145 45.747 186.417 45.201 185.87 44.472 185.688 43.925 185.505 43.378 185.505"/><path class="cls-1" d="M158.63174,214.47721v.54667a4.18167,4.18167,0,0,0,1.4584,3.64429l.54644.54667" transform="translate(-115.98235 -28.24296)"/><line class="cls-1" x1="45.7471" y1="191.33625" x2="45.20066" y2="191.33625"/><line class="cls-1" x1="46.65832" y1="187.87416" x2="47.02311" y2="188.60304"/><line class="cls-1" x1="106.24299" y1="156.71541" x2="46.29428" y2="191.33629"/><line class="cls-1" x1="103.32766" y1="150.88454" x2="43.37896" y2="185.50542"/><line class="cls-1" x1="15.68192" y1="339.29486" x2="11.12655" y2="341.84588"/><polyline class="cls-1" points="15.68 83.829 11.125 86.38 0.375 80.185 4.93 77.634 15.68 83.829 15.68 339.295"/><line class="cls-1" x1="0.375" y1="335.65054" x2="0.375" y2="80.18512"/><polyline class="cls-1" points="11.126 86.38 11.126 341.846 0.376 335.651"/><line class="cls-1" x1="106.97107" y1="239.07658" x2="107.15347" y2="239.98767"/><line class="cls-1" x1="47.02237" y1="273.69741" x2="47.20476" y2="274.42629"/><line class="cls-1" x1="105.69581" y1="237.07221" x2="106.24299" y2="237.61887"/><line class="cls-1" x1="42.64939" y1="271.32862" x2="43.01417" y2="270.96421"/><line class="cls-1" x1="107.15347" y1="240.53429" x2="106.97182" y2="241.26317"/><line class="cls-1" x1="47.20476" y1="275.15512" x2="47.02311" y2="275.884"/><line class="cls-1" x1="45.20066" y1="276.43062" x2="44.65422" y2="276.06621"/><polyline class="cls-1" points="106.243 237.619 106.608 238.348 106.973 239.077"/><line class="cls-1" x1="107.15421" y1="239.98762" x2="107.15421" y2="240.53429"/><polyline class="cls-1" points="106.972 241.263 106.608 241.628 106.243 241.992"/><polyline class="cls-1" points="103.326 236.161 103.873 235.979 104.42 236.161 104.966 236.526 105.695 237.072"/><line class="cls-1" x1="47.20402" y1="274.42629" x2="47.20402" y2="275.15517"/><polyline class="cls-1" points="45.746 276.613 46.294 276.431 46.658 276.248"/><line class="cls-1" x1="43.01343" y1="270.96421" x2="43.37822" y2="270.782"/><line class="cls-1" x1="46.29354" y1="272.23971" x2="46.65832" y2="272.96858"/><line class="cls-1" x1="47.02237" y1="275.884" x2="46.65832" y2="276.24846"/><polyline class="cls-1" points="46.293 272.24 45.746 271.693 45.2 271.146 44.471 270.782 43.925 270.6 43.377 270.782"/><path class="cls-1" d="M158.631,299.57158v.72888a4.57124,4.57124,0,0,0,1.4584,3.64429l.54644.36446" transform="translate(-115.98235 -28.24296)"/><line class="cls-1" x1="45.74636" y1="276.61287" x2="45.19992" y2="276.43067"/><line class="cls-1" x1="46.65758" y1="272.96858" x2="47.02237" y2="273.69746"/><line class="cls-1" x1="106.24224" y1="241.99204" x2="46.29354" y2="276.43071"/><line class="cls-1" x1="103.32692" y1="236.16117" x2="43.37822" y2="270.78205"/><line class="cls-1" x1="141.59163" y1="219.944" x2="141.59163" y2="220.67287"/><line class="cls-1" x1="141.59163" y1="134.84958" x2="141.59163" y2="135.57845"/><polyline class="cls-1" points="139.04 131.023 139.405 131.205 139.588 131.388"/><polyline class="cls-1" points="139.04 216.3 139.405 216.482 139.588 216.482"/><polyline class="cls-1" points="139.04 45.929 139.405 46.111 139.588 46.293"/><polyline class="cls-1" points="139.04 173.661 139.405 173.844 139.588 174.026"/><line class="cls-1" x1="141.59163" y1="49.573" x2="141.59163" y2="50.30187"/><line class="cls-1" x1="141.59163" y1="177.30571" x2="141.59163" y2="178.03458"/><polyline class="cls-1" points="139.04 88.567 139.405 88.749 139.588 88.749"/><line class="cls-1" x1="141.59163" y1="92.21129" x2="141.59163" y2="92.94016"/></svg>