<svg id="ladder_main" data-name="ladder main" xmlns="http://www.w3.org/2000/svg" viewBox="0 0 78.72 302.48"><defs><style>.cls-1,.cls-2{fill:none;stroke:#000;stroke-linecap:round;stroke-linejoin:round;}.cls-1{stroke-width:0.36px;}.cls-2{stroke-width:3.46px;}</style></defs><polyline class="cls-1" points="69.33 51.66 69.33 50.93 69.15 50.2 68.42 48.74 67.87 48.01 67.33 47.47 66.23 47.1 65.69 47.1"/><polyline class="cls-1" points="69.33 222.03 69.15 222.58 68.97 222.94 68.6 223.31"/><line class="cls-1" x1="69.15" y1="179.94" x2="69.33" y2="179.39"/><polyline class="cls-1" points="69.33 222.03 69.33 221.3 69.15 220.57"/><line class="cls-1" x1="68.97" y1="180.48" x2="69.15" y2="179.94"/><line class="cls-1" x1="69.15" y1="220.57" x2="68.79" y2="219.66"/><line class="cls-1" x1="68.6" y1="180.67" x2="68.97" y2="180.48"/><polyline class="cls-1" points="68.79 219.66 68.42 218.93 67.88 218.38 67.33 217.84 66.78 217.47 65.69 217.47"/><line class="cls-1" x1="69.15" y1="137.48" x2="69.33" y2="136.75"/><polyline class="cls-1" points="69.33 179.39 69.33 178.66 69.15 177.93"/><line class="cls-1" x1="68.97" y1="137.85" x2="69.15" y2="137.48"/><line class="cls-1" x1="69.15" y1="177.93" x2="68.79" y2="177.2"/><line class="cls-1" x1="68.6" y1="138.21" x2="68.97" y2="137.85"/><polyline class="cls-1" points="68.79 177.2 68.42 176.47 67.88 175.75 67.33 175.38 66.78 175.02 66.24 174.84 65.69 174.84"/><line class="cls-1" x1="69.15" y1="94.84" x2="69.33" y2="94.3"/><polyline class="cls-1" points="69.33 136.75 69.33 136.21 69.15 135.29"/><line class="cls-1" x1="68.97" y1="95.21" x2="69.15" y2="94.84"/><line class="cls-1" x1="69.15" y1="135.29" x2="68.79" y2="134.57"/><line class="cls-1" x1="68.6" y1="95.57" x2="68.97" y2="95.21"/><polyline class="cls-1" points="68.79 134.57 68.42 133.84 67.88 133.29 67.33 132.74 66.78 132.38 66.24 132.2 65.69 132.38"/><line class="cls-1" x1="69.15" y1="52.2" x2="69.33" y2="51.66"/><polyline class="cls-1" points="69.33 94.3 69.33 93.57 69.15 92.84"/><line class="cls-1" x1="68.97" y1="52.75" x2="69.15" y2="52.2"/><line class="cls-1" x1="69.15" y1="92.84" x2="68.79" y2="91.93"/><line class="cls-1" x1="68.61" y1="52.93" x2="68.97" y2="52.75"/><polyline class="cls-1" points="68.79 91.93 68.42 91.2 67.88 90.65 67.33 90.11 66.78 89.74 65.69 89.74"/><line class="cls-1" x1="17.22" y1="298.01" x2="12.48" y2="300.75"/><polygon class="cls-1" points="17.22 42.55 12.48 45.1 1.73 38.9 6.47 36.35 17.22 42.55"/><line class="cls-1" x1="1.73" y1="294.37" x2="1.73" y2="38.9"/><polyline class="cls-1" points="12.48 45.1 12.48 300.75 1.73 294.37"/><line class="cls-1" x1="72.43" y1="266.12" x2="76.99" y2="263.39"/><polyline class="cls-1" points="72.43 10.66 76.98 7.93 66.23 1.73 61.68 4.46 72.43 10.66 72.43 266.13"/><line class="cls-1" x1="61.68" y1="259.93" x2="61.68" y2="227.31"/><line class="cls-1" x1="61.68" y1="219.66" x2="61.68" y2="184.67"/><line class="cls-1" x1="61.68" y1="177.2" x2="61.68" y2="142.04"/><line class="cls-1" x1="61.68" y1="134.57" x2="61.68" y2="99.4"/><line class="cls-1" x1="61.68" y1="91.93" x2="61.68" y2="56.94"/><line class="cls-1" x1="61.68" y1="49.47" x2="61.68" y2="4.46"/><line class="cls-1" x1="76.99" y1="263.39" x2="76.99" y2="7.93"/><line class="cls-1" x1="61.68" y1="259.93" x2="72.43" y2="266.13"/><line class="cls-1" x1="17.21" y1="298.01" x2="17.21" y2="253.01"/><polyline class="cls-1" points="68.6 223.31 61.67 227.31 17.21 253.01"/><polyline class="cls-1" points="65.69 217.47 61.68 219.66 17.22 245.53"/><polyline class="cls-1" points="68.6 180.67 61.68 184.68 17.22 210.37"/><polyline class="cls-1" points="65.69 174.84 61.68 177.2 17.22 202.9"/><polyline class="cls-1" points="68.6 138.21 61.68 142.04 17.22 167.73"/><polyline class="cls-1" points="65.69 132.38 61.68 134.57 17.22 160.26"/><polyline class="cls-1" points="68.6 95.57 61.68 99.4 17.22 125.27"/><polyline class="cls-1" points="65.69 89.74 61.68 91.93 17.22 117.8"/><polyline class="cls-1" points="68.6 52.93 61.68 56.94 17.22 82.64"/><polyline class="cls-1" points="65.69 47.1 61.68 49.47 17.22 75.16"/><line class="cls-1" x1="17.22" y1="253.01" x2="17.22" y2="245.54"/><line class="cls-1" x1="17.21" y1="245.53" x2="17.21" y2="210.37"/><line class="cls-1" x1="17.22" y1="210.37" x2="17.22" y2="202.9"/><line class="cls-1" x1="17.22" y1="202.9" x2="17.22" y2="167.73"/><line class="cls-1" x1="17.22" y1="167.73" x2="17.22" y2="160.26"/><line class="cls-1" x1="17.22" y1="160.26" x2="17.22" y2="125.27"/><line class="cls-1" x1="17.22" y1="125.27" x2="17.22" y2="117.8"/><line class="cls-1" x1="17.22" y1="117.8" x2="17.22" y2="82.63"/><line class="cls-1" x1="17.22" y1="82.63" x2="17.22" y2="42.54"/><polygon class="cls-2" points="76.98 7.93 66.23 1.73 61.68 4.46 61.68 49.47 17.22 75.16 17.22 42.55 6.47 36.35 1.73 38.9 1.73 294.37 12.48 300.75 17.22 298.01 17.22 253.01 61.68 227.31 61.68 259.93 72.43 266.13 76.98 263.39 76.98 7.93"/></svg>