<svg id="ladder_ex" data-name="ladder ex" xmlns="http://www.w3.org/2000/svg" viewBox="0 0 149.42 341.84"><defs><style>.cls-1{fill:none;stroke:#000;stroke-linecap:round;stroke-linejoin:round;stroke-width:0.36px;}</style></defs><line class="cls-1" x1="106.78" y1="196.43" x2="106.96" y2="197.16"/><line class="cls-1" x1="46.83" y1="231.05" x2="47.01" y2="231.78"/><line class="cls-1" x1="105.5" y1="194.24" x2="106.05" y2="194.79"/><line class="cls-1" x1="42.46" y1="228.68" x2="42.82" y2="228.13"/><line class="cls-1" x1="106.96" y1="197.89" x2="106.78" y2="198.43"/><line class="cls-1" x1="47.01" y1="232.51" x2="46.83" y2="233.05"/><line class="cls-1" x1="45.01" y1="233.6" x2="44.46" y2="233.42"/><polyline class="cls-1" points="106.05 194.79 106.41 195.52 106.78 196.43"/><line class="cls-1" x1="106.96" y1="197.16" x2="106.96" y2="197.89"/><polyline class="cls-1" points="106.78 198.43 106.41 198.8 106.05 199.16"/><polyline class="cls-1" points="103.13 193.33 104.23 193.33 104.77 193.69 105.5 194.24"/><line class="cls-1" x1="47.01" y1="231.78" x2="47.01" y2="232.51"/><polyline class="cls-1" points="45.55 233.78 46.1 233.78 46.47 233.42"/><line class="cls-1" x1="42.82" y1="228.13" x2="43.18" y2="227.95"/><line class="cls-1" x1="46.1" y1="229.41" x2="46.46" y2="230.14"/><line class="cls-1" x1="46.83" y1="233.05" x2="46.46" y2="233.42"/><polyline class="cls-1" points="46.1 229.41 45.55 228.86 45.01 228.31 44.28 227.95 43.19 227.95"/><path class="cls-1" d="M158.63,257.12v.54a4.58,4.58,0,0,0,1.46,3.65l.55.54" transform="translate(-116.18 -28.44)"/><line class="cls-1" x1="45.55" y1="233.78" x2="45.01" y2="233.6"/><line class="cls-1" x1="46.46" y1="230.14" x2="46.83" y2="231.05"/><line class="cls-1" x1="106.05" y1="199.16" x2="46.1" y2="233.78"/><line class="cls-1" x1="103.13" y1="193.33" x2="43.19" y2="227.95"/><line class="cls-1" x1="106.78" y1="68.7" x2="106.96" y2="69.42"/><line class="cls-1" x1="46.83" y1="103.32" x2="47.01" y2="104.04"/><line class="cls-1" x1="105.5" y1="66.51" x2="106.05" y2="67.06"/><line class="cls-1" x1="42.46" y1="100.95" x2="42.82" y2="100.4"/><line class="cls-1" x1="106.96" y1="70.15" x2="106.78" y2="70.7"/><line class="cls-1" x1="47.01" y1="104.77" x2="46.83" y2="105.32"/><line class="cls-1" x1="45.01" y1="105.87" x2="44.46" y2="105.68"/><polyline class="cls-1" points="106.05 67.06 106.41 67.78 106.78 68.69"/><line class="cls-1" x1="106.96" y1="69.42" x2="106.96" y2="70.15"/><polyline class="cls-1" points="106.78 70.7 106.41 71.06 106.05 71.43"/><polyline class="cls-1" points="103.13 65.6 104.23 65.6 104.77 65.96 105.5 66.51"/><line class="cls-1" x1="47.01" y1="104.04" x2="47.01" y2="104.77"/><polyline class="cls-1" points="45.55 106.05 46.1 106.05 46.47 105.69"/><line class="cls-1" x1="42.82" y1="100.4" x2="43.18" y2="100.22"/><line class="cls-1" x1="46.1" y1="101.68" x2="46.46" y2="102.4"/><line class="cls-1" x1="46.83" y1="105.32" x2="46.46" y2="105.68"/><polyline class="cls-1" points="46.1 101.68 45.55 101.13 45.01 100.58 44.28 100.22 43.73 100.04 43.19 100.22"/><path class="cls-1" d="M158.63,129.38v.55a4.57,4.57,0,0,0,1.46,3.64l.55.55" transform="translate(-116.18 -28.44)"/><line class="cls-1" x1="45.55" y1="106.05" x2="45.01" y2="105.87"/><line class="cls-1" x1="46.46" y1="102.4" x2="46.83" y2="103.32"/><line class="cls-1" x1="106.05" y1="71.43" x2="46.1" y2="106.05"/><line class="cls-1" x1="103.13" y1="65.6" x2="43.19" y2="100.22"/><line class="cls-1" x1="144.5" y1="264.58" x2="149.24" y2="261.84"/><polyline class="cls-1" points="144.5 9.11 149.24 6.38 138.48 0.18 133.75 2.92 144.5 9.11 144.5 264.58"/><line class="cls-1" x1="133.75" y1="258.38" x2="133.75" y2="2.92"/><line class="cls-1" x1="149.23" y1="261.84" x2="149.23" y2="6.38"/><line class="cls-1" x1="133.75" y1="258.38" x2="144.5" y2="264.58"/><line class="cls-1" x1="139.58" y1="136.48" x2="139.03" y2="136.3"/><line class="cls-1" x1="140.49" y1="132.29" x2="141.03" y2="133.02"/><line class="cls-1" x1="141.4" y1="135.39" x2="141.4" y2="135.93"/><line class="cls-1" x1="136.84" y1="132.83" x2="136.84" y2="132.11"/><line class="cls-1" x1="140.67" y1="136.66" x2="140.12" y2="136.66"/><line class="cls-1" x1="139.94" y1="131.74" x2="140.49" y2="132.29"/><line class="cls-1" x1="141.4" y1="135.93" x2="140.67" y2="136.66"/><line class="cls-1" x1="140.12" y1="136.66" x2="139.58" y2="136.48"/><line class="cls-1" x1="137.03" y1="133.56" x2="136.84" y2="132.83"/><line class="cls-1" x1="137.03" y1="131.56" x2="137.39" y2="131.01"/><line class="cls-1" x1="138.3" y1="130.65" x2="138.85" y2="130.83"/><line class="cls-1" x1="139.39" y1="131.19" x2="139.94" y2="131.74"/><line class="cls-1" x1="139.58" y1="221.76" x2="139.03" y2="221.39"/><line class="cls-1" x1="141.22" y1="219.02" x2="141.4" y2="219.75"/><polyline class="cls-1" points="141.4 134.66 141.22 133.75 141.03 133.02"/><polyline class="cls-1" points="139.03 136.3 138.3 135.75 137.75 135.02 137.39 134.29 137.03 133.56"/><line class="cls-1" x1="136.84" y1="132.11" x2="137.03" y2="131.56"/><polyline class="cls-1" points="137.39 131.01 137.75 130.83 138.3 130.65"/><polyline class="cls-1" points="139.94 216.84 140.49 217.56 141.03 218.29 141.22 219.02"/><polyline class="cls-1" points="141.4 220.48 141.4 221.03 141.03 221.57 140.67 221.76 139.58 221.76"/><path class="cls-1" d="M255.21,249.83l-.73-.55c-1.25-.92-2.54-4.86,0-4.92l.54.18" transform="translate(-116.18 -28.44)"/><line class="cls-1" x1="139.39" y1="216.29" x2="139.94" y2="216.84"/><line class="cls-1" x1="137.39" y1="45.92" x2="137.76" y2="45.55"/><line class="cls-1" x1="140.49" y1="47.19" x2="141.04" y2="47.92"/><line class="cls-1" x1="141.22" y1="176.38" x2="141.4" y2="177.11"/><line class="cls-1" x1="136.84" y1="175.47" x2="136.84" y2="174.74"/><line class="cls-1" x1="137.76" y1="173.29" x2="138.3" y2="173.29"/><line class="cls-1" x1="138.3" y1="178.21" x2="137.76" y2="177.66"/><line class="cls-1" x1="138.3" y1="173.29" x2="138.85" y2="173.47"/><line class="cls-1" x1="136.84" y1="47.56" x2="136.84" y2="47.01"/><line class="cls-1" x1="137.03" y1="174.02" x2="137.39" y2="173.65"/><line class="cls-1" x1="139.94" y1="174.2" x2="140.49" y2="174.93"/><line class="cls-1" x1="137.39" y1="176.93" x2="137.03" y2="176.2"/><line class="cls-1" x1="141.22" y1="48.65" x2="141.4" y2="49.38"/><line class="cls-1" x1="141.03" y1="51.2" x2="140.67" y2="51.38"/><polyline class="cls-1" points="139.58 51.38 139.03 51.02 138.3 50.47 137.75 49.93"/><line class="cls-1" x1="139.94" y1="46.46" x2="140.49" y2="47.19"/><line class="cls-1" x1="141.04" y1="47.92" x2="141.22" y2="48.65"/><polyline class="cls-1" points="141.4 50.11 141.4 50.66 141.04 51.2"/><polyline class="cls-1" points="140.67 51.38 140.12 51.57 139.58 51.38"/><polyline class="cls-1" points="137.75 49.93 137.39 49.2 137.03 48.47 136.84 47.56"/><polyline class="cls-1" points="136.84 47.01 137.03 46.28 137.39 45.92"/><polyline class="cls-1" points="137.75 45.55 138.3 45.55 138.85 45.74"/><line class="cls-1" x1="139.39" y1="46.1" x2="139.94" y2="46.46"/><line class="cls-1" x1="140.49" y1="174.93" x2="141.03" y2="175.66"/><line class="cls-1" x1="141.4" y1="177.84" x2="141.4" y2="178.39"/><line class="cls-1" x1="139.58" y1="179.12" x2="139.03" y2="178.75"/><line class="cls-1" x1="141.03" y1="178.94" x2="140.67" y2="179.12"/><line class="cls-1" x1="137.39" y1="173.65" x2="137.75" y2="173.29"/><polyline class="cls-1" points="140.67 179.12 140.12 179.3 139.58 179.12"/><line class="cls-1" x1="139.03" y1="178.75" x2="138.3" y2="178.21"/><line class="cls-1" x1="137.75" y1="177.66" x2="137.39" y2="176.93"/><line class="cls-1" x1="141.4" y1="178.39" x2="141.03" y2="178.94"/><line class="cls-1" x1="141.03" y1="175.66" x2="141.22" y2="176.38"/><line class="cls-1" x1="137.03" y1="176.2" x2="136.84" y2="175.47"/><line class="cls-1" x1="136.84" y1="174.74" x2="137.03" y2="174.02"/><line class="cls-1" x1="139.39" y1="173.83" x2="139.94" y2="174.2"/><path class="cls-1" d="M255.39,74.35v.37a5.27,5.27,0,0,0,2,3.46l.18.18" transform="translate(-116.18 -28.44)"/><polyline class="cls-1" points="140.49 89.83 139.94 89.1 139.39 88.56"/><path class="cls-1" d="M255,116.81l-.54-.18h-.55c-1,.89-1.13,1.29-.73,2.73l.37.91.36.73c.95.93,1.89,2,3.28,1.28l.36-.55v-.55" transform="translate(-116.18 -28.44)"/><polyline class="cls-1" points="141.4 92.02 141.03 90.56 140.49 89.83"/><path class="cls-1" d="M255.39,117v.37a7,7,0,0,0,2,3.46h.18" transform="translate(-116.18 -28.44)"/><path class="cls-1" d="M255.39,159.45V160a5.62,5.62,0,0,0,2,3.28l.18.19" transform="translate(-116.18 -28.44)"/><path class="cls-1" d="M255.39,202.09v.36a5.27,5.27,0,0,0,2,3.46l.18.19" transform="translate(-116.18 -28.44)"/><path class="cls-1" d="M255.39,244.72v.37a6.9,6.9,0,0,0,2,3.46h.18" transform="translate(-116.18 -28.44)"/><line class="cls-1" x1="106.78" y1="111.15" x2="106.96" y2="112.06"/><line class="cls-1" x1="46.83" y1="145.77" x2="47.01" y2="146.5"/><line class="cls-1" x1="105.5" y1="109.15" x2="106.05" y2="109.69"/><line class="cls-1" x1="42.46" y1="143.4" x2="42.82" y2="143.04"/><line class="cls-1" x1="106.96" y1="112.61" x2="106.78" y2="113.34"/><line class="cls-1" x1="47.01" y1="147.23" x2="46.83" y2="147.96"/><line class="cls-1" x1="45.01" y1="148.51" x2="44.46" y2="148.14"/><polyline class="cls-1" points="106.05 109.69 106.42 110.42 106.78 111.15"/><line class="cls-1" x1="106.96" y1="112.06" x2="106.96" y2="112.61"/><polyline class="cls-1" points="106.78 113.34 106.42 113.7 106.05 114.07"/><polyline class="cls-1" points="103.13 108.24 103.68 108.05 104.23 108.24 104.77 108.6 105.5 109.15"/><line class="cls-1" x1="47.01" y1="146.5" x2="47.01" y2="147.23"/><polyline class="cls-1" points="45.55 148.69 46.1 148.5 46.47 148.32"/><line class="cls-1" x1="42.82" y1="143.04" x2="43.19" y2="142.86"/><line class="cls-1" x1="46.1" y1="144.31" x2="46.47" y2="145.04"/><line class="cls-1" x1="46.83" y1="147.96" x2="46.47" y2="148.32"/><polyline class="cls-1" points="46.1 144.31 45.55 143.59 45.01 143.22 44.28 142.86 43.73 142.67 43.19 142.86"/><path class="cls-1" d="M158.63,171.84v.73a3.93,3.93,0,0,0,1.46,3.46l.55.55" transform="translate(-116.18 -28.44)"/><line class="cls-1" x1="45.55" y1="148.69" x2="45.01" y2="148.51"/><line class="cls-1" x1="46.46" y1="145.04" x2="46.83" y2="145.77"/><line class="cls-1" x1="106.05" y1="114.07" x2="46.1" y2="148.51"/><line class="cls-1" x1="103.13" y1="108.24" x2="43.19" y2="142.86"/><line class="cls-1" x1="106.78" y1="153.79" x2="106.96" y2="154.52"/><line class="cls-1" x1="46.83" y1="188.41" x2="47.01" y2="189.14"/><line class="cls-1" x1="105.5" y1="151.6" x2="106.05" y2="152.33"/><line class="cls-1" x1="42.46" y1="186.04" x2="42.82" y2="185.68"/><line class="cls-1" x1="106.96" y1="155.25" x2="106.78" y2="155.79"/><line class="cls-1" x1="47.01" y1="189.87" x2="46.83" y2="190.41"/><line class="cls-1" x1="45.01" y1="191.14" x2="44.46" y2="190.78"/><polyline class="cls-1" points="106.05 152.33 106.41 153.06 106.78 153.79"/><line class="cls-1" x1="106.96" y1="154.52" x2="106.96" y2="155.25"/><polyline class="cls-1" points="106.78 155.79 106.41 156.34 106.05 156.52"/><polyline class="cls-1" points="103.13 150.69 103.68 150.69 104.23 150.87 104.77 151.24 105.5 151.6"/><line class="cls-1" x1="47.01" y1="189.14" x2="47.01" y2="189.87"/><polyline class="cls-1" points="45.55 191.14 46.1 191.14 46.47 190.96"/><line class="cls-1" x1="42.82" y1="185.68" x2="43.19" y2="185.31"/><line class="cls-1" x1="46.1" y1="186.95" x2="46.47" y2="187.68"/><line class="cls-1" x1="46.83" y1="190.41" x2="46.47" y2="190.96"/><polyline class="cls-1" points="46.1 186.95 45.55 186.22 45.01 185.68 44.28 185.5 43.73 185.31 43.19 185.31"/><path class="cls-1" d="M158.63,214.48V215a4.19,4.19,0,0,0,1.46,3.65l.55.54" transform="translate(-116.18 -28.44)"/><line class="cls-1" x1="45.55" y1="191.14" x2="45.01" y2="191.14"/><line class="cls-1" x1="46.47" y1="187.68" x2="46.83" y2="188.41"/><line class="cls-1" x1="106.05" y1="156.52" x2="46.1" y2="191.14"/><line class="cls-1" x1="103.13" y1="150.69" x2="43.19" y2="185.31"/><line class="cls-1" x1="15.49" y1="339.1" x2="10.93" y2="341.65"/><polyline class="cls-1" points="15.49 83.64 10.93 86.19 0.18 79.99 4.74 77.44 15.49 83.64 15.49 339.1"/><line class="cls-1" x1="0.18" y1="335.46" x2="0.18" y2="79.99"/><polyline class="cls-1" points="10.93 86.19 10.93 341.65 0.18 335.46"/><line class="cls-1" x1="106.78" y1="238.88" x2="106.96" y2="239.79"/><line class="cls-1" x1="46.83" y1="273.5" x2="47.01" y2="274.23"/><line class="cls-1" x1="105.5" y1="236.88" x2="106.05" y2="237.43"/><line class="cls-1" x1="42.46" y1="271.14" x2="42.82" y2="270.77"/><line class="cls-1" x1="106.96" y1="240.34" x2="106.78" y2="241.07"/><line class="cls-1" x1="47.01" y1="274.96" x2="46.83" y2="275.69"/><line class="cls-1" x1="45.01" y1="276.24" x2="44.46" y2="275.87"/><polyline class="cls-1" points="106.05 237.43 106.42 238.16 106.78 238.88"/><line class="cls-1" x1="106.96" y1="239.79" x2="106.96" y2="240.34"/><polyline class="cls-1" points="106.78 241.07 106.42 241.44 106.05 241.8"/><polyline class="cls-1" points="103.13 235.97 103.68 235.79 104.23 235.97 104.77 236.33 105.5 236.88"/><line class="cls-1" x1="47.01" y1="274.23" x2="47.01" y2="274.96"/><polyline class="cls-1" points="45.55 276.42 46.1 276.24 46.47 276.06"/><line class="cls-1" x1="42.82" y1="270.77" x2="43.19" y2="270.59"/><line class="cls-1" x1="46.1" y1="272.05" x2="46.47" y2="272.78"/><line class="cls-1" x1="46.83" y1="275.69" x2="46.47" y2="276.06"/><polyline class="cls-1" points="46.1 272.05 45.55 271.5 45.01 270.95 44.28 270.59 43.73 270.41 43.19 270.59"/><path class="cls-1" d="M158.63,299.57v.73a4.57,4.57,0,0,0,1.46,3.64l.55.37" transform="translate(-116.18 -28.44)"/><line class="cls-1" x1="45.55" y1="276.42" x2="45.01" y2="276.24"/><line class="cls-1" x1="46.46" y1="272.78" x2="46.83" y2="273.5"/><line class="cls-1" x1="106.05" y1="241.8" x2="46.1" y2="276.24"/><line class="cls-1" x1="103.13" y1="235.97" x2="43.19" y2="270.59"/><line class="cls-1" x1="141.4" y1="219.75" x2="141.4" y2="220.48"/><line class="cls-1" x1="141.4" y1="134.66" x2="141.4" y2="135.39"/><polyline class="cls-1" points="138.85 130.83 139.21 131.01 139.4 131.19"/><polyline class="cls-1" points="138.85 216.11 139.21 216.29 139.4 216.29"/><polyline class="cls-1" points="138.85 45.74 139.21 45.92 139.4 46.1"/><polyline class="cls-1" points="138.85 173.47 139.21 173.65 139.4 173.83"/><line class="cls-1" x1="141.4" y1="49.38" x2="141.4" y2="50.11"/><line class="cls-1" x1="141.4" y1="177.11" x2="141.4" y2="177.84"/><polyline class="cls-1" points="138.85 88.37 139.21 88.56 139.4 88.56"/><line class="cls-1" x1="141.4" y1="92.02" x2="141.4" y2="92.75"/></svg>