<svg id="tile_main" data-name="tile main" xmlns="http://www.w3.org/2000/svg" viewBox="0 0 225.8 258.66"><defs><style>.cls-1,.cls-2{fill:none;stroke:#000;stroke-linecap:round;stroke-linejoin:round;}.cls-1{stroke-width:0.53px;}.cls-2{stroke-width:4.99px;}</style></defs><line class="cls-1" x1="6.97" y1="154.7" x2="6.97" y2="154.43"/><line class="cls-1" x1="5.13" y1="145.23" x2="6.97" y2="144.18"/><line class="cls-1" x1="5.13" y1="207.79" x2="7.23" y2="206.74"/><line class="cls-1" x1="5.13" y1="239.34" x2="6.97" y2="238.02"/><line class="cls-1" x1="6.97" y1="138.92" x2="6.97" y2="138.66"/><line class="cls-1" x1="5.13" y1="129.46" x2="6.97" y2="128.41"/><line class="cls-1" x1="20.37" y1="120.52" x2="20.63" y2="120.52"/><line class="cls-1" x1="47.45" y1="105.02" x2="47.71" y2="105.02"/><line class="cls-1" x1="74.52" y1="89.51" x2="74.52" y2="89.24"/><line class="cls-1" x1="101.6" y1="73.73" x2="101.6" y2="73.47"/><line class="cls-1" x1="128.41" y1="58.23" x2="128.67" y2="58.23"/><line class="cls-1" x1="155.48" y1="42.72" x2="155.75" y2="42.72"/><line class="cls-1" x1="182.56" y1="26.95" x2="182.56" y2="26.68"/><line class="cls-1" x1="209.63" y1="11.44" x2="209.63" y2="11.17"/><line class="cls-1" x1="6.97" y1="170.47" x2="6.97" y2="170.21"/><line class="cls-1" x1="5.13" y1="160.74" x2="6.97" y2="159.69"/><line class="cls-1" x1="5.13" y1="192.29" x2="7.23" y2="190.97"/><line class="cls-1" x1="6.97" y1="185.98" x2="6.97" y2="185.72"/><line class="cls-1" x1="5.13" y1="176.52" x2="7.49" y2="175.2"/><line class="cls-1" x1="5.13" y1="223.57" x2="6.97" y2="222.52"/><line class="cls-1" x1="64.53" y1="224.88" x2="64.53" y2="209.64"/><polyline class="cls-1" points="90.55 194.13 91.08 194.13 64.53 209.64"/><polyline class="cls-1" points="91.08 209.64 64.53 224.88 64 224.62"/><line class="cls-1" x1="64" y1="209.37" x2="64.53" y2="209.64"/><line class="cls-1" x1="37.45" y1="240.65" x2="37.45" y2="225.14"/><polyline class="cls-1" points="63.48 209.64 64 209.9 37.45 225.15"/><polyline class="cls-1" points="64 225.15 37.45 240.65 36.93 240.39"/><line class="cls-1" x1="36.93" y1="224.88" x2="37.45" y2="225.14"/><line class="cls-1" x1="10.38" y1="256.16" x2="10.38" y2="240.92"/><polyline class="cls-1" points="36.66 225.15 36.93 225.41 10.38 240.92"/><polyline class="cls-1" points="36.93 240.92 10.38 256.16 6.96 254.32"/><polyline class="cls-1" points="10.38 240.92 6.96 238.81 7.49 238.55"/><line class="cls-1" x1="118.42" y1="193.86" x2="118.42" y2="178.35"/><polyline class="cls-1" points="144.7 162.85 144.97 163.11 118.42 178.35"/><polyline class="cls-1" points="144.97 178.35 118.42 193.86 118.15 193.6"/><line class="cls-1" x1="118.15" y1="178.09" x2="118.42" y2="178.35"/><line class="cls-1" x1="91.34" y1="209.37" x2="91.34" y2="194.13"/><polyline class="cls-1" points="117.63 178.35 118.15 178.62 91.34 194.13"/><polyline class="cls-1" points="118.15 194.13 91.34 209.37 91.08 209.11"/><line class="cls-1" x1="91.08" y1="193.86" x2="91.34" y2="194.13"/><line class="cls-1" x1="199.38" y1="147.07" x2="199.38" y2="131.56"/><polyline class="cls-1" points="222.77 117.63 223.3 117.9 199.38 131.56"/><polyline class="cls-1" points="199.38 147.07 223.3 133.41 223.3 117.9"/><line class="cls-1" x1="199.12" y1="146.81" x2="199.38" y2="147.07"/><line class="cls-1" x1="199.12" y1="131.3" x2="199.38" y2="131.56"/><line class="cls-1" x1="145.49" y1="178.09" x2="145.49" y2="162.85"/><polyline class="cls-1" points="171.51 147.34 172.04 147.34 145.49 162.85"/><polyline class="cls-1" points="172.04 162.84 145.49 178.09 144.97 177.83"/><line class="cls-1" x1="144.96" y1="162.58" x2="145.49" y2="162.85"/><line class="cls-1" x1="172.57" y1="162.58" x2="172.57" y2="147.34"/><polyline class="cls-1" points="198.59 131.56 199.12 131.83 172.57 147.34"/><polyline class="cls-1" points="199.12 147.34 172.57 162.58 172.04 162.32"/><line class="cls-1" x1="172.04" y1="147.07" x2="172.57" y2="147.34"/><line class="cls-1" x1="10.38" y1="224.36" x2="10.38" y2="209.11"/><polyline class="cls-1" points="36.66 193.6 36.93 193.86 10.38 209.11 6.96 207.27 7.49 207.01"/><line class="cls-1" x1="64.53" y1="193.34" x2="64.53" y2="177.83"/><polyline class="cls-1" points="90.55 162.32 91.08 162.58 64.53 177.83"/><line class="cls-1" x1="64" y1="193.07" x2="64.53" y2="193.34"/><line class="cls-1" x1="64" y1="177.57" x2="64.53" y2="177.83"/><line class="cls-1" x1="37.45" y1="208.85" x2="37.45" y2="193.6"/><polyline class="cls-1" points="63.48 177.83 64 178.09 37.45 193.6"/><line class="cls-1" x1="36.93" y1="208.58" x2="37.45" y2="208.85"/><line class="cls-1" x1="36.93" y1="193.34" x2="37.45" y2="193.6"/><line class="cls-1" x1="145.49" y1="146.55" x2="145.49" y2="131.04"/><polyline class="cls-1" points="171.51 115.53 172.04 115.79 145.49 131.04"/><line class="cls-1" x1="144.96" y1="146.28" x2="145.49" y2="146.55"/><line class="cls-1" x1="144.96" y1="130.78" x2="145.49" y2="131.04"/><line class="cls-1" x1="91.34" y1="177.57" x2="91.34" y2="162.32"/><polyline class="cls-1" points="117.63 146.81 118.15 147.07 91.34 162.32"/><line class="cls-1" x1="91.08" y1="177.57" x2="91.34" y2="177.57"/><line class="cls-1" x1="91.08" y1="162.06" x2="91.34" y2="162.32"/><line class="cls-1" x1="199.38" y1="115.27" x2="199.38" y2="100.02"/><polyline class="cls-1" points="222.77 86.09 223.3 86.35 199.38 100.02"/><line class="cls-1" x1="223.3" y1="101.6" x2="223.3" y2="86.35"/><line class="cls-1" x1="199.11" y1="115" x2="199.38" y2="115.27"/><line class="cls-1" x1="199.11" y1="99.76" x2="199.38" y2="100.02"/><line class="cls-1" x1="118.41" y1="162.06" x2="118.41" y2="146.81"/><polyline class="cls-1" points="144.7 131.04 144.96 131.3 118.41 146.81"/><line class="cls-1" x1="118.15" y1="161.79" x2="118.41" y2="162.06"/><line class="cls-1" x1="118.15" y1="146.55" x2="118.41" y2="146.81"/><line class="cls-1" x1="172.56" y1="130.78" x2="172.56" y2="115.53"/><polyline class="cls-1" points="198.59 100.02 199.11 100.28 172.56 115.53"/><line class="cls-1" x1="172.04" y1="130.78" x2="172.56" y2="130.78"/><line class="cls-1" x1="172.04" y1="115.27" x2="172.56" y2="115.53"/><line class="cls-1" x1="6.69" y1="155.49" x2="6.43" y2="155.49"/><polyline class="cls-1" points="5.64 154.7 6.17 155.22 6.43 155.49"/><polyline class="cls-1" points="6.7 155.49 6.7 154.96 6.43 154.7 6.7 154.7"/><polyline class="cls-1" points="6.96 154.7 6.96 154.43 6.96 154.17 6.7 153.91 6.96 153.91 6.96 153.65 6.43 152.59 6.96 152.33 6.96 152.07 6.7 150.75 6.43 149.7 6.17 149.18 6.17 148.91 6.43 148.39 6.43 148.13 6.17 147.6 5.91 147.34 6.17 147.07 6.17 146.29 5.91 145.76 5.12 145.23"/><polyline class="cls-1" points="5.12 154.17 5.38 154.44 5.64 154.7"/><line class="cls-1" x1="6.96" y1="152.33" x2="6.96" y2="152.07"/><line class="cls-1" x1="6.96" y1="153.91" x2="6.96" y2="153.65"/><line class="cls-1" x1="6.69" y1="154.7" x2="6.69" y2="154.43"/><line class="cls-1" x1="6.96" y1="154.96" x2="6.96" y2="154.7"/><line class="cls-1" x1="6.69" y1="155.49" x2="6.96" y2="155.22"/><line class="cls-1" x1="6.69" y1="218.31" x2="6.43" y2="218.05"/><polyline class="cls-1" points="5.64 217.52 6.17 217.78 6.43 218.05"/><polyline class="cls-1" points="6.7 218.31 6.7 217.78 6.43 217.52 6.7 217.52 6.7 217.26"/><polyline class="cls-1" points="6.96 217.52 6.96 216.73 6.7 216.47 6.96 216.47 6.96 216.21 6.43 215.16 6.96 214.89 6.96 214.63 6.7 213.58 6.43 212.53 6.17 211.74 6.43 211.21 6.43 210.95 6.17 210.42 5.91 210.16 5.91 209.9 6.17 209.9 6.17 209.11 5.91 208.58 5.12 207.8"/><polyline class="cls-1" points="5.12 217 5.38 217.26 5.64 217.52"/><line class="cls-1" x1="6.96" y1="214.89" x2="6.96" y2="214.63"/><line class="cls-1" x1="6.96" y1="216.47" x2="6.96" y2="216.21"/><line class="cls-1" x1="6.69" y1="217.52" x2="6.69" y2="217.26"/><line class="cls-1" x1="6.96" y1="217.52" x2="6.96" y2="217.26"/><line class="cls-1" x1="6.69" y1="218.31" x2="6.96" y2="218.05"/><line class="cls-1" x1="185.97" y1="107.38" x2="185.97" y2="91.87"/><polyline class="cls-1" points="212.25 76.36 212.52 76.63 185.97 91.87"/><line class="cls-1" x1="185.44" y1="107.12" x2="185.97" y2="107.38"/><line class="cls-1" x1="185.44" y1="91.61" x2="185.97" y2="91.87"/><line class="cls-1" x1="131.82" y1="138.4" x2="131.82" y2="123.15"/><polyline class="cls-1" points="158.1 107.38 158.63 107.64 131.82 123.15"/><line class="cls-1" x1="131.56" y1="138.14" x2="131.82" y2="138.4"/><line class="cls-1" x1="131.56" y1="122.89" x2="131.82" y2="123.15"/><line class="cls-1" x1="105.01" y1="154.17" x2="105.01" y2="138.66"/><polyline class="cls-1" points="131.03 123.15 131.56 123.42 105.01 138.66"/><line class="cls-1" x1="104.48" y1="153.91" x2="105.01" y2="154.17"/><line class="cls-1" x1="104.48" y1="138.4" x2="105.01" y2="138.66"/><line class="cls-1" x1="77.93" y1="169.68" x2="77.93" y2="154.17"/><polyline class="cls-1" points="104.22 138.66 104.48 138.93 77.93 154.17"/><line class="cls-1" x1="77.4" y1="169.42" x2="77.93" y2="169.68"/><line class="cls-1" x1="77.4" y1="154.17" x2="77.93" y2="154.17"/><line class="cls-1" x1="50.85" y1="185.19" x2="50.85" y2="169.94"/><polyline class="cls-1" points="77.14 154.17 77.4 154.44 50.85 169.94"/><line class="cls-1" x1="50.59" y1="184.93" x2="50.85" y2="185.19"/><line class="cls-1" x1="50.59" y1="169.68" x2="50.85" y2="169.94"/><line class="cls-1" x1="158.89" y1="122.89" x2="158.89" y2="107.38"/><polyline class="cls-1" points="185.18 91.87 185.44 92.14 158.89 107.38"/><line class="cls-1" x1="158.63" y1="122.63" x2="158.89" y2="122.89"/><line class="cls-1" x1="158.63" y1="107.38" x2="158.89" y2="107.38"/><line class="cls-1" x1="213.04" y1="91.61" x2="213.04" y2="76.36"/><polyline class="cls-1" points="222.77 70.32 223.29 70.32 213.04 76.36"/><line class="cls-1" x1="223.29" y1="85.83" x2="223.29" y2="70.32"/><line class="cls-1" x1="212.52" y1="91.35" x2="213.04" y2="91.61"/><line class="cls-1" x1="212.52" y1="76.1" x2="213.04" y2="76.36"/><line class="cls-1" x1="10.37" y1="208.59" x2="10.37" y2="193.34"/><polyline class="cls-1" points="22.99 185.45 23.52 185.72 10.37 193.34"/><line class="cls-1" x1="10.37" y1="208.59" x2="23.52" y2="200.96"/><polyline class="cls-1" points="10.37 193.34 6.96 191.5 7.48 191.24"/><line class="cls-1" x1="23.78" y1="200.96" x2="23.78" y2="185.45"/><polyline class="cls-1" points="50.07 169.94 50.59 170.21 23.78 185.45"/><line class="cls-1" x1="23.52" y1="200.7" x2="23.78" y2="200.96"/><line class="cls-1" x1="23.52" y1="185.19" x2="23.78" y2="185.45"/><line class="cls-1" x1="6.69" y1="249.59" x2="6.43" y2="249.59"/><polyline class="cls-1" points="5.64 248.8 6.17 249.33 6.43 249.59"/><polyline class="cls-1" points="6.69 249.59 6.69 249.07 6.43 248.8 6.69 248.8"/><polyline class="cls-1" points="6.96 248.8 6.96 248.01 6.69 248.01 6.96 248.01 6.96 247.75 6.43 246.7 6.96 246.44 6.96 245.91 6.69 244.86 6.43 243.81 6.17 243.28 6.17 243.02 6.43 242.5 6.43 242.23 6.17 241.71 5.91 241.44 5.91 241.18 6.17 241.18 6.17 240.39 5.91 239.87 5.12 239.34"/><polyline class="cls-1" points="5.12 248.28 5.38 248.54 5.64 248.8"/><line class="cls-1" x1="6.96" y1="246.44" x2="6.96" y2="246.18"/><line class="cls-1" x1="6.96" y1="248.02" x2="6.96" y2="247.75"/><line class="cls-1" x1="6.69" y1="248.8" x2="6.69" y2="248.54"/><line class="cls-1" x1="6.96" y1="249.07" x2="6.96" y2="248.8"/><line class="cls-1" x1="6.69" y1="249.59" x2="6.96" y2="249.33"/><line class="cls-1" x1="6.69" y1="139.71" x2="6.43" y2="139.71"/><polyline class="cls-1" points="5.64 139.19 6.17 139.45 6.43 139.72"/><polyline class="cls-1" points="6.69 139.72 6.69 139.45 6.43 138.93 6.69 139.19 6.69 138.93"/><polyline class="cls-1" points="6.96 138.93 6.96 138.4 6.69 138.14 6.96 138.14 6.96 137.88 6.43 136.82 6.96 136.56 6.96 136.3 6.69 135.25 6.43 134.19 6.17 133.41 6.17 133.14 6.43 132.88 6.43 132.35 6.17 132.09 5.91 131.83 5.91 131.57 6.17 131.57 6.17 130.78 5.91 130.25 5.12 129.46"/><polyline class="cls-1" points="5.12 138.66 5.38 138.93 5.64 139.19"/><line class="cls-1" x1="6.96" y1="136.56" x2="6.96" y2="136.3"/><line class="cls-1" x1="6.96" y1="138.14" x2="6.96" y2="137.88"/><line class="cls-1" x1="6.69" y1="139.19" x2="6.69" y2="138.93"/><line class="cls-1" x1="6.96" y1="139.19" x2="6.96" y2="138.93"/><line class="cls-1" x1="6.69" y1="139.71" x2="6.96" y2="139.71"/><polyline class="cls-1" points="185.97 44.03 185.97 28.52 212.52 13.28"/><line class="cls-1" x1="185.44" y1="43.77" x2="185.97" y2="44.03"/><polyline class="cls-1" points="185.97 28.52 182.55 26.68 209.36 11.18"/><polyline class="cls-1" points="131.82 75.05 131.82 59.8 158.63 44.3"/><line class="cls-1" x1="131.55" y1="74.79" x2="131.82" y2="75.05"/><polyline class="cls-1" points="131.82 59.8 128.66 57.96 155.21 42.45"/><polyline class="cls-1" points="105 90.82 105 75.31 131.55 60.07"/><line class="cls-1" x1="104.48" y1="90.56" x2="105.01" y2="90.82"/><polyline class="cls-1" points="105 75.31 101.59 73.47 128.14 57.97"/><polyline class="cls-1" points="77.93 106.33 77.93 90.82 104.48 75.58"/><line class="cls-1" x1="77.4" y1="106.07" x2="77.93" y2="106.33"/><polyline class="cls-1" points="77.93 90.82 74.51 88.98 101.06 73.74"/><polyline class="cls-1" points="50.85 121.84 50.85 106.59 77.4 91.09"/><line class="cls-1" x1="50.59" y1="121.58" x2="50.85" y2="121.84"/><polyline class="cls-1" points="50.85 106.59 47.7 104.75 74.25 89.25"/><polyline class="cls-1" points="158.89 59.54 158.89 44.03 185.44 28.79"/><line class="cls-1" x1="158.63" y1="59.28" x2="158.89" y2="59.54"/><polyline class="cls-1" points="158.89 44.03 155.74 42.19 182.29 26.95"/><line class="cls-1" x1="213.04" y1="28.26" x2="213.04" y2="13.02"/><polyline class="cls-1" points="219.88 5.13 223.29 6.97 213.04 13.02"/><line class="cls-1" x1="223.29" y1="22.48" x2="223.29" y2="6.97"/><line class="cls-1" x1="212.52" y1="28" x2="213.04" y2="28.26"/><line class="cls-1" x1="209.62" y1="11.18" x2="213.04" y2="13.02"/><polyline class="cls-1" points="10.37 145.24 10.37 129.99 23.52 122.37"/><line class="cls-1" x1="10.37" y1="145.24" x2="23.52" y2="137.61"/><polyline class="cls-1" points="10.37 129.99 6.96 128.15 20.1 120.53"/><polyline class="cls-1" points="23.78 137.61 23.78 122.1 50.59 106.86"/><line class="cls-1" x1="23.52" y1="137.35" x2="23.78" y2="137.61"/><polyline class="cls-1" points="23.78 122.1 20.63 120.26 47.17 104.75"/><line class="cls-1" x1="6.69" y1="171.26" x2="6.43" y2="171"/><polyline class="cls-1" points="5.64 170.47 6.17 170.73 6.43 171"/><polyline class="cls-1" points="6.69 171.26 6.69 170.73 6.43 170.47 6.69 170.47"/><polyline class="cls-1" points="6.96 170.47 6.96 170.21 6.96 169.68 6.69 169.68 6.96 169.42 6.43 168.1 6.96 167.84 6.96 167.58 6.43 165.48 6.17 164.69 6.43 164.16 6.43 163.9 6.17 163.37 5.91 163.11 5.91 162.85 6.17 162.85 6.17 162.06 5.91 161.53 5.12 160.75"/><polyline class="cls-1" points="5.12 169.94 5.38 170.21 5.64 170.47"/><line class="cls-1" x1="6.96" y1="167.84" x2="6.96" y2="167.58"/><line class="cls-1" x1="6.96" y1="169.42" x2="6.96" y2="169.16"/><line class="cls-1" x1="6.69" y1="170.47" x2="6.69" y2="170.21"/><line class="cls-1" x1="6.96" y1="170.47" x2="6.96" y2="170.21"/><line class="cls-1" x1="6.69" y1="171.26" x2="6.96" y2="171"/><line class="cls-1" x1="185.97" y1="138.93" x2="185.97" y2="123.68"/><polyline class="cls-1" points="212.25 107.91 212.52 108.17 185.97 123.68"/><line class="cls-1" x1="185.44" y1="138.66" x2="185.97" y2="138.93"/><line class="cls-1" x1="185.44" y1="123.42" x2="185.97" y2="123.68"/><line class="cls-1" x1="131.82" y1="170.21" x2="131.82" y2="154.7"/><polyline class="cls-1" points="158.1 139.19 158.63 139.45 131.82 154.7"/><line class="cls-1" x1="131.55" y1="169.95" x2="131.82" y2="170.21"/><line class="cls-1" x1="131.55" y1="154.44" x2="131.82" y2="154.7"/><line class="cls-1" x1="105" y1="185.72" x2="105" y2="170.47"/><polyline class="cls-1" points="131.03 154.7 131.55 154.96 105 170.47"/><line class="cls-1" x1="104.48" y1="185.45" x2="105" y2="185.72"/><line class="cls-1" x1="104.48" y1="170.21" x2="105" y2="170.47"/><line class="cls-1" x1="77.93" y1="201.23" x2="77.93" y2="185.98"/><polyline class="cls-1" points="104.22 170.47 104.48 170.73 77.93 185.98"/><line class="cls-1" x1="77.4" y1="200.96" x2="77.93" y2="201.23"/><line class="cls-1" x1="77.4" y1="185.72" x2="77.93" y2="185.98"/><line class="cls-1" x1="50.85" y1="217" x2="50.85" y2="201.49"/><polyline class="cls-1" points="77.15 185.98 77.41 186.24 50.86 201.49"/><line class="cls-1" x1="50.6" y1="216.73" x2="50.86" y2="216.99"/><line class="cls-1" x1="50.6" y1="201.22" x2="50.86" y2="201.49"/><line class="cls-1" x1="158.9" y1="154.43" x2="158.9" y2="139.19"/><polyline class="cls-1" points="185.19 123.68 185.45 123.94 158.9 139.19"/><line class="cls-1" x1="158.64" y1="154.17" x2="158.9" y2="154.43"/><line class="cls-1" x1="158.64" y1="138.92" x2="158.9" y2="139.19"/><line class="cls-1" x1="213.05" y1="123.42" x2="213.05" y2="107.91"/><polyline class="cls-1" points="222.78 101.86 223.3 102.12 213.05 107.91"/><line class="cls-1" x1="223.3" y1="117.37" x2="223.3" y2="102.12"/><line class="cls-1" x1="212.52" y1="123.15" x2="213.05" y2="123.42"/><line class="cls-1" x1="212.52" y1="107.64" x2="213.05" y2="107.91"/><line class="cls-1" x1="10.38" y1="240.39" x2="10.38" y2="224.88"/><polyline class="cls-1" points="23 217.26 23.53 217.52 10.38 224.88"/><line class="cls-1" x1="10.38" y1="240.39" x2="23.53" y2="232.77"/><polyline class="cls-1" points="10.38 224.88 6.96 223.04 7.49 222.78"/><line class="cls-1" x1="23.79" y1="232.5" x2="23.79" y2="217.26"/><polyline class="cls-1" points="50.08 201.49 50.6 201.75 23.79 217.26"/><line class="cls-1" x1="23.53" y1="232.24" x2="23.79" y2="232.5"/><line class="cls-1" x1="23.53" y1="216.99" x2="23.79" y2="217.26"/><line class="cls-1" x1="6.7" y1="202.54" x2="6.44" y2="202.54"/><polyline class="cls-1" points="5.65 201.75 6.18 202.28 6.44 202.54"/><polyline class="cls-1" points="6.7 202.54 6.7 202.01 6.44 201.75 6.7 201.75"/><polyline class="cls-1" points="6.96 201.75 6.96 200.96 6.7 200.96 6.96 200.96 6.96 200.7 6.44 199.65 6.96 199.38 6.96 199.12 6.7 197.81 6.44 196.75 6.18 196.23 6.18 195.97 6.44 195.44 6.44 195.18 6.18 194.65 5.91 194.39 5.91 194.13 6.18 194.13 6.18 193.34 5.91 192.81 5.13 192.29"/><polyline class="cls-1" points="5.13 201.22 5.39 201.49 5.65 201.75"/><line class="cls-1" x1="6.97" y1="199.38" x2="6.97" y2="199.12"/><line class="cls-1" x1="6.97" y1="200.96" x2="6.97" y2="200.7"/><line class="cls-1" x1="6.7" y1="201.75" x2="6.7" y2="201.49"/><line class="cls-1" x1="6.97" y1="202.01" x2="6.97" y2="201.75"/><line class="cls-1" x1="6.7" y1="202.54" x2="6.97" y2="202.27"/><line class="cls-1" x1="10.38" y1="161.01" x2="10.38" y2="145.76"/><polyline class="cls-1" points="36.67 130.25 36.93 130.51 10.38 145.76 6.96 143.92 7.49 143.66"/><line class="cls-1" x1="64.53" y1="129.99" x2="64.53" y2="114.48"/><polyline class="cls-1" points="90.56 98.97 91.08 99.23 64.53 114.48"/><line class="cls-1" x1="64.01" y1="129.72" x2="64.53" y2="129.99"/><line class="cls-1" x1="64.01" y1="114.22" x2="64.53" y2="114.48"/><line class="cls-1" x1="37.46" y1="145.5" x2="37.46" y2="130.25"/><polyline class="cls-1" points="63.48 114.48 64.01 114.74 37.46 130.25"/><line class="cls-1" x1="36.93" y1="145.23" x2="37.46" y2="145.5"/><line class="cls-1" x1="36.93" y1="129.99" x2="37.46" y2="130.25"/><line class="cls-1" x1="145.49" y1="83.2" x2="145.49" y2="67.69"/><polyline class="cls-1" points="171.52 52.18 172.04 52.44 145.49 67.69"/><line class="cls-1" x1="144.97" y1="82.93" x2="145.49" y2="83.2"/><line class="cls-1" x1="144.97" y1="67.43" x2="145.49" y2="67.69"/><line class="cls-1" x1="91.34" y1="114.22" x2="91.34" y2="98.97"/><polyline class="cls-1" points="117.63 83.46 118.16 83.72 91.34 98.97"/><line class="cls-1" x1="91.08" y1="114.22" x2="91.34" y2="114.22"/><line class="cls-1" x1="91.08" y1="98.71" x2="91.34" y2="98.97"/><line class="cls-1" x1="199.38" y1="51.92" x2="199.38" y2="36.67"/><polyline class="cls-1" points="222.77 22.74 223.3 23 199.38 36.67"/><line class="cls-1" x1="223.3" y1="38.25" x2="223.3" y2="23"/><line class="cls-1" x1="199.12" y1="51.65" x2="199.38" y2="51.92"/><line class="cls-1" x1="199.12" y1="36.41" x2="199.38" y2="36.67"/><line class="cls-1" x1="118.42" y1="98.71" x2="118.42" y2="83.46"/><polyline class="cls-1" points="144.7 67.69 144.97 67.95 118.42 83.46"/><line class="cls-1" x1="118.15" y1="98.44" x2="118.42" y2="98.71"/><line class="cls-1" x1="118.15" y1="83.2" x2="118.42" y2="83.46"/><line class="cls-1" x1="172.57" y1="67.43" x2="172.57" y2="52.18"/><polyline class="cls-1" points="198.59 36.67 199.12 36.93 172.57 52.18"/><line class="cls-1" x1="172.04" y1="67.43" x2="172.57" y2="67.43"/><line class="cls-1" x1="172.04" y1="51.92" x2="172.57" y2="52.18"/><line class="cls-1" x1="185.97" y1="75.58" x2="185.97" y2="60.33"/><polyline class="cls-1" points="212.26 44.56 212.52 44.82 185.97 60.33"/><line class="cls-1" x1="185.45" y1="75.31" x2="185.97" y2="75.58"/><line class="cls-1" x1="185.45" y1="60.07" x2="185.97" y2="60.33"/><line class="cls-1" x1="131.82" y1="106.86" x2="131.82" y2="91.35"/><polyline class="cls-1" points="158.11 75.84 158.63 76.1 131.82 91.35"/><line class="cls-1" x1="131.56" y1="106.59" x2="131.82" y2="106.86"/><line class="cls-1" x1="131.56" y1="91.08" x2="131.82" y2="91.35"/><line class="cls-1" x1="105.01" y1="122.37" x2="105.01" y2="107.12"/><polyline class="cls-1" points="131.03 91.35 131.56 91.61 105.01 107.12"/><line class="cls-1" x1="104.48" y1="122.1" x2="105.01" y2="122.37"/><line class="cls-1" x1="104.48" y1="106.86" x2="105.01" y2="107.12"/><line class="cls-1" x1="77.93" y1="137.87" x2="77.93" y2="122.63"/><polyline class="cls-1" points="104.22 107.12 104.48 107.38 77.93 122.63"/><line class="cls-1" x1="77.41" y1="137.61" x2="77.93" y2="137.87"/><line class="cls-1" x1="77.41" y1="122.37" x2="77.93" y2="122.63"/><line class="cls-1" x1="50.86" y1="153.65" x2="50.86" y2="138.14"/><polyline class="cls-1" points="77.14 122.63 77.41 122.89 50.86 138.14"/><line class="cls-1" x1="50.6" y1="153.38" x2="50.86" y2="153.65"/><line class="cls-1" x1="50.6" y1="137.87" x2="50.86" y2="138.14"/><line class="cls-1" x1="158.9" y1="91.08" x2="158.9" y2="75.84"/><polyline class="cls-1" points="185.18 60.33 185.44 60.59 158.9 75.84"/><line class="cls-1" x1="158.63" y1="90.82" x2="158.9" y2="91.08"/><line class="cls-1" x1="158.63" y1="75.58" x2="158.9" y2="75.84"/><line class="cls-1" x1="213.05" y1="60.07" x2="213.05" y2="44.56"/><polyline class="cls-1" points="222.77 38.51 223.3 38.77 213.05 44.56"/><line class="cls-1" x1="223.3" y1="54.02" x2="223.3" y2="38.77"/><line class="cls-1" x1="212.52" y1="59.8" x2="213.05" y2="60.07"/><line class="cls-1" x1="212.52" y1="44.3" x2="213.05" y2="44.56"/><line class="cls-1" x1="10.38" y1="177.04" x2="10.38" y2="161.53"/><polyline class="cls-1" points="23 153.91 23.52 154.17 10.38 161.53"/><line class="cls-1" x1="10.38" y1="177.04" x2="23.52" y2="169.42"/><polyline class="cls-1" points="10.38 161.53 6.96 159.69 7.49 159.43"/><line class="cls-1" x1="23.78" y1="169.16" x2="23.78" y2="153.91"/><polyline class="cls-1" points="50.07 138.14 50.6 138.4 23.78 153.91"/><line class="cls-1" x1="23.52" y1="168.89" x2="23.78" y2="169.16"/><line class="cls-1" x1="23.52" y1="153.65" x2="23.78" y2="153.91"/><line class="cls-1" x1="6.7" y1="186.77" x2="6.43" y2="186.77"/><polyline class="cls-1" points="5.65 185.98 6.17 186.5 6.43 186.77"/><polyline class="cls-1" points="6.7 186.77 6.7 186.5 6.43 185.98 6.7 185.98"/><polyline class="cls-1" points="6.96 185.98 6.96 185.45 6.7 185.19 6.96 185.19 6.96 184.93 6.43 183.88 6.96 183.61 6.96 183.35 6.7 182.04 6.43 181.25 6.17 180.46 6.17 180.2 6.43 179.67 6.43 179.41 6.17 179.15 5.91 178.88 5.91 178.62 6.17 178.36 6.17 177.83 5.91 177.31 5.12 176.52"/><polyline class="cls-1" points="5.12 185.72 5.38 185.72 5.65 185.98"/><line class="cls-1" x1="6.96" y1="183.61" x2="6.96" y2="183.35"/><line class="cls-1" x1="6.96" y1="185.19" x2="6.96" y2="184.93"/><line class="cls-1" x1="6.7" y1="185.98" x2="6.7" y2="185.72"/><line class="cls-1" x1="6.96" y1="186.24" x2="6.96" y2="185.98"/><line class="cls-1" x1="6.7" y1="186.77" x2="6.96" y2="186.77"/><line class="cls-1" x1="6.7" y1="233.82" x2="6.43" y2="233.82"/><polyline class="cls-1" points="5.65 233.03 6.17 233.56 6.43 233.82"/><polyline class="cls-1" points="6.7 233.82 6.7 233.29 6.43 233.03 6.7 233.03"/><polyline class="cls-1" points="6.96 233.03 6.96 232.51 6.7 232.24 6.96 232.24 6.96 231.98 6.43 230.93 6.96 230.67 6.96 230.4 6.7 229.09 6.43 228.3 6.17 227.51 6.17 227.25 6.43 226.72 6.43 226.46 6.17 226.2 5.91 225.67 6.17 225.41 6.17 224.88 5.91 224.36 5.12 223.57"/><polyline class="cls-1" points="5.12 232.51 5.38 232.77 5.65 233.03"/><line class="cls-1" x1="6.96" y1="230.67" x2="6.96" y2="230.4"/><line class="cls-1" x1="6.96" y1="232.24" x2="6.96" y2="231.98"/><line class="cls-1" x1="6.7" y1="233.03" x2="6.7" y2="232.77"/><line class="cls-1" x1="6.96" y1="233.29" x2="6.96" y2="233.03"/><line class="cls-1" x1="6.7" y1="233.82" x2="6.96" y2="233.56"/><line class="cls-1" x1="10.38" y1="192.81" x2="10.38" y2="177.57"/><polyline class="cls-1" points="36.66 161.79 36.93 162.06 10.38 177.57 6.96 175.47 7.49 175.2"/><line class="cls-1" x1="64.53" y1="161.53" x2="64.53" y2="146.29"/><polyline class="cls-1" points="90.55 130.78 91.08 130.78 64.53 146.29"/><line class="cls-1" x1="64" y1="161.27" x2="64.53" y2="161.53"/><line class="cls-1" x1="64" y1="146.02" x2="64.53" y2="146.29"/><line class="cls-1" x1="37.45" y1="177.3" x2="37.45" y2="161.8"/><polyline class="cls-1" points="63.48 146.29 64 146.55 37.45 161.8"/><line class="cls-1" x1="36.93" y1="177.04" x2="37.45" y2="177.3"/><line class="cls-1" x1="36.93" y1="161.53" x2="37.45" y2="161.8"/><line class="cls-1" x1="145.49" y1="114.74" x2="145.49" y2="99.5"/><polyline class="cls-1" points="171.51 83.99 172.04 83.99 145.49 99.5"/><line class="cls-1" x1="144.96" y1="114.48" x2="145.49" y2="114.74"/><line class="cls-1" x1="144.96" y1="99.23" x2="145.49" y2="99.5"/><line class="cls-1" x1="91.34" y1="146.02" x2="91.34" y2="130.78"/><polyline class="cls-1" points="117.62 115.01 118.15 115.27 91.34 130.78"/><line class="cls-1" x1="91.07" y1="145.76" x2="91.34" y2="146.02"/><line class="cls-1" x1="91.07" y1="130.52" x2="91.34" y2="130.78"/><line class="cls-1" x1="199.37" y1="83.73" x2="199.37" y2="68.22"/><polyline class="cls-1" points="222.77 54.28 223.3 54.55 199.38 68.22"/><line class="cls-1" x1="223.3" y1="70.06" x2="223.3" y2="54.55"/><line class="cls-1" x1="199.11" y1="83.46" x2="199.37" y2="83.73"/><line class="cls-1" x1="199.11" y1="67.95" x2="199.37" y2="68.22"/><line class="cls-1" x1="118.41" y1="130.52" x2="118.41" y2="115.01"/><polyline class="cls-1" points="144.7 99.5 144.96 99.76 118.41 115.01"/><line class="cls-1" x1="118.15" y1="130.25" x2="118.41" y2="130.52"/><line class="cls-1" x1="118.15" y1="114.74" x2="118.41" y2="115.01"/><line class="cls-1" x1="172.56" y1="99.23" x2="172.56" y2="83.99"/><polyline class="cls-1" points="198.59 68.22 199.11 68.48 172.56 83.99"/><line class="cls-1" x1="172.04" y1="98.97" x2="172.56" y2="99.24"/><line class="cls-1" x1="172.04" y1="83.73" x2="172.56" y2="83.99"/><line class="cls-1" x1="2.49" y1="125.26" x2="2.49" y2="251.43"/><line class="cls-1" x1="218.04" y1="6.18" x2="218.04" y2="4.08"/><line class="cls-1" x1="5.12" y1="126.84" x2="2.49" y2="125.26"/><polyline class="cls-1" points="2.49 251.43 5.12 253.27 6.96 251.96"/><line class="cls-1" x1="215.15" y1="2.5" x2="2.49" y2="125.26"/><polyline class="cls-1" points="5.12 126.83 218.04 4.08 215.15 2.5"/><line class="cls-1" x1="91.08" y1="209.64" x2="91.08" y2="194.13"/><line class="cls-1" x1="64.01" y1="225.15" x2="64.01" y2="209.9"/><line class="cls-1" x1="6.97" y1="246.18" x2="6.97" y2="238.82"/><line class="cls-1" x1="36.93" y1="240.92" x2="36.93" y2="225.41"/><line class="cls-1" x1="144.97" y1="178.36" x2="144.97" y2="163.11"/><line class="cls-1" x1="118.16" y1="194.13" x2="118.16" y2="178.62"/><line class="cls-1" x1="172.04" y1="162.85" x2="172.04" y2="147.34"/><line class="cls-1" x1="199.12" y1="147.34" x2="199.12" y2="131.83"/><line class="cls-1" x1="6.97" y1="222.52" x2="6.97" y2="222.26"/><line class="cls-1" x1="10.38" y1="224.36" x2="23" y2="217.26"/><line class="cls-1" x1="36.93" y1="209.11" x2="36.93" y2="193.87"/><polyline class="cls-1" points="6.97 222.52 7.49 222.78 10.38 224.36"/><line class="cls-1" x1="64.53" y1="193.34" x2="77.15" y2="185.98"/><line class="cls-1" x1="91.08" y1="177.83" x2="91.08" y2="162.59"/><line class="cls-1" x1="37.46" y1="208.85" x2="50.08" y2="201.49"/><line class="cls-1" x1="64.01" y1="193.61" x2="64.01" y2="178.1"/><line class="cls-1" x1="145.5" y1="146.55" x2="158.11" y2="139.19"/><line class="cls-1" x1="172.05" y1="131.04" x2="172.05" y2="115.8"/><line class="cls-1" x1="91.35" y1="177.57" x2="104.23" y2="170.47"/><line class="cls-1" x1="118.16" y1="162.32" x2="118.16" y2="147.08"/><line class="cls-1" x1="199.38" y1="115.27" x2="212.26" y2="107.91"/><line class="cls-1" x1="118.42" y1="162.06" x2="131.04" y2="154.7"/><line class="cls-1" x1="144.97" y1="146.82" x2="144.97" y2="131.31"/><line class="cls-1" x1="172.57" y1="130.78" x2="185.19" y2="123.68"/><line class="cls-1" x1="199.12" y1="115.54" x2="199.12" y2="100.29"/><line class="cls-1" x1="6.97" y1="154.96" x2="6.71" y2="154.7"/><polyline class="cls-1" points="6.97 217.53 6.71 217.53 6.71 217.26"/><polyline class="cls-1" points="199.12 99.76 212.53 91.88 212.53 76.63"/><polyline class="cls-1" points="144.97 130.78 158.64 123.16 158.64 107.65"/><line class="cls-1" x1="105.02" y1="154.18" x2="117.63" y2="146.82"/><line class="cls-1" x1="131.57" y1="138.67" x2="131.57" y2="123.42"/><line class="cls-1" x1="77.94" y1="169.69" x2="90.56" y2="162.33"/><line class="cls-1" x1="104.49" y1="154.18" x2="104.49" y2="138.93"/><polyline class="cls-1" points="64.01 177.57 77.42 169.95 77.42 154.44"/><line class="cls-1" x1="158.9" y1="122.9" x2="171.52" y2="115.54"/><line class="cls-1" x1="185.45" y1="107.39" x2="185.45" y2="92.14"/><polyline class="cls-1" points="213.06 91.61 222.78 86.1 223.31 85.83"/><line class="cls-1" x1="6.97" y1="199.13" x2="6.97" y2="191.5"/><line class="cls-1" x1="23.53" y1="200.97" x2="23.53" y2="185.72"/><line class="cls-1" x1="6.97" y1="206.75" x2="7.23" y2="206.75"/><line class="cls-1" x1="23.79" y1="200.97" x2="36.67" y2="193.61"/><line class="cls-1" x1="50.61" y1="185.46" x2="50.61" y2="170.21"/><line class="cls-1" x1="6.97" y1="249.06" x2="6.7" y2="248.8"/><line class="cls-1" x1="6.97" y1="139.19" x2="6.7" y2="138.92"/><line class="cls-1" x1="209.63" y1="11.43" x2="209.37" y2="11.17"/><line class="cls-1" x1="182.56" y1="27.21" x2="182.56" y2="26.68"/><polyline class="cls-1" points="199.12 36.41 212.53 28.52 212.53 13.28"/><line class="cls-1" x1="155.48" y1="42.72" x2="155.22" y2="42.45"/><line class="cls-1" x1="128.67" y1="58.22" x2="128.67" y2="57.96"/><line class="cls-1" x1="131.83" y1="75.05" x2="144.71" y2="67.69"/><line class="cls-1" x1="158.64" y1="59.8" x2="158.64" y2="44.29"/><line class="cls-1" x1="128.41" y1="58.22" x2="128.15" y2="57.96"/><line class="cls-1" x1="101.6" y1="74" x2="101.6" y2="73.47"/><line class="cls-1" x1="105.01" y1="90.82" x2="117.63" y2="83.46"/><line class="cls-1" x1="131.56" y1="75.31" x2="131.56" y2="60.06"/><line class="cls-1" x1="101.6" y1="73.73" x2="101.07" y2="73.73"/><line class="cls-1" x1="74.52" y1="89.51" x2="74.52" y2="88.98"/><line class="cls-1" x1="77.94" y1="106.33" x2="90.56" y2="98.97"/><line class="cls-1" x1="104.49" y1="90.82" x2="104.49" y2="75.57"/><line class="cls-1" x1="74.52" y1="89.51" x2="74.26" y2="89.24"/><line class="cls-1" x1="47.71" y1="105.01" x2="47.71" y2="104.75"/><line class="cls-1" x1="50.86" y1="121.84" x2="63.48" y2="114.48"/><line class="cls-1" x1="77.41" y1="106.59" x2="77.41" y2="91.08"/><line class="cls-1" x1="182.56" y1="26.94" x2="182.3" y2="26.94"/><line class="cls-1" x1="155.75" y1="42.72" x2="155.75" y2="42.19"/><line class="cls-1" x1="158.9" y1="59.54" x2="171.52" y2="52.18"/><line class="cls-1" x1="185.45" y1="44.03" x2="185.45" y2="28.78"/><line class="cls-1" x1="209.63" y1="11.44" x2="209.63" y2="11.17"/><polyline class="cls-1" points="213.05 28.26 222.78 22.74 223.3 22.48"/><polyline class="cls-1" points="219.89 5.13 218.05 6.18 209.63 11.17"/><line class="cls-1" x1="20.37" y1="120.52" x2="20.11" y2="120.52"/><line class="cls-1" x1="23.53" y1="137.61" x2="23.53" y2="122.36"/><polyline class="cls-1" points="6.97 143.39 7.49 143.66 10.38 145.23"/><line class="cls-1" x1="47.45" y1="105.02" x2="47.18" y2="104.75"/><line class="cls-1" x1="20.64" y1="120.79" x2="20.64" y2="120.26"/><line class="cls-1" x1="23.79" y1="137.61" x2="36.67" y2="130.25"/><line class="cls-1" x1="50.6" y1="122.1" x2="50.6" y2="106.86"/><line class="cls-1" x1="6.97" y1="170.47" x2="6.7" y2="170.47"/><line class="cls-1" x1="185.98" y1="138.92" x2="198.59" y2="131.56"/><line class="cls-1" x1="212.53" y1="123.68" x2="212.53" y2="108.17"/><line class="cls-1" x1="131.83" y1="170.21" x2="144.71" y2="162.85"/><line class="cls-1" x1="158.64" y1="154.7" x2="158.64" y2="139.45"/><polyline class="cls-1" points="118.16 178.09 131.56 170.47 131.56 154.96"/><line class="cls-1" x1="77.94" y1="201.22" x2="90.56" y2="194.13"/><line class="cls-1" x1="104.49" y1="185.98" x2="104.49" y2="170.73"/><polyline class="cls-1" points="64.01 209.37 77.41 201.49 77.41 186.24"/><line class="cls-1" x1="158.9" y1="154.43" x2="171.52" y2="147.34"/><line class="cls-1" x1="185.45" y1="139.19" x2="185.45" y2="123.94"/><polyline class="cls-1" points="213.05 123.42 222.78 117.63 223.31 117.37"/><line class="cls-1" x1="6.97" y1="238.29" x2="6.97" y2="238.03"/><line class="cls-1" x1="23.53" y1="232.77" x2="23.53" y2="217.52"/><polyline class="cls-1" points="6.97 238.29 7.49 238.55 10.38 240.39"/><line class="cls-1" x1="23.79" y1="232.5" x2="36.67" y2="225.14"/><line class="cls-1" x1="50.6" y1="217.26" x2="50.6" y2="201.75"/><line class="cls-1" x1="6.97" y1="202.01" x2="6.7" y2="201.75"/><line class="cls-1" x1="10.38" y1="161.01" x2="23" y2="153.91"/><line class="cls-1" x1="36.93" y1="145.76" x2="36.93" y2="130.51"/><polyline class="cls-1" points="6.97 159.17 7.49 159.43 10.38 161.01"/><line class="cls-1" x1="64.53" y1="129.99" x2="77.15" y2="122.63"/><line class="cls-1" x1="91.08" y1="114.48" x2="91.08" y2="99.23"/><line class="cls-1" x1="37.46" y1="145.5" x2="50.08" y2="138.14"/><line class="cls-1" x1="64.01" y1="130.25" x2="64.01" y2="114.74"/><line class="cls-1" x1="145.5" y1="83.2" x2="158.12" y2="75.84"/><line class="cls-1" x1="172.05" y1="67.69" x2="172.05" y2="52.44"/><line class="cls-1" x1="91.35" y1="114.22" x2="104.23" y2="107.12"/><line class="cls-1" x1="118.16" y1="98.97" x2="118.16" y2="83.72"/><line class="cls-1" x1="199.38" y1="51.92" x2="212.27" y2="44.56"/><polyline class="cls-1" points="131.57 91.08 144.97 83.46 144.97 67.95"/><line class="cls-1" x1="172.57" y1="67.43" x2="185.19" y2="60.33"/><line class="cls-1" x1="199.12" y1="52.18" x2="199.12" y2="36.94"/><polyline class="cls-1" points="199.12 67.95 212.53 60.33 212.53 44.82"/><polyline class="cls-1" points="144.97 99.23 158.64 91.35 158.64 76.1"/><line class="cls-1" x1="105.02" y1="122.37" x2="117.63" y2="115.01"/><line class="cls-1" x1="131.57" y1="107.12" x2="131.57" y2="91.61"/><line class="cls-1" x1="77.94" y1="137.88" x2="90.56" y2="130.78"/><line class="cls-1" x1="104.49" y1="122.63" x2="104.49" y2="107.38"/><polyline class="cls-1" points="64.01 146.02 77.42 138.14 77.42 122.89"/><line class="cls-1" x1="158.9" y1="91.09" x2="171.52" y2="83.99"/><line class="cls-1" x1="185.45" y1="75.84" x2="185.45" y2="60.59"/><polyline class="cls-1" points="213.06 60.07 222.78 54.28 223.31 54.02"/><line class="cls-1" x1="6.97" y1="174.94" x2="6.97" y2="171"/><line class="cls-1" x1="23.53" y1="169.42" x2="23.53" y2="154.17"/><line class="cls-1" x1="6.97" y1="174.94" x2="7.5" y2="175.2"/><line class="cls-1" x1="23.79" y1="169.16" x2="36.67" y2="161.8"/><line class="cls-1" x1="50.61" y1="153.91" x2="50.61" y2="138.4"/><line class="cls-1" x1="6.97" y1="186.24" x2="6.71" y2="185.98"/><line class="cls-1" x1="6.97" y1="233.3" x2="6.71" y2="233.03"/><line class="cls-1" x1="6.97" y1="190.97" x2="6.97" y2="186.77"/><line class="cls-1" x1="10.39" y1="192.81" x2="23" y2="185.45"/><line class="cls-1" x1="36.94" y1="177.57" x2="36.94" y2="162.06"/><line class="cls-1" x1="6.97" y1="190.97" x2="7.23" y2="190.97"/><line class="cls-1" x1="64.54" y1="161.53" x2="77.16" y2="154.17"/><line class="cls-1" x1="91.09" y1="146.29" x2="91.09" y2="130.78"/><line class="cls-1" x1="37.46" y1="177.31" x2="50.08" y2="169.95"/><line class="cls-1" x1="64.01" y1="161.8" x2="64.01" y2="146.55"/><line class="cls-1" x1="145.5" y1="114.74" x2="158.12" y2="107.38"/><line class="cls-1" x1="172.05" y1="99.5" x2="172.05" y2="83.99"/><line class="cls-1" x1="91.35" y1="146.02" x2="104.23" y2="138.66"/><line class="cls-1" x1="118.16" y1="130.78" x2="118.16" y2="115.27"/><line class="cls-1" x1="199.39" y1="83.73" x2="212.27" y2="76.37"/><line class="cls-1" x1="118.43" y1="130.52" x2="131.04" y2="123.16"/><line class="cls-1" x1="144.98" y1="115.01" x2="144.98" y2="99.76"/><line class="cls-1" x1="172.58" y1="99.24" x2="185.19" y2="91.88"/><line class="cls-1" x1="199.13" y1="83.99" x2="199.13" y2="68.48"/><line class="cls-1" x1="6.96" y1="214.89" x2="6.96" y2="207.27"/><polyline class="cls-1" points="23 217.26 23.52 216.99 36.93 209.11"/><polyline class="cls-1" points="77.15 185.97 77.41 185.71 91.08 177.83"/><polyline class="cls-1" points="50.07 201.48 50.6 201.22 64.01 193.6"/><polyline class="cls-1" points="158.11 139.19 158.64 138.92 172.04 131.04"/><polyline class="cls-1" points="104.22 170.47 104.49 170.2 118.16 162.32"/><line class="cls-1" x1="212.26" y1="107.9" x2="212.52" y2="107.64"/><polyline class="cls-1" points="131.04 154.69 131.56 154.43 144.97 146.81"/><polyline class="cls-1" points="185.19 123.68 185.45 123.41 199.12 115.53"/><polyline class="cls-1" points="185.97 107.38 198.59 100.02 199.12 99.76"/><polyline class="cls-1" points="131.82 138.4 144.71 131.04 144.97 130.77"/><polyline class="cls-1" points="117.63 146.81 118.16 146.54 131.56 138.66"/><polyline class="cls-1" points="90.56 162.32 91.08 162.05 104.49 154.17"/><polyline class="cls-1" points="50.86 185.19 63.48 177.83 64 177.56"/><polyline class="cls-1" points="171.52 115.53 172.04 115.26 185.45 107.38"/><polyline class="cls-1" points="7.23 206.74 7.49 207 10.38 208.58"/><polyline class="cls-1" points="36.67 193.6 36.93 193.34 50.6 185.45"/><line class="cls-1" x1="212.52" y1="13.27" x2="209.63" y2="11.43"/><polyline class="cls-1" points="185.97 44.03 198.59 36.67 199.12 36.41"/><polyline class="cls-1" points="158.64 44.29 155.75 42.71 155.48 42.71"/><polyline class="cls-1" points="144.7 67.69 144.97 67.42 158.64 59.8"/><polyline class="cls-1" points="131.56 60.06 128.67 58.22 128.41 58.22"/><polyline class="cls-1" points="117.63 83.46 118.16 83.19 131.56 75.31"/><polyline class="cls-1" points="104.49 75.57 101.59 74 101.59 73.73"/><polyline class="cls-1" points="90.55 98.97 91.08 98.7 104.49 90.82"/><line class="cls-1" x1="77.41" y1="91.08" x2="74.52" y2="89.5"/><polyline class="cls-1" points="63.48 114.48 64 114.21 77.41 106.59"/><polyline class="cls-1" points="185.45 28.78 182.56 27.21 182.56 26.94"/><polyline class="cls-1" points="171.51 52.18 172.04 51.91 185.45 44.03"/><polyline class="cls-1" points="23.52 122.36 20.63 120.79 20.37 120.52"/><line class="cls-1" x1="6.96" y1="136.29" x2="6.96" y2="128.15"/><polyline class="cls-1" points="50.6 106.85 47.71 105.01 47.44 105.01"/><polyline class="cls-1" points="36.66 130.25 36.93 129.99 50.6 122.1"/><polyline class="cls-1" points="198.59 131.56 199.12 131.3 212.52 123.68"/><polyline class="cls-1" points="144.7 162.84 144.97 162.58 158.63 154.69"/><polyline class="cls-1" points="105.01 185.71 117.63 178.35 118.15 178.09"/><polyline class="cls-1" points="90.55 194.13 91.08 193.86 104.48 185.98"/><polyline class="cls-1" points="50.86 216.99 63.48 209.63 64 209.37"/><polyline class="cls-1" points="171.51 147.34 172.04 147.07 185.45 139.19"/><polyline class="cls-1" points="36.66 225.14 36.93 224.88 50.6 217.26"/><line class="cls-1" x1="6.96" y1="159.16" x2="6.96" y2="155.22"/><polyline class="cls-1" points="23 153.91 23.52 153.64 36.93 145.76"/><polyline class="cls-1" points="77.14 122.63 77.41 122.36 91.08 114.48"/><polyline class="cls-1" points="50.07 138.13 50.6 137.87 64 130.25"/><polyline class="cls-1" points="158.11 75.83 158.63 75.57 172.04 67.69"/><polyline class="cls-1" points="104.22 107.12 104.48 106.85 118.15 98.97"/><line class="cls-1" x1="212.26" y1="44.55" x2="212.52" y2="44.29"/><polyline class="cls-1" points="118.42 98.7 131.03 91.34 131.56 91.08"/><polyline class="cls-1" points="185.18 60.33 185.44 60.06 199.11 52.18"/><polyline class="cls-1" points="185.97 75.57 198.59 68.21 199.11 67.95"/><polyline class="cls-1" points="131.82 106.85 144.7 99.49 144.96 99.23"/><polyline class="cls-1" points="117.63 115 118.15 114.74 131.56 107.12"/><polyline class="cls-1" points="90.55 130.77 91.08 130.51 104.48 122.63"/><polyline class="cls-1" points="50.86 153.64 63.48 146.28 64 146.02"/><polyline class="cls-1" points="171.51 83.98 172.04 83.72 185.44 75.83"/><line class="cls-1" x1="6.96" y1="170.99" x2="6.96" y2="170.47"/><line class="cls-1" x1="7.49" y1="175.2" x2="10.38" y2="177.04"/><polyline class="cls-1" points="36.66 161.79 36.93 161.53 50.6 153.91"/><line class="cls-1" x1="6.96" y1="186.76" x2="6.96" y2="186.24"/><polyline class="cls-1" points="23 185.45 23.52 185.19 36.93 177.56"/><polyline class="cls-1" points="7.22 190.97 7.49 191.23 10.38 192.81"/><polyline class="cls-1" points="77.14 154.17 77.41 154.17 91.08 146.28"/><polyline class="cls-1" points="50.07 169.94 50.6 169.68 64 161.79"/><polyline class="cls-1" points="158.11 107.38 158.63 107.38 172.04 99.49"/><polyline class="cls-1" points="104.22 138.66 104.48 138.4 118.15 130.77"/><line class="cls-1" x1="212.26" y1="76.36" x2="212.52" y2="76.1"/><polyline class="cls-1" points="131.03 123.15 131.56 122.89 144.96 115"/><polyline class="cls-1" points="185.18 91.87 185.44 91.61 199.11 83.98"/><line class="cls-1" x1="6.97" y1="248.8" x2="6.97" y2="248.54"/><polyline class="cls-1" points="212.53 107.64 222.78 101.86 223.3 101.6"/><line class="cls-1" x1="6.97" y1="202.01" x2="6.97" y2="201.75"/><line class="cls-1" x1="6.97" y1="136.56" x2="6.97" y2="136.29"/><line class="cls-1" x1="6.97" y1="233.29" x2="6.97" y2="233.03"/><line class="cls-1" x1="6.97" y1="155.22" x2="6.97" y2="154.7"/><polyline class="cls-1" points="212.53 44.29 222.78 38.51 223.3 38.25"/><line class="cls-1" x1="6.97" y1="183.35" x2="6.97" y2="175.46"/><polyline class="cls-1" points="212.53 76.1 222.78 70.32 223.3 70.05"/><line class="cls-1" x1="6.97" y1="249.33" x2="6.97" y2="248.8"/><line class="cls-1" x1="6.97" y1="246.17" x2="6.97" y2="245.91"/><line class="cls-1" x1="6.97" y1="217.52" x2="6.97" y2="217.26"/><line class="cls-1" x1="6.97" y1="206.74" x2="6.97" y2="202.01"/><line class="cls-1" x1="6.97" y1="199.38" x2="6.97" y2="199.12"/><line class="cls-1" x1="6.97" y1="143.39" x2="6.97" y2="136.56"/><line class="cls-1" x1="6.97" y1="238.02" x2="6.97" y2="233.29"/><line class="cls-1" x1="6.97" y1="230.4" x2="6.97" y2="223.04"/><line class="cls-1" x1="6.97" y1="152.33" x2="6.97" y2="143.92"/><line class="cls-1" x1="6.97" y1="167.84" x2="6.97" y2="159.69"/><line class="cls-1" x1="6.97" y1="183.61" x2="6.97" y2="183.35"/><line class="cls-1" x1="5.13" y1="126.83" x2="5.13" y2="129.46"/><line class="cls-1" x1="6.96" y1="254.32" x2="6.96" y2="249.33"/><line class="cls-1" x1="6.96" y1="248.54" x2="6.96" y2="246.17"/><line class="cls-1" x1="6.96" y1="222.51" x2="6.96" y2="217.52"/><line class="cls-1" x1="6.96" y1="214.89" x2="6.96" y2="214.63"/><line class="cls-1" x1="6.96" y1="201.48" x2="6.96" y2="199.38"/><line class="cls-1" x1="6.96" y1="230.66" x2="6.96" y2="230.4"/><line class="cls-1" x1="6.96" y1="154.43" x2="6.96" y2="152.33"/><line class="cls-1" x1="6.96" y1="169.41" x2="6.96" y2="167.84"/><line class="cls-1" x1="6.96" y1="185.19" x2="6.96" y2="183.61"/><line class="cls-1" x1="5.12" y1="154.17" x2="5.12" y2="160.74"/><line class="cls-1" x1="6.97" y1="217.26" x2="6.97" y2="214.89"/><line class="cls-1" x1="6.97" y1="233.03" x2="6.97" y2="230.66"/><line class="cls-1" x1="6.97" y1="170.47" x2="6.97" y2="170.2"/><line class="cls-1" x1="6.97" y1="185.97" x2="6.97" y2="185.19"/><line class="cls-1" x1="5.13" y1="248.27" x2="5.13" y2="253.27"/><line class="cls-1" x1="6.97" y1="170.2" x2="6.97" y2="169.41"/><line class="cls-1" x1="6.97" y1="186.24" x2="6.97" y2="185.97"/><line class="cls-1" x1="5.13" y1="201.22" x2="5.13" y2="207.79"/><line class="cls-1" x1="5.13" y1="216.99" x2="5.13" y2="223.56"/><line class="cls-1" x1="5.13" y1="232.5" x2="5.13" y2="239.33"/><line class="cls-1" x1="5.12" y1="138.66" x2="5.12" y2="145.23"/><line class="cls-1" x1="5.12" y1="169.94" x2="5.12" y2="176.51"/><line class="cls-1" x1="5.12" y1="185.71" x2="5.12" y2="192.28"/><line class="cls-1" x1="6.96" y1="154.95" x2="6.96" y2="154.69"/><line class="cls-1" x1="5.12" y1="154.17" x2="5.12" y2="145.23"/><line class="cls-1" x1="6.96" y1="217.52" x2="6.96" y2="217.25"/><line class="cls-1" x1="5.12" y1="216.99" x2="5.12" y2="207.79"/><line class="cls-1" x1="6.96" y1="249.06" x2="6.96" y2="248.8"/><line class="cls-1" x1="5.12" y1="248.27" x2="5.12" y2="239.33"/><line class="cls-1" x1="6.96" y1="139.18" x2="6.96" y2="138.92"/><line class="cls-1" x1="5.12" y1="138.66" x2="5.12" y2="129.46"/><line class="cls-1" x1="6.96" y1="170.46" x2="6.96" y2="170.2"/><line class="cls-1" x1="5.12" y1="169.94" x2="5.12" y2="160.74"/><line class="cls-1" x1="6.96" y1="202.01" x2="6.96" y2="201.74"/><line class="cls-1" x1="5.12" y1="201.22" x2="5.12" y2="192.28"/><line class="cls-1" x1="6.96" y1="186.24" x2="6.96" y2="185.97"/><line class="cls-1" x1="5.12" y1="185.71" x2="5.12" y2="176.51"/><line class="cls-1" x1="6.96" y1="233.29" x2="6.96" y2="233.03"/><line class="cls-1" x1="5.12" y1="232.5" x2="5.12" y2="223.56"/><polygon class="cls-2" points="223.3 6.97 219.89 5.13 218.05 6.18 218.05 4.07 215.15 2.5 2.5 125.25 2.5 251.43 5.13 253.27 6.97 251.96 6.97 254.32 10.38 256.16 223.3 133.4 223.3 6.97"/></svg>