<svg id="table_main" data-name="table main" xmlns="http://www.w3.org/2000/svg" viewBox="0 0 367.15 255.58"><defs><style>.cls-1,.cls-2{fill:none;stroke:#000;stroke-linecap:round;stroke-linejoin:round;}.cls-1{stroke-width:0.26px;}.cls-2{stroke-width:2.45px;}</style></defs><line class="cls-1" x1="1.22" y1="151.66" x2="105.46" y2="211.76"/><polyline class="cls-1" points="365.93 61.45 261.69 1.22 1.22 151.66"/><line class="cls-1" x1="105.46" y1="211.76" x2="365.93" y2="61.45"/><line class="cls-1" x1="1.22" y1="151.66" x2="1.22" y2="155.39"/><line class="cls-1" x1="105.46" y1="211.76" x2="105.46" y2="215.49"/><line class="cls-1" x1="365.93" y1="61.45" x2="365.93" y2="65.18"/><line class="cls-1" x1="138.02" y1="196.7" x2="138.02" y2="246.89"/><polyline class="cls-1" points="59.91 189.24 59.91 216.78 125.02 254.35 125.02 204.29"/><line class="cls-1" x1="138.02" y1="246.89" x2="125.02" y2="254.36"/><line class="cls-1" x1="307.25" y1="99.03" x2="307.25" y2="149.09"/><polyline class="cls-1" points="250.88 131.59 294.25 156.68 294.25 106.49"/><line class="cls-1" x1="307.25" y1="149.09" x2="294.25" y2="156.68"/><polyline class="cls-1" points="1.23 155.39 59.91 189.24 105.46 215.49"/><polyline class="cls-1" points="105.46 215.49 125.02 204.29 138.02 196.7"/><line class="cls-1" x1="307.25" y1="99.03" x2="365.93" y2="65.18"/><line class="cls-1" x1="138.02" y1="196.7" x2="250.88" y2="131.59"/><polyline class="cls-1" points="250.88 131.59 294.25 106.49 307.25 99.03"/><polygon class="cls-2" points="250.88 131.59 294.25 156.68 307.25 149.09 307.25 99.03 365.93 65.18 365.93 61.45 261.69 1.22 1.22 151.66 1.22 155.39 59.91 189.24 59.91 216.78 125.02 254.35 138.02 246.89 138.02 196.7 250.88 131.59"/></svg>