<svg id="table_ex" data-name="table ex" xmlns="http://www.w3.org/2000/svg" viewBox="0 0 387.93 338.92"><defs><style>.cls-1{fill:none;stroke:#000;stroke-linecap:round;stroke-linejoin:round;stroke-width:0.24px;}</style></defs><line class="cls-1" x1="116.99" y1="239.32" x2="116.99" y2="229.84"/><line class="cls-1" x1="0.12" y1="142.28" x2="24.81" y2="156.51"/><polyline class="cls-1" points="270.82 14.35 246.25 0.12 0.12 142.28"/><line class="cls-1" x1="24.81" y1="156.51" x2="270.82" y2="14.35"/><polyline class="cls-1" points="0.12 145.81 24.81 160.03 270.82 17.88"/><line class="cls-1" x1="0.12" y1="142.28" x2="0.12" y2="145.81"/><line class="cls-1" x1="24.81" y1="156.51" x2="24.81" y2="160.04"/><line class="cls-1" x1="270.82" y1="14.35" x2="270.82" y2="17.88"/><line class="cls-1" x1="37.09" y1="163.56" x2="61.66" y2="177.79"/><polyline class="cls-1" points="307.79 35.75 283.22 21.52 37.09 163.56"/><line class="cls-1" x1="61.65" y1="177.79" x2="307.79" y2="35.75"/><polyline class="cls-1" points="37.09 167.09 61.66 181.32 307.79 39.28"/><line class="cls-1" x1="37.09" y1="163.56" x2="37.09" y2="167.09"/><line class="cls-1" x1="61.65" y1="177.79" x2="61.65" y2="181.32"/><line class="cls-1" x1="307.79" y1="35.75" x2="307.79" y2="39.28"/><line class="cls-1" x1="73.94" y1="184.84" x2="98.62" y2="199.07"/><polyline class="cls-1" points="344.64 57.03 320.07 42.81 73.94 184.84"/><line class="cls-1" x1="98.62" y1="199.07" x2="344.64" y2="57.03"/><polyline class="cls-1" points="73.94 188.49 98.62 202.6 344.64 60.56"/><line class="cls-1" x1="73.94" y1="184.84" x2="73.94" y2="188.49"/><line class="cls-1" x1="98.62" y1="199.07" x2="98.62" y2="202.6"/><line class="cls-1" x1="344.64" y1="57.03" x2="344.64" y2="60.56"/><line class="cls-1" x1="110.91" y1="206.25" x2="135.47" y2="220.35"/><polyline class="cls-1" points="381.61 78.31 357.04 64.09 110.91 206.25"/><line class="cls-1" x1="135.47" y1="220.35" x2="381.6" y2="78.31"/><polyline class="cls-1" points="135.47 224 110.91 209.77 110.91 206.25"/><line class="cls-1" x1="135.47" y1="220.35" x2="135.47" y2="224"/><line class="cls-1" x1="381.6" y1="78.31" x2="381.6" y2="81.84"/><polyline class="cls-1" points="116.99 227.53 178.52 263.04 178.52 331.75"/><polyline class="cls-1" points="104.7 303.29 104.7 234.58 166.24 270.09"/><polyline class="cls-1" points="104.7 303.29 166.24 338.8 166.24 270.09"/><line class="cls-1" x1="104.7" y1="234.58" x2="106.77" y2="233.49"/><line class="cls-1" x1="178.52" y1="263.04" x2="176.57" y2="264.25"/><line class="cls-1" x1="178.52" y1="331.74" x2="176.57" y2="332.84"/><line class="cls-1" x1="168.3" y1="269" x2="166.24" y2="270.09"/><line class="cls-1" x1="115.04" y1="228.74" x2="116.99" y2="227.53"/><line class="cls-1" x1="176.57" y1="264.25" x2="176.57" y2="332.84"/><polyline class="cls-1" points="168.31 269 168.31 337.58 166.24 338.8"/><polyline class="cls-1" points="108.84 234.58 116.99 229.84 115.04 228.74"/><polyline class="cls-1" points="108.84 234.58 106.77 233.49 115.04 228.74"/><polyline class="cls-1" points="168.31 269 176.57 264.25 174.51 263.04"/><line class="cls-1" x1="168.31" y1="269" x2="166.24" y2="267.78"/><line class="cls-1" x1="168.31" y1="337.58" x2="176.57" y2="332.84"/><line class="cls-1" x1="174.51" y1="263.04" x2="166.24" y2="267.78"/><line class="cls-1" x1="277.02" y1="206.25" x2="277.02" y2="142.28"/><line class="cls-1" x1="268.75" y1="147.02" x2="268.75" y2="210.99"/><polyline class="cls-1" points="266.81 148.12 266.81 209.77 268.75 210.99 277.02 206.25"/><polyline class="cls-1" points="373.46 193.11 365.19 197.85 365.19 266.56"/><line class="cls-1" x1="373.46" y1="193.11" x2="371.39" y2="192.02"/><line class="cls-1" x1="365.19" y1="197.85" x2="363.12" y2="196.76"/><polyline class="cls-1" points="363.12 265.35 365.19 266.56 373.46 261.82"/><line class="cls-1" x1="371.39" y1="192.02" x2="363.12" y2="196.76"/><polyline class="cls-1" points="326.27 135.1 387.81 170.62 387.81 239.32"/><line class="cls-1" x1="350.84" y1="192.02" x2="350.84" y2="260.6"/><line class="cls-1" x1="324.21" y1="136.32" x2="326.27" y2="135.11"/><polyline class="cls-1" points="352.9 259.51 350.84 260.6 289.3 225.09 289.3 156.51 291.37 155.29"/><line class="cls-1" x1="350.84" y1="192.02" x2="289.3" y2="156.51"/><polyline class="cls-1" points="324.21 136.32 385.74 171.83 387.81 170.62"/><polyline class="cls-1" points="385.74 171.83 385.74 240.54 387.81 239.32"/><line class="cls-1" x1="352.91" y1="221.57" x2="363.12" y2="227.53"/><line class="cls-1" x1="373.46" y1="233.49" x2="385.74" y2="240.54"/><line class="cls-1" x1="324.21" y1="136.32" x2="324.21" y2="174.26"/><line class="cls-1" x1="352.91" y1="190.8" x2="350.84" y2="192.02"/><line class="cls-1" x1="373.46" y1="261.82" x2="373.46" y2="193.11"/><line class="cls-1" x1="363.12" y1="196.76" x2="363.12" y2="265.35"/><polyline class="cls-1" points="352.91 190.8 324.21 174.26 291.37 155.29"/><line class="cls-1" x1="352.91" y1="190.8" x2="352.91" y2="259.51"/><polyline class="cls-1" points="135.47 224 266.81 148.12 268.75 147.02 277.02 142.28 381.61 81.84"/><polyline class="cls-1" points="166.24 267.78 116.99 239.32 108.84 234.58"/><line class="cls-1" x1="116.99" y1="229.84" x2="174.51" y2="263.04"/></svg>