<svg id="table_ex" data-name="table ex" xmlns="http://www.w3.org/2000/svg" viewBox="0 0 388.43494 339.42627"><defs><style>.cls-1{fill:none;stroke:#000;stroke-linecap:round;stroke-linejoin:round;stroke-width:0.75px;}</style></defs><line class="cls-1" x1="117.24226" y1="239.57645" x2="117.24226" y2="230.0912"/><line class="cls-1" x1="0.375" y1="142.53392" x2="25.06136" y2="156.76203"/><polyline class="cls-1" points="271.073 14.603 246.509 0.375 0.375 142.534"/><line class="cls-1" x1="25.0613" y1="156.76203" x2="271.07323" y2="14.60311"/><polyline class="cls-1" points="0.375 146.061 25.061 160.289 271.073 18.129"/><line class="cls-1" x1="0.375" y1="142.53392" x2="0.375" y2="146.06076"/><line class="cls-1" x1="25.0613" y1="156.76203" x2="25.0613" y2="160.28888"/><line class="cls-1" x1="271.07323" y1="14.60287" x2="271.07323" y2="18.12971"/><line class="cls-1" x1="37.34365" y1="163.81523" x2="61.90841" y2="178.04334"/><polyline class="cls-1" points="308.042 36.006 283.477 21.778 37.344 163.815"/><line class="cls-1" x1="61.90835" y1="178.0431" x2="308.04189" y2="36.00565"/><polyline class="cls-1" points="37.344 167.342 61.908 181.57 308.042 39.532"/><line class="cls-1" x1="37.34365" y1="163.81498" x2="37.34365" y2="167.34183"/><line class="cls-1" x1="61.90835" y1="178.0431" x2="61.90835" y2="181.56994"/><line class="cls-1" x1="308.04189" y1="36.00565" x2="308.04189" y2="39.5325"/><line class="cls-1" x1="74.1907" y1="185.09654" x2="98.87707" y2="199.32465"/><polyline class="cls-1" points="344.889 57.287 320.324 43.059 74.191 185.097"/><line class="cls-1" x1="98.87701" y1="199.3244" x2="344.88894" y2="57.28696"/><polyline class="cls-1" points="74.191 188.744 98.877 202.851 344.889 60.813"/><line class="cls-1" x1="74.19101" y1="185.09604" x2="74.19101" y2="188.74436"/><line class="cls-1" x1="98.87731" y1="199.32416" x2="98.87731" y2="202.851"/><line class="cls-1" x1="344.88925" y1="57.28671" x2="344.88925" y2="60.81356"/><line class="cls-1" x1="111.15966" y1="206.49908" x2="135.72443" y2="220.60571"/><polyline class="cls-1" points="381.858 78.568 357.293 64.34 111.16 206.499"/><line class="cls-1" x1="135.72436" y1="220.60546" x2="381.8579" y2="78.56802"/><polyline class="cls-1" points="135.724 224.254 111.16 210.026 111.16 206.499"/><line class="cls-1" x1="135.72436" y1="220.60546" x2="135.72436" y2="224.25379"/><line class="cls-1" x1="381.8579" y1="78.56802" x2="381.8579" y2="82.09487"/><polyline class="cls-1" points="117.24 227.78 178.773 263.29 178.773 331.998"/><polyline class="cls-1" points="104.958 303.542 104.958 234.834 166.491 270.343"/><polyline class="cls-1" points="104.958 303.542 166.491 339.051 166.491 270.343"/><line class="cls-1" x1="104.95769" y1="234.83358" x2="107.02505" y2="233.73928"/><line class="cls-1" x1="178.77339" y1="263.28981" x2="176.82769" y2="264.50608"/><line class="cls-1" x1="178.77339" y1="331.99808" x2="176.82769" y2="333.09263"/><line class="cls-1" x1="168.55835" y1="269.2487" x2="166.49104" y2="270.34325"/><line class="cls-1" x1="115.29427" y1="228.99666" x2="117.24004" y2="227.78063"/><line class="cls-1" x1="176.82763" y1="264.50608" x2="176.82763" y2="333.09287"/><polyline class="cls-1" points="168.558 269.248 168.558 337.835 166.491 339.051"/><polyline class="cls-1" points="109.092 234.834 117.24 230.091 115.294 228.997"/><polyline class="cls-1" points="109.092 234.834 107.025 233.739 115.294 228.997"/><polyline class="cls-1" points="168.558 269.248 176.828 264.506 174.76 263.29"/><line class="cls-1" x1="168.55841" y1="269.24845" x2="166.4911" y2="268.03243"/><line class="cls-1" x1="168.55841" y1="337.835" x2="176.82775" y2="333.09238"/><line class="cls-1" x1="174.76038" y1="263.28956" x2="166.4911" y2="268.03243"/><line class="cls-1" x1="277.27549" y1="206.49883" x2="277.27549" y2="142.53343"/><line class="cls-1" x1="269.00618" y1="147.27605" x2="269.00618" y2="211.2417"/><polyline class="cls-1" points="267.06 148.371 267.06 210.026 269.006 211.242 277.275 206.499"/><polyline class="cls-1" points="373.71 193.365 365.441 198.108 365.441 266.816"/><line class="cls-1" x1="373.71022" y1="193.36526" x2="371.64292" y2="192.27096"/><line class="cls-1" x1="365.44091" y1="198.10788" x2="363.3736" y2="197.01358"/><polyline class="cls-1" points="363.374 265.6 365.441 266.816 373.71 262.074"/><line class="cls-1" x1="371.64292" y1="192.27071" x2="363.37363" y2="197.01358"/><polyline class="cls-1" points="326.527 135.359 388.06 170.868 388.06 239.576"/><line class="cls-1" x1="351.09125" y1="192.27071" x2="351.09125" y2="260.85751"/><line class="cls-1" x1="324.45922" y1="136.57453" x2="326.52655" y2="135.35851"/><polyline class="cls-1" points="353.159 259.763 351.091 260.858 289.558 225.348 289.558 156.762 291.625 155.546"/><line class="cls-1" x1="351.09122" y1="192.27096" x2="289.55784" y2="156.76179"/><polyline class="cls-1" points="324.459 136.575 385.993 172.084 388.06 170.868"/><polyline class="cls-1" points="385.993 172.084 385.993 240.792 388.06 239.576"/><line class="cls-1" x1="353.15856" y1="221.82174" x2="363.3736" y2="227.78063"/><line class="cls-1" x1="373.71022" y1="233.73928" x2="385.9926" y2="240.79272"/><line class="cls-1" x1="324.45919" y1="136.57503" x2="324.45919" y2="174.51675"/><line class="cls-1" x1="353.15856" y1="191.05518" x2="351.09125" y2="192.27146"/><line class="cls-1" x1="373.71214" y1="262.07428" x2="373.71214" y2="193.36625"/><line class="cls-1" x1="363.37549" y1="197.01433" x2="363.37549" y2="265.60112"/><polyline class="cls-1" points="353.16 191.056 324.461 174.517 291.627 155.547"/><line class="cls-1" x1="353.16048" y1="191.05568" x2="353.16048" y2="259.76395"/><polyline class="cls-1" points="135.724 224.254 267.061 148.371 269.006 147.276 277.276 142.534 381.858 82.095"/><polyline class="cls-1" points="166.491 268.032 117.24 239.576 109.092 234.834"/><line class="cls-1" x1="117.2401" y1="230.09096" x2="174.76045" y2="263.28981"/></svg>