<svg id="tile_ex" data-name="tile ex" xmlns="http://www.w3.org/2000/svg" viewBox="0 0 354.56704 331.17121"><defs><style>.cls-1{fill:none;stroke:#000;stroke-linecap:round;stroke-linejoin:round;stroke-width:0.75px;}</style></defs><line class="cls-1" x1="141.2714" y1="267.44319" x2="141.2714" y2="252.19715"/><polyline class="cls-1" points="167.558 236.425 168.084 236.688 141.271 252.197"/><polyline class="cls-1" points="138.117 265.603 138.117 250.357 141.272 252.197"/><line class="cls-1" x1="138.38028" y1="250.09406" x2="138.11769" y2="250.35718"/><line class="cls-1" x1="195.42188" y1="236.42514" x2="195.42188" y2="220.91626"/><polyline class="cls-1" points="221.708 205.407 221.971 205.67 195.422 220.916"/><line class="cls-1" x1="194.89617" y1="236.16229" x2="195.42215" y2="236.42541"/><line class="cls-1" x1="194.89617" y1="220.6534" x2="195.42215" y2="220.91652"/><line class="cls-1" x1="168.34664" y1="251.9343" x2="168.34664" y2="236.42541"/><polyline class="cls-1" points="194.633 220.916 194.896 221.179 168.347 236.425"/><line class="cls-1" x1="168.08352" y1="251.67145" x2="168.34664" y2="251.93457"/><line class="cls-1" x1="168.08352" y1="236.42541" x2="168.34664" y2="236.42541"/><line class="cls-1" x1="276.38341" y1="189.63563" x2="276.38341" y2="174.12674"/><polyline class="cls-1" points="302.67 158.618 302.933 158.881 276.383 174.127"/><line class="cls-1" x1="276.12056" y1="189.37277" x2="276.38368" y2="189.63589"/><line class="cls-1" x1="276.12056" y1="173.86389" x2="276.38368" y2="174.12701"/><line class="cls-1" x1="222.49632" y1="220.65367" x2="222.49632" y2="205.40764"/><polyline class="cls-1" points="248.52 189.636 249.046 189.899 222.497 205.408"/><line class="cls-1" x1="221.97061" y1="220.39082" x2="222.49659" y2="220.65394"/><line class="cls-1" x1="221.97061" y1="205.14478" x2="222.49659" y2="205.4079"/><line class="cls-1" x1="330.53363" y1="158.355" x2="330.53363" y2="142.84611"/><polyline class="cls-1" points="353.666 129.177 354.192 129.177 330.534 142.846"/><line class="cls-1" x1="354.19151" y1="144.68608" x2="354.19151" y2="129.1772"/><line class="cls-1" x1="330.00792" y1="158.09214" x2="330.5339" y2="158.35527"/><line class="cls-1" x1="330.00792" y1="142.84611" x2="330.5339" y2="142.84611"/><line class="cls-1" x1="249.30871" y1="205.14478" x2="249.30871" y2="189.63589"/><polyline class="cls-1" points="275.595 174.127 276.121 174.39 249.309 189.636"/><line class="cls-1" x1="249.04585" y1="204.88193" x2="249.30897" y2="205.14505"/><line class="cls-1" x1="249.04585" y1="189.63589" x2="249.30897" y2="189.63589"/><line class="cls-1" x1="303.45865" y1="173.86415" x2="303.45865" y2="158.61812"/><polyline class="cls-1" points="329.745 142.846 330.008 143.109 303.459 158.618"/><line class="cls-1" x1="302.93295" y1="173.6013" x2="303.45892" y2="173.86442"/><line class="cls-1" x1="302.93295" y1="158.35527" x2="303.45892" y2="158.61839"/><line class="cls-1" x1="316.86471" y1="150.20654" x2="316.86471" y2="134.96051"/><polyline class="cls-1" points="343.151 119.451 343.677 119.451 316.865 134.961"/><line class="cls-1" x1="316.60186" y1="149.94369" x2="316.86498" y2="150.20681"/><line class="cls-1" x1="316.60186" y1="134.69765" x2="316.86498" y2="134.96077"/><line class="cls-1" x1="262.97762" y1="181.48744" x2="262.97762" y2="166.2414"/><polyline class="cls-1" points="289.001 150.469 289.527 150.733 262.978 166.241"/><line class="cls-1" x1="262.45191" y1="181.22458" x2="262.97789" y2="181.48771"/><line class="cls-1" x1="262.45191" y1="165.97855" x2="262.97789" y2="166.24167"/><line class="cls-1" x1="235.90265" y1="196.99659" x2="235.90265" y2="181.75056"/><polyline class="cls-1" points="262.189 166.241 262.452 166.241 235.903 181.751"/><line class="cls-1" x1="235.37694" y1="196.73374" x2="235.90291" y2="196.99686"/><line class="cls-1" x1="235.37694" y1="181.48771" x2="235.90291" y2="181.75083"/><line class="cls-1" x1="208.82767" y1="212.7686" x2="208.82767" y2="197.25971"/><polyline class="cls-1" points="235.114 181.751 235.377 182.014 208.828 197.26"/><line class="cls-1" x1="208.56482" y1="212.50575" x2="208.82794" y2="212.76887"/><line class="cls-1" x1="208.56482" y1="196.99686" x2="208.82794" y2="197.25998"/><line class="cls-1" x1="182.01555" y1="228.27776" x2="182.01555" y2="213.03172"/><polyline class="cls-1" points="208.039 197.26 208.565 197.523 182.016 213.032"/><line class="cls-1" x1="181.48984" y1="228.0149" x2="182.01609" y2="228.27802"/><line class="cls-1" x1="181.48984" y1="212.76887" x2="182.01609" y2="213.03199"/><line class="cls-1" x1="290.05286" y1="165.97909" x2="290.05286" y2="150.4702"/><polyline class="cls-1" points="316.076 134.961 316.602 135.224 290.053 150.47"/><line class="cls-1" x1="289.52715" y1="165.71623" x2="290.05313" y2="165.97935"/><line class="cls-1" x1="289.52715" y1="150.20734" x2="290.05313" y2="150.47046"/><line class="cls-1" x1="343.93996" y1="134.69846" x2="343.93996" y2="119.45242"/><polyline class="cls-1" points="353.666 113.144 354.192 113.407 343.94 119.452"/><line class="cls-1" x1="354.19151" y1="128.91541" x2="354.19151" y2="113.40653"/><line class="cls-1" x1="343.67683" y1="134.4356" x2="343.93996" y2="134.69872"/><line class="cls-1" x1="343.67683" y1="119.18957" x2="343.93996" y2="119.45269"/><line class="cls-1" x1="141.2714" y1="251.67305" x2="141.2714" y2="236.42702"/><polyline class="cls-1" points="154.151 228.541 154.415 228.804 141.271 236.427"/><line class="cls-1" x1="138.11662" y1="249.83281" x2="138.11662" y2="234.32392"/><line class="cls-1" x1="141.27086" y1="251.67278" x2="154.41407" y2="244.04977"/><polyline class="cls-1" points="141.271 236.427 138.117 234.324 138.38 234.061"/><line class="cls-1" x1="154.93978" y1="243.78691" x2="154.93978" y2="228.54088"/><polyline class="cls-1" points="180.963 213.032 181.489 213.032 154.94 228.541"/><line class="cls-1" x1="154.41353" y1="243.52406" x2="154.93978" y2="243.78718"/><line class="cls-1" x1="154.41353" y1="228.27802" x2="154.93978" y2="228.54115"/><line class="cls-1" x1="57.94231" y1="262.45031" x2="57.67972" y2="262.45031"/><polyline class="cls-1" points="56.891 261.662 57.417 262.188 57.68 262.451"/><polyline class="cls-1" points="57.942 262.45 57.68 261.925 57.68 261.662 57.942 261.662"/><polyline class="cls-1" points="58.205 261.662 58.205 261.399 57.943 261.136 57.943 260.873 58.205 260.873 58.205 260.61 57.68 259.559 58.205 259.296 58.205 259.033 57.943 257.719 57.68 256.93 57.417 256.142 57.417 255.879 57.68 255.353 57.417 255.09 57.154 254.827 57.154 254.039 57.417 254.039 57.417 253.776 57.154 253.513 56.891 252.987 56.366 252.199"/><polyline class="cls-1" points="56.365 261.136 56.628 261.399 56.891 261.662"/><line class="cls-1" x1="58.20543" y1="259.29607" x2="138.11662" y2="213.29484"/><line class="cls-1" x1="57.94231" y1="260.87319" x2="138.11609" y2="214.60911"/><line class="cls-1" x1="58.20543" y1="261.66175" x2="138.11662" y2="215.66052"/><line class="cls-1" x1="57.94231" y1="261.66175" x2="57.94231" y2="261.39889"/><line class="cls-1" x1="58.20543" y1="261.9246" x2="138.11662" y2="215.92338"/><line class="cls-1" x1="57.94231" y1="262.45031" x2="138.11609" y2="216.18623"/><line class="cls-1" x1="56.36519" y1="252.19849" x2="138.11609" y2="205.14585"/><line class="cls-1" x1="270.07386" y1="86.06843" x2="270.07386" y2="85.80558"/><line class="cls-1" x1="270.33671" y1="85.27987" x2="270.33671" y2="85.54299"/><line class="cls-1" x1="269.81101" y1="82.91419" x2="270.07413" y2="83.44016"/><polyline class="cls-1" points="270.074 83.966 270.337 83.703 270.074 83.44"/><line class="cls-1" x1="269.81101" y1="84.49131" x2="270.07413" y2="84.75443"/><line class="cls-1" x1="57.94231" y1="215.39767" x2="57.67972" y2="215.39767"/><polyline class="cls-1" points="270.074 86.068 270.074 86.332 270.6 86.857"/><line class="cls-1" x1="270.86215" y1="89.22267" x2="271.12527" y2="89.22267"/><polyline class="cls-1" points="56.891 214.609 57.417 215.135 57.68 215.398"/><line class="cls-1" x1="270.86242" y1="90.79979" x2="270.86242" y2="91.06291"/><polyline class="cls-1" points="57.942 215.397 57.68 215.135 57.68 214.609 57.942 214.609"/><polyline class="cls-1" points="58.205 214.609 58.205 214.346 57.943 214.083 57.943 213.82 58.205 213.82 58.205 213.557 57.68 212.506 58.205 212.243 58.205 211.98 57.943 210.666 57.68 209.877 57.417 209.089 57.417 208.826 57.68 208.3 57.417 208.037 57.154 207.774 57.154 206.986 57.417 206.986 57.417 206.723 57.154 206.46 56.891 205.934 56.366 205.146"/><polyline class="cls-1" points="56.365 214.346 56.628 214.346 56.891 214.609"/><polyline class="cls-1" points="270.6 86.857 270.6 87.909 270.863 89.223"/><line class="cls-1" x1="271.12527" y1="89.22267" x2="270.86242" y2="89.48579"/><line class="cls-1" x1="270.07386" y1="84.7539" x2="270.33698" y2="85.27987"/><line class="cls-1" x1="270.59957" y1="89.74838" x2="270.86269" y2="90.80006"/><line class="cls-1" x1="269.02245" y1="82.38821" x2="269.81127" y2="82.91419"/><polyline class="cls-1" points="270.074 83.965 270.074 84.228 269.811 84.228 269.811 84.491"/><line class="cls-1" x1="270.33671" y1="85.54246" x2="270.07386" y2="86.06843"/><polyline class="cls-1" points="270.862 91.063 271.126 91.589 271.126 91.851"/><polyline class="cls-1" points="270.6 92.114 270.863 92.377 270.6 92.64"/><line class="cls-1" x1="57.94231" y1="214.60884" x2="57.94231" y2="214.34599"/><line class="cls-1" x1="0.375" y1="123.1321" x2="0.375" y2="249.56996"/><line class="cls-1" x1="215.92365" y1="128.12659" x2="215.92365" y2="124.18378"/><line class="cls-1" x1="215.92365" y1="113.1434" x2="215.92365" y2="108.6749"/><line class="cls-1" x1="215.92365" y1="97.37166" x2="215.92365" y2="92.90315"/><line class="cls-1" x1="215.92365" y1="81.59992" x2="215.92365" y2="77.13141"/><line class="cls-1" x1="215.92365" y1="66.09103" x2="215.92365" y2="1.95239"/><polyline class="cls-1" points="0.375 123.133 3.267 124.973 3.267 251.148 0.375 249.57"/><line class="cls-1" x1="3.26666" y1="251.14734" x2="215.92391" y2="128.12712"/><line class="cls-1" x1="213.29511" y1="0.375" x2="0.37553" y2="123.13264"/><polyline class="cls-1" points="3.267 124.973 215.924 1.952 213.295 0.375"/><line class="cls-1" x1="141.27033" y1="299.25166" x2="141.27033" y2="283.74277"/><polyline class="cls-1" points="167.557 268.234 168.083 268.497 141.27 283.743"/><polyline class="cls-1" points="138.116 297.149 138.116 281.903 141.271 283.743"/><line class="cls-1" x1="138.37921" y1="281.63968" x2="138.11662" y2="281.9028"/><line class="cls-1" x1="195.42081" y1="267.97077" x2="195.42081" y2="252.72473"/><polyline class="cls-1" points="221.707 236.953 221.97 237.216 195.421 252.725"/><line class="cls-1" x1="194.8951" y1="267.70791" x2="195.42108" y2="267.97103"/><line class="cls-1" x1="194.8951" y1="252.46188" x2="195.42108" y2="252.725"/><line class="cls-1" x1="168.34557" y1="283.47992" x2="168.34557" y2="268.23389"/><polyline class="cls-1" points="194.632 252.725 194.895 252.988 168.346 268.234"/><line class="cls-1" x1="168.08245" y1="283.21707" x2="168.34557" y2="283.48019"/><line class="cls-1" x1="168.08245" y1="267.97103" x2="168.34557" y2="268.23415"/><line class="cls-1" x1="276.38234" y1="221.18125" x2="276.38234" y2="205.93521"/><polyline class="cls-1" points="302.669 190.163 302.932 190.426 276.382 205.935"/><line class="cls-1" x1="276.11949" y1="220.9184" x2="276.38261" y2="221.18152"/><line class="cls-1" x1="276.11949" y1="205.67236" x2="276.38261" y2="205.93548"/><line class="cls-1" x1="222.49525" y1="252.46215" x2="222.49525" y2="236.95326"/><polyline class="cls-1" points="248.519 221.444 249.045 221.707 222.496 236.953"/><line class="cls-1" x1="221.96954" y1="252.19929" x2="222.49552" y2="252.46241"/><line class="cls-1" x1="221.96954" y1="236.6904" x2="222.49552" y2="236.95352"/><line class="cls-1" x1="330.53256" y1="189.90062" x2="330.53256" y2="174.65459"/><polyline class="cls-1" points="353.665 160.723 354.191 160.986 330.533 174.655"/><line class="cls-1" x1="354.19044" y1="176.23171" x2="354.19044" y2="160.98567"/><line class="cls-1" x1="330.00685" y1="189.63777" x2="330.53283" y2="189.90089"/><line class="cls-1" x1="330.00685" y1="174.39173" x2="330.53283" y2="174.65485"/><line class="cls-1" x1="249.30764" y1="236.6904" x2="249.30764" y2="221.44437"/><polyline class="cls-1" points="275.594 205.935 276.12 206.198 249.308 221.444"/><line class="cls-1" x1="249.04478" y1="236.42755" x2="249.3079" y2="236.69067"/><line class="cls-1" x1="249.04478" y1="221.18152" x2="249.3079" y2="221.44464"/><line class="cls-1" x1="303.45758" y1="205.67263" x2="303.45758" y2="190.16374"/><polyline class="cls-1" points="329.744 174.655 330.007 174.918 303.458 190.164"/><line class="cls-1" x1="302.93188" y1="205.40978" x2="303.45785" y2="205.6729"/><line class="cls-1" x1="302.93188" y1="189.90089" x2="303.45785" y2="190.16401"/><line class="cls-1" x1="330.53256" y1="221.70749" x2="330.53256" y2="206.1986"/><polyline class="cls-1" points="353.665 192.53 354.191 192.53 330.533 206.199"/><polyline class="cls-1" points="330.533 221.707 354.19 208.039 354.19 192.53"/><line class="cls-1" x1="330.00685" y1="221.44464" x2="330.53283" y2="221.70776"/><line class="cls-1" x1="330.00685" y1="206.1986" x2="330.53283" y2="206.1986"/><line class="cls-1" x1="141.27033" y1="330.79621" x2="141.27033" y2="315.55018"/><polyline class="cls-1" points="167.557 299.778 168.083 300.041 141.27 315.55"/><line class="cls-1" x1="138.11609" y1="328.95597" x2="138.11609" y2="313.70994"/><polyline class="cls-1" points="168.082 315.55 141.27 330.796 138.116 328.956"/><polyline class="cls-1" points="141.27 315.55 138.116 313.71 138.379 313.447"/><line class="cls-1" x1="303.45758" y1="237.21638" x2="303.45758" y2="221.97034"/><polyline class="cls-1" points="329.744 206.198 330.007 206.461 303.458 221.97"/><polyline class="cls-1" points="330.007 221.97 303.458 237.216 302.932 236.954"/><line class="cls-1" x1="302.93188" y1="221.70722" x2="303.45785" y2="221.97034"/><line class="cls-1" x1="270.07386" y1="54.7886" x2="270.07386" y2="54.52575"/><line class="cls-1" x1="270.33671" y1="54.00004" x2="270.33671" y2="54.26316"/><line class="cls-1" x1="269.81101" y1="51.63436" x2="270.07413" y2="52.16034"/><polyline class="cls-1" points="270.074 52.686 270.337 52.423 270.074 52.16"/><line class="cls-1" x1="269.81101" y1="53.21148" x2="270.07413" y2="53.4746"/><line class="cls-1" x1="57.94231" y1="184.11784" x2="57.67972" y2="184.11784"/><line class="cls-1" x1="270.07359" y1="54.7886" x2="270.59957" y2="55.57743"/><line class="cls-1" x1="270.86215" y1="57.67999" x2="271.12527" y2="57.94311"/><polyline class="cls-1" points="56.891 183.329 57.417 183.855 57.68 184.118"/><line class="cls-1" x1="270.86242" y1="59.51997" x2="270.86242" y2="59.25711"/><polyline class="cls-1" points="57.942 184.118 57.942 183.855 57.68 183.592 57.68 183.329 57.942 183.329"/><polyline class="cls-1" points="58.205 183.329 58.205 183.066 57.943 182.803 57.943 182.54 58.205 182.278 57.68 181.226 58.205 180.963 58.205 180.7 57.943 179.386 57.68 178.335 57.417 177.809 57.417 177.546 57.68 177.021 57.417 176.757 57.154 176.232 57.154 175.706 57.417 175.706 57.417 175.18 57.154 174.917 56.891 174.392 56.366 173.866"/><polyline class="cls-1" points="56.365 182.803 56.628 183.066 56.891 183.329"/><polyline class="cls-1" points="270.6 55.577 270.6 56.629 270.863 57.68"/><line class="cls-1" x1="271.12527" y1="57.94284" x2="270.86242" y2="57.94284"/><line class="cls-1" x1="270.07386" y1="53.47407" x2="270.33698" y2="54.00004"/><line class="cls-1" x1="270.59957" y1="58.2057" x2="270.86269" y2="59.52023"/><line class="cls-1" x1="269.02245" y1="50.84553" x2="269.81127" y2="51.63436"/><polyline class="cls-1" points="270.074 52.686 270.074 52.949 269.811 52.949 269.811 53.211"/><line class="cls-1" x1="270.33671" y1="54.26263" x2="270.07386" y2="54.7886"/><polyline class="cls-1" points="270.862 59.783 271.126 60.309 271.126 60.572"/><polyline class="cls-1" points="270.6 60.834 270.863 61.097 270.6 61.097 270.6 61.36"/><line class="cls-1" x1="57.94231" y1="183.32902" x2="57.94231" y2="183.06616"/><line class="cls-1" x1="270.07359" y1="117.35013" x2="270.07359" y2="117.08728"/><line class="cls-1" x1="270.33645" y1="116.56157" x2="270.33645" y2="116.82469"/><line class="cls-1" x1="269.81074" y1="114.45874" x2="270.07386" y2="114.98472"/><polyline class="cls-1" points="270.074 115.247 270.337 115.247 270.074 114.984"/><line class="cls-1" x1="269.81074" y1="115.77301" x2="270.07386" y2="116.29898"/><line class="cls-1" x1="57.94231" y1="246.94222" x2="57.67972" y2="246.67937"/><polyline class="cls-1" points="270.074 117.35 270.074 117.613 270.6 118.402"/><line class="cls-1" x1="270.86215" y1="120.50437" x2="271.12527" y2="120.50437"/><polyline class="cls-1" points="56.891 246.153 57.417 246.417 57.68 246.679"/><line class="cls-1" x1="270.86242" y1="122.08149" x2="270.86242" y2="122.34461"/><polyline class="cls-1" points="57.942 246.942 57.942 246.679 57.68 246.416 57.68 246.153 57.942 246.153 57.942 245.891"/><polyline class="cls-1" points="58.205 246.153 58.205 245.628 57.943 245.365 57.943 245.102 58.205 245.102 58.205 244.839 57.68 243.788 58.205 243.525 58.205 243.262 57.68 241.159 57.417 240.371 57.68 239.845 57.417 239.582 57.154 239.056 57.154 238.53 57.417 238.268 57.417 238.005 57.154 237.742 56.891 237.216 56.366 236.428"/><polyline class="cls-1" points="56.365 245.628 56.628 245.891 56.891 246.154"/><polyline class="cls-1" points="270.6 118.402 270.6 119.19 270.863 120.505"/><line class="cls-1" x1="271.12527" y1="120.50437" x2="270.86242" y2="120.76749"/><line class="cls-1" x1="270.07386" y1="116.29845" x2="270.33698" y2="116.56157"/><line class="cls-1" x1="270.59957" y1="121.03008" x2="270.86269" y2="122.08176"/><line class="cls-1" x1="269.02245" y1="113.66991" x2="269.81127" y2="114.45874"/><polyline class="cls-1" points="270.074 115.247 270.074 115.51 269.811 115.773"/><line class="cls-1" x1="270.33671" y1="116.82415" x2="270.07386" y2="117.35013"/><polyline class="cls-1" points="270.862 122.344 270.862 122.607 271.126 122.87 271.126 123.133"/><polyline class="cls-1" points="270.6 123.659 270.863 123.922 270.6 123.922"/><line class="cls-1" x1="57.94231" y1="246.1534" x2="57.94231" y2="245.89054"/><line class="cls-1" x1="57.94231" y1="246.94196" x2="270.59957" y2="123.92173"/><line class="cls-1" x1="56.36519" y1="236.42728" x2="269.02245" y2="113.66991"/><line class="cls-1" x1="222.49525" y1="284.00563" x2="222.49525" y2="268.75959"/><polyline class="cls-1" points="248.519 252.988 249.045 253.251 222.496 268.76"/><polyline class="cls-1" points="249.045 268.759 222.495 284.006 221.97 283.743"/><line class="cls-1" x1="221.96954" y1="268.49647" x2="222.49552" y2="268.75959"/><line class="cls-1" x1="276.38234" y1="252.98758" x2="276.38234" y2="237.4787"/><polyline class="cls-1" points="302.669 221.97 302.932 222.233 276.382 237.479"/><polyline class="cls-1" points="302.932 237.478 276.382 252.988 276.119 252.725"/><line class="cls-1" x1="276.11949" y1="237.21558" x2="276.38261" y2="237.4787"/><line class="cls-1" x1="168.34503" y1="315.28626" x2="168.34503" y2="299.77737"/><polyline class="cls-1" points="194.631 284.268 194.895 284.531 168.345 299.777"/><polyline class="cls-1" points="194.894 299.777 168.345 315.286 168.082 315.023"/><line class="cls-1" x1="168.08191" y1="299.7771" x2="168.34503" y2="299.7771"/><line class="cls-1" x1="195.41974" y1="299.7771" x2="195.41974" y2="284.26821"/><polyline class="cls-1" points="221.706 268.759 221.969 269.022 195.42 284.268"/><polyline class="cls-1" points="221.969 284.268 195.42 299.777 194.894 299.514"/><line class="cls-1" x1="194.89403" y1="284.00509" x2="195.42001" y2="284.26821"/><line class="cls-1" x1="249.30683" y1="268.49621" x2="249.30683" y2="252.98732"/><polyline class="cls-1" points="275.593 237.478 276.119 237.741 249.307 252.987"/><polyline class="cls-1" points="276.119 252.987 249.307 268.496 249.044 268.233"/><line class="cls-1" x1="249.04398" y1="252.98705" x2="249.3071" y2="252.98705"/><line class="cls-1" x1="141.26979" y1="235.90077" x2="141.26979" y2="220.39189"/><polyline class="cls-1" points="167.556 204.883 168.082 205.146 141.27 220.392 138.116 218.552 138.379 218.289"/><line class="cls-1" x1="195.41974" y1="204.61988" x2="195.41974" y2="189.37384"/><polyline class="cls-1" points="221.706 173.602 221.969 173.865 195.42 189.374"/><line class="cls-1" x1="194.89403" y1="204.35702" x2="195.42001" y2="204.62015"/><line class="cls-1" x1="194.89403" y1="189.11099" x2="195.42001" y2="189.37411"/><line class="cls-1" x1="168.3445" y1="220.12903" x2="168.3445" y2="204.883"/><polyline class="cls-1" points="194.631 189.374 194.894 189.637 168.344 204.883"/><line class="cls-1" x1="168.08138" y1="220.12903" x2="168.3445" y2="220.12903"/><line class="cls-1" x1="168.08138" y1="204.62015" x2="168.3445" y2="204.88327"/><line class="cls-1" x1="276.38127" y1="157.83036" x2="276.38127" y2="142.58433"/><polyline class="cls-1" points="302.668 126.812 302.931 127.075 276.381 142.584"/><line class="cls-1" x1="276.11842" y1="157.56751" x2="276.38154" y2="157.83063"/><line class="cls-1" x1="276.11842" y1="142.32147" x2="276.38154" y2="142.58459"/><line class="cls-1" x1="222.49418" y1="189.11126" x2="222.49418" y2="173.60237"/><polyline class="cls-1" points="248.518 158.093 249.044 158.356 222.494 173.602"/><line class="cls-1" x1="221.96847" y1="188.8484" x2="222.49445" y2="189.11152"/><line class="cls-1" x1="221.96847" y1="173.33952" x2="222.49445" y2="173.60264"/><line class="cls-1" x1="330.53149" y1="126.54973" x2="330.53149" y2="111.3037"/><polyline class="cls-1" points="353.664 97.372 354.19 97.635 330.532 111.304"/><line class="cls-1" x1="354.18937" y1="112.88082" x2="354.18937" y2="97.63478"/><line class="cls-1" x1="330.00578" y1="126.54973" x2="330.53176" y2="126.54973"/><line class="cls-1" x1="330.00578" y1="111.04084" x2="330.53176" y2="111.30397"/><line class="cls-1" x1="249.30657" y1="173.33952" x2="249.30657" y2="158.09348"/><polyline class="cls-1" points="275.593 142.584 276.119 142.847 249.307 158.093"/><line class="cls-1" x1="249.04371" y1="173.33952" x2="249.30683" y2="173.33952"/><line class="cls-1" x1="249.04371" y1="157.83063" x2="249.30683" y2="158.09375"/><line class="cls-1" x1="303.45651" y1="142.32174" x2="303.45651" y2="126.81285"/><polyline class="cls-1" points="329.743 111.304 330.006 111.567 303.457 126.813"/><line class="cls-1" x1="302.93081" y1="142.05889" x2="303.45678" y2="142.32201"/><line class="cls-1" x1="302.93081" y1="126.55" x2="303.45678" y2="126.81312"/><line class="cls-1" x1="270.07279" y1="70.29696" x2="270.07279" y2="70.0341"/><line class="cls-1" x1="270.33564" y1="69.5084" x2="270.33564" y2="69.77152"/><line class="cls-1" x1="269.80994" y1="67.40557" x2="270.07306" y2="67.93154"/><polyline class="cls-1" points="270.073 68.194 270.336 68.194 270.073 67.931"/><line class="cls-1" x1="269.80994" y1="68.98269" x2="270.07306" y2="69.24581"/><line class="cls-1" x1="57.94124" y1="199.88905" x2="57.67865" y2="199.6262"/><polyline class="cls-1" points="270.073 70.297 270.073 70.56 270.598 71.349"/><line class="cls-1" x1="270.86108" y1="73.4512" x2="271.1242" y2="73.4512"/><polyline class="cls-1" points="56.89 199.1 57.416 199.363 57.679 199.626"/><line class="cls-1" x1="270.86135" y1="75.02832" x2="270.86135" y2="75.29144"/><polyline class="cls-1" points="57.941 199.889 57.941 199.626 57.679 199.363 57.679 199.1 57.941 199.1"/><polyline class="cls-1" points="58.204 199.1 58.204 198.837 57.942 198.312 57.942 198.049 58.204 198.049 57.679 196.735 58.204 196.472 58.204 196.209 57.942 195.157 57.679 194.106 57.416 193.317 57.679 192.792 57.416 192.529 57.153 192.003 57.153 191.477 57.416 191.214 57.416 190.951 57.153 190.689 56.89 190.163 56.365 189.374"/><polyline class="cls-1" points="56.364 198.575 56.627 198.838 56.89 199.1"/><polyline class="cls-1" points="270.598 71.348 270.598 72.137 270.862 73.451"/><line class="cls-1" x1="271.1242" y1="73.4512" x2="270.86135" y2="73.71432"/><line class="cls-1" x1="270.07279" y1="69.24528" x2="270.33591" y2="69.5084"/><line class="cls-1" x1="270.5985" y1="73.9769" x2="270.86162" y2="75.02859"/><line class="cls-1" x1="269.02138" y1="66.61674" x2="269.81021" y2="67.40557"/><polyline class="cls-1" points="270.073 68.194 270.073 68.457 269.81 68.72 269.81 68.983"/><line class="cls-1" x1="270.33564" y1="69.77098" x2="270.07279" y2="70.29696"/><polyline class="cls-1" points="270.861 75.291 270.861 75.554 271.124 75.817 271.124 76.08"/><polyline class="cls-1" points="270.598 76.605 270.862 76.869 270.598 76.869"/><line class="cls-1" x1="57.94124" y1="199.10022" x2="57.94124" y2="198.83737"/><line class="cls-1" x1="316.86231" y1="182.01395" x2="316.86231" y2="166.50506"/><polyline class="cls-1" points="343.149 150.996 343.675 151.259 316.862 166.505"/><line class="cls-1" x1="316.59945" y1="181.75109" x2="316.86258" y2="182.01421"/><line class="cls-1" x1="316.59945" y1="166.24221" x2="316.86258" y2="166.50533"/><line class="cls-1" x1="262.97521" y1="213.03199" x2="262.97521" y2="197.78596"/><polyline class="cls-1" points="288.999 182.277 289.525 182.54 262.975 197.786"/><line class="cls-1" x1="262.44951" y1="213.03199" x2="262.97548" y2="213.03199"/><line class="cls-1" x1="262.44951" y1="197.5231" x2="262.97548" y2="197.78622"/><line class="cls-1" x1="235.90024" y1="228.804" x2="235.90024" y2="213.29511"/><polyline class="cls-1" points="262.187 197.786 262.45 198.049 235.9 213.295"/><line class="cls-1" x1="235.37453" y1="228.54115" x2="235.90051" y2="228.80427"/><line class="cls-1" x1="235.37453" y1="213.03226" x2="235.90051" y2="213.29538"/><line class="cls-1" x1="208.82527" y1="244.31315" x2="208.82527" y2="229.06712"/><polyline class="cls-1" points="235.112 213.295 235.375 213.558 208.825 229.067"/><line class="cls-1" x1="208.56241" y1="244.0503" x2="208.82553" y2="244.31342"/><line class="cls-1" x1="208.56241" y1="228.80427" x2="208.82553" y2="229.06739"/><line class="cls-1" x1="182.01288" y1="259.82231" x2="182.01288" y2="244.57627"/><polyline class="cls-1" points="208.036 229.067 208.562 229.33 182.013 244.576"/><line class="cls-1" x1="181.48717" y1="259.82231" x2="182.01341" y2="259.82231"/><line class="cls-1" x1="181.48717" y1="244.31342" x2="182.01341" y2="244.57654"/><line class="cls-1" x1="290.05019" y1="197.52364" x2="290.05019" y2="182.2776"/><polyline class="cls-1" points="316.074 166.506 316.6 166.769 290.05 182.278"/><line class="cls-1" x1="289.52448" y1="197.26078" x2="290.05045" y2="197.5239"/><line class="cls-1" x1="289.52448" y1="182.01475" x2="290.05045" y2="182.27787"/><line class="cls-1" x1="343.93728" y1="166.24301" x2="343.93728" y2="150.99697"/><polyline class="cls-1" points="353.663 144.951 354.189 145.214 343.937 150.997"/><line class="cls-1" x1="354.18883" y1="160.45997" x2="354.18883" y2="145.21393"/><line class="cls-1" x1="343.67416" y1="166.24301" x2="343.93728" y2="166.24301"/><line class="cls-1" x1="343.67416" y1="150.73412" x2="343.93728" y2="150.99724"/><line class="cls-1" x1="141.26872" y1="283.2176" x2="141.26872" y2="267.97157"/><polyline class="cls-1" points="154.149 260.085 154.412 260.349 141.269 267.972"/><line class="cls-1" x1="138.11395" y1="281.37736" x2="138.11395" y2="266.13133"/><line class="cls-1" x1="141.26819" y1="283.21733" x2="154.41139" y2="275.85717"/><polyline class="cls-1" points="141.268 267.971 138.114 266.131 138.377 265.868"/><line class="cls-1" x1="154.9371" y1="275.59432" x2="154.9371" y2="260.08543"/><polyline class="cls-1" points="180.96 244.576 181.487 244.839 154.937 260.085"/><line class="cls-1" x1="154.41086" y1="275.33146" x2="154.9371" y2="275.59459"/><line class="cls-1" x1="154.41086" y1="259.82258" x2="154.9371" y2="260.0857"/><polyline class="cls-1" points="316.861 118.665 316.861 103.156 343.673 87.91"/><line class="cls-1" x1="313.70673" y1="101.84124" x2="313.70673" y2="101.31553"/><line class="cls-1" x1="316.59812" y1="118.40181" x2="316.86124" y2="118.66493"/><polyline class="cls-1" points="316.861 103.156 313.707 101.316 340.256 86.07"/><polyline class="cls-1" points="262.974 149.946 262.974 134.437 289.523 119.191"/><line class="cls-1" x1="259.55651" y1="133.12214" x2="259.55651" y2="132.59643"/><line class="cls-1" x1="262.4479" y1="149.68271" x2="262.97388" y2="149.94583"/><polyline class="cls-1" points="262.974 134.437 259.557 132.597 286.106 117.088"/><polyline class="cls-1" points="235.899 165.455 235.899 149.946 262.448 134.7"/><line class="cls-1" x1="232.48127" y1="148.63129" x2="232.48127" y2="148.10559"/><line class="cls-1" x1="235.37266" y1="165.19186" x2="235.89864" y2="165.45498"/><polyline class="cls-1" points="235.898 149.946 232.481 148.106 259.293 132.86"/><polyline class="cls-1" points="208.823 180.964 208.823 165.718 235.373 150.209"/><line class="cls-1" x1="205.6729" y1="164.13777" x2="205.6729" y2="163.61207"/><line class="cls-1" x1="208.56428" y1="180.69834" x2="208.8274" y2="180.96146"/><polyline class="cls-1" points="208.827 165.715 205.673 163.612 232.222 148.366"/><polyline class="cls-1" points="182.015 196.733 182.015 181.224 208.565 165.978"/><line class="cls-1" x1="178.59765" y1="179.90978" x2="178.59765" y2="179.38408"/><line class="cls-1" x1="181.48931" y1="196.47035" x2="182.01555" y2="196.73347"/><polyline class="cls-1" points="182.015 181.224 178.598 179.384 205.147 163.875"/><polyline class="cls-1" points="290.052 134.172 290.052 118.926 316.602 103.417"/><line class="cls-1" x1="286.6347" y1="117.34826" x2="286.6347" y2="116.82255"/><line class="cls-1" x1="289.52608" y1="133.90883" x2="290.05206" y2="134.17195"/><polyline class="cls-1" points="290.052 118.926 286.635 116.823 313.184 101.577"/><line class="cls-1" x1="343.93889" y1="103.1539" x2="343.93889" y2="87.64502"/><polyline class="cls-1" points="350.773 79.759 354.191 81.862 343.939 87.645"/><line class="cls-1" x1="340.78438" y1="86.33048" x2="340.78438" y2="85.80477"/><line class="cls-1" x1="354.19044" y1="97.10801" x2="354.19044" y2="81.86197"/><line class="cls-1" x1="343.67577" y1="102.89105" x2="343.93889" y2="103.15417"/><polyline class="cls-1" points="343.939 87.645 340.784 85.805 350.773 79.759"/><polyline class="cls-1" points="141.27 220.128 141.27 204.62 154.414 196.997"/><line class="cls-1" x1="141.27033" y1="220.1285" x2="154.41353" y2="212.50548"/><polyline class="cls-1" points="141.27 204.62 138.116 202.78 151.259 195.157"/><polyline class="cls-1" points="154.939 212.243 154.939 196.734 181.489 181.488"/><line class="cls-1" x1="151.52188" y1="195.41921" x2="151.52188" y2="194.8935"/><line class="cls-1" x1="154.41353" y1="211.97977" x2="154.93978" y2="212.24289"/><polyline class="cls-1" points="154.939 196.734 151.522 194.894 178.071 179.648"/><line class="cls-1" x1="316.86364" y1="213.55716" x2="316.86364" y2="198.31113"/><polyline class="cls-1" points="343.15 182.802 343.676 182.802 316.864 198.311"/><line class="cls-1" x1="316.60079" y1="213.29431" x2="316.86391" y2="213.55743"/><line class="cls-1" x1="316.60079" y1="198.04827" x2="316.86391" y2="198.3114"/><line class="cls-1" x1="262.97655" y1="244.83806" x2="262.97655" y2="229.59202"/><polyline class="cls-1" points="289 213.82 289.526 214.083 262.977 229.592"/><line class="cls-1" x1="262.45084" y1="244.57521" x2="262.97682" y2="244.83833"/><line class="cls-1" x1="262.45084" y1="229.32917" x2="262.97682" y2="229.59229"/><line class="cls-1" x1="235.90158" y1="260.34721" x2="235.90158" y2="245.10118"/><polyline class="cls-1" points="262.188 229.592 262.451 229.592 235.902 245.101"/><line class="cls-1" x1="235.37587" y1="260.08436" x2="235.90184" y2="260.34748"/><line class="cls-1" x1="235.37587" y1="244.83833" x2="235.90184" y2="245.10145"/><line class="cls-1" x1="208.8266" y1="276.11922" x2="208.8266" y2="260.61033"/><polyline class="cls-1" points="235.113 245.101 235.376 245.364 208.827 260.61"/><line class="cls-1" x1="208.56375" y1="275.85637" x2="208.82687" y2="276.11949"/><line class="cls-1" x1="208.56375" y1="260.34748" x2="208.82687" y2="260.6106"/><line class="cls-1" x1="182.01448" y1="291.62838" x2="182.01448" y2="276.38234"/><polyline class="cls-1" points="208.038 260.61 208.564 260.873 182.015 276.382"/><line class="cls-1" x1="181.48878" y1="291.36552" x2="182.01502" y2="291.62864"/><line class="cls-1" x1="181.48878" y1="276.11949" x2="182.01502" y2="276.38261"/><line class="cls-1" x1="290.05179" y1="229.32971" x2="290.05179" y2="213.82082"/><polyline class="cls-1" points="316.075 198.312 316.601 198.575 290.052 213.821"/><line class="cls-1" x1="289.52608" y1="229.06685" x2="290.05206" y2="229.32997"/><line class="cls-1" x1="289.52608" y1="213.55796" x2="290.05206" y2="213.82109"/><line class="cls-1" x1="343.93889" y1="198.04908" x2="343.93889" y2="182.80304"/><polyline class="cls-1" points="353.665 176.494 354.191 176.757 343.939 182.803"/><line class="cls-1" x1="354.19044" y1="192.26603" x2="354.19044" y2="176.75715"/><line class="cls-1" x1="343.67577" y1="197.78622" x2="343.93889" y2="198.04934"/><line class="cls-1" x1="343.67577" y1="182.54019" x2="343.93889" y2="182.80331"/><line class="cls-1" x1="141.27033" y1="315.02367" x2="141.27033" y2="299.77764"/><polyline class="cls-1" points="154.15 291.891 154.414 292.155 141.27 299.778"/><line class="cls-1" x1="138.11555" y1="313.18343" x2="138.11555" y2="297.67454"/><line class="cls-1" x1="141.26979" y1="315.0234" x2="154.413" y2="307.40039"/><polyline class="cls-1" points="141.27 299.777 138.116 297.675 138.379 297.412"/><line class="cls-1" x1="154.93871" y1="307.13753" x2="154.93871" y2="291.8915"/><polyline class="cls-1" points="180.962 276.382 181.488 276.382 154.939 291.891"/><line class="cls-1" x1="154.41246" y1="306.87468" x2="154.93871" y2="307.1378"/><line class="cls-1" x1="154.41246" y1="291.62864" x2="154.93871" y2="291.89177"/><line class="cls-1" x1="270.07279" y1="39.01633" x2="270.07279" y2="38.75347"/><line class="cls-1" x1="270.33564" y1="38.22777" x2="270.33564" y2="38.49089"/><line class="cls-1" x1="269.80994" y1="35.86209" x2="270.07306" y2="36.38806"/><polyline class="cls-1" points="270.073 36.914 270.336 36.651 270.073 36.388"/><line class="cls-1" x1="269.80994" y1="37.43921" x2="270.07306" y2="37.70233"/><line class="cls-1" x1="57.94124" y1="168.34557" x2="57.67865" y2="168.34557"/><polyline class="cls-1" points="270.073 39.016 270.073 39.279 270.598 39.805"/><line class="cls-1" x1="270.86108" y1="42.17057" x2="271.1242" y2="42.17057"/><polyline class="cls-1" points="56.89 167.82 57.416 168.083 57.679 168.346"/><line class="cls-1" x1="270.86135" y1="43.74769" x2="270.86135" y2="44.01081"/><polyline class="cls-1" points="57.941 168.345 57.679 168.082 57.679 167.557 57.941 167.82 57.941 167.557"/><polyline class="cls-1" points="58.204 167.557 58.204 167.294 57.942 167.031 57.942 166.768 58.204 166.768 58.204 166.505 57.679 165.454 58.204 165.191 58.204 164.928 57.679 162.825 57.416 162.037 57.416 161.774 57.679 161.511 57.416 160.985 57.153 160.722 57.153 160.197 57.416 159.934 57.416 159.671 57.153 159.408 56.89 158.882 56.365 158.094"/><polyline class="cls-1" points="56.364 167.294 56.627 167.557 56.89 167.82"/><polyline class="cls-1" points="270.598 39.805 270.598 40.857 270.862 42.171"/><line class="cls-1" x1="271.1242" y1="42.17057" x2="270.86135" y2="42.43369"/><line class="cls-1" x1="270.07279" y1="37.70179" x2="270.33591" y2="38.22777"/><line class="cls-1" x1="270.5985" y1="42.69628" x2="270.86162" y2="43.74796"/><line class="cls-1" x1="269.02138" y1="35.33611" x2="269.81021" y2="35.86209"/><polyline class="cls-1" points="270.073 36.913 270.073 37.176 269.81 37.439"/><line class="cls-1" x1="270.33564" y1="38.49035" x2="270.07279" y2="39.01633"/><polyline class="cls-1" points="270.861 44.011 270.861 44.274 271.124 44.537 271.124 44.799"/><polyline class="cls-1" points="270.598 45.325 270.862 45.325 270.598 45.588"/><line class="cls-1" x1="57.94124" y1="167.81959" x2="57.94124" y2="167.55674"/><line class="cls-1" x1="57.94124" y1="278.22258" x2="57.67865" y2="278.22258"/><polyline class="cls-1" points="56.89 277.434 57.416 277.96 57.679 278.223"/><polyline class="cls-1" points="57.941 278.223 57.941 277.96 57.679 277.697 57.679 277.434 57.941 277.434"/><path class="cls-1" d="M85.08105,307.76767v-.26286l-.26259-.5257.26259-.26286-.52571-1.05141.52571-.26286v-.26285c.0968-.60031-.73161-2.65928-.7883-3.15424l.26259-.52571-.26259-.26312-.26312-.5257v-.52571h.26312v-.52571l-.26312-.26285-.26258-.52571-.52571-.52571" transform="translate(-26.87669 -30.33364)"/><polyline class="cls-1" points="56.364 276.908 56.627 277.171 56.89 277.434"/><line class="cls-1" x1="58.20436" y1="275.06834" x2="138.11555" y2="228.80427"/><line class="cls-1" x1="57.94124" y1="276.64546" x2="138.11502" y2="230.38139"/><line class="cls-1" x1="58.20436" y1="277.43402" x2="138.11555" y2="231.4328"/><line class="cls-1" x1="57.94124" y1="277.43402" x2="57.94124" y2="277.17117"/><line class="cls-1" x1="58.20436" y1="277.69688" x2="138.11555" y2="231.4328"/><line class="cls-1" x1="57.94124" y1="278.22258" x2="138.11502" y2="231.95851"/><line class="cls-1" x1="56.36412" y1="267.97077" x2="138.11502" y2="220.65527"/><line class="cls-1" x1="270.07279" y1="101.84071" x2="270.07279" y2="101.57785"/><line class="cls-1" x1="270.33564" y1="101.05215" x2="270.33564" y2="101.31527"/><line class="cls-1" x1="269.80994" y1="98.68647" x2="270.07306" y2="99.21244"/><polyline class="cls-1" points="270.073 99.738 270.336 99.475 270.073 99.212"/><line class="cls-1" x1="269.80994" y1="100.26359" x2="270.07306" y2="100.52671"/><line class="cls-1" x1="57.94124" y1="231.16995" x2="57.67865" y2="231.16995"/><line class="cls-1" x1="270.07252" y1="101.84071" x2="270.5985" y2="102.62953"/><line class="cls-1" x1="270.86108" y1="104.73209" x2="271.1242" y2="104.99522"/><polyline class="cls-1" points="56.89 230.381 57.416 230.907 57.679 231.17"/><line class="cls-1" x1="270.86135" y1="106.30921" x2="270.86135" y2="106.57234"/><polyline class="cls-1" points="57.941 231.17 57.941 230.907 57.679 230.644 57.679 230.381 57.941 230.381"/><polyline class="cls-1" points="58.204 230.381 58.204 230.118 57.942 229.593 58.204 229.33 57.679 228.278 58.204 228.015 58.204 227.753 57.942 226.438 57.679 225.387 57.416 224.861 57.416 224.598 57.679 224.073 57.416 223.81 57.153 223.284 57.153 222.758 57.416 222.758 57.416 222.232 57.153 221.97 56.89 221.444 56.365 220.918"/><polyline class="cls-1" points="56.364 229.855 56.627 230.119 56.89 230.381"/><polyline class="cls-1" points="270.598 102.629 270.598 103.681 270.862 104.732"/><line class="cls-1" x1="271.1242" y1="104.99495" x2="270.86135" y2="104.99495"/><line class="cls-1" x1="270.07279" y1="100.52617" x2="270.33591" y2="101.05215"/><line class="cls-1" x1="270.5985" y1="105.2578" x2="270.86162" y2="106.30948"/><line class="cls-1" x1="269.02138" y1="97.89764" x2="269.81021" y2="98.68647"/><polyline class="cls-1" points="270.073 99.738 270.073 100.001 269.81 100.001 269.81 100.264"/><line class="cls-1" x1="270.33564" y1="101.31473" x2="270.07279" y2="101.84071"/><polyline class="cls-1" points="270.861 106.572 270.861 106.835 271.124 107.098 271.124 107.624"/><polyline class="cls-1" points="270.598 107.886 270.862 108.149 270.598 108.149 270.598 108.412"/><line class="cls-1" x1="57.94124" y1="230.38112" x2="57.94124" y2="230.11827"/><line class="cls-1" x1="57.94124" y1="231.16968" x2="270.5985" y2="108.41231"/><line class="cls-1" x1="56.36412" y1="220.91786" x2="269.02138" y2="97.89764"/><line class="cls-1" x1="141.2714" y1="267.44319" x2="154.15202" y2="260.08302"/><line class="cls-1" x1="168.08352" y1="252.19715" x2="168.08352" y2="236.68826"/><polyline class="cls-1" points="138.117 265.603 138.38 265.866 141.272 267.443"/><line class="cls-1" x1="195.42161" y1="236.42541" x2="208.03911" y2="229.06525"/><line class="cls-1" x1="221.97088" y1="220.91652" x2="221.97088" y2="205.67049"/><line class="cls-1" x1="168.34664" y1="251.93457" x2="180.96414" y2="244.5744"/><line class="cls-1" x1="194.8959" y1="236.42568" x2="194.8959" y2="221.17964"/><line class="cls-1" x1="276.38368" y1="189.63589" x2="289.00118" y2="182.27573"/><line class="cls-1" x1="302.93295" y1="174.12701" x2="302.93295" y2="158.88097"/><line class="cls-1" x1="222.49659" y1="220.65394" x2="235.11409" y2="213.29377"/><line class="cls-1" x1="249.04585" y1="205.4079" x2="249.04585" y2="189.89902"/><line class="cls-1" x1="330.53363" y1="158.35527" x2="343.15113" y2="150.9951"/><line class="cls-1" x1="249.30871" y1="205.14505" x2="262.18906" y2="197.78489"/><line class="cls-1" x1="276.12083" y1="189.63616" x2="276.12083" y2="174.39013"/><line class="cls-1" x1="303.45865" y1="173.86442" x2="316.07615" y2="166.50426"/><line class="cls-1" x1="330.00792" y1="158.61839" x2="330.00792" y2="143.1095"/><line class="cls-1" x1="316.86471" y1="150.20681" x2="329.74507" y2="142.84665"/><line class="cls-1" x1="343.67683" y1="134.96077" x2="343.67683" y2="119.45189"/><line class="cls-1" x1="262.97762" y1="181.48771" x2="275.59512" y2="174.12754"/><line class="cls-1" x1="289.52689" y1="166.24167" x2="289.52689" y2="150.73278"/><line class="cls-1" x1="235.90265" y1="196.99686" x2="248.52015" y2="189.6367"/><line class="cls-1" x1="262.45191" y1="181.75083" x2="262.45191" y2="166.24194"/><line class="cls-1" x1="208.82767" y1="212.76887" x2="221.70803" y2="205.40871"/><line class="cls-1" x1="235.37694" y1="197.25998" x2="235.37694" y2="182.01395"/><line class="cls-1" x1="182.01555" y1="228.27802" x2="194.63305" y2="220.91786"/><line class="cls-1" x1="208.56482" y1="213.03199" x2="208.56482" y2="197.5231"/><line class="cls-1" x1="290.05259" y1="165.97935" x2="302.67009" y2="158.61919"/><line class="cls-1" x1="316.60186" y1="150.47046" x2="316.60186" y2="135.22443"/><polyline class="cls-1" points="343.94 134.699 353.666 129.179 354.192 128.916"/><line class="cls-1" x1="154.4146" y1="244.0503" x2="154.4146" y2="228.80427"/><polyline class="cls-1" points="138.117 249.833 138.38 250.096 141.272 251.674"/><line class="cls-1" x1="154.94031" y1="243.78745" x2="167.55781" y2="236.42728"/><line class="cls-1" x1="181.48984" y1="228.54141" x2="181.48984" y2="213.03252"/><line class="cls-1" x1="58.2065" y1="261.92514" x2="57.94391" y2="261.66228"/><line class="cls-1" x1="58.2065" y1="214.8725" x2="57.94391" y2="214.60965"/><polyline class="cls-1" points="58.207 212.244 270.601 89.749 270.864 89.487"/><line class="cls-1" x1="57.94338" y1="213.82109" x2="270.86349" y2="91.06372"/><polyline class="cls-1" points="58.207 214.61 270.864 91.852 271.127 91.852"/><polyline class="cls-1" points="58.207 214.872 270.601 92.115 270.864 92.115"/><polyline class="cls-1" points="57.943 215.398 215.925 124.185 270.601 92.641"/><polyline class="cls-1" points="56.366 205.146 215.925 113.144 269.024 82.389"/><line class="cls-1" x1="141.2714" y1="299.25166" x2="154.15202" y2="291.8915"/><line class="cls-1" x1="168.08352" y1="283.74277" x2="168.08352" y2="268.49674"/><polyline class="cls-1" points="138.117 297.149 138.38 297.412 141.272 299.252"/><line class="cls-1" x1="195.42161" y1="267.97103" x2="208.03911" y2="260.61087"/><line class="cls-1" x1="221.97088" y1="252.725" x2="221.97088" y2="237.21611"/><line class="cls-1" x1="168.34664" y1="283.48019" x2="180.96414" y2="276.38288"/><line class="cls-1" x1="194.8959" y1="268.23415" x2="194.8959" y2="252.98812"/><line class="cls-1" x1="276.38368" y1="221.18152" x2="289.00118" y2="213.82135"/><line class="cls-1" x1="302.93295" y1="205.93548" x2="302.93295" y2="190.42659"/><line class="cls-1" x1="222.49659" y1="252.46241" x2="235.11409" y2="245.10225"/><line class="cls-1" x1="249.04585" y1="236.95352" x2="249.04585" y2="221.70749"/><line class="cls-1" x1="330.53363" y1="189.90089" x2="343.15113" y2="182.80358"/><line class="cls-1" x1="249.30871" y1="236.69067" x2="262.18906" y2="229.59336"/><line class="cls-1" x1="276.12083" y1="221.44464" x2="276.12083" y2="206.1986"/><line class="cls-1" x1="303.45865" y1="205.6729" x2="316.07615" y2="198.31273"/><line class="cls-1" x1="330.00792" y1="190.16401" x2="330.00792" y2="174.91797"/><line class="cls-1" x1="168.08352" y1="315.55018" x2="168.08352" y2="300.04129"/><line class="cls-1" x1="330.00792" y1="221.97061" x2="330.00792" y2="206.46172"/><line class="cls-1" x1="58.2065" y1="183.5924" x2="57.94391" y2="183.32955"/><polyline class="cls-1" points="58.207 180.964 270.601 58.207 270.864 57.944"/><polyline class="cls-1" points="57.943 182.541 270.863 59.784 270.863 59.521"/><polyline class="cls-1" points="58.207 183.33 270.864 60.572 271.127 60.572"/><polyline class="cls-1" points="58.207 183.592 270.601 60.835 270.864 60.572"/><polyline class="cls-1" points="57.943 184.118 215.925 92.904 270.601 61.361"/><polyline class="cls-1" points="56.366 173.866 215.925 81.601 269.024 50.846"/><polyline class="cls-1" points="58.207 246.154 57.944 246.154 57.944 245.891"/><polyline class="cls-1" points="58.207 243.525 270.601 121.031 270.864 120.768"/><line class="cls-1" x1="57.94338" y1="245.10252" x2="270.86349" y2="122.34515"/><polyline class="cls-1" points="58.207 246.154 270.864 123.134 271.127 123.134"/><polyline class="cls-1" points="58.207 246.154 270.601 123.659 270.864 123.397"/><line class="cls-1" x1="249.04585" y1="268.76013" x2="249.04585" y2="253.25124"/><line class="cls-1" x1="302.93295" y1="237.47923" x2="302.93295" y2="222.2332"/><line class="cls-1" x1="194.8959" y1="299.7779" x2="194.8959" y2="284.53187"/><line class="cls-1" x1="221.97088" y1="284.26902" x2="221.97088" y2="269.02298"/><line class="cls-1" x1="276.12083" y1="252.98812" x2="276.12083" y2="237.74209"/><line class="cls-1" x1="141.2714" y1="235.90184" x2="154.15202" y2="228.54168"/><line class="cls-1" x1="168.08352" y1="220.39296" x2="168.08352" y2="205.14692"/><polyline class="cls-1" points="138.117 233.799 138.38 234.062 141.272 235.902"/><line class="cls-1" x1="195.42161" y1="204.62121" x2="208.03911" y2="197.26105"/><line class="cls-1" x1="221.97088" y1="189.37518" x2="221.97088" y2="173.86629"/><line class="cls-1" x1="168.34664" y1="220.13037" x2="180.96414" y2="213.03306"/><line class="cls-1" x1="194.8959" y1="204.88434" x2="194.8959" y2="189.6383"/><line class="cls-1" x1="276.38368" y1="157.8317" x2="289.00118" y2="150.47153"/><line class="cls-1" x1="302.93295" y1="142.58566" x2="302.93295" y2="127.07678"/><line class="cls-1" x1="222.49659" y1="189.11259" x2="235.11409" y2="181.75243"/><line class="cls-1" x1="249.04585" y1="173.60371" x2="249.04585" y2="158.35767"/><line class="cls-1" x1="330.53363" y1="126.55107" x2="343.15113" y2="119.45376"/><line class="cls-1" x1="249.30871" y1="173.34085" x2="262.18906" y2="166.24354"/><line class="cls-1" x1="276.12083" y1="158.09482" x2="276.12083" y2="142.84878"/><line class="cls-1" x1="303.45865" y1="142.32308" x2="316.07615" y2="134.96291"/><line class="cls-1" x1="330.00792" y1="126.81419" x2="330.00792" y2="111.56816"/><line class="cls-1" x1="58.2065" y1="199.10183" x2="57.94391" y2="199.10183"/><polyline class="cls-1" points="58.207 196.473 270.601 73.979 270.864 73.716"/><line class="cls-1" x1="57.94338" y1="198.05041" x2="270.86349" y2="75.29304"/><polyline class="cls-1" points="58.207 199.102 270.864 76.082 271.127 76.082"/><polyline class="cls-1" points="58.207 199.102 270.601 76.607 270.864 76.344"/><polyline class="cls-1" points="57.943 199.89 215.925 108.677 270.601 76.87"/><polyline class="cls-1" points="56.366 189.376 215.925 97.373 269.024 66.618"/><polyline class="cls-1" points="330.008 174.393 343.677 166.507 343.677 151.261"/><polyline class="cls-1" points="276.121 205.673 289.527 197.788 289.527 182.542"/><line class="cls-1" x1="235.90265" y1="228.8056" x2="248.52015" y2="221.44544"/><line class="cls-1" x1="262.45191" y1="213.29672" x2="262.45191" y2="198.05068"/><line class="cls-1" x1="208.82767" y1="244.31476" x2="221.70803" y2="236.95459"/><line class="cls-1" x1="235.37694" y1="229.06872" x2="235.37694" y2="213.55984"/><polyline class="cls-1" points="194.896 252.464 208.565 244.578 208.565 229.332"/><line class="cls-1" x1="290.05259" y1="197.52524" x2="302.67009" y2="190.16508"/><line class="cls-1" x1="316.60186" y1="182.27921" x2="316.60186" y2="166.77032"/><polyline class="cls-1" points="343.94 166.245 353.666 160.725 354.192 160.462"/><line class="cls-1" x1="154.4146" y1="275.85904" x2="154.4146" y2="260.35016"/><polyline class="cls-1" points="138.117 281.379 138.38 281.642 141.272 283.219"/><line class="cls-1" x1="154.94031" y1="275.59619" x2="167.55781" y2="268.23603"/><line class="cls-1" x1="181.48984" y1="260.0873" x2="181.48984" y2="244.84127"/><polyline class="cls-1" points="343.677 87.911 340.786 86.334 340.26 86.071"/><polyline class="cls-1" points="330.008 111.044 343.677 103.158 343.677 87.912"/><polyline class="cls-1" points="289.527 119.192 286.636 117.352 286.11 117.089"/><polyline class="cls-1" points="276.121 142.324 289.527 134.439 289.527 119.193"/><polyline class="cls-1" points="262.452 134.701 259.561 133.124 259.298 132.861"/><line class="cls-1" x1="235.90291" y1="165.45659" x2="248.52041" y2="158.09642"/><line class="cls-1" x1="262.45218" y1="149.9477" x2="262.45218" y2="134.70166"/><polyline class="cls-1" points="235.377 150.211 232.486 148.633 232.223 148.371"/><line class="cls-1" x1="208.82794" y1="180.96574" x2="221.70829" y2="173.60558"/><line class="cls-1" x1="235.37721" y1="165.71971" x2="235.37721" y2="150.21082"/><polyline class="cls-1" points="208.565 165.983 205.674 164.143 205.148 163.88"/><polyline class="cls-1" points="194.896 189.115 208.565 181.229 208.565 165.983"/><polyline class="cls-1" points="316.602 103.421 313.711 101.844 313.185 101.581"/><line class="cls-1" x1="290.05313" y1="134.17623" x2="302.67063" y2="126.81606"/><line class="cls-1" x1="316.6024" y1="118.93019" x2="316.6024" y2="103.4213"/><polyline class="cls-1" points="343.94 103.158 353.666 97.376 354.192 97.113"/><polyline class="cls-1" points="154.415 197.001 151.524 195.424 151.261 195.161"/><line class="cls-1" x1="154.41514" y1="212.50976" x2="154.41514" y2="197.00087"/><polyline class="cls-1" points="138.118 218.03 138.381 218.293 141.272 220.133"/><polyline class="cls-1" points="181.49 181.492 178.599 179.915 178.074 179.652"/><line class="cls-1" x1="154.94084" y1="212.24691" x2="167.55834" y2="204.88674"/><line class="cls-1" x1="181.49038" y1="196.73802" x2="181.49038" y2="181.49198"/><polyline class="cls-1" points="330.009 206.201 343.678 198.315 343.678 182.806"/><line class="cls-1" x1="262.97842" y1="244.84207" x2="275.59592" y2="237.48191"/><line class="cls-1" x1="289.52769" y1="229.59604" x2="289.52769" y2="214.08715"/><line class="cls-1" x1="235.90345" y1="260.35122" x2="248.52095" y2="252.99106"/><line class="cls-1" x1="262.45272" y1="245.10519" x2="262.45272" y2="229.5963"/><line class="cls-1" x1="208.82847" y1="276.12323" x2="221.70883" y2="268.76307"/><line class="cls-1" x1="235.37774" y1="260.61435" x2="235.37774" y2="245.36831"/><line class="cls-1" x1="182.01609" y1="291.63239" x2="194.63359" y2="284.27222"/><line class="cls-1" x1="208.56535" y1="276.38635" x2="208.56535" y2="260.87747"/><line class="cls-1" x1="290.05313" y1="229.33372" x2="302.67063" y2="221.97355"/><line class="cls-1" x1="316.6024" y1="213.82483" x2="316.6024" y2="198.57879"/><polyline class="cls-1" points="343.94 198.053 353.666 192.533 354.192 192.27"/><line class="cls-1" x1="154.41514" y1="307.40466" x2="154.41514" y2="292.15863"/><polyline class="cls-1" points="138.118 313.188 138.381 313.451 141.272 315.028"/><line class="cls-1" x1="154.94084" y1="307.14181" x2="167.55834" y2="299.78165"/><line class="cls-1" x1="181.49038" y1="291.89578" x2="181.49038" y2="276.38689"/><line class="cls-1" x1="58.20704" y1="167.82387" x2="57.94445" y2="167.56102"/><polyline class="cls-1" points="58.207 165.195 270.601 42.701 270.864 42.438"/><line class="cls-1" x1="57.94391" y1="166.77246" x2="270.86403" y2="44.01509"/><polyline class="cls-1" points="58.207 167.561 270.864 44.804 271.127 44.804"/><polyline class="cls-1" points="58.207 167.824 270.601 45.329 270.864 45.067"/><polyline class="cls-1" points="57.944 168.35 215.926 77.136 270.601 45.592"/><polyline class="cls-1" points="56.367 158.098 215.926 66.095 269.024 35.34"/><line class="cls-1" x1="58.20704" y1="277.70089" x2="57.94445" y2="277.43804"/><line class="cls-1" x1="58.20704" y1="230.64825" x2="57.94445" y2="230.3854"/><polyline class="cls-1" points="58.207 228.02 270.601 105.262 270.864 104.999"/><line class="cls-1" x1="57.94391" y1="229.59684" x2="270.86403" y2="106.57661"/><polyline class="cls-1" points="58.207 230.385 270.864 107.628 271.127 107.628"/><polyline class="cls-1" points="58.207 230.648 270.601 107.891 270.864 107.628"/><polyline class="cls-1" points="154.151 260.083 154.415 259.82 168.084 252.197"/><polyline class="cls-1" points="208.039 229.065 208.565 228.802 221.971 220.916"/><polyline class="cls-1" points="180.964 244.574 181.49 244.311 194.896 236.425"/><polyline class="cls-1" points="289.001 182.275 289.527 182.012 302.933 174.126"/><polyline class="cls-1" points="235.114 213.293 235.377 213.03 249.046 205.407"/><line class="cls-1" x1="343.15059" y1="150.99457" x2="343.67657" y2="150.73171"/><polyline class="cls-1" points="262.189 197.784 262.452 197.521 276.121 189.636"/><polyline class="cls-1" points="316.076 166.503 316.602 166.241 330.008 158.618"/><polyline class="cls-1" points="329.745 142.846 330.008 142.846 343.677 134.96"/><polyline class="cls-1" points="275.595 174.126 276.121 173.864 289.527 166.241"/><polyline class="cls-1" points="248.52 189.635 249.046 189.635 262.452 181.749"/><polyline class="cls-1" points="221.707 205.407 221.971 205.144 235.377 197.258"/><polyline class="cls-1" points="194.633 220.916 194.896 220.653 208.565 213.03"/><polyline class="cls-1" points="302.67 158.617 302.933 158.354 316.602 150.469"/><polyline class="cls-1" points="167.557 236.425 168.084 236.425 181.489 228.539"/><polyline class="cls-1" points="154.151 291.889 154.414 291.627 168.083 283.741"/><polyline class="cls-1" points="208.038 260.608 208.564 260.346 221.97 252.723"/><polyline class="cls-1" points="180.963 276.38 181.489 276.117 194.895 268.231"/><polyline class="cls-1" points="289 213.818 289.526 213.556 302.932 205.933"/><polyline class="cls-1" points="235.113 245.099 235.376 244.836 249.045 236.951"/><line class="cls-1" x1="343.15006" y1="182.80064" x2="343.67603" y2="182.53778"/><polyline class="cls-1" points="262.188 229.59 262.451 229.328 276.12 221.442"/><polyline class="cls-1" points="316.075 198.31 316.601 198.047 330.007 190.161"/><line class="cls-1" x1="138.11609" y1="230.37898" x2="138.11609" y2="218.55031"/><polyline class="cls-1" points="154.151 228.539 154.414 228.276 168.083 220.39"/><polyline class="cls-1" points="208.038 197.258 208.564 196.995 221.97 189.372"/><polyline class="cls-1" points="180.963 213.03 181.489 212.767 194.895 204.881"/><polyline class="cls-1" points="289 150.468 289.526 150.205 302.932 142.582"/><polyline class="cls-1" points="235.113 181.749 235.376 181.486 249.045 173.6"/><line class="cls-1" x1="343.15006" y1="119.45028" x2="343.67603" y2="119.18743"/><polyline class="cls-1" points="262.188 166.24 262.451 165.977 276.12 158.091"/><polyline class="cls-1" points="316.075 134.959 316.601 134.696 330.007 126.81"/><polyline class="cls-1" points="316.864 182.012 329.744 174.652 330.007 174.389"/><polyline class="cls-1" points="262.977 213.03 275.594 205.933 276.12 205.67"/><polyline class="cls-1" points="248.519 221.441 249.045 221.179 262.451 213.293"/><polyline class="cls-1" points="221.707 236.95 221.97 236.687 235.376 229.064"/><polyline class="cls-1" points="182.014 259.819 194.632 252.722 194.895 252.459"/><polyline class="cls-1" points="302.669 190.16 302.932 189.897 316.601 182.274"/><polyline class="cls-1" points="167.557 268.231 168.083 267.968 181.489 260.082"/><polyline class="cls-1" points="316.864 118.661 329.744 111.301 330.007 111.038"/><polyline class="cls-1" points="262.977 149.942 275.594 142.582 276.12 142.319"/><polyline class="cls-1" points="248.519 158.091 249.045 157.828 262.451 149.942"/><polyline class="cls-1" points="221.707 173.6 221.97 173.337 235.376 165.714"/><polyline class="cls-1" points="182.014 196.732 194.632 189.372 194.895 189.109"/><polyline class="cls-1" points="302.669 126.81 302.932 126.547 316.601 118.924"/><line class="cls-1" x1="138.11609" y1="214.60644" x2="138.11609" y2="202.77776"/><polyline class="cls-1" points="167.557 204.881 168.083 204.618 181.489 196.732"/><polyline class="cls-1" points="316.864 213.555 329.744 206.195 330.007 206.195"/><polyline class="cls-1" points="275.594 237.476 276.12 237.213 289.526 229.59"/><polyline class="cls-1" points="248.519 252.985 249.045 252.985 262.451 245.099"/><polyline class="cls-1" points="221.707 268.756 221.97 268.494 235.376 260.608"/><polyline class="cls-1" points="194.632 284.265 194.895 284.002 208.564 276.379"/><polyline class="cls-1" points="302.669 221.967 302.932 221.704 316.601 213.818"/><polyline class="cls-1" points="167.557 299.774 168.083 299.774 181.489 291.889"/><polyline class="cls-1" points="343.677 150.732 353.666 144.949 354.191 144.686"/><polyline class="cls-1" points="343.677 182.538 353.666 176.493 354.191 176.23"/><line class="cls-1" x1="138.11662" y1="231.43093" x2="138.11662" y2="230.37951"/><polyline class="cls-1" points="343.676 119.188 353.665 113.142 354.191 112.879"/><line class="cls-1" x1="138.11662" y1="215.65919" x2="138.11662" y2="214.60777"/><line class="cls-1" x1="138.11716" y1="231.43039" x2="138.11716" y2="231.16754"/><line class="cls-1" x1="138.11716" y1="215.92151" x2="138.11716" y2="215.65865"/><line class="cls-1" x1="138.11609" y1="233.79527" x2="138.11609" y2="231.42959"/><line class="cls-1" x1="138.11609" y1="218.02353" x2="138.11609" y2="215.9207"/><line class="cls-1" x1="58.20597" y1="261.91899" x2="58.20597" y2="261.65613"/><line class="cls-1" x1="56.36572" y1="261.13043" x2="56.36572" y2="252.19314"/><line class="cls-1" x1="58.20597" y1="214.86635" x2="58.20597" y2="214.6035"/><line class="cls-1" x1="56.36572" y1="214.34064" x2="56.36572" y2="205.1405"/><line class="cls-1" x1="270.86296" y1="91.84586" x2="270.86296" y2="92.10898"/><line class="cls-1" x1="58.20597" y1="183.58545" x2="58.20597" y2="183.3226"/><line class="cls-1" x1="56.36572" y1="182.79689" x2="56.36572" y2="173.85961"/><line class="cls-1" x1="270.86296" y1="60.56496" x2="270.86296" y2="60.30211"/><line class="cls-1" x1="58.20597" y1="246.14698" x2="58.20597" y2="245.88412"/><line class="cls-1" x1="56.36572" y1="245.62127" x2="56.36572" y2="236.42113"/><line class="cls-1" x1="270.86296" y1="123.12649" x2="270.86296" y2="123.38961"/><line class="cls-1" x1="58.20597" y1="199.09434" x2="58.20597" y2="198.83149"/><line class="cls-1" x1="56.36572" y1="198.56863" x2="56.36572" y2="189.3685"/><line class="cls-1" x1="270.86296" y1="76.07385" x2="270.86296" y2="76.33697"/><line class="cls-1" x1="58.20597" y1="167.81344" x2="58.20597" y2="167.55059"/><line class="cls-1" x1="56.36572" y1="167.28774" x2="56.36572" y2="158.0876"/><line class="cls-1" x1="270.86296" y1="44.79295" x2="270.86296" y2="45.05607"/><line class="cls-1" x1="58.20597" y1="277.69046" x2="58.20597" y2="277.42761"/><line class="cls-1" x1="56.36572" y1="276.9019" x2="56.36572" y2="267.96462"/><line class="cls-1" x1="58.20597" y1="230.63782" x2="58.20597" y2="230.37497"/><line class="cls-1" x1="56.36572" y1="229.84926" x2="56.36572" y2="220.91198"/><line class="cls-1" x1="270.86296" y1="107.61733" x2="270.86296" y2="107.35448"/></svg>