<svg id="tile_ex" data-name="tile ex" xmlns="http://www.w3.org/2000/svg" viewBox="0 0 354.34 330.95"><defs><style>.cls-1{fill:none;stroke:#000;stroke-linecap:round;stroke-linejoin:round;stroke-width:0.53px;}</style></defs><line class="cls-1" x1="141.16" y1="267.33" x2="141.16" y2="252.09"/><polyline class="cls-1" points="167.45 236.31 167.97 236.58 141.16 252.09"/><polyline class="cls-1" points="138 265.49 138 250.25 141.16 252.09"/><line class="cls-1" x1="138.27" y1="249.98" x2="138.01" y2="250.25"/><line class="cls-1" x1="195.31" y1="236.31" x2="195.31" y2="220.8"/><polyline class="cls-1" points="221.6 205.29 221.86 205.56 195.31 220.8"/><line class="cls-1" x1="194.78" y1="236.05" x2="195.31" y2="236.31"/><line class="cls-1" x1="194.78" y1="220.54" x2="195.31" y2="220.8"/><line class="cls-1" x1="168.23" y1="251.82" x2="168.23" y2="236.31"/><polyline class="cls-1" points="194.52 220.8 194.78 221.07 168.24 236.31"/><line class="cls-1" x1="167.97" y1="251.56" x2="168.23" y2="251.82"/><line class="cls-1" x1="167.97" y1="236.31" x2="168.23" y2="236.31"/><line class="cls-1" x1="276.27" y1="189.52" x2="276.27" y2="174.01"/><polyline class="cls-1" points="302.56 158.5 302.82 158.77 276.27 174.01"/><line class="cls-1" x1="276.01" y1="189.26" x2="276.27" y2="189.52"/><line class="cls-1" x1="276.01" y1="173.75" x2="276.27" y2="174.01"/><line class="cls-1" x1="222.38" y1="220.54" x2="222.38" y2="205.3"/><polyline class="cls-1" points="248.41 189.52 248.93 189.79 222.38 205.3"/><line class="cls-1" x1="221.86" y1="220.28" x2="222.38" y2="220.54"/><line class="cls-1" x1="221.86" y1="205.03" x2="222.38" y2="205.3"/><line class="cls-1" x1="330.42" y1="158.24" x2="330.42" y2="142.73"/><polyline class="cls-1" points="353.55 129.06 354.08 129.06 330.42 142.73"/><line class="cls-1" x1="354.08" y1="144.57" x2="354.08" y2="129.07"/><line class="cls-1" x1="329.9" y1="157.98" x2="330.42" y2="158.24"/><line class="cls-1" x1="329.9" y1="142.73" x2="330.42" y2="142.73"/><line class="cls-1" x1="249.2" y1="205.03" x2="249.2" y2="189.52"/><polyline class="cls-1" points="275.48 174.01 276.01 174.28 249.2 189.52"/><line class="cls-1" x1="248.93" y1="204.77" x2="249.2" y2="205.03"/><line class="cls-1" x1="248.93" y1="189.52" x2="249.2" y2="189.52"/><line class="cls-1" x1="303.35" y1="173.75" x2="303.35" y2="158.51"/><polyline class="cls-1" points="329.63 142.73 329.9 143 303.35 158.51"/><line class="cls-1" x1="302.82" y1="173.49" x2="303.35" y2="173.75"/><line class="cls-1" x1="302.82" y1="158.24" x2="303.35" y2="158.51"/><line class="cls-1" x1="316.75" y1="150.09" x2="316.75" y2="134.85"/><polyline class="cls-1" points="343.04 119.34 343.56 119.34 316.75 134.85"/><line class="cls-1" x1="316.49" y1="149.83" x2="316.75" y2="150.09"/><line class="cls-1" x1="316.49" y1="134.59" x2="316.75" y2="134.85"/><line class="cls-1" x1="262.87" y1="181.38" x2="262.87" y2="166.13"/><polyline class="cls-1" points="288.89 150.36 289.42 150.62 262.87 166.13"/><line class="cls-1" x1="262.34" y1="181.11" x2="262.87" y2="181.38"/><line class="cls-1" x1="262.34" y1="165.87" x2="262.87" y2="166.13"/><line class="cls-1" x1="235.79" y1="196.88" x2="235.79" y2="181.64"/><polyline class="cls-1" points="262.08 166.13 262.34 166.13 235.79 181.64"/><line class="cls-1" x1="235.26" y1="196.62" x2="235.79" y2="196.88"/><line class="cls-1" x1="235.26" y1="181.38" x2="235.79" y2="181.64"/><line class="cls-1" x1="208.72" y1="212.66" x2="208.72" y2="197.15"/><polyline class="cls-1" points="235 181.64 235.26 181.9 208.72 197.15"/><line class="cls-1" x1="208.45" y1="212.39" x2="208.72" y2="212.66"/><line class="cls-1" x1="208.45" y1="196.88" x2="208.72" y2="197.15"/><line class="cls-1" x1="181.9" y1="228.17" x2="181.9" y2="212.92"/><polyline class="cls-1" points="207.93 197.15 208.45 197.41 181.9 212.92"/><line class="cls-1" x1="181.38" y1="227.9" x2="181.9" y2="228.17"/><line class="cls-1" x1="181.38" y1="212.66" x2="181.9" y2="212.92"/><line class="cls-1" x1="289.94" y1="165.87" x2="289.94" y2="150.36"/><polyline class="cls-1" points="315.96 134.85 316.49 135.11 289.94 150.36"/><line class="cls-1" x1="289.42" y1="165.6" x2="289.94" y2="165.87"/><line class="cls-1" x1="289.42" y1="150.1" x2="289.94" y2="150.36"/><line class="cls-1" x1="343.83" y1="134.59" x2="343.83" y2="119.34"/><polyline class="cls-1" points="353.55 113.03 354.08 113.3 343.83 119.34"/><line class="cls-1" x1="354.08" y1="128.8" x2="354.08" y2="113.29"/><line class="cls-1" x1="343.56" y1="134.32" x2="343.83" y2="134.59"/><line class="cls-1" x1="343.56" y1="119.08" x2="343.83" y2="119.34"/><line class="cls-1" x1="141.16" y1="251.56" x2="141.16" y2="236.31"/><polyline class="cls-1" points="154.04 228.43 154.3 228.69 141.16 236.31"/><line class="cls-1" x1="138" y1="249.72" x2="138" y2="234.21"/><line class="cls-1" x1="141.16" y1="251.56" x2="154.3" y2="243.94"/><polyline class="cls-1" points="141.16 236.31 138 234.21 138.27 233.95"/><line class="cls-1" x1="154.83" y1="243.67" x2="154.83" y2="228.43"/><polyline class="cls-1" points="180.85 212.92 181.38 212.92 154.83 228.43"/><line class="cls-1" x1="154.3" y1="243.41" x2="154.83" y2="243.68"/><line class="cls-1" x1="154.3" y1="228.17" x2="154.83" y2="228.43"/><line class="cls-1" x1="57.83" y1="262.34" x2="57.57" y2="262.34"/><polyline class="cls-1" points="56.78 261.55 57.3 262.08 57.57 262.34"/><polyline class="cls-1" points="57.83 262.34 57.57 261.81 57.57 261.55 57.83 261.55"/><polyline class="cls-1" points="58.09 261.55 58.09 261.29 57.83 261.02 57.83 260.76 58.09 260.76 58.09 260.5 57.57 259.45 58.09 259.18 58.09 258.92 57.83 257.61 57.57 256.82 57.3 256.03 57.3 255.77 57.57 255.24 57.3 254.98 57.04 254.72 57.04 253.93 57.3 253.93 57.3 253.66 57.04 253.4 56.78 252.88 56.25 252.09"/><polyline class="cls-1" points="56.25 261.02 56.52 261.29 56.78 261.55"/><line class="cls-1" x1="58.09" y1="259.18" x2="138" y2="213.18"/><line class="cls-1" x1="57.83" y1="260.76" x2="138" y2="214.5"/><line class="cls-1" x1="58.09" y1="261.55" x2="138" y2="215.55"/><line class="cls-1" x1="57.83" y1="261.55" x2="57.83" y2="261.29"/><line class="cls-1" x1="58.09" y1="261.81" x2="138" y2="215.81"/><line class="cls-1" x1="57.83" y1="262.34" x2="138" y2="216.07"/><line class="cls-1" x1="56.25" y1="252.09" x2="138" y2="205.03"/><line class="cls-1" x1="269.96" y1="85.96" x2="269.96" y2="85.69"/><line class="cls-1" x1="270.22" y1="85.17" x2="270.22" y2="85.43"/><line class="cls-1" x1="269.7" y1="82.8" x2="269.96" y2="83.33"/><polyline class="cls-1" points="269.96 83.85 270.23 83.59 269.96 83.33"/><line class="cls-1" x1="269.7" y1="84.38" x2="269.96" y2="84.64"/><line class="cls-1" x1="57.83" y1="215.29" x2="57.57" y2="215.29"/><polyline class="cls-1" points="269.96 85.96 269.96 86.22 270.49 86.75"/><line class="cls-1" x1="270.75" y1="89.11" x2="271.01" y2="89.11"/><polyline class="cls-1" points="56.78 214.5 57.3 215.02 57.57 215.29"/><line class="cls-1" x1="270.75" y1="90.69" x2="270.75" y2="90.95"/><polyline class="cls-1" points="57.83 215.28 57.57 215.02 57.57 214.5 57.83 214.5"/><polyline class="cls-1" points="58.09 214.5 58.09 214.23 57.83 213.97 57.83 213.71 58.09 213.71 58.09 213.44 57.57 212.39 58.09 212.13 58.09 211.87 57.83 210.55 57.57 209.76 57.3 208.98 57.3 208.71 57.57 208.19 57.3 207.93 57.04 207.66 57.04 206.87 57.3 206.87 57.3 206.61 57.04 206.35 56.78 205.82 56.25 205.03"/><polyline class="cls-1" points="56.25 214.23 56.52 214.23 56.78 214.5"/><polyline class="cls-1" points="270.49 86.75 270.49 87.8 270.75 89.11"/><line class="cls-1" x1="271.01" y1="89.11" x2="270.75" y2="89.37"/><line class="cls-1" x1="269.96" y1="84.64" x2="270.22" y2="85.17"/><line class="cls-1" x1="270.49" y1="89.64" x2="270.75" y2="90.69"/><line class="cls-1" x1="268.91" y1="82.28" x2="269.7" y2="82.8"/><polyline class="cls-1" points="269.96 83.85 269.96 84.12 269.7 84.12 269.7 84.38"/><line class="cls-1" x1="270.22" y1="85.43" x2="269.96" y2="85.96"/><polyline class="cls-1" points="270.75 90.95 271.01 91.48 271.01 91.74"/><polyline class="cls-1" points="270.49 92 270.75 92.27 270.49 92.53"/><line class="cls-1" x1="57.83" y1="214.5" x2="57.83" y2="214.23"/><line class="cls-1" x1="0.26" y1="123.02" x2="0.26" y2="249.46"/><line class="cls-1" x1="215.81" y1="128.01" x2="215.81" y2="124.07"/><line class="cls-1" x1="215.81" y1="113.03" x2="215.81" y2="108.56"/><line class="cls-1" x1="215.81" y1="97.26" x2="215.81" y2="92.79"/><line class="cls-1" x1="215.81" y1="81.49" x2="215.81" y2="77.02"/><line class="cls-1" x1="215.81" y1="65.98" x2="215.81" y2="1.84"/><polyline class="cls-1" points="0.26 123.02 3.15 124.86 3.15 251.03 0.26 249.46"/><line class="cls-1" x1="3.15" y1="251.04" x2="215.81" y2="128.01"/><line class="cls-1" x1="213.18" y1="0.26" x2="0.26" y2="123.02"/><polyline class="cls-1" points="3.15 124.86 215.81 1.84 213.18 0.26"/><line class="cls-1" x1="141.16" y1="299.14" x2="141.16" y2="283.63"/><polyline class="cls-1" points="167.44 268.12 167.97 268.38 141.16 283.63"/><polyline class="cls-1" points="138 297.04 138 281.79 141.16 283.63"/><line class="cls-1" x1="138.27" y1="281.53" x2="138" y2="281.79"/><line class="cls-1" x1="195.31" y1="267.86" x2="195.31" y2="252.61"/><polyline class="cls-1" points="221.59 236.84 221.86 237.1 195.31 252.61"/><line class="cls-1" x1="194.78" y1="267.6" x2="195.31" y2="267.86"/><line class="cls-1" x1="194.78" y1="252.35" x2="195.31" y2="252.61"/><line class="cls-1" x1="168.23" y1="283.37" x2="168.23" y2="268.12"/><polyline class="cls-1" points="194.52 252.61 194.78 252.88 168.23 268.12"/><line class="cls-1" x1="167.97" y1="283.1" x2="168.23" y2="283.37"/><line class="cls-1" x1="167.97" y1="267.86" x2="168.23" y2="268.12"/><line class="cls-1" x1="276.27" y1="221.07" x2="276.27" y2="205.82"/><polyline class="cls-1" points="302.56 190.05 302.82 190.31 276.27 205.82"/><line class="cls-1" x1="276.01" y1="220.81" x2="276.27" y2="221.07"/><line class="cls-1" x1="276.01" y1="205.56" x2="276.27" y2="205.82"/><line class="cls-1" x1="222.38" y1="252.35" x2="222.38" y2="236.84"/><polyline class="cls-1" points="248.41 221.33 248.93 221.59 222.38 236.84"/><line class="cls-1" x1="221.86" y1="252.09" x2="222.38" y2="252.35"/><line class="cls-1" x1="221.86" y1="236.58" x2="222.38" y2="236.84"/><line class="cls-1" x1="330.42" y1="189.79" x2="330.42" y2="174.54"/><polyline class="cls-1" points="353.55 160.61 354.08 160.87 330.42 174.54"/><line class="cls-1" x1="354.08" y1="176.12" x2="354.08" y2="160.87"/><line class="cls-1" x1="329.89" y1="189.53" x2="330.42" y2="189.79"/><line class="cls-1" x1="329.89" y1="174.28" x2="330.42" y2="174.54"/><line class="cls-1" x1="249.2" y1="236.58" x2="249.2" y2="221.33"/><polyline class="cls-1" points="275.48 205.82 276.01 206.09 249.2 221.33"/><line class="cls-1" x1="248.93" y1="236.32" x2="249.2" y2="236.58"/><line class="cls-1" x1="248.93" y1="221.07" x2="249.2" y2="221.33"/><line class="cls-1" x1="303.35" y1="205.56" x2="303.35" y2="190.05"/><polyline class="cls-1" points="329.63 174.54 329.89 174.81 303.35 190.05"/><line class="cls-1" x1="302.82" y1="205.3" x2="303.35" y2="205.56"/><line class="cls-1" x1="302.82" y1="189.79" x2="303.35" y2="190.05"/><line class="cls-1" x1="330.42" y1="221.6" x2="330.42" y2="206.09"/><polyline class="cls-1" points="353.55 192.42 354.08 192.42 330.42 206.09"/><polyline class="cls-1" points="330.42 221.59 354.08 207.93 354.08 192.42"/><line class="cls-1" x1="329.89" y1="221.33" x2="330.42" y2="221.6"/><line class="cls-1" x1="329.89" y1="206.09" x2="330.42" y2="206.09"/><line class="cls-1" x1="141.16" y1="330.68" x2="141.16" y2="315.44"/><polyline class="cls-1" points="167.44 299.67 167.97 299.93 141.16 315.44"/><line class="cls-1" x1="138" y1="328.84" x2="138" y2="313.6"/><polyline class="cls-1" points="167.97 315.44 141.16 330.68 138 328.84"/><polyline class="cls-1" points="141.16 315.44 138 313.6 138.27 313.33"/><line class="cls-1" x1="303.35" y1="237.1" x2="303.35" y2="221.86"/><polyline class="cls-1" points="329.63 206.09 329.89 206.35 303.35 221.86"/><polyline class="cls-1" points="329.89 221.86 303.35 237.1 302.82 236.84"/><line class="cls-1" x1="302.82" y1="221.6" x2="303.35" y2="221.86"/><line class="cls-1" x1="269.96" y1="54.68" x2="269.96" y2="54.41"/><line class="cls-1" x1="270.22" y1="53.89" x2="270.22" y2="54.15"/><line class="cls-1" x1="269.7" y1="51.52" x2="269.96" y2="52.05"/><polyline class="cls-1" points="269.96 52.57 270.23 52.31 269.96 52.05"/><line class="cls-1" x1="269.7" y1="53.1" x2="269.96" y2="53.36"/><line class="cls-1" x1="57.83" y1="184.01" x2="57.57" y2="184.01"/><line class="cls-1" x1="269.96" y1="54.68" x2="270.49" y2="55.47"/><line class="cls-1" x1="270.75" y1="57.57" x2="271.01" y2="57.83"/><polyline class="cls-1" points="56.78 183.22 57.3 183.74 57.57 184.01"/><line class="cls-1" x1="270.75" y1="59.41" x2="270.75" y2="59.14"/><polyline class="cls-1" points="57.83 184 57.83 183.74 57.57 183.48 57.57 183.22 57.83 183.22"/><polyline class="cls-1" points="58.09 183.22 58.09 182.95 57.83 182.69 57.83 182.43 58.09 182.16 57.57 181.11 58.09 180.85 58.09 180.59 57.83 179.27 57.57 178.22 57.3 177.7 57.3 177.43 57.57 176.91 57.3 176.65 57.04 176.12 57.04 175.59 57.3 175.59 57.3 175.07 57.04 174.81 56.78 174.28 56.25 173.75"/><polyline class="cls-1" points="56.25 182.69 56.52 182.95 56.78 183.22"/><polyline class="cls-1" points="270.49 55.47 270.49 56.52 270.75 57.57"/><line class="cls-1" x1="271.01" y1="57.83" x2="270.75" y2="57.83"/><line class="cls-1" x1="269.96" y1="53.36" x2="270.22" y2="53.89"/><line class="cls-1" x1="270.49" y1="58.09" x2="270.75" y2="59.41"/><line class="cls-1" x1="268.91" y1="50.73" x2="269.7" y2="51.52"/><polyline class="cls-1" points="269.96 52.57 269.96 52.84 269.7 52.84 269.7 53.1"/><line class="cls-1" x1="270.22" y1="54.15" x2="269.96" y2="54.68"/><polyline class="cls-1" points="270.75 59.67 271.01 60.2 271.01 60.46"/><polyline class="cls-1" points="270.49 60.72 270.75 60.98 270.49 60.98 270.49 61.25"/><line class="cls-1" x1="57.83" y1="183.22" x2="57.83" y2="182.95"/><line class="cls-1" x1="269.96" y1="117.24" x2="269.96" y2="116.98"/><line class="cls-1" x1="270.22" y1="116.45" x2="270.22" y2="116.71"/><line class="cls-1" x1="269.7" y1="114.35" x2="269.96" y2="114.87"/><polyline class="cls-1" points="269.96 115.14 270.23 115.14 269.96 114.87"/><line class="cls-1" x1="269.7" y1="115.66" x2="269.96" y2="116.19"/><line class="cls-1" x1="57.83" y1="246.83" x2="57.57" y2="246.57"/><polyline class="cls-1" points="269.96 117.24 269.96 117.5 270.49 118.29"/><line class="cls-1" x1="270.75" y1="120.39" x2="271.01" y2="120.39"/><polyline class="cls-1" points="56.78 246.04 57.3 246.3 57.57 246.57"/><line class="cls-1" x1="270.75" y1="121.97" x2="270.75" y2="122.23"/><polyline class="cls-1" points="57.83 246.83 57.83 246.57 57.57 246.3 57.57 246.04 57.83 246.04 57.83 245.78"/><polyline class="cls-1" points="58.09 246.04 58.09 245.52 57.83 245.25 57.83 244.99 58.09 244.99 58.09 244.73 57.57 243.68 58.09 243.41 58.09 243.15 57.57 241.05 57.3 240.26 57.57 239.73 57.3 239.47 57.04 238.94 57.04 238.42 57.3 238.16 57.3 237.89 57.04 237.63 56.78 237.1 56.25 236.31"/><polyline class="cls-1" points="56.25 245.52 56.52 245.78 56.78 246.04"/><polyline class="cls-1" points="270.49 118.29 270.49 119.08 270.75 120.39"/><line class="cls-1" x1="271.01" y1="120.39" x2="270.75" y2="120.66"/><line class="cls-1" x1="269.96" y1="116.19" x2="270.22" y2="116.45"/><line class="cls-1" x1="270.49" y1="120.92" x2="270.75" y2="121.97"/><line class="cls-1" x1="268.91" y1="113.56" x2="269.7" y2="114.35"/><polyline class="cls-1" points="269.96 115.14 269.96 115.4 269.7 115.66"/><line class="cls-1" x1="270.22" y1="116.71" x2="269.96" y2="117.24"/><polyline class="cls-1" points="270.75 122.23 270.75 122.5 271.01 122.76 271.01 123.02"/><polyline class="cls-1" points="270.49 123.55 270.75 123.81 270.49 123.81"/><line class="cls-1" x1="57.83" y1="246.04" x2="57.83" y2="245.78"/><line class="cls-1" x1="57.83" y1="246.83" x2="270.49" y2="123.81"/><line class="cls-1" x1="56.25" y1="236.32" x2="268.91" y2="113.56"/><line class="cls-1" x1="222.38" y1="283.89" x2="222.38" y2="268.65"/><polyline class="cls-1" points="248.41 252.88 248.93 253.14 222.38 268.65"/><polyline class="cls-1" points="248.93 268.65 222.38 283.89 221.86 283.63"/><line class="cls-1" x1="221.86" y1="268.38" x2="222.38" y2="268.65"/><line class="cls-1" x1="276.27" y1="252.88" x2="276.27" y2="237.37"/><polyline class="cls-1" points="302.56 221.86 302.82 222.12 276.27 237.37"/><polyline class="cls-1" points="302.82 237.37 276.27 252.88 276.01 252.61"/><line class="cls-1" x1="276.01" y1="237.1" x2="276.27" y2="237.37"/><line class="cls-1" x1="168.23" y1="315.17" x2="168.23" y2="299.67"/><polyline class="cls-1" points="194.52 284.16 194.78 284.42 168.23 299.67"/><polyline class="cls-1" points="194.78 299.67 168.23 315.17 167.97 314.91"/><line class="cls-1" x1="167.97" y1="299.66" x2="168.23" y2="299.66"/><line class="cls-1" x1="195.31" y1="299.66" x2="195.31" y2="284.16"/><polyline class="cls-1" points="221.59 268.65 221.86 268.91 195.31 284.16"/><polyline class="cls-1" points="221.86 284.16 195.31 299.67 194.78 299.4"/><line class="cls-1" x1="194.78" y1="283.89" x2="195.31" y2="284.16"/><line class="cls-1" x1="249.19" y1="268.38" x2="249.19" y2="252.88"/><polyline class="cls-1" points="275.48 237.37 276.01 237.63 249.19 252.88"/><polyline class="cls-1" points="276.01 252.88 249.19 268.38 248.93 268.12"/><line class="cls-1" x1="248.93" y1="252.87" x2="249.19" y2="252.87"/><line class="cls-1" x1="141.16" y1="235.79" x2="141.16" y2="220.28"/><polyline class="cls-1" points="167.44 204.77 167.97 205.03 141.16 220.28 138 218.44 138.27 218.18"/><line class="cls-1" x1="195.31" y1="204.51" x2="195.31" y2="189.26"/><polyline class="cls-1" points="221.59 173.49 221.86 173.75 195.31 189.26"/><line class="cls-1" x1="194.78" y1="204.24" x2="195.31" y2="204.51"/><line class="cls-1" x1="194.78" y1="189" x2="195.31" y2="189.26"/><line class="cls-1" x1="168.23" y1="220.02" x2="168.23" y2="204.77"/><polyline class="cls-1" points="194.52 189.26 194.78 189.53 168.23 204.77"/><line class="cls-1" x1="167.97" y1="220.02" x2="168.23" y2="220.02"/><line class="cls-1" x1="167.97" y1="204.51" x2="168.23" y2="204.77"/><line class="cls-1" x1="276.27" y1="157.72" x2="276.27" y2="142.47"/><polyline class="cls-1" points="302.56 126.7 302.82 126.96 276.27 142.47"/><line class="cls-1" x1="276.01" y1="157.46" x2="276.27" y2="157.72"/><line class="cls-1" x1="276.01" y1="142.21" x2="276.27" y2="142.47"/><line class="cls-1" x1="222.38" y1="189" x2="222.38" y2="173.49"/><polyline class="cls-1" points="248.41 157.98 248.93 158.24 222.38 173.49"/><line class="cls-1" x1="221.86" y1="188.74" x2="222.38" y2="189"/><line class="cls-1" x1="221.86" y1="173.23" x2="222.38" y2="173.49"/><line class="cls-1" x1="330.42" y1="126.44" x2="330.42" y2="111.19"/><polyline class="cls-1" points="353.55 97.26 354.08 97.52 330.42 111.19"/><line class="cls-1" x1="354.08" y1="112.77" x2="354.08" y2="97.52"/><line class="cls-1" x1="329.89" y1="126.44" x2="330.42" y2="126.44"/><line class="cls-1" x1="329.89" y1="110.93" x2="330.42" y2="111.19"/><line class="cls-1" x1="249.19" y1="173.23" x2="249.19" y2="157.98"/><polyline class="cls-1" points="275.48 142.47 276.01 142.74 249.19 157.98"/><line class="cls-1" x1="248.93" y1="173.23" x2="249.19" y2="173.23"/><line class="cls-1" x1="248.93" y1="157.72" x2="249.19" y2="157.98"/><line class="cls-1" x1="303.34" y1="142.21" x2="303.34" y2="126.7"/><polyline class="cls-1" points="329.63 111.19 329.89 111.45 303.34 126.7"/><line class="cls-1" x1="302.82" y1="141.95" x2="303.34" y2="142.21"/><line class="cls-1" x1="302.82" y1="126.44" x2="303.34" y2="126.7"/><line class="cls-1" x1="269.96" y1="70.18" x2="269.96" y2="69.92"/><line class="cls-1" x1="270.22" y1="69.4" x2="270.22" y2="69.66"/><line class="cls-1" x1="269.7" y1="67.29" x2="269.96" y2="67.82"/><polyline class="cls-1" points="269.96 68.08 270.22 68.08 269.96 67.82"/><line class="cls-1" x1="269.7" y1="68.87" x2="269.96" y2="69.13"/><line class="cls-1" x1="57.83" y1="199.78" x2="57.57" y2="199.51"/><polyline class="cls-1" points="269.96 70.19 269.96 70.45 270.49 71.24"/><line class="cls-1" x1="270.75" y1="73.34" x2="271.01" y2="73.34"/><polyline class="cls-1" points="56.78 198.99 57.3 199.25 57.57 199.51"/><line class="cls-1" x1="270.75" y1="74.92" x2="270.75" y2="75.18"/><polyline class="cls-1" points="57.83 199.78 57.83 199.51 57.57 199.25 57.57 198.99 57.83 198.99"/><polyline class="cls-1" points="58.09 198.99 58.09 198.72 57.83 198.2 57.83 197.94 58.09 197.94 57.57 196.62 58.09 196.36 58.09 196.1 57.83 195.04 57.57 193.99 57.3 193.21 57.57 192.68 57.3 192.42 57.04 191.89 57.04 191.37 57.3 191.1 57.3 190.84 57.04 190.58 56.78 190.05 56.25 189.26"/><polyline class="cls-1" points="56.25 198.46 56.52 198.73 56.78 198.99"/><polyline class="cls-1" points="270.49 71.24 270.49 72.03 270.75 73.34"/><line class="cls-1" x1="271.01" y1="73.34" x2="270.75" y2="73.6"/><line class="cls-1" x1="269.96" y1="69.13" x2="270.22" y2="69.4"/><line class="cls-1" x1="270.49" y1="73.86" x2="270.75" y2="74.92"/><line class="cls-1" x1="268.91" y1="66.5" x2="269.7" y2="67.29"/><polyline class="cls-1" points="269.96 68.08 269.96 68.34 269.7 68.61 269.7 68.87"/><line class="cls-1" x1="270.22" y1="69.66" x2="269.96" y2="70.18"/><polyline class="cls-1" points="270.75 75.18 270.75 75.44 271.01 75.7 271.01 75.97"/><polyline class="cls-1" points="270.49 76.49 270.75 76.76 270.49 76.76"/><line class="cls-1" x1="57.83" y1="198.99" x2="57.83" y2="198.73"/><line class="cls-1" x1="316.75" y1="181.9" x2="316.75" y2="166.39"/><polyline class="cls-1" points="343.04 150.88 343.56 151.15 316.75 166.39"/><line class="cls-1" x1="316.49" y1="181.64" x2="316.75" y2="181.9"/><line class="cls-1" x1="316.49" y1="166.13" x2="316.75" y2="166.39"/><line class="cls-1" x1="262.86" y1="212.92" x2="262.86" y2="197.67"/><polyline class="cls-1" points="288.89 182.16 289.41 182.43 262.86 197.67"/><line class="cls-1" x1="262.34" y1="212.92" x2="262.86" y2="212.92"/><line class="cls-1" x1="262.34" y1="197.41" x2="262.86" y2="197.67"/><line class="cls-1" x1="235.79" y1="228.69" x2="235.79" y2="213.18"/><polyline class="cls-1" points="262.07 197.67 262.34 197.94 235.79 213.18"/><line class="cls-1" x1="235.26" y1="228.43" x2="235.79" y2="228.69"/><line class="cls-1" x1="235.26" y1="212.92" x2="235.79" y2="213.18"/><line class="cls-1" x1="208.71" y1="244.2" x2="208.71" y2="228.95"/><polyline class="cls-1" points="235 213.18 235.26 213.45 208.71 228.96"/><line class="cls-1" x1="208.45" y1="243.94" x2="208.71" y2="244.2"/><line class="cls-1" x1="208.45" y1="228.69" x2="208.71" y2="228.96"/><line class="cls-1" x1="181.9" y1="259.71" x2="181.9" y2="244.46"/><polyline class="cls-1" points="207.92 228.96 208.45 229.22 181.9 244.46"/><line class="cls-1" x1="181.38" y1="259.71" x2="181.9" y2="259.71"/><line class="cls-1" x1="181.38" y1="244.2" x2="181.9" y2="244.46"/><line class="cls-1" x1="289.94" y1="197.41" x2="289.94" y2="182.17"/><polyline class="cls-1" points="315.96 166.39 316.49 166.66 289.94 182.16"/><line class="cls-1" x1="289.41" y1="197.15" x2="289.94" y2="197.41"/><line class="cls-1" x1="289.41" y1="181.9" x2="289.94" y2="182.17"/><line class="cls-1" x1="343.83" y1="166.13" x2="343.83" y2="150.88"/><polyline class="cls-1" points="353.55 144.84 354.08 145.1 343.82 150.88"/><line class="cls-1" x1="354.08" y1="160.35" x2="354.08" y2="145.1"/><line class="cls-1" x1="343.56" y1="166.13" x2="343.83" y2="166.13"/><line class="cls-1" x1="343.56" y1="150.62" x2="343.83" y2="150.89"/><line class="cls-1" x1="141.16" y1="283.11" x2="141.16" y2="267.86"/><polyline class="cls-1" points="154.04 259.97 154.3 260.24 141.16 267.86"/><line class="cls-1" x1="138" y1="281.27" x2="138" y2="266.02"/><line class="cls-1" x1="141.16" y1="283.11" x2="154.3" y2="275.75"/><polyline class="cls-1" points="141.16 267.86 138 266.02 138.26 265.76"/><line class="cls-1" x1="154.82" y1="275.48" x2="154.82" y2="259.97"/><polyline class="cls-1" points="180.85 244.46 181.37 244.73 154.82 259.97"/><line class="cls-1" x1="154.3" y1="275.22" x2="154.82" y2="275.48"/><line class="cls-1" x1="154.3" y1="259.71" x2="154.82" y2="259.97"/><polyline class="cls-1" points="316.75 118.55 316.75 103.04 343.56 87.8"/><line class="cls-1" x1="313.59" y1="101.73" x2="313.59" y2="101.2"/><line class="cls-1" x1="316.49" y1="118.29" x2="316.75" y2="118.55"/><polyline class="cls-1" points="316.75 103.04 313.6 101.2 340.14 85.96"/><polyline class="cls-1" points="262.86 149.83 262.86 134.32 289.41 119.08"/><line class="cls-1" x1="259.44" y1="133.01" x2="259.44" y2="132.48"/><line class="cls-1" x1="262.34" y1="149.57" x2="262.86" y2="149.83"/><polyline class="cls-1" points="262.86 134.32 259.44 132.49 285.99 116.98"/><polyline class="cls-1" points="235.79 165.34 235.79 149.83 262.34 134.59"/><line class="cls-1" x1="232.37" y1="148.52" x2="232.37" y2="147.99"/><line class="cls-1" x1="235.26" y1="165.08" x2="235.79" y2="165.34"/><polyline class="cls-1" points="235.79 149.83 232.37 147.99 259.18 132.75"/><polyline class="cls-1" points="208.71 180.85 208.71 165.61 235.26 150.1"/><line class="cls-1" x1="205.56" y1="164.03" x2="205.56" y2="163.5"/><line class="cls-1" x1="208.45" y1="180.59" x2="208.72" y2="180.85"/><polyline class="cls-1" points="208.72 165.6 205.56 163.5 232.11 148.25"/><polyline class="cls-1" points="181.9 196.62 181.9 181.11 208.45 165.87"/><line class="cls-1" x1="178.49" y1="179.8" x2="178.49" y2="179.27"/><line class="cls-1" x1="181.38" y1="196.36" x2="181.9" y2="196.62"/><polyline class="cls-1" points="181.9 181.11 178.49 179.27 205.03 163.76"/><polyline class="cls-1" points="289.94 134.06 289.94 118.81 316.49 103.31"/><line class="cls-1" x1="286.52" y1="117.24" x2="286.52" y2="116.71"/><line class="cls-1" x1="289.41" y1="133.8" x2="289.94" y2="134.06"/><polyline class="cls-1" points="289.94 118.81 286.52 116.71 313.07 101.47"/><line class="cls-1" x1="343.83" y1="103.04" x2="343.83" y2="87.53"/><polyline class="cls-1" points="350.66 79.65 354.08 81.75 343.83 87.53"/><line class="cls-1" x1="340.67" y1="86.22" x2="340.67" y2="85.69"/><line class="cls-1" x1="354.08" y1="97" x2="354.08" y2="81.75"/><line class="cls-1" x1="343.56" y1="102.78" x2="343.83" y2="103.04"/><polyline class="cls-1" points="343.83 87.53 340.67 85.69 350.66 79.65"/><polyline class="cls-1" points="141.16 220.02 141.16 204.51 154.3 196.88"/><line class="cls-1" x1="141.16" y1="220.02" x2="154.3" y2="212.39"/><polyline class="cls-1" points="141.16 204.51 138 202.67 151.15 195.04"/><polyline class="cls-1" points="154.83 212.13 154.83 196.62 181.38 181.38"/><line class="cls-1" x1="151.41" y1="195.31" x2="151.41" y2="194.78"/><line class="cls-1" x1="154.3" y1="211.87" x2="154.83" y2="212.13"/><polyline class="cls-1" points="154.83 196.62 151.41 194.78 177.96 179.54"/><line class="cls-1" x1="316.75" y1="213.45" x2="316.75" y2="198.2"/><polyline class="cls-1" points="343.04 182.69 343.56 182.69 316.75 198.2"/><line class="cls-1" x1="316.49" y1="213.18" x2="316.75" y2="213.45"/><line class="cls-1" x1="316.49" y1="197.94" x2="316.75" y2="198.2"/><line class="cls-1" x1="262.86" y1="244.73" x2="262.86" y2="229.48"/><polyline class="cls-1" points="288.89 213.71 289.41 213.97 262.87 229.48"/><line class="cls-1" x1="262.34" y1="244.46" x2="262.86" y2="244.73"/><line class="cls-1" x1="262.34" y1="229.22" x2="262.86" y2="229.48"/><line class="cls-1" x1="235.79" y1="260.24" x2="235.79" y2="244.99"/><polyline class="cls-1" points="262.08 229.48 262.34 229.48 235.79 244.99"/><line class="cls-1" x1="235.26" y1="259.97" x2="235.79" y2="260.24"/><line class="cls-1" x1="235.26" y1="244.73" x2="235.79" y2="244.99"/><line class="cls-1" x1="208.71" y1="276.01" x2="208.71" y2="260.5"/><polyline class="cls-1" points="235 244.99 235.26 245.25 208.71 260.5"/><line class="cls-1" x1="208.45" y1="275.74" x2="208.71" y2="276.01"/><line class="cls-1" x1="208.45" y1="260.24" x2="208.71" y2="260.5"/><line class="cls-1" x1="181.9" y1="291.52" x2="181.9" y2="276.27"/><polyline class="cls-1" points="207.93 260.5 208.45 260.76 181.9 276.27"/><line class="cls-1" x1="181.38" y1="291.25" x2="181.9" y2="291.52"/><line class="cls-1" x1="181.38" y1="276.01" x2="181.9" y2="276.27"/><line class="cls-1" x1="289.94" y1="229.22" x2="289.94" y2="213.71"/><polyline class="cls-1" points="315.96 198.2 316.49 198.46 289.94 213.71"/><line class="cls-1" x1="289.41" y1="228.95" x2="289.94" y2="229.22"/><line class="cls-1" x1="289.41" y1="213.45" x2="289.94" y2="213.71"/><line class="cls-1" x1="343.83" y1="197.94" x2="343.83" y2="182.69"/><polyline class="cls-1" points="353.55 176.38 354.08 176.65 343.83 182.69"/><line class="cls-1" x1="354.08" y1="192.15" x2="354.08" y2="176.65"/><line class="cls-1" x1="343.56" y1="197.67" x2="343.83" y2="197.94"/><line class="cls-1" x1="343.56" y1="182.43" x2="343.83" y2="182.69"/><line class="cls-1" x1="141.16" y1="314.91" x2="141.16" y2="299.67"/><polyline class="cls-1" points="154.04 291.78 154.3 292.04 141.16 299.67"/><line class="cls-1" x1="138" y1="313.07" x2="138" y2="297.56"/><line class="cls-1" x1="141.16" y1="314.91" x2="154.3" y2="307.29"/><polyline class="cls-1" points="141.16 299.67 138 297.56 138.27 297.3"/><line class="cls-1" x1="154.83" y1="307.03" x2="154.83" y2="291.78"/><polyline class="cls-1" points="180.85 276.27 181.38 276.27 154.83 291.78"/><line class="cls-1" x1="154.3" y1="306.76" x2="154.83" y2="307.03"/><line class="cls-1" x1="154.3" y1="291.52" x2="154.83" y2="291.78"/><line class="cls-1" x1="269.96" y1="38.9" x2="269.96" y2="38.64"/><line class="cls-1" x1="270.22" y1="38.12" x2="270.22" y2="38.38"/><line class="cls-1" x1="269.7" y1="35.75" x2="269.96" y2="36.28"/><polyline class="cls-1" points="269.96 36.8 270.22 36.54 269.96 36.28"/><line class="cls-1" x1="269.7" y1="37.33" x2="269.96" y2="37.59"/><line class="cls-1" x1="57.83" y1="168.23" x2="57.57" y2="168.23"/><polyline class="cls-1" points="269.96 38.9 269.96 39.17 270.49 39.69"/><line class="cls-1" x1="270.75" y1="42.06" x2="271.01" y2="42.06"/><polyline class="cls-1" points="56.78 167.71 57.3 167.97 57.57 168.23"/><line class="cls-1" x1="270.75" y1="43.64" x2="270.75" y2="43.9"/><polyline class="cls-1" points="57.83 168.23 57.57 167.97 57.57 167.44 57.83 167.71 57.83 167.44"/><polyline class="cls-1" points="58.09 167.44 58.09 167.18 57.83 166.92 57.83 166.66 58.09 166.66 58.09 166.39 57.57 165.34 58.09 165.08 58.09 164.82 57.57 162.71 57.3 161.93 57.3 161.66 57.57 161.4 57.3 160.87 57.04 160.61 57.04 160.08 57.3 159.82 57.3 159.56 57.04 159.3 56.78 158.77 56.25 157.98"/><polyline class="cls-1" points="56.25 167.18 56.52 167.44 56.78 167.71"/><polyline class="cls-1" points="270.49 39.69 270.49 40.74 270.75 42.06"/><line class="cls-1" x1="271.01" y1="42.06" x2="270.75" y2="42.32"/><line class="cls-1" x1="269.96" y1="37.59" x2="270.22" y2="38.12"/><line class="cls-1" x1="270.49" y1="42.58" x2="270.75" y2="43.64"/><line class="cls-1" x1="268.91" y1="35.22" x2="269.7" y2="35.75"/><polyline class="cls-1" points="269.96 36.8 269.96 37.06 269.7 37.33"/><line class="cls-1" x1="270.22" y1="38.38" x2="269.96" y2="38.9"/><polyline class="cls-1" points="270.75 43.9 270.75 44.16 271.01 44.42 271.01 44.69"/><polyline class="cls-1" points="270.49 45.21 270.75 45.21 270.49 45.48"/><line class="cls-1" x1="57.83" y1="167.71" x2="57.83" y2="167.44"/><line class="cls-1" x1="57.83" y1="278.11" x2="57.57" y2="278.11"/><polyline class="cls-1" points="56.78 277.32 57.3 277.85 57.57 278.11"/><polyline class="cls-1" points="57.83 278.11 57.83 277.85 57.57 277.58 57.57 277.32 57.83 277.32"/><path class="cls-1" d="M85.08,307.77v-.27l-.26-.52.26-.26-.52-1.06.52-.26v-.26c.1-.6-.73-2.66-.79-3.16l.27-.52-.27-.26-.26-.53v-.53h.26v-.52l-.26-.26-.26-.53-.53-.53" transform="translate(-26.99 -30.45)"/><polyline class="cls-1" points="56.25 276.8 56.52 277.06 56.78 277.32"/><line class="cls-1" x1="58.09" y1="274.96" x2="138" y2="228.69"/><line class="cls-1" x1="57.83" y1="276.53" x2="138" y2="230.27"/><line class="cls-1" x1="58.09" y1="277.32" x2="138" y2="231.32"/><line class="cls-1" x1="57.83" y1="277.32" x2="57.83" y2="277.06"/><line class="cls-1" x1="58.09" y1="277.58" x2="138" y2="231.32"/><line class="cls-1" x1="57.83" y1="278.11" x2="138" y2="231.85"/><line class="cls-1" x1="56.25" y1="267.86" x2="138" y2="220.54"/><line class="cls-1" x1="269.96" y1="101.73" x2="269.96" y2="101.47"/><line class="cls-1" x1="270.22" y1="100.94" x2="270.22" y2="101.2"/><line class="cls-1" x1="269.7" y1="98.57" x2="269.96" y2="99.1"/><polyline class="cls-1" points="269.96 99.63 270.22 99.36 269.96 99.1"/><line class="cls-1" x1="269.7" y1="100.15" x2="269.96" y2="100.41"/><line class="cls-1" x1="57.83" y1="231.06" x2="57.57" y2="231.06"/><line class="cls-1" x1="269.96" y1="101.73" x2="270.49" y2="102.52"/><line class="cls-1" x1="270.75" y1="104.62" x2="271.01" y2="104.88"/><polyline class="cls-1" points="56.78 230.27 57.3 230.79 57.57 231.06"/><line class="cls-1" x1="270.75" y1="106.2" x2="270.75" y2="106.46"/><polyline class="cls-1" points="57.83 231.06 57.83 230.79 57.57 230.53 57.57 230.27 57.83 230.27"/><polyline class="cls-1" points="58.09 230.27 58.09 230.01 57.83 229.48 58.09 229.22 57.57 228.17 58.09 227.9 58.09 227.64 57.83 226.33 57.57 225.28 57.3 224.75 57.3 224.49 57.57 223.96 57.3 223.7 57.04 223.17 57.04 222.65 57.3 222.65 57.3 222.12 57.04 221.86 56.78 221.33 56.25 220.81"/><polyline class="cls-1" points="56.25 229.74 56.52 230.01 56.78 230.27"/><polyline class="cls-1" points="270.49 102.52 270.49 103.57 270.75 104.62"/><line class="cls-1" x1="271.01" y1="104.88" x2="270.75" y2="104.88"/><line class="cls-1" x1="269.96" y1="100.41" x2="270.22" y2="100.94"/><line class="cls-1" x1="270.49" y1="105.15" x2="270.75" y2="106.2"/><line class="cls-1" x1="268.91" y1="97.79" x2="269.7" y2="98.57"/><polyline class="cls-1" points="269.96 99.63 269.96 99.89 269.7 99.89 269.7 100.15"/><line class="cls-1" x1="270.22" y1="101.2" x2="269.96" y2="101.73"/><polyline class="cls-1" points="270.75 106.46 270.75 106.72 271.01 106.99 271.01 107.51"/><polyline class="cls-1" points="270.49 107.77 270.75 108.04 270.49 108.04 270.49 108.3"/><line class="cls-1" x1="57.83" y1="230.27" x2="57.83" y2="230.01"/><line class="cls-1" x1="57.83" y1="231.06" x2="270.49" y2="108.3"/><line class="cls-1" x1="56.25" y1="220.81" x2="268.91" y2="97.79"/><line class="cls-1" x1="141.16" y1="267.33" x2="154.04" y2="259.97"/><line class="cls-1" x1="167.97" y1="252.09" x2="167.97" y2="236.58"/><polyline class="cls-1" points="138 265.49 138.27 265.75 141.16 267.33"/><line class="cls-1" x1="195.31" y1="236.31" x2="207.93" y2="228.95"/><line class="cls-1" x1="221.86" y1="220.8" x2="221.86" y2="205.56"/><line class="cls-1" x1="168.23" y1="251.82" x2="180.85" y2="244.46"/><line class="cls-1" x1="194.78" y1="236.31" x2="194.78" y2="221.07"/><line class="cls-1" x1="276.27" y1="189.52" x2="288.89" y2="182.16"/><line class="cls-1" x1="302.82" y1="174.01" x2="302.82" y2="158.77"/><line class="cls-1" x1="222.38" y1="220.54" x2="235" y2="213.18"/><line class="cls-1" x1="248.93" y1="205.3" x2="248.93" y2="189.79"/><line class="cls-1" x1="330.42" y1="158.24" x2="343.04" y2="150.88"/><line class="cls-1" x1="249.2" y1="205.03" x2="262.08" y2="197.67"/><line class="cls-1" x1="276.01" y1="189.52" x2="276.01" y2="174.28"/><line class="cls-1" x1="303.35" y1="173.75" x2="315.96" y2="166.39"/><line class="cls-1" x1="329.9" y1="158.51" x2="329.9" y2="143"/><line class="cls-1" x1="316.75" y1="150.09" x2="329.63" y2="142.73"/><line class="cls-1" x1="343.56" y1="134.85" x2="343.56" y2="119.34"/><line class="cls-1" x1="262.87" y1="181.38" x2="275.48" y2="174.02"/><line class="cls-1" x1="289.41" y1="166.13" x2="289.41" y2="150.62"/><line class="cls-1" x1="235.79" y1="196.88" x2="248.41" y2="189.52"/><line class="cls-1" x1="262.34" y1="181.64" x2="262.34" y2="166.13"/><line class="cls-1" x1="208.72" y1="212.66" x2="221.6" y2="205.3"/><line class="cls-1" x1="235.26" y1="197.15" x2="235.26" y2="181.9"/><line class="cls-1" x1="181.9" y1="228.17" x2="194.52" y2="220.81"/><line class="cls-1" x1="208.45" y1="212.92" x2="208.45" y2="197.41"/><line class="cls-1" x1="289.94" y1="165.87" x2="302.56" y2="158.51"/><line class="cls-1" x1="316.49" y1="150.36" x2="316.49" y2="135.11"/><polyline class="cls-1" points="343.83 134.59 353.55 129.07 354.08 128.8"/><line class="cls-1" x1="154.3" y1="243.94" x2="154.3" y2="228.69"/><polyline class="cls-1" points="138 249.72 138.27 249.98 141.16 251.56"/><line class="cls-1" x1="154.83" y1="243.68" x2="167.45" y2="236.32"/><line class="cls-1" x1="181.38" y1="228.43" x2="181.38" y2="212.92"/><line class="cls-1" x1="58.09" y1="261.81" x2="57.83" y2="261.55"/><line class="cls-1" x1="58.09" y1="214.76" x2="57.83" y2="214.5"/><polyline class="cls-1" points="58.09 212.13 270.49 89.64 270.75 89.37"/><line class="cls-1" x1="57.83" y1="213.71" x2="270.75" y2="90.95"/><polyline class="cls-1" points="58.09 214.5 270.75 91.74 271.01 91.74"/><polyline class="cls-1" points="58.09 214.76 270.49 92 270.75 92"/><polyline class="cls-1" points="57.83 215.29 215.81 124.07 270.49 92.53"/><polyline class="cls-1" points="56.25 205.03 215.81 113.03 268.91 82.28"/><line class="cls-1" x1="141.16" y1="299.14" x2="154.04" y2="291.78"/><line class="cls-1" x1="167.97" y1="283.63" x2="167.97" y2="268.38"/><polyline class="cls-1" points="138 297.04 138.27 297.3 141.16 299.14"/><line class="cls-1" x1="195.31" y1="267.86" x2="207.93" y2="260.5"/><line class="cls-1" x1="221.86" y1="252.61" x2="221.86" y2="237.1"/><line class="cls-1" x1="168.23" y1="283.37" x2="180.85" y2="276.27"/><line class="cls-1" x1="194.78" y1="268.12" x2="194.78" y2="252.88"/><line class="cls-1" x1="276.27" y1="221.07" x2="288.89" y2="213.71"/><line class="cls-1" x1="302.82" y1="205.82" x2="302.82" y2="190.31"/><line class="cls-1" x1="222.38" y1="252.35" x2="235" y2="244.99"/><line class="cls-1" x1="248.93" y1="236.84" x2="248.93" y2="221.6"/><line class="cls-1" x1="330.42" y1="189.79" x2="343.04" y2="182.69"/><line class="cls-1" x1="249.2" y1="236.58" x2="262.08" y2="229.48"/><line class="cls-1" x1="276.01" y1="221.33" x2="276.01" y2="206.09"/><line class="cls-1" x1="303.35" y1="205.56" x2="315.96" y2="198.2"/><line class="cls-1" x1="329.9" y1="190.05" x2="329.9" y2="174.81"/><line class="cls-1" x1="167.97" y1="315.44" x2="167.97" y2="299.93"/><line class="cls-1" x1="329.9" y1="221.86" x2="329.9" y2="206.35"/><line class="cls-1" x1="58.09" y1="183.48" x2="57.83" y2="183.22"/><polyline class="cls-1" points="58.09 180.85 270.49 58.09 270.75 57.83"/><polyline class="cls-1" points="57.83 182.43 270.75 59.67 270.75 59.41"/><polyline class="cls-1" points="58.09 183.22 270.75 60.46 271.01 60.46"/><polyline class="cls-1" points="58.09 183.48 270.49 60.72 270.75 60.46"/><polyline class="cls-1" points="57.83 184.01 215.81 92.79 270.49 61.25"/><polyline class="cls-1" points="56.25 173.75 215.81 81.49 268.91 50.73"/><polyline class="cls-1" points="58.09 246.04 57.83 246.04 57.83 245.78"/><polyline class="cls-1" points="58.09 243.41 270.49 120.92 270.75 120.66"/><line class="cls-1" x1="57.83" y1="244.99" x2="270.75" y2="122.23"/><polyline class="cls-1" points="58.09 246.04 270.75 123.02 271.01 123.02"/><polyline class="cls-1" points="58.09 246.04 270.49 123.55 270.75 123.28"/><line class="cls-1" x1="248.93" y1="268.65" x2="248.93" y2="253.14"/><line class="cls-1" x1="302.82" y1="237.37" x2="302.82" y2="222.12"/><line class="cls-1" x1="194.78" y1="299.67" x2="194.78" y2="284.42"/><line class="cls-1" x1="221.86" y1="284.16" x2="221.86" y2="268.91"/><line class="cls-1" x1="276.01" y1="252.88" x2="276.01" y2="237.63"/><line class="cls-1" x1="141.16" y1="235.79" x2="154.04" y2="228.43"/><line class="cls-1" x1="167.97" y1="220.28" x2="167.97" y2="205.03"/><polyline class="cls-1" points="138 233.69 138.27 233.95 141.16 235.79"/><line class="cls-1" x1="195.31" y1="204.51" x2="207.93" y2="197.15"/><line class="cls-1" x1="221.86" y1="189.26" x2="221.86" y2="173.75"/><line class="cls-1" x1="168.23" y1="220.02" x2="180.85" y2="212.92"/><line class="cls-1" x1="194.78" y1="204.77" x2="194.78" y2="189.53"/><line class="cls-1" x1="276.27" y1="157.72" x2="288.89" y2="150.36"/><line class="cls-1" x1="302.82" y1="142.47" x2="302.82" y2="126.96"/><line class="cls-1" x1="222.38" y1="189" x2="235" y2="181.64"/><line class="cls-1" x1="248.93" y1="173.49" x2="248.93" y2="158.25"/><line class="cls-1" x1="330.42" y1="126.44" x2="343.04" y2="119.34"/><line class="cls-1" x1="249.2" y1="173.23" x2="262.08" y2="166.13"/><line class="cls-1" x1="276.01" y1="157.98" x2="276.01" y2="142.74"/><line class="cls-1" x1="303.35" y1="142.21" x2="315.96" y2="134.85"/><line class="cls-1" x1="329.9" y1="126.7" x2="329.9" y2="111.46"/><line class="cls-1" x1="58.09" y1="198.99" x2="57.83" y2="198.99"/><polyline class="cls-1" points="58.09 196.36 270.49 73.87 270.75 73.6"/><line class="cls-1" x1="57.83" y1="197.94" x2="270.75" y2="75.18"/><polyline class="cls-1" points="58.09 198.99 270.75 75.97 271.01 75.97"/><polyline class="cls-1" points="58.09 198.99 270.49 76.5 270.75 76.23"/><polyline class="cls-1" points="57.83 199.78 215.81 108.56 270.49 76.76"/><polyline class="cls-1" points="56.25 189.26 215.81 97.26 268.91 66.51"/><polyline class="cls-1" points="329.9 174.28 343.56 166.4 343.56 151.15"/><polyline class="cls-1" points="276.01 205.56 289.42 197.68 289.42 182.43"/><line class="cls-1" x1="235.79" y1="228.69" x2="248.41" y2="221.33"/><line class="cls-1" x1="262.34" y1="213.18" x2="262.34" y2="197.94"/><line class="cls-1" x1="208.72" y1="244.2" x2="221.6" y2="236.84"/><line class="cls-1" x1="235.26" y1="228.96" x2="235.26" y2="213.45"/><polyline class="cls-1" points="194.78 252.35 208.45 244.47 208.45 229.22"/><line class="cls-1" x1="289.94" y1="197.41" x2="302.56" y2="190.05"/><line class="cls-1" x1="316.49" y1="182.17" x2="316.49" y2="166.66"/><polyline class="cls-1" points="343.83 166.13 353.55 160.61 354.08 160.35"/><line class="cls-1" x1="154.3" y1="275.75" x2="154.3" y2="260.24"/><polyline class="cls-1" points="138 281.27 138.27 281.53 141.16 283.11"/><line class="cls-1" x1="154.83" y1="275.48" x2="167.45" y2="268.12"/><line class="cls-1" x1="181.38" y1="259.98" x2="181.38" y2="244.73"/><polyline class="cls-1" points="343.56 87.8 340.67 86.22 340.15 85.96"/><polyline class="cls-1" points="329.9 110.93 343.56 103.05 343.56 87.8"/><polyline class="cls-1" points="289.42 119.08 286.52 117.24 286 116.98"/><polyline class="cls-1" points="276.01 142.21 289.42 134.33 289.42 119.08"/><polyline class="cls-1" points="262.34 134.59 259.45 133.01 259.19 132.75"/><line class="cls-1" x1="235.79" y1="165.34" x2="248.41" y2="157.98"/><line class="cls-1" x1="262.34" y1="149.84" x2="262.34" y2="134.59"/><polyline class="cls-1" points="235.26 150.1 232.37 148.52 232.11 148.26"/><line class="cls-1" x1="208.72" y1="180.85" x2="221.6" y2="173.49"/><line class="cls-1" x1="235.27" y1="165.61" x2="235.27" y2="150.1"/><polyline class="cls-1" points="208.45 165.87 205.56 164.03 205.04 163.77"/><polyline class="cls-1" points="194.78 189 208.45 181.12 208.45 165.87"/><polyline class="cls-1" points="316.49 103.31 313.6 101.73 313.07 101.47"/><line class="cls-1" x1="289.94" y1="134.06" x2="302.56" y2="126.7"/><line class="cls-1" x1="316.49" y1="118.82" x2="316.49" y2="103.31"/><polyline class="cls-1" points="343.83 103.05 353.55 97.26 354.08 97"/><polyline class="cls-1" points="154.3 196.89 151.41 195.31 151.15 195.05"/><line class="cls-1" x1="154.3" y1="212.4" x2="154.3" y2="196.89"/><polyline class="cls-1" points="138.01 217.92 138.27 218.18 141.16 220.02"/><polyline class="cls-1" points="181.38 181.38 178.49 179.8 177.96 179.54"/><line class="cls-1" x1="154.83" y1="212.13" x2="167.45" y2="204.77"/><line class="cls-1" x1="181.38" y1="196.63" x2="181.38" y2="181.38"/><polyline class="cls-1" points="329.9 206.09 343.57 198.2 343.57 182.69"/><line class="cls-1" x1="262.87" y1="244.73" x2="275.48" y2="237.37"/><line class="cls-1" x1="289.42" y1="229.48" x2="289.42" y2="213.98"/><line class="cls-1" x1="235.79" y1="260.24" x2="248.41" y2="252.88"/><line class="cls-1" x1="262.34" y1="244.99" x2="262.34" y2="229.48"/><line class="cls-1" x1="208.72" y1="276.01" x2="221.6" y2="268.65"/><line class="cls-1" x1="235.27" y1="260.5" x2="235.27" y2="245.26"/><line class="cls-1" x1="181.9" y1="291.52" x2="194.52" y2="284.16"/><line class="cls-1" x1="208.45" y1="276.27" x2="208.45" y2="260.77"/><line class="cls-1" x1="289.94" y1="229.22" x2="302.56" y2="221.86"/><line class="cls-1" x1="316.49" y1="213.71" x2="316.49" y2="198.47"/><polyline class="cls-1" points="343.83 197.94 353.55 192.42 354.08 192.16"/><line class="cls-1" x1="154.3" y1="307.29" x2="154.3" y2="292.05"/><polyline class="cls-1" points="138.01 313.08 138.27 313.34 141.16 314.92"/><line class="cls-1" x1="154.83" y1="307.03" x2="167.45" y2="299.67"/><line class="cls-1" x1="181.38" y1="291.78" x2="181.38" y2="276.27"/><line class="cls-1" x1="58.09" y1="167.71" x2="57.83" y2="167.45"/><polyline class="cls-1" points="58.09 165.08 270.49 42.59 270.75 42.33"/><line class="cls-1" x1="57.83" y1="166.66" x2="270.75" y2="43.9"/><polyline class="cls-1" points="58.09 167.45 270.75 44.69 271.01 44.69"/><polyline class="cls-1" points="58.09 167.71 270.49 45.22 270.75 44.95"/><polyline class="cls-1" points="57.83 168.24 215.81 77.02 270.49 45.48"/><polyline class="cls-1" points="56.26 157.99 215.81 65.98 268.91 35.23"/><line class="cls-1" x1="58.09" y1="277.59" x2="57.83" y2="277.33"/><line class="cls-1" x1="58.09" y1="230.54" x2="57.83" y2="230.27"/><polyline class="cls-1" points="58.09 227.91 270.49 105.15 270.75 104.89"/><line class="cls-1" x1="57.83" y1="229.48" x2="270.75" y2="106.46"/><polyline class="cls-1" points="58.09 230.27 270.75 107.52 271.01 107.52"/><polyline class="cls-1" points="58.09 230.54 270.49 107.78 270.75 107.52"/><polyline class="cls-1" points="154.04 259.97 154.3 259.71 167.97 252.09"/><polyline class="cls-1" points="207.93 228.95 208.45 228.69 221.86 220.8"/><polyline class="cls-1" points="180.85 244.46 181.38 244.2 194.78 236.31"/><polyline class="cls-1" points="288.89 182.16 289.41 181.9 302.82 174.01"/><polyline class="cls-1" points="235 213.18 235.26 212.92 248.93 205.29"/><line class="cls-1" x1="343.04" y1="150.88" x2="343.56" y2="150.62"/><polyline class="cls-1" points="262.08 197.67 262.34 197.41 276.01 189.52"/><polyline class="cls-1" points="315.96 166.39 316.49 166.13 329.9 158.5"/><polyline class="cls-1" points="329.63 142.73 329.9 142.73 343.56 134.85"/><polyline class="cls-1" points="275.48 174.01 276.01 173.75 289.41 166.13"/><polyline class="cls-1" points="248.41 189.52 248.93 189.52 262.34 181.64"/><polyline class="cls-1" points="221.59 205.29 221.86 205.03 235.26 197.15"/><polyline class="cls-1" points="194.52 220.8 194.78 220.54 208.45 212.92"/><polyline class="cls-1" points="302.56 158.5 302.82 158.24 316.49 150.36"/><polyline class="cls-1" points="167.44 236.31 167.97 236.31 181.38 228.43"/><polyline class="cls-1" points="154.04 291.78 154.3 291.51 167.97 283.63"/><polyline class="cls-1" points="207.93 260.5 208.45 260.23 221.86 252.61"/><polyline class="cls-1" points="180.85 276.27 181.38 276 194.78 268.12"/><polyline class="cls-1" points="288.89 213.71 289.41 213.44 302.82 205.82"/><polyline class="cls-1" points="235 244.99 235.26 244.72 248.93 236.84"/><line class="cls-1" x1="343.04" y1="182.69" x2="343.56" y2="182.43"/><polyline class="cls-1" points="262.08 229.48 262.34 229.22 276.01 221.33"/><polyline class="cls-1" points="315.96 198.2 316.49 197.94 329.89 190.05"/><line class="cls-1" x1="138" y1="230.27" x2="138" y2="218.44"/><polyline class="cls-1" points="154.04 228.43 154.3 228.16 167.97 220.28"/><polyline class="cls-1" points="207.93 197.15 208.45 196.88 221.86 189.26"/><polyline class="cls-1" points="180.85 212.92 181.38 212.66 194.78 204.77"/><polyline class="cls-1" points="288.89 150.36 289.41 150.09 302.82 142.47"/><polyline class="cls-1" points="235 181.64 235.26 181.37 248.93 173.49"/><line class="cls-1" x1="343.04" y1="119.34" x2="343.56" y2="119.08"/><polyline class="cls-1" points="262.08 166.13 262.34 165.87 276.01 157.98"/><polyline class="cls-1" points="315.96 134.85 316.49 134.58 329.89 126.7"/><polyline class="cls-1" points="316.75 181.9 329.63 174.54 329.89 174.28"/><polyline class="cls-1" points="262.86 212.92 275.48 205.82 276.01 205.56"/><polyline class="cls-1" points="248.41 221.33 248.93 221.07 262.34 213.18"/><polyline class="cls-1" points="221.59 236.84 221.86 236.57 235.26 228.95"/><polyline class="cls-1" points="181.9 259.71 194.52 252.61 194.78 252.35"/><polyline class="cls-1" points="302.56 190.05 302.82 189.78 316.49 182.16"/><polyline class="cls-1" points="167.44 268.12 167.97 267.86 181.38 259.97"/><polyline class="cls-1" points="316.75 118.55 329.63 111.19 329.89 110.93"/><polyline class="cls-1" points="262.86 149.83 275.48 142.47 276.01 142.21"/><polyline class="cls-1" points="248.41 157.98 248.93 157.72 262.34 149.83"/><polyline class="cls-1" points="221.59 173.49 221.86 173.22 235.26 165.6"/><polyline class="cls-1" points="181.9 196.62 194.52 189.26 194.78 189"/><polyline class="cls-1" points="302.56 126.7 302.82 126.44 316.49 118.81"/><line class="cls-1" x1="138" y1="214.49" x2="138" y2="202.67"/><polyline class="cls-1" points="167.44 204.77 167.97 204.51 181.38 196.62"/><polyline class="cls-1" points="316.75 213.44 329.63 206.08 329.89 206.08"/><polyline class="cls-1" points="275.48 237.36 276.01 237.1 289.41 229.48"/><polyline class="cls-1" points="248.41 252.87 248.93 252.87 262.34 244.99"/><polyline class="cls-1" points="221.59 268.64 221.86 268.38 235.26 260.5"/><polyline class="cls-1" points="194.52 284.15 194.78 283.89 208.45 276.27"/><polyline class="cls-1" points="302.56 221.85 302.82 221.59 316.49 213.71"/><polyline class="cls-1" points="167.44 299.66 167.97 299.66 181.38 291.78"/><polyline class="cls-1" points="343.56 150.62 353.55 144.84 354.08 144.57"/><polyline class="cls-1" points="343.56 182.43 353.55 176.38 354.08 176.12"/><line class="cls-1" x1="138" y1="231.32" x2="138" y2="230.27"/><polyline class="cls-1" points="343.56 119.08 353.55 113.03 354.08 112.77"/><line class="cls-1" x1="138" y1="215.55" x2="138" y2="214.5"/><line class="cls-1" x1="138.01" y1="231.32" x2="138.01" y2="231.06"/><line class="cls-1" x1="138.01" y1="215.81" x2="138.01" y2="215.55"/><line class="cls-1" x1="138" y1="233.68" x2="138" y2="231.32"/><line class="cls-1" x1="138" y1="217.91" x2="138" y2="215.81"/><line class="cls-1" x1="58.09" y1="261.81" x2="58.09" y2="261.54"/><line class="cls-1" x1="56.25" y1="261.02" x2="56.25" y2="252.08"/><line class="cls-1" x1="58.09" y1="214.75" x2="58.09" y2="214.49"/><line class="cls-1" x1="56.25" y1="214.23" x2="56.25" y2="205.03"/><line class="cls-1" x1="270.75" y1="91.73" x2="270.75" y2="92"/><line class="cls-1" x1="58.09" y1="183.47" x2="58.09" y2="183.21"/><line class="cls-1" x1="56.25" y1="182.68" x2="56.25" y2="173.75"/><line class="cls-1" x1="270.75" y1="60.45" x2="270.75" y2="60.19"/><line class="cls-1" x1="58.09" y1="246.03" x2="58.09" y2="245.77"/><line class="cls-1" x1="56.25" y1="245.51" x2="56.25" y2="236.31"/><line class="cls-1" x1="270.75" y1="123.01" x2="270.75" y2="123.28"/><line class="cls-1" x1="58.09" y1="198.98" x2="58.09" y2="198.72"/><line class="cls-1" x1="56.25" y1="198.46" x2="56.25" y2="189.26"/><line class="cls-1" x1="270.75" y1="75.96" x2="270.75" y2="76.22"/><line class="cls-1" x1="58.09" y1="167.7" x2="58.09" y2="167.44"/><line class="cls-1" x1="56.25" y1="167.18" x2="56.25" y2="157.98"/><line class="cls-1" x1="270.75" y1="44.68" x2="270.75" y2="44.94"/><line class="cls-1" x1="58.09" y1="277.58" x2="58.09" y2="277.32"/><line class="cls-1" x1="56.25" y1="276.79" x2="56.25" y2="267.85"/><line class="cls-1" x1="58.09" y1="230.53" x2="58.09" y2="230.26"/><line class="cls-1" x1="56.25" y1="229.74" x2="56.25" y2="220.8"/><line class="cls-1" x1="270.75" y1="107.51" x2="270.75" y2="107.24"/></svg>