<svg id="wall_ex" data-name="wall ex" xmlns="http://www.w3.org/2000/svg" viewBox="0 0 308.36 383.52"><defs><style>.cls-1{fill:none;stroke:#000;stroke-linecap:round;stroke-linejoin:round;stroke-width:0.22px;}</style></defs><line class="cls-1" x1="141.21" y1="52.09" x2="144.07" y2="50.55"/><polyline class="cls-1" points="75.5 281.65 81.98 285.39 84.73 283.74"/><polyline class="cls-1" points="105.06 264.51 111.54 268.25 114.4 266.71"/><line class="cls-1" x1="45.83" y1="96.49" x2="48.57" y2="94.95"/><polyline class="cls-1" points="45.83 301.98 52.31 305.72 52.31 100.22 45.83 96.49"/><polyline class="cls-1" points="48.57 94.95 55.06 98.68 52.31 100.22"/><line class="cls-1" x1="55.06" y1="304.07" x2="52.31" y2="305.72"/><line class="cls-1" x1="134.73" y1="130.77" x2="134.73" y2="55.83"/><line class="cls-1" x1="141.21" y1="127.04" x2="141.21" y2="52.09"/><line class="cls-1" x1="144.07" y1="125.39" x2="144.07" y2="50.55"/><polyline class="cls-1" points="55.06 98.68 170.88 31.76 164.4 28.02"/><line class="cls-1" x1="170.88" y1="35.06" x2="170.88" y2="31.76"/><line class="cls-1" x1="55.06" y1="101.87" x2="55.06" y2="98.68"/><line class="cls-1" x1="55.06" y1="293.41" x2="75.5" y2="281.65"/><line class="cls-1" x1="84.73" y1="276.27" x2="105.06" y2="264.51"/><line class="cls-1" x1="114.4" y1="259.13" x2="119.89" y2="255.94"/><line class="cls-1" x1="148.68" y1="239.35" x2="149.56" y2="238.8"/><line class="cls-1" x1="148.68" y1="246.82" x2="149.56" y2="246.38"/><line class="cls-1" x1="55.06" y1="304.07" x2="119.89" y2="266.71"/><line class="cls-1" x1="148.68" y1="250.12" x2="149.56" y2="249.57"/><line class="cls-1" x1="55.06" y1="304.07" x2="55.06" y2="300.89"/><line class="cls-1" x1="164.4" y1="113.63" x2="164.4" y2="38.79"/><polyline class="cls-1" points="164.4 28.02 167.15 26.48 173.63 30.22 170.88 31.76"/><line class="cls-1" x1="173.63" y1="108.24" x2="173.63" y2="30.22"/><polyline class="cls-1" points="81.98 285.39 81.98 86.38 84.73 84.73"/><polyline class="cls-1" points="111.54 268.25 111.54 69.23 114.4 67.58"/><polyline class="cls-1" points="308.25 313.3 186.93 383.42 185.72 382.76"/><polyline class="cls-1" points="185.72 177.37 186.93 178.03 308.25 107.91 307.15 107.25"/><line class="cls-1" x1="186.93" y1="383.41" x2="186.93" y2="178.03"/><line class="cls-1" x1="308.25" y1="313.3" x2="308.25" y2="107.91"/><line class="cls-1" x1="121.54" y1="0.11" x2="0.11" y2="70.22"/><line class="cls-1" x1="1.32" y1="276.27" x2="45.83" y2="250.55"/><line class="cls-1" x1="55.06" y1="245.28" x2="75.5" y2="233.52"/><line class="cls-1" x1="84.73" y1="228.14" x2="105.06" y2="216.38"/><line class="cls-1" x1="114.4" y1="210.99" x2="119.89" y2="207.81"/><line class="cls-1" x1="0.11" y1="275.61" x2="1.32" y2="276.27"/><polyline class="cls-1" points="0.11 70.22 1.32 70.88 122.75 0.77 121.54 0.11"/><line class="cls-1" x1="1.32" y1="276.27" x2="1.32" y2="70.88"/><line class="cls-1" x1="0.11" y1="275.61" x2="0.11" y2="70.22"/><line class="cls-1" x1="122.75" y1="137.7" x2="122.75" y2="62.86"/><line class="cls-1" x1="122.75" y1="52.09" x2="122.75" y2="0.77"/><polyline class="cls-1" points="148.69 124.84 121.76 140.44 121.76 339.46 148.69 323.85"/><line class="cls-1" x1="121.76" y1="339.46" x2="119.89" y2="338.36"/><line class="cls-1" x1="121.76" y1="140.44" x2="119.89" y2="139.34"/><line class="cls-1" x1="148.68" y1="124.84" x2="146.82" y2="123.85"/><polyline class="cls-1" points="178.36 107.8 151.43 123.3 151.43 322.31 178.36 306.82 178.36 107.8 176.49 106.71"/><line class="cls-1" x1="151.43" y1="123.3" x2="149.56" y2="122.2"/><line class="cls-1" x1="151.43" y1="322.31" x2="149.56" y2="321.22"/><line class="cls-1" x1="207.92" y1="90.66" x2="207.92" y2="164.51"/><polyline class="cls-1" points="185.72 302.53 181.1 305.17 179.24 304.07"/><polyline class="cls-1" points="207.92 90.66 181.1 106.16 181.1 305.17"/><polyline class="cls-1" points="206.16 89.56 179.24 105.06 179.24 304.07"/><line class="cls-1" x1="207.92" y1="90.66" x2="206.16" y2="89.56"/><line class="cls-1" x1="181.1" y1="106.16" x2="179.23" y2="105.06"/><polyline class="cls-1" points="235.72 72.42 208.91 87.91 208.91 163.96"/><polyline class="cls-1" points="235.72 72.42 237.59 73.52 237.59 147.37"/><polyline class="cls-1" points="237.59 73.52 210.77 89.01 208.91 87.91"/><line class="cls-1" x1="210.77" y1="162.86" x2="210.77" y2="89.01"/><line class="cls-1" x1="45.83" y1="301.98" x2="45.83" y2="96.49"/><line class="cls-1" x1="48.57" y1="94.95" x2="164.4" y2="28.02"/><line class="cls-1" x1="55.06" y1="300.89" x2="81.98" y2="285.39"/><line class="cls-1" x1="170.88" y1="109.89" x2="170.88" y2="35.06"/><line class="cls-1" x1="75.5" y1="281.65" x2="75.5" y2="90.11"/><line class="cls-1" x1="84.73" y1="283.74" x2="84.73" y2="276.27"/><line class="cls-1" x1="105.06" y1="264.51" x2="105.06" y2="72.97"/><line class="cls-1" x1="114.4" y1="266.71" x2="114.4" y2="259.13"/><line class="cls-1" x1="207.92" y1="164.51" x2="185.72" y2="177.37"/><line class="cls-1" x1="185.72" y1="382.76" x2="185.72" y2="177.37"/><line class="cls-1" x1="148.69" y1="124.84" x2="148.69" y2="239.35"/><line class="cls-1" x1="119.89" y1="338.36" x2="119.89" y2="266.71"/><line class="cls-1" x1="149.57" y1="122.2" x2="164.4" y2="113.63"/><line class="cls-1" x1="149.57" y1="321.22" x2="149.57" y2="249.57"/><line class="cls-1" x1="55.06" y1="300.89" x2="55.06" y2="293.41"/><line class="cls-1" x1="55.06" y1="101.87" x2="75.5" y2="90.11"/><line class="cls-1" x1="84.73" y1="276.27" x2="84.73" y2="84.73"/><line class="cls-1" x1="114.4" y1="259.13" x2="114.4" y2="67.59"/><line class="cls-1" x1="208.91" y1="163.96" x2="207.92" y2="164.51"/><line class="cls-1" x1="148.69" y1="239.35" x2="148.69" y2="246.82"/><polyline class="cls-1" points="119.89 139.34 122.75 137.7 134.73 130.77 141.21 127.04"/><line class="cls-1" x1="119.89" y1="266.71" x2="119.89" y2="263.41"/><line class="cls-1" x1="164.4" y1="113.63" x2="170.88" y2="109.89"/><line class="cls-1" x1="149.56" y1="249.57" x2="149.56" y2="246.38"/><line class="cls-1" x1="75.49" y1="90.11" x2="81.98" y2="86.37"/><polyline class="cls-1" points="144.07 50.55 164.4 38.79 170.88 35.06"/><line class="cls-1" x1="84.73" y1="283.74" x2="111.54" y2="268.25"/><line class="cls-1" x1="307.15" y1="107.26" x2="237.59" y2="147.37"/><line class="cls-1" x1="148.68" y1="246.82" x2="148.68" y2="323.85"/><polyline class="cls-1" points="141.21 127.04 144.07 125.39 146.82 123.85"/><line class="cls-1" x1="119.89" y1="263.41" x2="119.89" y2="255.94"/><polyline class="cls-1" points="170.88 109.89 173.63 108.24 176.49 106.71"/><line class="cls-1" x1="149.56" y1="246.38" x2="149.56" y2="122.2"/><line class="cls-1" x1="55.06" y1="293.41" x2="55.06" y2="101.87"/><line class="cls-1" x1="114.4" y1="266.71" x2="119.89" y2="263.41"/><polyline class="cls-1" points="237.59 147.37 210.77 162.86 208.91 163.96"/><line class="cls-1" x1="119.89" y1="255.94" x2="119.89" y2="139.34"/><line class="cls-1" x1="84.73" y1="84.73" x2="105.06" y2="72.97"/><line class="cls-1" x1="105.06" y1="72.97" x2="111.54" y2="69.23"/><line class="cls-1" x1="114.4" y1="67.58" x2="122.75" y2="62.86"/><polyline class="cls-1" points="122.75 62.86 134.73 55.82 141.21 52.09"/></svg>