<svg id="wall_ex" data-name="wall ex" xmlns="http://www.w3.org/2000/svg" viewBox="0 0 308.88869 384.05499"><defs><style>.cls-1{fill:none;stroke:#000;stroke-linecap:round;stroke-linejoin:round;stroke-width:0.75px;}</style></defs><line class="cls-1" x1="141.47902" y1="52.35415" x2="144.33633" y2="50.81572"/><polyline class="cls-1" points="75.763 281.919 82.247 285.656 84.994 284.007"/><polyline class="cls-1" points="105.324 264.776 111.808 268.513 114.665 266.974"/><line class="cls-1" x1="46.09087" y1="96.75058" x2="48.83818" y2="95.21214"/><polyline class="cls-1" points="46.091 302.25 52.575 305.986 52.575 100.487 46.091 96.751"/><polyline class="cls-1" points="48.838 95.212 55.322 98.949 52.575 100.487"/><line class="cls-1" x1="55.32191" y1="304.3375" x2="52.57459" y2="305.98593"/><line class="cls-1" x1="134.99395" y1="131.03709" x2="134.99395" y2="56.09045"/><line class="cls-1" x1="141.47767" y1="127.30078" x2="141.47767" y2="52.35415"/><line class="cls-1" x1="144.33499" y1="125.65235" x2="144.33499" y2="50.8156"/><polyline class="cls-1" points="55.321 98.948 171.148 32.024 164.665 28.288"/><line class="cls-1" x1="171.14811" y1="35.32073" x2="171.14811" y2="32.02397"/><line class="cls-1" x1="55.32146" y1="102.13531" x2="55.32146" y2="98.94845"/><line class="cls-1" x1="55.32146" y1="293.67792" x2="75.76152" y2="281.91946"/><line class="cls-1" x1="84.99234" y1="276.53472" x2="105.32262" y2="264.77626"/><line class="cls-1" x1="114.66321" y1="259.39152" x2="120.15784" y2="256.20466"/><line class="cls-1" x1="148.94961" y1="239.6109" x2="149.82894" y2="239.06146"/><line class="cls-1" x1="148.94961" y1="247.08362" x2="149.82894" y2="246.64407"/><line class="cls-1" x1="55.32124" y1="304.33761" x2="120.15784" y2="266.97424"/><line class="cls-1" x1="148.94961" y1="250.38037" x2="149.82894" y2="249.83093"/><line class="cls-1" x1="55.32124" y1="304.33761" x2="55.32124" y2="301.15075"/><line class="cls-1" x1="164.66415" y1="113.894" x2="164.66415" y2="39.05725"/><polyline class="cls-1" points="164.664 28.288 167.412 26.749 173.895 30.486 171.148 32.024"/><line class="cls-1" x1="173.89542" y1="108.50915" x2="173.89542" y2="30.48554"/><polyline class="cls-1" points="82.245 285.656 82.245 86.641 84.992 84.992"/><polyline class="cls-1" points="111.806 268.513 111.806 69.497 114.663 67.849"/><polyline class="cls-1" points="308.514 313.569 187.192 383.68 185.984 383.021"/><polyline class="cls-1" points="185.984 177.632 187.192 178.291 308.514 108.18 307.415 107.52"/><line class="cls-1" x1="187.19242" y1="383.67999" x2="187.19242" y2="178.29105"/><line class="cls-1" x1="308.51369" y1="313.56854" x2="308.51369" y2="108.1796"/><line class="cls-1" x1="121.80649" y1="0.375" x2="0.37545" y2="70.48645"/><line class="cls-1" x1="1.5841" y1="276.53483" x2="46.09064" y2="250.82003"/><line class="cls-1" x1="55.32146" y1="245.54519" x2="75.76152" y2="233.78672"/><line class="cls-1" x1="84.99234" y1="228.40199" x2="105.32262" y2="216.64353"/><line class="cls-1" x1="114.66321" y1="211.25879" x2="120.15784" y2="208.07193"/><line class="cls-1" x1="0.375" y1="275.8755" x2="1.58388" y2="276.53494"/><polyline class="cls-1" points="0.375 70.486 1.584 71.146 123.015 1.034 121.806 0.375"/><line class="cls-1" x1="1.58388" y1="276.53483" x2="1.58388" y2="71.14589"/><line class="cls-1" x1="0.375" y1="275.8755" x2="0.375" y2="70.48656"/><line class="cls-1" x1="123.01493" y1="137.96048" x2="123.01493" y2="63.12373"/><line class="cls-1" x1="123.01493" y1="52.35426" x2="123.01493" y2="1.03455"/><polyline class="cls-1" points="148.95 125.103 122.026 140.708 122.026 339.723 148.95 324.118"/><line class="cls-1" x1="122.02605" y1="339.72311" x2="120.15806" y2="338.62423"/><line class="cls-1" x1="122.02605" y1="140.7079" x2="120.15806" y2="139.60902"/><line class="cls-1" x1="148.94961" y1="125.10313" x2="147.08163" y2="124.11414"/><polyline class="cls-1" points="178.621 108.07 151.697 123.564 151.697 322.58 178.621 307.085 178.621 108.07 176.753 106.971"/><line class="cls-1" x1="151.69715" y1="123.56437" x2="149.82916" y2="122.46549"/><line class="cls-1" x1="151.69715" y1="322.57958" x2="149.82916" y2="321.4807"/><line class="cls-1" x1="208.18181" y1="90.92629" x2="208.18181" y2="164.77404"/><polyline class="cls-1" points="185.984 302.799 181.368 305.436 179.5 304.338"/><polyline class="cls-1" points="208.182 90.926 181.368 106.421 181.368 305.436"/><polyline class="cls-1" points="206.424 89.827 179.5 105.322 179.5 304.338"/><line class="cls-1" x1="208.18181" y1="90.92629" x2="206.42361" y2="89.82741"/><line class="cls-1" x1="181.36802" y1="106.42117" x2="179.50004" y2="105.32229"/><polyline class="cls-1" points="235.984 72.684 209.171 88.179 209.171 164.225"/><polyline class="cls-1" points="235.984 72.684 237.853 73.783 237.853 147.631"/><polyline class="cls-1" points="237.853 73.783 211.039 89.278 209.171 88.179"/><line class="cls-1" x1="211.0389" y1="163.12572" x2="211.0389" y2="89.27808"/><line class="cls-1" x1="46.09176" y1="302.24974" x2="46.09176" y2="96.75091"/><line class="cls-1" x1="48.83907" y1="95.21237" x2="164.66594" y2="28.28789"/><line class="cls-1" x1="55.3228" y1="301.15086" x2="82.24659" y2="285.6561"/><line class="cls-1" x1="171.14945" y1="110.15769" x2="171.14945" y2="35.32095"/><line class="cls-1" x1="75.76286" y1="281.91968" x2="75.76286" y2="90.37718"/><line class="cls-1" x1="84.9939" y1="284.00766" x2="84.9939" y2="276.53506"/><line class="cls-1" x1="105.32396" y1="264.77648" x2="105.32396" y2="73.23399"/><line class="cls-1" x1="114.66478" y1="266.97435" x2="114.66478" y2="259.39186"/><line class="cls-1" x1="208.18338" y1="164.77438" x2="185.98511" y2="177.63183"/><line class="cls-1" x1="185.98511" y1="383.02089" x2="185.98511" y2="177.63194"/><line class="cls-1" x1="148.9514" y1="125.10324" x2="148.9514" y2="239.61124"/><line class="cls-1" x1="120.15963" y1="338.62435" x2="120.15963" y2="266.97446"/><line class="cls-1" x1="149.8305" y1="122.46582" x2="164.66617" y2="113.89422"/><line class="cls-1" x1="149.8305" y1="321.48115" x2="149.8305" y2="249.83127"/><line class="cls-1" x1="55.32369" y1="301.15243" x2="55.32369" y2="293.67982"/><line class="cls-1" x1="55.32369" y1="102.1371" x2="75.76376" y2="90.37864"/><line class="cls-1" x1="84.99457" y1="276.5364" x2="84.99457" y2="84.9939"/><line class="cls-1" x1="114.66545" y1="259.3932" x2="114.66545" y2="67.8507"/><line class="cls-1" x1="209.17293" y1="164.22628" x2="208.18405" y2="164.77583"/><line class="cls-1" x1="148.95185" y1="239.61246" x2="148.95185" y2="247.08518"/><polyline class="cls-1" points="120.16 139.61 123.017 137.962 134.996 131.039 141.479 127.302"/><line class="cls-1" x1="120.15806" y1="266.97402" x2="120.15806" y2="263.67727"/><line class="cls-1" x1="164.6646" y1="113.89377" x2="171.14833" y2="110.15747"/><line class="cls-1" x1="149.82916" y1="249.83082" x2="149.82916" y2="246.64396"/><line class="cls-1" x1="75.75906" y1="90.37629" x2="82.24279" y2="86.63999"/><polyline class="cls-1" points="144.334 50.816 164.665 39.057 171.148 35.321"/><line class="cls-1" x1="84.99234" y1="284.00744" x2="111.80613" y2="268.51267"/><line class="cls-1" x1="307.41459" y1="107.52016" x2="237.85269" y2="147.63096"/><line class="cls-1" x1="148.94961" y1="247.08362" x2="148.94961" y2="324.11835"/><polyline class="cls-1" points="141.477 127.301 144.334 125.652 147.082 124.114"/><line class="cls-1" x1="120.15784" y1="263.67738" x2="120.15784" y2="256.20477"/><polyline class="cls-1" points="171.148 110.158 173.895 108.509 176.753 106.971"/><line class="cls-1" x1="149.82872" y1="246.64407" x2="149.82872" y2="122.4656"/><line class="cls-1" x1="55.32124" y1="293.67792" x2="55.32124" y2="102.13542"/><line class="cls-1" x1="114.66321" y1="266.97402" x2="120.15784" y2="263.67727"/><polyline class="cls-1" points="237.853 147.631 211.039 163.126 209.171 164.225"/><line class="cls-1" x1="120.15784" y1="256.20455" x2="120.15784" y2="139.60868"/><line class="cls-1" x1="84.99234" y1="84.99167" x2="105.32262" y2="73.2332"/><line class="cls-1" x1="105.3224" y1="73.23287" x2="111.80613" y2="69.49656"/><line class="cls-1" x1="114.66321" y1="67.84735" x2="123.01515" y2="63.12205"/><polyline class="cls-1" points="123.015 63.122 134.993 56.089 141.477 52.353"/></svg>