<svg id="wardrobe_ex" data-name="wardrobe ex" xmlns="http://www.w3.org/2000/svg" viewBox="0 0 342.47976 385.35017"><defs><style>.cls-1{fill:none;stroke:#000;stroke-linecap:round;stroke-linejoin:round;stroke-width:0.75px;}</style></defs><line class="cls-1" x1="106.0356" y1="12.90321" x2="106.0356" y2="27.5446"/><line class="cls-1" x1="106.0356" y1="106.18539" x2="106.0356" y2="114.33631"/><line class="cls-1" x1="106.0356" y1="119.46828" x2="106.0356" y2="214.10895"/><line class="cls-1" x1="106.0356" y1="12.90321" x2="104.82812" y2="12.14853"/><polyline class="cls-1" points="19.546 98.034 19.546 62.865 18.188 62.11 18.188 97.28"/><line class="cls-1" x1="19.54615" y1="62.86496" x2="106.03622" y2="12.90321"/><line class="cls-1" x1="106.0356" y1="214.1088" x2="68.4512" y2="235.84448"/><line class="cls-1" x1="18.18758" y1="62.11028" x2="104.82873" y2="12.14853"/><line class="cls-1" x1="218.63833" y1="242.48596" x2="217.43085" y2="243.24072"/><line class="cls-1" x1="216.07227" y1="242.48596" x2="216.07227" y2="41.12944"/><polyline class="cls-1" points="217.431 243.241 217.431 241.731 216.073 242.486"/><line class="cls-1" x1="150.56336" y1="204.59954" x2="150.56336" y2="93.80819"/><line class="cls-1" x1="150.56336" y1="88.67606" x2="150.56336" y2="80.37429"/><line class="cls-1" x1="150.56336" y1="35.54451" x2="150.56336" y2="3.24293"/><line class="cls-1" x1="218.63833" y1="38.26143" x2="153.13004" y2="0.375"/><polyline class="cls-1" points="217.431 243.241 216.073 242.486 150.564 204.6"/><polyline class="cls-1" points="153.129 0.375 151.922 1.13 151.922 2.488 150.564 3.243"/><polyline class="cls-1" points="216.072 41.129 217.431 40.375 217.431 38.865"/><line class="cls-1" x1="150.56336" y1="3.24293" x2="216.07227" y2="41.12944"/><line class="cls-1" x1="151.92194" y1="2.48826" x2="217.43085" y2="40.37476"/><polyline class="cls-1" points="151.922 1.13 217.431 38.865 218.638 38.262"/><polyline class="cls-1" points="99.092 110.261 99.092 108.751 97.734 109.506 97.734 107.997 186.941 56.526"/><polyline class="cls-1" points="32.225 70.11 32.225 71.62 97.734 109.506"/><line class="cls-1" x1="32.22476" y1="70.11027" x2="97.73367" y2="107.99677"/><line class="cls-1" x1="99.09225" y1="110.26081" x2="97.73429" y2="109.50613"/><line class="cls-1" x1="185.5817" y1="58.78962" x2="185.5817" y2="60.29905"/><polyline class="cls-1" points="186.94 56.526 186.94 58.035 185.582 58.79"/><polyline class="cls-1" points="93.96 351.919 91.998 353.126 31.018 317.806"/><polyline class="cls-1" points="93.96 344.674 91.998 345.73 65.885 330.636"/><line class="cls-1" x1="91.9978" y1="353.12645" x2="91.9978" y2="345.73033"/><line class="cls-1" x1="93.96012" y1="351.91892" x2="93.96012" y2="344.67374"/><line class="cls-1" x1="31.01728" y1="317.80601" x2="31.01728" y2="310.40992"/><line class="cls-1" x1="93.96012" y1="344.67366" x2="91.99842" y2="343.46613"/><polyline class="cls-1" points="179.846 292.75 181.808 293.957 93.96 344.674"/><polyline class="cls-1" points="181.808 293.957 181.808 301.202 93.96 351.919"/><line class="cls-1" x1="68.45059" y1="298.33444" x2="71.01665" y2="296.82508"/><line class="cls-1" x1="199.01514" y1="301.65518" x2="199.6195" y2="301.95713"/><polyline class="cls-1" points="107.997 354.938 107.997 362.183 199.619 309.353"/><line class="cls-1" x1="107.24248" y1="361.881" x2="107.99731" y2="362.18291"/><polyline class="cls-1" points="199.015 301.655 107.242 354.485 107.997 354.938 199.619 301.957 199.619 309.353"/><line class="cls-1" x1="107.24248" y1="354.48487" x2="107.24248" y2="361.88103"/><line class="cls-1" x1="310.25929" y1="126.41156" x2="313.88237" y2="126.86444"/><polyline class="cls-1" points="221.204 180.751 221.204 384.975 266.789 358.711"/><line class="cls-1" x1="218.63772" y1="383.61668" x2="221.20378" y2="384.97517"/><line class="cls-1" x1="310.25929" y1="126.41156" x2="293.65605" y2="162.1848"/><line class="cls-1" x1="218.63772" y1="179.24124" x2="221.20378" y2="180.75068"/><polyline class="cls-1" points="297.127 162.789 313.882 126.864 313.882 331.24"/><polyline class="cls-1" points="266.788 358.711 266.788 154.487 221.204 180.751"/><polyline class="cls-1" points="297.127 162.789 297.127 367.013 313.882 331.24"/><polyline class="cls-1" points="293.656 162.185 293.656 366.56 297.128 367.013"/><line class="cls-1" x1="297.12742" y1="162.78855" x2="293.65605" y2="162.1848"/><polyline class="cls-1" points="266.788 154.487 264.222 152.977 218.638 179.241"/><line class="cls-1" x1="181.80754" y1="301.20238" x2="183.61938" y2="300.14583"/><line class="cls-1" x1="173.5056" y1="296.52321" x2="149.35526" y2="282.48564"/><polyline class="cls-1" points="181.808 293.957 183.619 292.75 157.657 277.806"/><line class="cls-1" x1="183.61877" y1="300.14583" x2="183.61877" y2="292.74974"/><polyline class="cls-1" points="67.242 329.881 65.885 330.636 65.885 126.412"/><line class="cls-1" x1="67.24249" y1="328.52291" x2="68.45059" y2="327.76823"/><polyline class="cls-1" points="0.375 292.75 0.375 88.525 65.884 126.412"/><line class="cls-1" x1="1.73358" y1="87.77045" x2="0.37561" y2="88.52521"/><polygon class="cls-1" points="68.45 126.412 67.242 127.166 67.242 125.657 68.45 126.412"/><line class="cls-1" x1="67.24249" y1="125.65688" x2="65.88452" y2="126.41163"/><polyline class="cls-1" points="185.581 258.637 99.092 308.599 99.092 310.108 97.733 310.863 97.733 312.221"/><line class="cls-1" x1="185.58108" y1="258.63671" x2="121.28027" y2="221.50504"/><line class="cls-1" x1="97.73306" y1="310.86265" x2="68.45059" y2="293.95723"/><line class="cls-1" x1="99.09163" y1="308.59854" x2="68.45059" y2="290.93836"/><line class="cls-1" x1="99.09163" y1="310.10797" x2="68.45059" y2="292.44779"/><line class="cls-1" x1="185.58108" y1="260.14622" x2="185.58108" y2="258.63686"/><polyline class="cls-1" points="186.94 260.901 186.94 259.392 185.582 260.146"/><line class="cls-1" x1="154.33629" y1="90.94026" x2="154.33629" y2="91.39314"/><polyline class="cls-1" points="153.884 91.846 154.186 91.695 154.337 91.393"/><polyline class="cls-1" points="154.336 90.487 154.186 89.884 154.035 89.431"/><line class="cls-1" x1="154.33629" y1="90.48737" x2="154.33629" y2="90.94026"/><line class="cls-1" x1="153.73255" y1="88.827" x2="154.03473" y2="89.43082"/><line class="cls-1" x1="152.52506" y1="87.92139" x2="152.82724" y2="88.0724"/><line class="cls-1" x1="151.77023" y1="87.92139" x2="152.52506" y2="87.92139"/><polyline class="cls-1" points="152.827 88.072 153.28 88.525 153.733 88.827"/><line class="cls-1" x1="187.24123" y1="376.67336" x2="187.5434" y2="376.67336"/><line class="cls-1" x1="187.24123" y1="370.78663" x2="187.5434" y2="370.78663"/><line class="cls-1" x1="186.93905" y1="376.52242" x2="187.09014" y2="376.52242"/><line class="cls-1" x1="186.93905" y1="370.6357" x2="187.09014" y2="370.6357"/><line class="cls-1" x1="186.78796" y1="376.22055" x2="186.78796" y2="370.33382"/><line class="cls-1" x1="187.09014" y1="376.52242" x2="187.24123" y2="376.6734"/><line class="cls-1" x1="187.09014" y1="370.6357" x2="187.24123" y2="370.78667"/><line class="cls-1" x1="186.93905" y1="376.37149" x2="186.93905" y2="376.52246"/><line class="cls-1" x1="186.93905" y1="370.48476" x2="186.93905" y2="370.63573"/><line class="cls-1" x1="186.78796" y1="376.22055" x2="186.93905" y2="376.37153"/><line class="cls-1" x1="186.78796" y1="370.33382" x2="186.93905" y2="370.4848"/><line class="cls-1" x1="187.99544" y1="370.78663" x2="188.14653" y2="370.78663"/><line class="cls-1" x1="188.14653" y1="376.67336" x2="188.44871" y2="376.52242"/><polyline class="cls-1" points="188.599 376.221 188.599 376.372 188.449 376.522"/><line class="cls-1" x1="188.14653" y1="376.67336" x2="187.54279" y2="376.67336"/><line class="cls-1" x1="188.44871" y1="376.52242" x2="188.44871" y2="376.37149"/><line class="cls-1" x1="187.54279" y1="370.78663" x2="187.99606" y2="370.78663"/><polyline class="cls-1" points="188.147 370.787 188.449 370.636 188.6 370.485 188.6 370.334 188.6 376.221"/><line class="cls-1" x1="187.24061" y1="382.56009" x2="187.54279" y2="382.56009"/><polyline class="cls-1" points="186.938 382.258 187.09 382.409 187.241 382.56"/><line class="cls-1" x1="186.93843" y1="382.25821" x2="186.78796" y2="382.10728"/><line class="cls-1" x1="188.14592" y1="382.56009" x2="188.4481" y2="382.40915"/><polyline class="cls-1" points="188.599 382.107 188.599 382.258 188.448 382.258"/><line class="cls-1" x1="188.14592" y1="382.56009" x2="187.54218" y2="382.56009"/><line class="cls-1" x1="188.4481" y1="382.40915" x2="188.4481" y2="382.25821"/><line class="cls-1" x1="186.93843" y1="364.14519" x2="186.93843" y2="364.29616"/><line class="cls-1" x1="187.24061" y1="364.8999" x2="187.54279" y2="364.8999"/><line class="cls-1" x1="186.93843" y1="364.74897" x2="187.08952" y2="364.74897"/><line class="cls-1" x1="186.93843" y1="364.29616" x2="186.78796" y2="364.44714"/><line class="cls-1" x1="187.08952" y1="363.99429" x2="186.93905" y2="364.14526"/><line class="cls-1" x1="187.08952" y1="364.74901" x2="187.24061" y2="364.89998"/><polyline class="cls-1" points="187.09 363.994 187.543 363.994 187.694 363.843"/><polyline class="cls-1" points="186.938 364.749 186.938 364.598 186.788 364.447"/><line class="cls-1" x1="187.99483" y1="364.89994" x2="188.14592" y2="364.89994"/><line class="cls-1" x1="187.54218" y1="364.89994" x2="187.99544" y2="364.89994"/><polyline class="cls-1" points="188.146 364.9 188.448 364.749 188.599 364.598 188.599 364.296 188.448 364.145 188.448 363.994 187.995 363.994 187.693 363.843"/><line class="cls-1" x1="191.61729" y1="362.78676" x2="191.46681" y2="362.63583"/><line class="cls-1" x1="186.93782" y1="364.2962" x2="184.07019" y2="362.63587"/><line class="cls-1" x1="188.59796" y1="364.2962" x2="191.4662" y2="362.63587"/><line class="cls-1" x1="184.06958" y1="362.63583" x2="183.9191" y2="362.7868"/><line class="cls-1" x1="188.59796" y1="364.44714" x2="191.61729" y2="362.7868"/><line class="cls-1" x1="183.91849" y1="362.78676" x2="186.78673" y2="364.44714"/><line class="cls-1" x1="183.91849" y1="379.69227" x2="186.78673" y2="381.35264"/><line class="cls-1" x1="188.59796" y1="381.35264" x2="191.61729" y2="379.69231"/><line class="cls-1" x1="183.91849" y1="362.78676" x2="183.91849" y2="379.69227"/><line class="cls-1" x1="191.61667" y1="362.78676" x2="191.61667" y2="379.69227"/><line class="cls-1" x1="187.23938" y1="217.8825" x2="187.54156" y2="218.03351"/><line class="cls-1" x1="187.23938" y1="211.99577" x2="187.54156" y2="212.14679"/><line class="cls-1" x1="186.9372" y1="217.73157" x2="187.08829" y2="217.88258"/><line class="cls-1" x1="186.9372" y1="211.84484" x2="187.08829" y2="211.99585"/><line class="cls-1" x1="186.78611" y1="217.42969" x2="186.78611" y2="211.54297"/><line class="cls-1" x1="187.08829" y1="217.8825" x2="187.23938" y2="217.8825"/><line class="cls-1" x1="187.08829" y1="211.99577" x2="187.23938" y2="211.99577"/><line class="cls-1" x1="186.9372" y1="217.58063" x2="186.9372" y2="217.73164"/><line class="cls-1" x1="186.9372" y1="211.6939" x2="186.9372" y2="211.84492"/><line class="cls-1" x1="186.78611" y1="217.42969" x2="186.9372" y2="217.58071"/><line class="cls-1" x1="186.78611" y1="211.54297" x2="186.9372" y2="211.69398"/><line class="cls-1" x1="187.9936" y1="212.14671" x2="188.14469" y2="211.99577"/><line class="cls-1" x1="188.14469" y1="217.8825" x2="188.44687" y2="217.8825"/><polyline class="cls-1" points="188.597 217.43 188.597 217.581 188.447 217.732"/><polyline class="cls-1" points="188.145 217.883 187.994 218.034 187.541 218.034"/><line class="cls-1" x1="188.44687" y1="217.8825" x2="188.44687" y2="217.73157"/><line class="cls-1" x1="187.54095" y1="212.14671" x2="187.99422" y2="212.14671"/><polyline class="cls-1" points="188.145 211.996 188.447 211.996 188.447 211.845 188.598 211.694 188.598 211.543 188.598 217.43"/><line class="cls-1" x1="187.23877" y1="223.76923" x2="187.54095" y2="223.92024"/><polyline class="cls-1" points="186.937 223.618 187.088 223.769 187.239 223.769"/><polyline class="cls-1" points="186.937 223.618 186.937 223.467 186.786 223.316"/><line class="cls-1" x1="188.14408" y1="223.76923" x2="188.44625" y2="223.76923"/><polyline class="cls-1" points="188.597 223.316 188.597 223.467 188.446 223.618"/><polyline class="cls-1" points="188.144 223.769 187.994 223.92 187.54 223.92"/><line class="cls-1" x1="188.44625" y1="223.76923" x2="188.44625" y2="223.61829"/><line class="cls-1" x1="186.93659" y1="205.50523" x2="186.93659" y2="205.35429"/><line class="cls-1" x1="187.23877" y1="206.10897" x2="187.54095" y2="206.25998"/><line class="cls-1" x1="186.93659" y1="205.95803" x2="187.08768" y2="206.10905"/><polyline class="cls-1" points="186.786 205.656 186.937 205.505 187.088 205.354"/><line class="cls-1" x1="187.08768" y1="206.10897" x2="187.23877" y2="206.10897"/><polyline class="cls-1" points="187.088 205.354 187.239 205.203 187.692 205.203"/><polyline class="cls-1" points="186.937 205.958 186.937 205.807 186.786 205.656"/><line class="cls-1" x1="187.99299" y1="206.25991" x2="188.14408" y2="206.10897"/><line class="cls-1" x1="187.54033" y1="206.25991" x2="187.9936" y2="206.25991"/><polyline class="cls-1" points="188.144 206.109 188.446 206.109 188.446 205.958 188.597 205.807 188.597 205.505 188.446 205.505 188.446 205.354 188.144 205.203 187.691 205.203"/><line class="cls-1" x1="191.61545" y1="203.99579" x2="191.46497" y2="203.99579"/><line class="cls-1" x1="186.93598" y1="205.50523" x2="184.06835" y2="203.99587"/><line class="cls-1" x1="188.59612" y1="205.50523" x2="191.46436" y2="203.99587"/><line class="cls-1" x1="184.06773" y1="203.99579" x2="183.91726" y2="203.99579"/><line class="cls-1" x1="188.59612" y1="205.8071" x2="191.61545" y2="203.99587"/><line class="cls-1" x1="183.91664" y1="203.99579" x2="186.78489" y2="205.8071"/><line class="cls-1" x1="183.91664" y1="220.9013" x2="186.78489" y2="222.7126"/><line class="cls-1" x1="188.59612" y1="222.7126" x2="191.61545" y2="220.90137"/><line class="cls-1" x1="183.91664" y1="203.99579" x2="183.91664" y2="220.9013"/><line class="cls-1" x1="191.61483" y1="203.99579" x2="191.61483" y2="220.9013"/><line class="cls-1" x1="340.89666" y1="306.18349" x2="341.04775" y2="306.18349"/><line class="cls-1" x1="340.89666" y1="300.29676" x2="341.04775" y2="300.29676"/><line class="cls-1" x1="342.10414" y1="305.88162" x2="342.10414" y2="305.73068"/><line class="cls-1" x1="342.10414" y1="300.14583" x2="342.10414" y2="299.99489"/><line class="cls-1" x1="341.65149" y1="306.18349" x2="341.95367" y2="306.03255"/><line class="cls-1" x1="341.65149" y1="300.29676" x2="341.95367" y2="300.14583"/><line class="cls-1" x1="341.04775" y1="306.18349" x2="341.34992" y2="306.18349"/><line class="cls-1" x1="341.04775" y1="300.29676" x2="341.34992" y2="300.29676"/><line class="cls-1" x1="340.74557" y1="306.18349" x2="340.89666" y2="306.18349"/><line class="cls-1" x1="340.74557" y1="300.29676" x2="340.89666" y2="300.29676"/><line class="cls-1" x1="341.95305" y1="306.03255" x2="342.10414" y2="305.88162"/><line class="cls-1" x1="341.95305" y1="300.14583" x2="342.10414" y2="300.14583"/><line class="cls-1" x1="341.5004" y1="306.18349" x2="341.65149" y2="306.18349"/><line class="cls-1" x1="341.5004" y1="300.29676" x2="341.65149" y2="300.29676"/><line class="cls-1" x1="341.34931" y1="306.18349" x2="341.5004" y2="306.18349"/><line class="cls-1" x1="341.34931" y1="300.29676" x2="341.5004" y2="300.29676"/><line class="cls-1" x1="342.10414" y1="305.88162" x2="342.10414" y2="305.73068"/><polyline class="cls-1" points="342.104 299.995 342.104 299.844 342.104 305.731"/><line class="cls-1" x1="340.89666" y1="312.07022" x2="341.04775" y2="312.07022"/><line class="cls-1" x1="342.10414" y1="311.76835" x2="342.10414" y2="311.61741"/><line class="cls-1" x1="341.65149" y1="312.07022" x2="341.95367" y2="311.91928"/><line class="cls-1" x1="341.04775" y1="312.07022" x2="341.34992" y2="312.07022"/><line class="cls-1" x1="340.59509" y1="311.91928" x2="340.89727" y2="312.07029"/><line class="cls-1" x1="341.95367" y1="311.91928" x2="342.10476" y2="311.76835"/><line class="cls-1" x1="340.444" y1="311.76835" x2="340.59509" y2="311.91936"/><line class="cls-1" x1="341.65149" y1="312.07022" x2="341.34992" y2="312.07022"/><line class="cls-1" x1="342.10414" y1="311.76835" x2="342.10414" y2="305.73068"/><line class="cls-1" x1="340.89666" y1="294.41003" x2="341.04775" y2="294.41003"/><line class="cls-1" x1="342.10414" y1="294.2591" x2="342.10414" y2="294.10816"/><line class="cls-1" x1="341.65149" y1="294.41003" x2="341.95367" y2="294.2591"/><line class="cls-1" x1="341.04775" y1="294.41003" x2="341.34992" y2="294.41003"/><line class="cls-1" x1="340.59509" y1="294.2591" x2="340.89727" y2="294.41011"/><line class="cls-1" x1="341.95367" y1="294.2591" x2="342.10476" y2="294.2591"/><polyline class="cls-1" points="340.595 294.259 340.445 294.259 340.445 294.108"/><polyline class="cls-1" points="340.444 294.863 340.444 293.957 340.444 294.108"/><line class="cls-1" x1="341.65149" y1="294.41003" x2="341.34992" y2="294.41003"/><line class="cls-1" x1="342.10414" y1="293.80629" x2="342.10414" y2="293.65536"/><line class="cls-1" x1="342.10414" y1="294.10816" x2="342.10414" y2="293.80629"/><polyline class="cls-1" points="342.104 293.655 341.954 293.504 341.5 293.504 341.35 293.353 341.048 293.504 340.595 293.504"/><line class="cls-1" x1="340.444" y1="293.65536" x2="340.444" y2="293.9573"/><line class="cls-1" x1="342.10414" y1="299.84395" x2="342.10414" y2="293.95723"/><polyline class="cls-1" points="337.727 292.146 337.576 292.146 340.444 293.806"/><line class="cls-1" x1="337.57576" y1="296.37228" x2="337.72685" y2="296.52329"/><line class="cls-1" x1="340.44339" y1="293.65536" x2="337.72685" y2="292.146"/><line class="cls-1" x1="337.72624" y1="296.52329" x2="340.74557" y2="294.71206"/><line class="cls-1" x1="337.57515" y1="309.0515" x2="337.57515" y2="308.90056"/><polyline class="cls-1" points="337.575 313.278 337.726 313.429 337.726 296.523"/><line class="cls-1" x1="340.89604" y1="147.39263" x2="341.04713" y2="147.54365"/><line class="cls-1" x1="340.89604" y1="141.50591" x2="341.04713" y2="141.65692"/><line class="cls-1" x1="342.10353" y1="147.2417" x2="342.10353" y2="147.09076"/><line class="cls-1" x1="342.10353" y1="141.35497" x2="342.10353" y2="141.20403"/><line class="cls-1" x1="341.65087" y1="147.39263" x2="341.95305" y2="147.39263"/><line class="cls-1" x1="341.65087" y1="141.50591" x2="341.95305" y2="141.50591"/><line class="cls-1" x1="341.04713" y1="147.54357" x2="341.34931" y2="147.54357"/><line class="cls-1" x1="341.04713" y1="141.65684" x2="341.34931" y2="141.65684"/><line class="cls-1" x1="340.74495" y1="147.39263" x2="340.89604" y2="147.39263"/><line class="cls-1" x1="340.74495" y1="141.50591" x2="340.89604" y2="141.50591"/><line class="cls-1" x1="341.95244" y1="147.39263" x2="342.10353" y2="147.2417"/><line class="cls-1" x1="341.95244" y1="141.50591" x2="342.10353" y2="141.35497"/><line class="cls-1" x1="341.49979" y1="147.54357" x2="341.65087" y2="147.39263"/><line class="cls-1" x1="341.49979" y1="141.65684" x2="341.65087" y2="141.50591"/><line class="cls-1" x1="341.3487" y1="147.54357" x2="341.49979" y2="147.54357"/><line class="cls-1" x1="341.3487" y1="141.65684" x2="341.49979" y2="141.65684"/><line class="cls-1" x1="342.10353" y1="147.09076" x2="342.10353" y2="146.93983"/><polyline class="cls-1" points="342.104 141.204 342.104 141.053 342.104 146.94"/><line class="cls-1" x1="340.89604" y1="153.27936" x2="341.04713" y2="153.27936"/><line class="cls-1" x1="342.10353" y1="153.12842" x2="342.10353" y2="152.97749"/><line class="cls-1" x1="341.65087" y1="153.27936" x2="341.95305" y2="153.27936"/><line class="cls-1" x1="341.04713" y1="153.27936" x2="341.34931" y2="153.43037"/><line class="cls-1" x1="340.59448" y1="153.27936" x2="340.89666" y2="153.27936"/><line class="cls-1" x1="341.95305" y1="153.27936" x2="342.10414" y2="153.12842"/><line class="cls-1" x1="340.44339" y1="153.12842" x2="340.59448" y2="153.27944"/><polyline class="cls-1" points="341.651 153.279 341.5 153.279 341.349 153.43"/><line class="cls-1" x1="342.10353" y1="152.97749" x2="342.10353" y2="146.93983"/><line class="cls-1" x1="340.89604" y1="135.61918" x2="341.04713" y2="135.77019"/><line class="cls-1" x1="342.10353" y1="135.46824" x2="342.10353" y2="135.31731"/><line class="cls-1" x1="341.65087" y1="135.61918" x2="341.95305" y2="135.61918"/><line class="cls-1" x1="341.04713" y1="135.77011" x2="341.34931" y2="135.77011"/><line class="cls-1" x1="340.59448" y1="135.61918" x2="340.89666" y2="135.61918"/><line class="cls-1" x1="341.95305" y1="135.61918" x2="342.10414" y2="135.46824"/><polyline class="cls-1" points="340.594 135.619 340.444 135.468 340.444 135.317"/><polyline class="cls-1" points="340.443 136.072 340.443 135.166 340.443 135.317"/><polyline class="cls-1" points="341.651 135.619 341.5 135.77 341.349 135.77"/><line class="cls-1" x1="342.10353" y1="135.01543" x2="342.10353" y2="134.8645"/><path class="cls-1" d="M377.16985,142.62437v-.15093c.03808-.55346-.86538-.45534-1.20748-.45281l-.30157.15094" transform="translate(-35.06633 -7.30707)"/><line class="cls-1" x1="340.44339" y1="135.01543" x2="340.44339" y2="135.16645"/><line class="cls-1" x1="342.10353" y1="141.0531" x2="342.10353" y2="135.16637"/><polyline class="cls-1" points="337.726 133.355 337.576 133.506 340.443 135.015"/><line class="cls-1" x1="337.57515" y1="137.73236" x2="337.72624" y2="137.73236"/><line class="cls-1" x1="340.44277" y1="135.01543" x2="337.72624" y2="133.35514"/><line class="cls-1" x1="337.72562" y1="137.73236" x2="340.74495" y2="136.07206"/><line class="cls-1" x1="337.57453" y1="150.4115" x2="337.57453" y2="150.26057"/><polyline class="cls-1" points="337.575 154.638 337.726 154.638 337.726 137.732"/><line class="cls-1" x1="261.34688" y1="268.90096" x2="261.49796" y2="269.35384"/><line class="cls-1" x1="259.38456" y1="267.6934" x2="259.83782" y2="267.84441"/><polyline class="cls-1" points="260.743 268.448 261.045 268.599 259.838 267.844"/><line class="cls-1" x1="261.04531" y1="268.59901" x2="261.34749" y2="268.90096"/><line class="cls-1" x1="257.12067" y1="269.50463" x2="257.57394" y2="268.90088"/><line class="cls-1" x1="256.66802" y1="270.71219" x2="256.81911" y2="270.10845"/><line class="cls-1" x1="256.81911" y1="272.22162" x2="256.66863" y2="271.91975"/><line class="cls-1" x1="256.81911" y1="270.10845" x2="257.12129" y2="269.5047"/><polyline class="cls-1" points="258.479 267.995 258.027 268.297 257.574 268.901"/><line class="cls-1" x1="258.9319" y1="267.84433" x2="259.38517" y2="267.6934"/><line class="cls-1" x1="257.12067" y1="272.5235" x2="256.81911" y2="272.22162"/><line class="cls-1" x1="256.51693" y1="271.31593" x2="256.66802" y2="270.71219"/><polyline class="cls-1" points="261.498 270.41 261.649 269.807 261.498 269.354"/><line class="cls-1" x1="261.34688" y1="271.165" x2="261.04531" y2="271.76882"/><line class="cls-1" x1="260.29048" y1="272.82537" x2="259.68673" y2="273.12732"/><line class="cls-1" x1="259.23408" y1="273.42911" x2="258.78143" y2="273.42911"/><polyline class="cls-1" points="257.121 272.523 258.329 273.278 258.027 272.976"/><line class="cls-1" x1="260.74313" y1="272.37256" x2="260.29048" y2="272.82544"/><line class="cls-1" x1="259.68673" y1="273.12724" x2="259.23408" y2="273.42919"/><line class="cls-1" x1="261.04531" y1="271.76874" x2="260.74375" y2="272.37256"/><line class="cls-1" x1="258.02659" y1="272.9763" x2="257.87612" y2="272.5235"/><line class="cls-1" x1="258.78143" y1="273.42911" x2="258.32877" y2="273.27818"/><line class="cls-1" x1="257.8755" y1="272.5235" x2="257.8755" y2="272.07069"/><line class="cls-1" x1="261.49796" y1="270.41032" x2="261.34749" y2="271.16507"/><polyline class="cls-1" points="258.328 270.108 258.027 270.863 257.876 271.467 257.876 272.071"/><line class="cls-1" x1="260.29048" y1="268.59901" x2="260.74375" y2="268.44808"/><line class="cls-1" x1="258.78081" y1="269.65564" x2="259.23408" y2="269.0519"/><line class="cls-1" x1="259.68673" y1="268.75002" x2="260.29109" y2="268.59909"/><line class="cls-1" x1="258.32816" y1="270.10852" x2="258.78143" y2="269.65572"/><line class="cls-1" x1="259.23408" y1="269.0519" x2="259.68735" y2="268.75002"/><line class="cls-1" x1="258.02659" y1="267.39152" x2="258.32877" y2="267.54254"/><path class="cls-1" d="M291.1306,278.774l-.30156-.30187c-.63384-1.25278.52082-3.29049,1.81123-3.62261l.45265-.15094" transform="translate(-35.06633 -7.30707)"/><line class="cls-1" x1="258.78143" y1="267.84433" x2="258.32877" y2="267.54246"/><line class="cls-1" x1="256.66802" y1="271.76882" x2="256.06427" y2="271.46695"/><line class="cls-1" x1="305.87525" y1="261.80667" x2="305.87525" y2="262.10862"/><polyline class="cls-1" points="303.762 261.203 305.574 261.505 305.724 261.505 305.875 261.807"/><line class="cls-1" x1="303.007" y1="263.46704" x2="303.15809" y2="262.71236"/><polyline class="cls-1" points="302.856 264.826 302.856 264.071 303.007 263.467"/><polyline class="cls-1" points="303.46 261.656 303.309 262.26 303.158 262.712"/><line class="cls-1" x1="303.61075" y1="261.35386" x2="303.76184" y2="261.20293"/><polyline class="cls-1" points="303.158 266.637 303.008 266.486 302.857 266.335"/><line class="cls-1" x1="302.85592" y1="265.88217" x2="302.85592" y2="264.82562"/><line class="cls-1" x1="305.87463" y1="263.31618" x2="305.87463" y2="262.10869"/><line class="cls-1" x1="305.87463" y1="263.91992" x2="305.72416" y2="264.67468"/><line class="cls-1" x1="305.42198" y1="265.88217" x2="305.2715" y2="266.33505"/><polyline class="cls-1" points="304.969 266.788 304.819 266.788 303.158 266.637"/><line class="cls-1" x1="304.66715" y1="266.78778" x2="304.66715" y2="266.63685"/><line class="cls-1" x1="305.57307" y1="265.27835" x2="305.42259" y2="265.88217"/><line class="cls-1" x1="305.27089" y1="266.33497" x2="304.96932" y2="266.78786"/><line class="cls-1" x1="305.72354" y1="264.6746" x2="305.57307" y2="265.27842"/><line class="cls-1" x1="304.66715" y1="266.63685" x2="304.51667" y2="266.18404"/><line class="cls-1" x1="304.81823" y1="266.78778" x2="304.66776" y2="266.78778"/><line class="cls-1" x1="304.51606" y1="266.18404" x2="304.51606" y2="265.73123"/><line class="cls-1" x1="305.87463" y1="263.3161" x2="305.87463" y2="263.91992"/><polyline class="cls-1" points="304.667 263.769 304.667 264.373 304.517 265.127 304.517 265.731"/><line class="cls-1" x1="305.42198" y1="261.65573" x2="305.57307" y2="261.5048"/><line class="cls-1" x1="304.81823" y1="263.01423" x2="304.96932" y2="262.41049"/><line class="cls-1" x1="305.27089" y1="261.9576" x2="305.42198" y2="261.65573"/><line class="cls-1" x1="304.66715" y1="263.76891" x2="304.81823" y2="263.01423"/><line class="cls-1" x1="304.96932" y1="262.41041" x2="305.2715" y2="261.9576"/><polyline class="cls-1" points="301.498 265.882 301.347 265.882 301.196 265.731 301.196 263.769 301.347 263.316 301.498 262.712 301.8 261.807 301.951 261.505 302.102 261.505 303.46 261.656"/><line class="cls-1" x1="302.85653" y1="266.03303" x2="301.49857" y2="265.88209"/><line class="cls-1" x1="218.63833" y1="38.2615" x2="218.63833" y2="242.48604"/><line class="cls-1" x1="99.09225" y1="110.26081" x2="106.0356" y2="106.18539"/><polyline class="cls-1" points="121.281 18.79 106.036 27.545 32.225 70.11"/><polyline class="cls-1" points="186.941 56.526 150.564 35.545 121.282 18.79"/><line class="cls-1" x1="91.99842" y1="343.46617" x2="67.24433" y2="329.12673"/><polyline class="cls-1" points="179.846 292.75 173.507 296.523 91.998 343.466"/><line class="cls-1" x1="218.63833" y1="242.48596" x2="218.63833" y2="383.61671"/><line class="cls-1" x1="179.84644" y1="292.74966" x2="155.6961" y2="278.86303"/><line class="cls-1" x1="68.4512" y1="327.76823" x2="68.4512" y2="298.3346"/><line class="cls-1" x1="67.24371" y1="329.88141" x2="67.24371" y2="328.52299"/><polyline class="cls-1" points="65.885 330.636 31.018 310.41 0.377 292.75"/><line class="cls-1" x1="19.54615" y1="98.03455" x2="67.24433" y2="125.65695"/><line class="cls-1" x1="97.73429" y1="312.22123" x2="149.35649" y2="282.48572"/><polyline class="cls-1" points="68.452 295.316 71.018 296.825 97.735 312.221"/><line class="cls-1" x1="186.9415" y1="259.39154" x2="185.58354" y2="258.63686"/><line class="cls-1" x1="106.03683" y1="119.46835" x2="68.45243" y2="141.20403"/><line class="cls-1" x1="106.03683" y1="114.33631" x2="68.45243" y2="136.07199"/><line class="cls-1" x1="186.79103" y1="382.10736" x2="186.79103" y2="376.22063"/><line class="cls-1" x1="188.60226" y1="382.10736" x2="188.60226" y2="376.22063"/><line class="cls-1" x1="186.79103" y1="370.3339" x2="186.79103" y2="364.44717"/><line class="cls-1" x1="188.60226" y1="370.3339" x2="188.60226" y2="364.44717"/><line class="cls-1" x1="186.79103" y1="223.31642" x2="186.79103" y2="217.42969"/><line class="cls-1" x1="188.60226" y1="223.31642" x2="188.60226" y2="217.42969"/><line class="cls-1" x1="186.79103" y1="211.54297" x2="186.79103" y2="205.65624"/><line class="cls-1" x1="188.60226" y1="211.54297" x2="188.60226" y2="205.65624"/><line class="cls-1" x1="340.60062" y1="293.50442" x2="340.45014" y2="293.65543"/><polyline class="cls-1" points="340.601 294.712 340.45 294.863 337.582 296.372"/><polyline class="cls-1" points="337.733 313.429 340.45 311.768 340.752 311.618"/><polyline class="cls-1" points="337.582 292.146 337.582 309.052 337.582 296.372"/><line class="cls-1" x1="337.5819" y1="309.0515" x2="337.5819" y2="313.27793"/><line class="cls-1" x1="340.60062" y1="134.8645" x2="340.45014" y2="135.01551"/><polyline class="cls-1" points="340.601 135.921 340.45 136.072 337.582 137.732"/><polyline class="cls-1" points="337.733 154.638 340.45 153.129 340.752 152.978"/><line class="cls-1" x1="337.5819" y1="133.50608" x2="337.5819" y2="154.63801"/><polyline class="cls-1" points="258.488 267.995 258.791 267.844 258.942 267.844"/><polyline class="cls-1" points="256.677 271.92 256.677 271.769 256.527 271.316"/><line class="cls-1" x1="302.86574" y1="266.33505" x2="302.86574" y2="265.88224"/><line class="cls-1" x1="303.46949" y1="261.65589" x2="303.62057" y2="261.35402"/><polyline class="cls-1" points="106.039 106.188 150.568 80.377 185.586 60.301"/><line class="cls-1" x1="68.45489" y1="298.33682" x2="68.45489" y2="295.31803"/><polyline class="cls-1" points="1.738 87.773 18.191 97.282 19.55 98.037"/><line class="cls-1" x1="149.35956" y1="282.48787" x2="155.69917" y2="278.86533"/><polyline class="cls-1" points="153.888 91.848 150.568 93.81 106.04 119.471"/><polyline class="cls-1" points="151.775 87.924 150.567 88.678 106.039 114.339"/><line class="cls-1" x1="68.44813" y1="295.31473" x2="68.44813" y2="293.95631"/><polyline class="cls-1" points="155.692 278.862 157.655 277.805 186.938 260.9"/><line class="cls-1" x1="68.4512" y1="293.95654" x2="68.4512" y2="290.93774"/><line class="cls-1" x1="68.4512" y1="290.93721" x2="68.4512" y2="141.20281"/><line class="cls-1" x1="68.4512" y1="141.20242" x2="68.4512" y2="126.41017"/><line class="cls-1" x1="68.4512" y1="251.993" x2="121.28089" y2="221.50274"/></svg>