<svg id="wardrobe_ex" data-name="wardrobe ex" xmlns="http://www.w3.org/2000/svg" viewBox="0 0 342.03 384.9"><defs><style>.cls-1{fill:none;stroke:#000;stroke-linecap:round;stroke-linejoin:round;stroke-width:0.3px;}</style></defs><line class="cls-1" x1="105.81" y1="12.68" x2="105.81" y2="27.32"/><line class="cls-1" x1="105.81" y1="105.96" x2="105.81" y2="114.11"/><line class="cls-1" x1="105.81" y1="119.24" x2="105.81" y2="213.88"/><line class="cls-1" x1="105.81" y1="12.68" x2="104.6" y2="11.92"/><polyline class="cls-1" points="19.32 97.81 19.32 62.64 17.96 61.89 17.96 97.06"/><line class="cls-1" x1="19.32" y1="62.64" x2="105.81" y2="12.68"/><line class="cls-1" x1="105.81" y1="213.88" x2="68.23" y2="235.62"/><line class="cls-1" x1="17.96" y1="61.89" x2="104.6" y2="11.92"/><line class="cls-1" x1="218.41" y1="242.26" x2="217.21" y2="243.02"/><line class="cls-1" x1="215.85" y1="242.26" x2="215.85" y2="40.91"/><polyline class="cls-1" points="217.21 243.02 217.21 241.51 215.85 242.26"/><line class="cls-1" x1="150.34" y1="204.38" x2="150.34" y2="93.58"/><line class="cls-1" x1="150.34" y1="88.45" x2="150.34" y2="80.15"/><line class="cls-1" x1="150.34" y1="35.32" x2="150.34" y2="3.02"/><line class="cls-1" x1="218.41" y1="38.04" x2="152.91" y2="0.15"/><polyline class="cls-1" points="217.21 243.02 215.85 242.26 150.34 204.38"/><polyline class="cls-1" points="152.91 0.15 151.7 0.91 151.7 2.26 150.34 3.02"/><polyline class="cls-1" points="215.85 40.91 217.21 40.15 217.21 38.64"/><line class="cls-1" x1="150.34" y1="3.02" x2="215.85" y2="40.91"/><line class="cls-1" x1="151.7" y1="2.26" x2="217.21" y2="40.15"/><polyline class="cls-1" points="151.7 0.91 217.21 38.64 218.41 38.04"/><polyline class="cls-1" points="98.87 110.04 98.87 108.53 97.51 109.28 97.51 107.77 186.72 56.3"/><polyline class="cls-1" points="32 69.89 32 71.4 97.51 109.28"/><line class="cls-1" x1="32" y1="69.89" x2="97.51" y2="107.77"/><line class="cls-1" x1="98.87" y1="110.04" x2="97.51" y2="109.28"/><line class="cls-1" x1="185.36" y1="58.57" x2="185.36" y2="60.07"/><polyline class="cls-1" points="186.72 56.3 186.72 57.81 185.36 58.57"/><polyline class="cls-1" points="93.74 351.69 91.77 352.9 30.79 317.58"/><polyline class="cls-1" points="93.74 344.45 91.77 345.51 65.66 330.41"/><line class="cls-1" x1="91.77" y1="352.9" x2="91.77" y2="345.51"/><line class="cls-1" x1="93.74" y1="351.69" x2="93.74" y2="344.45"/><line class="cls-1" x1="30.79" y1="317.58" x2="30.79" y2="310.19"/><line class="cls-1" x1="93.74" y1="344.45" x2="91.77" y2="343.24"/><polyline class="cls-1" points="179.62 292.53 181.58 293.73 93.74 344.45"/><polyline class="cls-1" points="181.58 293.73 181.58 300.98 93.74 351.69"/><line class="cls-1" x1="68.23" y1="298.11" x2="70.79" y2="296.6"/><line class="cls-1" x1="198.79" y1="301.43" x2="199.4" y2="301.73"/><polyline class="cls-1" points="107.77 354.71 107.77 361.96 199.4 309.13"/><line class="cls-1" x1="107.02" y1="361.66" x2="107.77" y2="361.96"/><polyline class="cls-1" points="198.79 301.43 107.02 354.26 107.77 354.71 199.4 301.73 199.4 309.13"/><line class="cls-1" x1="107.02" y1="354.26" x2="107.02" y2="361.66"/><line class="cls-1" x1="310.04" y1="126.19" x2="313.66" y2="126.64"/><polyline class="cls-1" points="220.98 180.53 220.98 384.75 266.56 358.49"/><line class="cls-1" x1="218.41" y1="383.39" x2="220.98" y2="384.75"/><line class="cls-1" x1="310.04" y1="126.19" x2="293.43" y2="161.96"/><line class="cls-1" x1="218.41" y1="179.02" x2="220.98" y2="180.53"/><polyline class="cls-1" points="296.9 162.56 313.66 126.64 313.66 331.02"/><polyline class="cls-1" points="266.56 358.49 266.56 154.26 220.98 180.53"/><polyline class="cls-1" points="296.9 162.56 296.9 366.79 313.66 331.02"/><polyline class="cls-1" points="293.43 161.96 293.43 366.34 296.9 366.79"/><line class="cls-1" x1="296.9" y1="162.56" x2="293.43" y2="161.96"/><polyline class="cls-1" points="266.56 154.26 264 152.75 218.41 179.02"/><line class="cls-1" x1="181.58" y1="300.98" x2="183.4" y2="299.92"/><line class="cls-1" x1="173.28" y1="296.3" x2="149.13" y2="282.26"/><polyline class="cls-1" points="181.58 293.73 183.4 292.53 157.43 277.58"/><line class="cls-1" x1="183.39" y1="299.92" x2="183.39" y2="292.53"/><polyline class="cls-1" points="67.02 329.66 65.66 330.41 65.66 126.19"/><line class="cls-1" x1="67.02" y1="328.3" x2="68.23" y2="327.54"/><polyline class="cls-1" points="0.15 292.53 0.15 88.3 65.66 126.19"/><line class="cls-1" x1="1.51" y1="87.55" x2="0.15" y2="88.3"/><polygon class="cls-1" points="68.23 126.19 67.02 126.94 67.02 125.43 68.23 126.19"/><line class="cls-1" x1="67.02" y1="125.43" x2="65.66" y2="126.19"/><polyline class="cls-1" points="185.36 258.41 98.87 308.37 98.87 309.88 97.51 310.64 97.51 312"/><line class="cls-1" x1="185.36" y1="258.41" x2="121.06" y2="221.28"/><line class="cls-1" x1="97.51" y1="310.64" x2="68.23" y2="293.73"/><line class="cls-1" x1="98.87" y1="308.37" x2="68.23" y2="290.71"/><line class="cls-1" x1="98.87" y1="309.88" x2="68.23" y2="292.22"/><line class="cls-1" x1="185.36" y1="259.92" x2="185.36" y2="258.41"/><polyline class="cls-1" points="186.72 260.68 186.72 259.17 185.36 259.92"/><line class="cls-1" x1="154.11" y1="90.72" x2="154.11" y2="91.17"/><polyline class="cls-1" points="153.66 91.62 153.96 91.47 154.11 91.17"/><polyline class="cls-1" points="154.11 90.26 153.96 89.66 153.81 89.21"/><line class="cls-1" x1="154.11" y1="90.26" x2="154.11" y2="90.72"/><line class="cls-1" x1="153.51" y1="88.6" x2="153.81" y2="89.21"/><line class="cls-1" x1="152.3" y1="87.7" x2="152.6" y2="87.85"/><line class="cls-1" x1="151.55" y1="87.7" x2="152.3" y2="87.7"/><polyline class="cls-1" points="152.6 87.85 153.06 88.3 153.51 88.6"/><line class="cls-1" x1="187.02" y1="376.45" x2="187.32" y2="376.45"/><line class="cls-1" x1="187.02" y1="370.56" x2="187.32" y2="370.56"/><line class="cls-1" x1="186.71" y1="376.3" x2="186.87" y2="376.3"/><line class="cls-1" x1="186.71" y1="370.41" x2="186.87" y2="370.41"/><line class="cls-1" x1="186.56" y1="376" x2="186.56" y2="370.11"/><line class="cls-1" x1="186.87" y1="376.3" x2="187.02" y2="376.45"/><line class="cls-1" x1="186.87" y1="370.41" x2="187.02" y2="370.56"/><line class="cls-1" x1="186.71" y1="376.15" x2="186.71" y2="376.3"/><line class="cls-1" x1="186.71" y1="370.26" x2="186.71" y2="370.41"/><line class="cls-1" x1="186.56" y1="376" x2="186.71" y2="376.15"/><line class="cls-1" x1="186.56" y1="370.11" x2="186.71" y2="370.26"/><line class="cls-1" x1="187.77" y1="370.56" x2="187.92" y2="370.56"/><line class="cls-1" x1="187.92" y1="376.45" x2="188.22" y2="376.3"/><polyline class="cls-1" points="188.38 376 188.38 376.15 188.22 376.3"/><line class="cls-1" x1="187.92" y1="376.45" x2="187.32" y2="376.45"/><line class="cls-1" x1="188.22" y1="376.3" x2="188.22" y2="376.15"/><line class="cls-1" x1="187.32" y1="370.56" x2="187.77" y2="370.56"/><polyline class="cls-1" points="187.92 370.56 188.22 370.41 188.38 370.26 188.38 370.11 188.38 376"/><line class="cls-1" x1="187.02" y1="382.34" x2="187.32" y2="382.34"/><polyline class="cls-1" points="186.71 382.03 186.87 382.19 187.02 382.34"/><line class="cls-1" x1="186.71" y1="382.03" x2="186.56" y2="381.88"/><line class="cls-1" x1="187.92" y1="382.34" x2="188.22" y2="382.19"/><polyline class="cls-1" points="188.38 381.88 188.38 382.03 188.22 382.03"/><line class="cls-1" x1="187.92" y1="382.34" x2="187.32" y2="382.34"/><line class="cls-1" x1="188.22" y1="382.19" x2="188.22" y2="382.03"/><line class="cls-1" x1="186.71" y1="363.92" x2="186.71" y2="364.07"/><line class="cls-1" x1="187.02" y1="364.68" x2="187.32" y2="364.68"/><line class="cls-1" x1="186.71" y1="364.52" x2="186.87" y2="364.52"/><line class="cls-1" x1="186.71" y1="364.07" x2="186.56" y2="364.22"/><line class="cls-1" x1="186.87" y1="363.77" x2="186.71" y2="363.92"/><line class="cls-1" x1="186.87" y1="364.52" x2="187.02" y2="364.68"/><polyline class="cls-1" points="186.87 363.77 187.32 363.77 187.47 363.62"/><polyline class="cls-1" points="186.71 364.52 186.71 364.37 186.56 364.22"/><line class="cls-1" x1="187.77" y1="364.68" x2="187.92" y2="364.68"/><line class="cls-1" x1="187.32" y1="364.68" x2="187.77" y2="364.68"/><polyline class="cls-1" points="187.92 364.68 188.22 364.52 188.38 364.37 188.38 364.07 188.22 363.92 188.22 363.77 187.77 363.77 187.47 363.62"/><line class="cls-1" x1="191.39" y1="362.56" x2="191.24" y2="362.41"/><line class="cls-1" x1="186.71" y1="364.07" x2="183.85" y2="362.41"/><line class="cls-1" x1="188.37" y1="364.07" x2="191.24" y2="362.41"/><line class="cls-1" x1="183.85" y1="362.41" x2="183.7" y2="362.56"/><line class="cls-1" x1="188.37" y1="364.22" x2="191.39" y2="362.56"/><line class="cls-1" x1="183.69" y1="362.56" x2="186.56" y2="364.22"/><line class="cls-1" x1="183.69" y1="379.47" x2="186.56" y2="381.13"/><line class="cls-1" x1="188.37" y1="381.13" x2="191.39" y2="379.47"/><line class="cls-1" x1="183.69" y1="362.56" x2="183.69" y2="379.47"/><line class="cls-1" x1="191.39" y1="362.56" x2="191.39" y2="379.47"/><line class="cls-1" x1="187.02" y1="217.66" x2="187.32" y2="217.81"/><line class="cls-1" x1="187.02" y1="211.77" x2="187.32" y2="211.92"/><line class="cls-1" x1="186.71" y1="217.51" x2="186.86" y2="217.66"/><line class="cls-1" x1="186.71" y1="211.62" x2="186.86" y2="211.77"/><line class="cls-1" x1="186.56" y1="217.21" x2="186.56" y2="211.32"/><line class="cls-1" x1="186.86" y1="217.66" x2="187.02" y2="217.66"/><line class="cls-1" x1="186.86" y1="211.77" x2="187.02" y2="211.77"/><line class="cls-1" x1="186.71" y1="217.36" x2="186.71" y2="217.51"/><line class="cls-1" x1="186.71" y1="211.47" x2="186.71" y2="211.62"/><line class="cls-1" x1="186.56" y1="217.21" x2="186.71" y2="217.36"/><line class="cls-1" x1="186.56" y1="211.32" x2="186.71" y2="211.47"/><line class="cls-1" x1="187.77" y1="211.92" x2="187.92" y2="211.77"/><line class="cls-1" x1="187.92" y1="217.66" x2="188.22" y2="217.66"/><polyline class="cls-1" points="188.37 217.21 188.37 217.36 188.22 217.51"/><polyline class="cls-1" points="187.92 217.66 187.77 217.81 187.32 217.81"/><line class="cls-1" x1="188.22" y1="217.66" x2="188.22" y2="217.51"/><line class="cls-1" x1="187.32" y1="211.92" x2="187.77" y2="211.92"/><polyline class="cls-1" points="187.92 211.77 188.22 211.77 188.22 211.62 188.37 211.47 188.37 211.32 188.37 217.21"/><line class="cls-1" x1="187.01" y1="223.55" x2="187.32" y2="223.7"/><polyline class="cls-1" points="186.71 223.39 186.86 223.54 187.01 223.54"/><polyline class="cls-1" points="186.71 223.39 186.71 223.24 186.56 223.09"/><line class="cls-1" x1="187.92" y1="223.55" x2="188.22" y2="223.55"/><polyline class="cls-1" points="188.37 223.09 188.37 223.24 188.22 223.39"/><polyline class="cls-1" points="187.92 223.54 187.77 223.7 187.32 223.7"/><line class="cls-1" x1="188.22" y1="223.55" x2="188.22" y2="223.39"/><line class="cls-1" x1="186.71" y1="205.28" x2="186.71" y2="205.13"/><line class="cls-1" x1="187.01" y1="205.88" x2="187.32" y2="206.04"/><line class="cls-1" x1="186.71" y1="205.73" x2="186.86" y2="205.88"/><polyline class="cls-1" points="186.56 205.43 186.71 205.28 186.86 205.13"/><line class="cls-1" x1="186.86" y1="205.88" x2="187.01" y2="205.88"/><polyline class="cls-1" points="186.86 205.13 187.01 204.98 187.47 204.98"/><polyline class="cls-1" points="186.71 205.73 186.71 205.58 186.56 205.43"/><line class="cls-1" x1="187.77" y1="206.04" x2="187.92" y2="205.88"/><line class="cls-1" x1="187.32" y1="206.04" x2="187.77" y2="206.04"/><polyline class="cls-1" points="187.92 205.88 188.22 205.88 188.22 205.73 188.37 205.58 188.37 205.28 188.22 205.28 188.22 205.13 187.92 204.98 187.47 204.98"/><line class="cls-1" x1="191.39" y1="203.77" x2="191.24" y2="203.77"/><line class="cls-1" x1="186.71" y1="205.28" x2="183.84" y2="203.77"/><line class="cls-1" x1="188.37" y1="205.28" x2="191.24" y2="203.77"/><line class="cls-1" x1="183.84" y1="203.77" x2="183.69" y2="203.77"/><line class="cls-1" x1="188.37" y1="205.58" x2="191.39" y2="203.77"/><line class="cls-1" x1="183.69" y1="203.77" x2="186.56" y2="205.58"/><line class="cls-1" x1="183.69" y1="220.68" x2="186.56" y2="222.49"/><line class="cls-1" x1="188.37" y1="222.49" x2="191.39" y2="220.68"/><line class="cls-1" x1="183.69" y1="203.77" x2="183.69" y2="220.68"/><line class="cls-1" x1="191.39" y1="203.77" x2="191.39" y2="220.68"/><line class="cls-1" x1="340.67" y1="305.96" x2="340.82" y2="305.96"/><line class="cls-1" x1="340.67" y1="300.07" x2="340.82" y2="300.07"/><line class="cls-1" x1="341.88" y1="305.66" x2="341.88" y2="305.51"/><line class="cls-1" x1="341.88" y1="299.92" x2="341.88" y2="299.77"/><line class="cls-1" x1="341.43" y1="305.96" x2="341.73" y2="305.81"/><line class="cls-1" x1="341.43" y1="300.07" x2="341.73" y2="299.92"/><line class="cls-1" x1="340.82" y1="305.96" x2="341.13" y2="305.96"/><line class="cls-1" x1="340.82" y1="300.07" x2="341.13" y2="300.07"/><line class="cls-1" x1="340.52" y1="305.96" x2="340.67" y2="305.96"/><line class="cls-1" x1="340.52" y1="300.07" x2="340.67" y2="300.07"/><line class="cls-1" x1="341.73" y1="305.81" x2="341.88" y2="305.66"/><line class="cls-1" x1="341.73" y1="299.92" x2="341.88" y2="299.92"/><line class="cls-1" x1="341.28" y1="305.96" x2="341.43" y2="305.96"/><line class="cls-1" x1="341.28" y1="300.07" x2="341.43" y2="300.07"/><line class="cls-1" x1="341.13" y1="305.96" x2="341.28" y2="305.96"/><line class="cls-1" x1="341.13" y1="300.07" x2="341.28" y2="300.07"/><line class="cls-1" x1="341.88" y1="305.66" x2="341.88" y2="305.51"/><polyline class="cls-1" points="341.88 299.77 341.88 299.62 341.88 305.51"/><line class="cls-1" x1="340.67" y1="311.85" x2="340.82" y2="311.85"/><line class="cls-1" x1="341.88" y1="311.54" x2="341.88" y2="311.39"/><line class="cls-1" x1="341.43" y1="311.85" x2="341.73" y2="311.7"/><line class="cls-1" x1="340.82" y1="311.85" x2="341.13" y2="311.85"/><line class="cls-1" x1="340.37" y1="311.7" x2="340.67" y2="311.85"/><line class="cls-1" x1="341.73" y1="311.7" x2="341.88" y2="311.54"/><line class="cls-1" x1="340.22" y1="311.54" x2="340.37" y2="311.7"/><line class="cls-1" x1="341.43" y1="311.85" x2="341.13" y2="311.85"/><line class="cls-1" x1="341.88" y1="311.54" x2="341.88" y2="305.51"/><line class="cls-1" x1="340.67" y1="294.19" x2="340.82" y2="294.19"/><line class="cls-1" x1="341.88" y1="294.04" x2="341.88" y2="293.88"/><line class="cls-1" x1="341.43" y1="294.19" x2="341.73" y2="294.04"/><line class="cls-1" x1="340.82" y1="294.19" x2="341.13" y2="294.19"/><line class="cls-1" x1="340.37" y1="294.04" x2="340.67" y2="294.19"/><line class="cls-1" x1="341.73" y1="294.04" x2="341.88" y2="294.04"/><polyline class="cls-1" points="340.37 294.04 340.22 294.04 340.22 293.88"/><polyline class="cls-1" points="340.22 294.64 340.22 293.73 340.22 293.88"/><line class="cls-1" x1="341.43" y1="294.19" x2="341.13" y2="294.19"/><line class="cls-1" x1="341.88" y1="293.58" x2="341.88" y2="293.43"/><line class="cls-1" x1="341.88" y1="293.88" x2="341.88" y2="293.58"/><polyline class="cls-1" points="341.88 293.43 341.73 293.28 341.28 293.28 341.13 293.13 340.82 293.28 340.37 293.28"/><line class="cls-1" x1="340.22" y1="293.43" x2="340.22" y2="293.73"/><line class="cls-1" x1="341.88" y1="299.62" x2="341.88" y2="293.73"/><polyline class="cls-1" points="337.5 291.92 337.35 291.92 340.22 293.58"/><line class="cls-1" x1="337.35" y1="296.15" x2="337.5" y2="296.3"/><line class="cls-1" x1="340.22" y1="293.43" x2="337.5" y2="291.92"/><line class="cls-1" x1="337.5" y1="296.3" x2="340.52" y2="294.49"/><line class="cls-1" x1="337.35" y1="308.83" x2="337.35" y2="308.68"/><polyline class="cls-1" points="337.35 313.05 337.5 313.2 337.5 296.3"/><line class="cls-1" x1="340.67" y1="147.17" x2="340.82" y2="147.32"/><line class="cls-1" x1="340.67" y1="141.28" x2="340.82" y2="141.43"/><line class="cls-1" x1="341.88" y1="147.02" x2="341.88" y2="146.87"/><line class="cls-1" x1="341.88" y1="141.13" x2="341.88" y2="140.98"/><line class="cls-1" x1="341.43" y1="147.17" x2="341.73" y2="147.17"/><line class="cls-1" x1="341.43" y1="141.28" x2="341.73" y2="141.28"/><line class="cls-1" x1="340.82" y1="147.32" x2="341.13" y2="147.32"/><line class="cls-1" x1="340.82" y1="141.43" x2="341.13" y2="141.43"/><line class="cls-1" x1="340.52" y1="147.17" x2="340.67" y2="147.17"/><line class="cls-1" x1="340.52" y1="141.28" x2="340.67" y2="141.28"/><line class="cls-1" x1="341.73" y1="147.17" x2="341.88" y2="147.02"/><line class="cls-1" x1="341.73" y1="141.28" x2="341.88" y2="141.13"/><line class="cls-1" x1="341.28" y1="147.32" x2="341.43" y2="147.17"/><line class="cls-1" x1="341.28" y1="141.43" x2="341.43" y2="141.28"/><line class="cls-1" x1="341.12" y1="147.32" x2="341.28" y2="147.32"/><line class="cls-1" x1="341.12" y1="141.43" x2="341.28" y2="141.43"/><line class="cls-1" x1="341.88" y1="146.87" x2="341.88" y2="146.72"/><polyline class="cls-1" points="341.88 140.98 341.88 140.83 341.88 146.72"/><line class="cls-1" x1="340.67" y1="153.06" x2="340.82" y2="153.06"/><line class="cls-1" x1="341.88" y1="152.9" x2="341.88" y2="152.75"/><line class="cls-1" x1="341.43" y1="153.06" x2="341.73" y2="153.06"/><line class="cls-1" x1="340.82" y1="153.06" x2="341.13" y2="153.21"/><line class="cls-1" x1="340.37" y1="153.06" x2="340.67" y2="153.06"/><line class="cls-1" x1="341.73" y1="153.06" x2="341.88" y2="152.9"/><line class="cls-1" x1="340.22" y1="152.9" x2="340.37" y2="153.06"/><polyline class="cls-1" points="341.43 153.06 341.28 153.06 341.13 153.21"/><line class="cls-1" x1="341.88" y1="152.75" x2="341.88" y2="146.72"/><line class="cls-1" x1="340.67" y1="135.4" x2="340.82" y2="135.55"/><line class="cls-1" x1="341.88" y1="135.24" x2="341.88" y2="135.09"/><line class="cls-1" x1="341.43" y1="135.4" x2="341.73" y2="135.4"/><line class="cls-1" x1="340.82" y1="135.55" x2="341.13" y2="135.55"/><line class="cls-1" x1="340.37" y1="135.4" x2="340.67" y2="135.4"/><line class="cls-1" x1="341.73" y1="135.4" x2="341.88" y2="135.24"/><polyline class="cls-1" points="340.37 135.4 340.22 135.24 340.22 135.09"/><polyline class="cls-1" points="340.22 135.85 340.22 134.94 340.22 135.09"/><polyline class="cls-1" points="341.43 135.4 341.28 135.55 341.13 135.55"/><line class="cls-1" x1="341.88" y1="134.79" x2="341.88" y2="134.64"/><path class="cls-1" d="M377.17,142.62v-.15c0-.55-.87-.45-1.21-.45l-.3.15" transform="translate(-35.29 -7.53)"/><line class="cls-1" x1="340.22" y1="134.79" x2="340.22" y2="134.94"/><line class="cls-1" x1="341.88" y1="140.83" x2="341.88" y2="134.94"/><polyline class="cls-1" points="337.5 133.13 337.35 133.28 340.22 134.79"/><line class="cls-1" x1="337.35" y1="137.51" x2="337.5" y2="137.51"/><line class="cls-1" x1="340.22" y1="134.79" x2="337.5" y2="133.13"/><line class="cls-1" x1="337.5" y1="137.51" x2="340.52" y2="135.85"/><line class="cls-1" x1="337.35" y1="150.19" x2="337.35" y2="150.04"/><polyline class="cls-1" points="337.35 154.41 337.5 154.41 337.5 137.51"/><line class="cls-1" x1="261.12" y1="268.68" x2="261.27" y2="269.13"/><line class="cls-1" x1="259.16" y1="267.47" x2="259.61" y2="267.62"/><polyline class="cls-1" points="260.52 268.22 260.82 268.38 259.61 267.62"/><line class="cls-1" x1="260.82" y1="268.37" x2="261.12" y2="268.68"/><line class="cls-1" x1="256.9" y1="269.28" x2="257.35" y2="268.68"/><line class="cls-1" x1="256.44" y1="270.49" x2="256.6" y2="269.88"/><line class="cls-1" x1="256.6" y1="272" x2="256.44" y2="271.7"/><line class="cls-1" x1="256.6" y1="269.88" x2="256.9" y2="269.28"/><polyline class="cls-1" points="258.25 267.77 257.8 268.07 257.35 268.68"/><line class="cls-1" x1="258.71" y1="267.62" x2="259.16" y2="267.47"/><line class="cls-1" x1="256.9" y1="272.3" x2="256.6" y2="272"/><line class="cls-1" x1="256.29" y1="271.09" x2="256.44" y2="270.49"/><polyline class="cls-1" points="261.27 270.19 261.43 269.58 261.27 269.13"/><line class="cls-1" x1="261.12" y1="270.94" x2="260.82" y2="271.54"/><line class="cls-1" x1="260.07" y1="272.6" x2="259.46" y2="272.9"/><line class="cls-1" x1="259.01" y1="273.21" x2="258.56" y2="273.21"/><polyline class="cls-1" points="256.9 272.3 258.11 273.05 257.8 272.75"/><line class="cls-1" x1="260.52" y1="272.15" x2="260.07" y2="272.6"/><line class="cls-1" x1="259.46" y1="272.9" x2="259.01" y2="273.21"/><line class="cls-1" x1="260.82" y1="271.54" x2="260.52" y2="272.15"/><line class="cls-1" x1="257.8" y1="272.75" x2="257.65" y2="272.3"/><line class="cls-1" x1="258.56" y1="273.21" x2="258.1" y2="273.05"/><line class="cls-1" x1="257.65" y1="272.3" x2="257.65" y2="271.85"/><line class="cls-1" x1="261.27" y1="270.19" x2="261.12" y2="270.94"/><polyline class="cls-1" points="258.1 269.88 257.8 270.64 257.65 271.24 257.65 271.85"/><line class="cls-1" x1="260.07" y1="268.37" x2="260.52" y2="268.22"/><line class="cls-1" x1="258.56" y1="269.43" x2="259.01" y2="268.83"/><line class="cls-1" x1="259.46" y1="268.53" x2="260.07" y2="268.38"/><line class="cls-1" x1="258.1" y1="269.88" x2="258.56" y2="269.43"/><line class="cls-1" x1="259.01" y1="268.83" x2="259.46" y2="268.53"/><line class="cls-1" x1="257.8" y1="267.17" x2="258.1" y2="267.32"/><path class="cls-1" d="M291.13,278.77l-.3-.3c-.63-1.25.52-3.29,1.81-3.62l.45-.15" transform="translate(-35.29 -7.53)"/><line class="cls-1" x1="258.56" y1="267.62" x2="258.1" y2="267.32"/><line class="cls-1" x1="256.44" y1="271.54" x2="255.84" y2="271.24"/><line class="cls-1" x1="305.65" y1="261.58" x2="305.65" y2="261.88"/><polyline class="cls-1" points="303.54 260.98 305.35 261.28 305.5 261.28 305.65 261.58"/><line class="cls-1" x1="302.78" y1="263.24" x2="302.93" y2="262.49"/><polyline class="cls-1" points="302.63 264.6 302.63 263.85 302.78 263.24"/><polyline class="cls-1" points="303.24 261.43 303.08 262.04 302.93 262.49"/><line class="cls-1" x1="303.39" y1="261.13" x2="303.54" y2="260.98"/><polyline class="cls-1" points="302.93 266.41 302.78 266.26 302.63 266.11"/><line class="cls-1" x1="302.63" y1="265.66" x2="302.63" y2="264.6"/><line class="cls-1" x1="305.65" y1="263.09" x2="305.65" y2="261.88"/><line class="cls-1" x1="305.65" y1="263.7" x2="305.5" y2="264.45"/><line class="cls-1" x1="305.2" y1="265.66" x2="305.05" y2="266.11"/><polyline class="cls-1" points="304.75 266.56 304.6 266.56 302.93 266.41"/><line class="cls-1" x1="304.44" y1="266.56" x2="304.44" y2="266.41"/><line class="cls-1" x1="305.35" y1="265.05" x2="305.2" y2="265.66"/><line class="cls-1" x1="305.05" y1="266.11" x2="304.75" y2="266.56"/><line class="cls-1" x1="305.5" y1="264.45" x2="305.35" y2="265.05"/><line class="cls-1" x1="304.44" y1="266.41" x2="304.29" y2="265.96"/><line class="cls-1" x1="304.59" y1="266.56" x2="304.44" y2="266.56"/><line class="cls-1" x1="304.29" y1="265.96" x2="304.29" y2="265.51"/><line class="cls-1" x1="305.65" y1="263.09" x2="305.65" y2="263.7"/><polyline class="cls-1" points="304.44 263.55 304.44 264.15 304.29 264.9 304.29 265.51"/><line class="cls-1" x1="305.2" y1="261.43" x2="305.35" y2="261.28"/><line class="cls-1" x1="304.59" y1="262.79" x2="304.75" y2="262.19"/><line class="cls-1" x1="305.05" y1="261.73" x2="305.2" y2="261.43"/><line class="cls-1" x1="304.44" y1="263.54" x2="304.59" y2="262.79"/><line class="cls-1" x1="304.75" y1="262.19" x2="305.05" y2="261.73"/><polyline class="cls-1" points="301.27 265.66 301.12 265.66 300.97 265.51 300.97 263.55 301.12 263.09 301.27 262.49 301.58 261.58 301.73 261.28 301.88 261.28 303.24 261.43"/><line class="cls-1" x1="302.63" y1="265.81" x2="301.27" y2="265.66"/><line class="cls-1" x1="218.41" y1="38.04" x2="218.41" y2="242.26"/><line class="cls-1" x1="98.87" y1="110.04" x2="105.81" y2="105.96"/><polyline class="cls-1" points="121.06 18.57 105.81 27.32 32 69.89"/><polyline class="cls-1" points="186.72 56.3 150.34 35.32 121.06 18.57"/><line class="cls-1" x1="91.77" y1="343.24" x2="67.02" y2="328.9"/><polyline class="cls-1" points="179.62 292.53 173.28 296.3 91.77 343.24"/><line class="cls-1" x1="218.41" y1="242.26" x2="218.41" y2="383.39"/><line class="cls-1" x1="179.62" y1="292.53" x2="155.47" y2="278.64"/><line class="cls-1" x1="68.23" y1="327.54" x2="68.23" y2="298.11"/><line class="cls-1" x1="67.02" y1="329.66" x2="67.02" y2="328.3"/><polyline class="cls-1" points="65.66 330.41 30.79 310.19 0.15 292.53"/><line class="cls-1" x1="19.32" y1="97.81" x2="67.02" y2="125.43"/><line class="cls-1" x1="97.51" y1="312" x2="149.13" y2="282.26"/><polyline class="cls-1" points="68.23 295.09 70.79 296.6 97.51 312"/><line class="cls-1" x1="186.72" y1="259.17" x2="185.36" y2="258.41"/><line class="cls-1" x1="105.81" y1="119.24" x2="68.23" y2="140.98"/><line class="cls-1" x1="105.81" y1="114.11" x2="68.23" y2="135.85"/><line class="cls-1" x1="186.57" y1="381.88" x2="186.57" y2="376"/><line class="cls-1" x1="188.38" y1="381.88" x2="188.38" y2="376"/><line class="cls-1" x1="186.57" y1="370.11" x2="186.57" y2="364.22"/><line class="cls-1" x1="188.38" y1="370.11" x2="188.38" y2="364.22"/><line class="cls-1" x1="186.57" y1="223.09" x2="186.57" y2="217.21"/><line class="cls-1" x1="188.38" y1="223.09" x2="188.38" y2="217.21"/><line class="cls-1" x1="186.57" y1="211.32" x2="186.57" y2="205.43"/><line class="cls-1" x1="188.38" y1="211.32" x2="188.38" y2="205.43"/><line class="cls-1" x1="340.38" y1="293.28" x2="340.23" y2="293.43"/><polyline class="cls-1" points="340.38 294.49 340.23 294.64 337.36 296.15"/><polyline class="cls-1" points="337.51 313.2 340.23 311.54 340.53 311.39"/><polyline class="cls-1" points="337.36 291.92 337.36 308.83 337.36 296.15"/><line class="cls-1" x1="337.36" y1="308.83" x2="337.36" y2="313.05"/><line class="cls-1" x1="340.38" y1="134.64" x2="340.23" y2="134.79"/><polyline class="cls-1" points="340.38 135.7 340.23 135.85 337.36 137.51"/><polyline class="cls-1" points="337.51 154.41 340.23 152.91 340.53 152.75"/><line class="cls-1" x1="337.36" y1="133.28" x2="337.36" y2="154.41"/><polyline class="cls-1" points="258.26 267.77 258.57 267.62 258.72 267.62"/><polyline class="cls-1" points="256.45 271.7 256.45 271.55 256.3 271.09"/><line class="cls-1" x1="302.64" y1="266.11" x2="302.64" y2="265.66"/><line class="cls-1" x1="303.25" y1="261.43" x2="303.4" y2="261.13"/><polyline class="cls-1" points="105.81 105.96 150.34 80.15 185.36 60.08"/><line class="cls-1" x1="68.23" y1="298.11" x2="68.23" y2="295.09"/><polyline class="cls-1" points="1.51 87.55 17.97 97.06 19.33 97.81"/><line class="cls-1" x1="149.14" y1="282.26" x2="155.48" y2="278.64"/><polyline class="cls-1" points="153.66 91.62 150.34 93.59 105.82 119.25"/><polyline class="cls-1" points="151.55 87.7 150.34 88.45 105.81 114.11"/><line class="cls-1" x1="68.22" y1="295.09" x2="68.22" y2="293.73"/><polyline class="cls-1" points="155.47 278.64 157.43 277.58 186.71 260.68"/><line class="cls-1" x1="68.23" y1="293.73" x2="68.23" y2="290.71"/><line class="cls-1" x1="68.23" y1="290.71" x2="68.23" y2="140.98"/><line class="cls-1" x1="68.23" y1="140.98" x2="68.23" y2="126.19"/><line class="cls-1" x1="68.23" y1="251.77" x2="121.06" y2="221.28"/></svg>